<?xml version="1.0" encoding="UTF-8" standalone="no"?>
<!-- Created with Inkscape (http://www.inkscape.org/) -->

<svg
   xmlns:dc="http://purl.org/dc/elements/1.1/"
   xmlns:cc="http://creativecommons.org/ns#"
   xmlns:rdf="http://www.w3.org/1999/02/22-rdf-syntax-ns#"
   xmlns:svg="http://www.w3.org/2000/svg"
   xmlns="http://www.w3.org/2000/svg"
   xmlns:xlink="http://www.w3.org/1999/xlink"
   xmlns:sodipodi="http://sodipodi.sourceforge.net/DTD/sodipodi-0.dtd"
   xmlns:inkscape="http://www.inkscape.org/namespaces/inkscape"
   id="svg2"
   version="1.1"
   inkscape:version="0.91 r13725"
   width="2481"
   height="3503"
   sodipodi:docname="Pepper-and-Carrot_by-David-Revoy_E16P04.svg">
  <metadata
     id="metadata8">
    <rdf:RDF>
      <cc:Work
         rdf:about="">
        <dc:format>image/svg+xml</dc:format>
        <dc:type
           rdf:resource="http://purl.org/dc/dcmitype/StillImage" />
        <dc:title />
      </cc:Work>
    </rdf:RDF>
  </metadata>
  <defs
     id="defs6" />
  <sodipodi:namedview
     pagecolor="#ffffff"
     bordercolor="#666666"
     borderopacity="1"
     objecttolerance="10"
     gridtolerance="10"
     guidetolerance="10"
     inkscape:pageopacity="0"
     inkscape:pageshadow="2"
     inkscape:window-width="1920"
     inkscape:window-height="1024"
     id="namedview4"
     showgrid="false"
     inkscape:zoom="0.30245748"
     inkscape:cx="1005.419"
     inkscape:cy="1467.3488"
     inkscape:window-x="-4"
     inkscape:window-y="-4"
     inkscape:window-maximized="1"
     inkscape:current-layer="layer1" />
  <g
     inkscape:groupmode="layer"
     id="layer2"
     inkscape:label="artwork"
     sodipodi:insensitive="true">
    <image
       sodipodi:absref="C:\Documents and Settings\Katerina\Plocha\Feferonka a Karotka\Episode 16\cs\..\gfx_Pepper-and-Carrot_by-David-Revoy_E16P04.png"
       xlink:href="..\gfx_Pepper-and-Carrot_by-David-Revoy_E16P04.png"
       width="2481"
       height="3503"
       id="image10"
       x="0"
       y="0" />
  </g>
  <g
     inkscape:groupmode="layer"
     id="layer3"
     inkscape:label="speechbubbles">
    <path
       style="fill:#ffffff;stroke:none"
       d="m 166.39322,265.82928 c 9.081,-58.82058 40.4515,-115.12036 229.5001,-122.68297 94.52434,-3.7813 276.72853,-5.38247 367.43903,22.09133 90.71053,27.47381 89.92736,84.02261 90.34013,106.29038 0.41277,22.26778 7.99418,77.46676 -85.17714,99.10547 -93.17131,21.63871 -287.09539,9.71717 -363.45783,10.55747 -152.7249,1.6806 -233.69103,-0.2414 -238.64429,-115.36168 z"
       id="path3270"
       inkscape:connector-curvature="0"
       sodipodi:nodetypes="csssssc" />
    <path
       style="color:#000000;display:inline;overflow:visible;visibility:visible;fill:#ffffff;fill-opacity:1;fill-rule:nonzero;stroke:none;stroke-width:1px;marker:none;enable-background:accumulate"
       d="m 363.71134,366.64953 c 34.43082,-28.87405 332.51481,-46.32967 411.46934,1.12297 65.90225,39.60806 40.18939,138.24624 -18.42021,160.96569 -58.6094,22.71952 -253.58161,20.08246 -339.03351,9.78205 -81.36197,-9.80745 -95.02401,-39.41003 -99.02612,-99.01463 -1.63341,-24.32695 10.57952,-43.98191 45.0105,-72.85608 z"
       id="path4040-4"
       inkscape:connector-curvature="0"
       sodipodi:nodetypes="zssssz" />
    <path
       style="color:#000000;display:inline;overflow:visible;visibility:visible;fill:#ffffff;fill-opacity:1;fill-rule:nonzero;stroke:none;stroke-width:1px;marker:none;enable-background:accumulate"
       d="M 548.56247,346.28345 C 818.67335,851.31918 962.4842,769.73858 1139.7545,716.83443 950.46167,803.3409 775.67489,874.14978 501.74228,369.42576 c -14.05374,-25.89419 46.82019,-23.14231 46.82019,-23.14231 z"
       id="path4008"
       inkscape:connector-curvature="0"
       sodipodi:nodetypes="ccsc" />
    <path
       style="color:#000000;display:inline;overflow:visible;visibility:visible;fill:#ffffff;fill-opacity:1;fill-rule:nonzero;stroke:none;stroke-width:1px;marker:none;enable-background:accumulate"
       d="m 769.07146,1052.9895 c -4.20492,-22.5296 7.0082,-82.37363 93.20948,-77.44528 86.20115,4.92828 100.21773,33.09018 102.32015,41.53878 2.10242,8.4486 20.32384,56.3239 -46.95514,68.9968 -67.27903,12.6728 -127.54978,-0.7041 -148.57449,-33.0903 z"
       id="path3525"
       inkscape:connector-curvature="0" />
    <path
       style="color:#000000;display:inline;overflow:visible;visibility:visible;fill:#ffffff;fill-opacity:1;fill-rule:nonzero;stroke:none;stroke-width:1px;marker:none;enable-background:accumulate"
       d="m 921.9303,1127.7684 c -4.7576,-28.4665 7.92931,-104.0808 105.4606,-97.8537 97.531,6.2271 113.3899,41.8102 115.7685,52.4852 2.3789,10.6749 22.9952,71.1664 -53.1266,87.1789 -76.1218,16.0123 -144.31439,-0.8897 -168.1025,-41.8104 z"
       id="path3525-0"
       inkscape:connector-curvature="0" />
    <path
       style="color:#000000;display:inline;overflow:visible;visibility:visible;fill:#ffffff;fill-opacity:1;fill-rule:nonzero;stroke:none;stroke-width:1px;marker:none;enable-background:accumulate"
       d="m 926.42022,1257.075 c 0.59322,-44.6301 21.44965,-93.7304 97.08088,-118.7096 75.6315,-24.9793 227.4649,-9.3804 254.6897,-2.8919 34.3869,8.1955 123.7985,36.2564 148.5278,70.4396 24.7295,34.183 32.65,77.03 22.1937,107.4417 -10.456,30.4114 -48.4593,59.7088 -80.7903,68.8562 -32.3309,9.1475 -231.4538,14.1158 -268.115,4.7936 -36.6611,-9.3221 -96.544,-14.4613 -127.14279,-38.0317 -31.02125,-23.8955 -47.03739,-47.2678 -46.44399,-91.8979 z"
       id="path3373"
       inkscape:connector-curvature="0"
       sodipodi:nodetypes="zsssssssz" />
    <path
       style="color:#000000;display:inline;overflow:visible;visibility:visible;fill:#ffffff;fill-opacity:1;fill-rule:nonzero;stroke:none;stroke-width:1px;marker:none;enable-background:accumulate"
       d="m 1353.1045,1486.1109 c -17.6743,6.4442 -35.9622,13.4942 -56.6916,8.7928 -5.9074,-1.4988 -12.0586,-3.5824 -17.8157,-7.536 -5.6534,-5.6714 -8.1342,-14.8796 -7.7374,-22.3553 -0.038,-11.0732 3.5645,-21.3765 -0.132,-33.3984 -2.8396,-8.7238 -9.889,-13.0983 -15.6943,-17.3851 -14.8818,-10.591 -30.3953,-18.9029 -44.5591,-32.1972 -16.4134,-13.8335 -33.2388,-29.725 -44.6315,-51.3879 -4.4162,-8.6329 -8.2604,-18.1551 -8.7808,-27.4678 -2.1762,-24.1255 6.2222,-46.2462 22.341,-52.6796 10.8776,-2.6518 26.1352,8.6451 30.8391,24.9803 2.5746,8.6101 0.6371,16.5032 -2.7594,21.9348 -4.4219,12.1322 -2.2192,29.1384 4.6177,43.565 5.515,11.975 19.9292,13.9114 28.768,21.8543 10.6917,14.3128 22.5926,18.8565 35.242,26.2872 5.7643,3.498 17.2268,13.0885 21.8547,19.5004 5.3367,10.6553 3.6397,23.8849 1.2988,32.7032 -2.2102,9.2491 -6.7566,13.924 -2.6636,25.5015 2.0954,8.2407 10.4347,11.3429 15.4067,14.2225 16.3541,6.7626 22.9447,11.3822 37.3062,7.063 1.3135,-0.5605 2.5522,-1.2752 3.7912,-1.9972 z"
       id="path4496"
       inkscape:connector-curvature="0"
       sodipodi:nodetypes="cccccccccccccccccccccc" />
    <path
       style="color:#000000;display:inline;overflow:visible;visibility:visible;fill:#ffffff;fill-opacity:1;fill-rule:nonzero;stroke:none;stroke-width:1px;marker:none;enable-background:accumulate"
       d="m 422.08247,1746.0159 c -6.14706,17.2923 -40.81727,18.7423 -53.58034,15.2274 25.72739,19.3446 24.83045,31.3636 -10.10009,33.2299 58.57911,34.864 10.70905,29.5883 1.267,38.4289 45.99546,12.0148 25.41663,26.9678 17.22785,41.8529 52.86722,0.5114 35.56619,24.372 37.79446,43.3755 4.48183,-8.9173 25.77394,-36.0655 27.05509,-5.8378 34.96861,-28.8388 77.08736,-47.4672 80.43171,3.0009 14.08944,-25.3892 28.13658,-36.1198 27.05509,-5.8379 34.90921,-39.3851 66.27998,-25.2082 97.83665,-14.0766 8.28821,-11.8875 9.25393,-30.1499 36.0682,-25.8702 -3.75968,-11.7826 5.29394,-19.8818 25.74001,-24.6915 -27.16958,-7.1175 -32.17685,-14.4589 18.27099,-22.3595 -38.38785,-0.7643 -74.18478,-2.33 -29.1475,-29.2734 -14.12943,-0.6522 -47.65304,21.8302 -32.02301,-43.9648 -24.29637,21.0634 -50.21846,32.6888 -82.72704,-11.4334 -15.38474,22.0425 -42.06918,32.9501 -53.67825,5.4172 -4.17251,11.7377 -21.47401,16.1521 -36.16175,16.6875 -5.67975,-4.6626 -11.53776,-10.9953 -17.65087,-19.2924 -9.99138,17.4216 -24.93736,29.1873 -53.6782,5.4173 z"
       id="path3549-3-7"
       inkscape:connector-curvature="0"
       sodipodi:nodetypes="cccccccccccccccccccc" />
    <path
       style="color:#000000;display:inline;overflow:visible;visibility:visible;fill:#ffffff;fill-opacity:1;fill-rule:nonzero;stroke:none;stroke-width:1px;marker:none;enable-background:accumulate"
       d="m 339.93752,1903.9162 c 17.45669,-14.7431 372.44259,-91.499 465.38393,-0.6858 58.66902,57.3256 24.65091,123.3638 -39.19514,145.2517 -63.84589,21.8879 -217.9916,53.13 -301.604,24.347 -102.47412,-35.2762 -141.0961,-31.9629 -152.09632,-90.4661 -5.38943,-28.6629 4.35125,-58.887 27.51153,-78.4468 z"
       id="path4040"
       inkscape:connector-curvature="0"
       sodipodi:nodetypes="ssssss" />
    <path
       style="fill:#ffffff;fill-rule:evenodd;stroke:none;stroke-width:1px;stroke-linecap:butt;stroke-linejoin:miter;stroke-opacity:1"
       d="m 1714.2654,2080.7017 c 84.2926,8.4181 101.7865,32.4194 119.9299,8.2333 13.6724,-32.3165 73.9597,-7.8033 80.1837,-16.9339 13.3752,-19.6213 -23.6159,-28.5877 -14.9153,-48.4748 8.7006,-19.887 29.8306,-43.5029 29.8306,-43.5029 l 16.1582,9.9435 c 0,0 -26.2419,26.5691 -24.999,37.7556 1.2429,11.1864 26.242,48.0074 3.869,56.708 -22.3729,8.7006 -76.8117,-7.6784 -88.6225,17.2796 -11.8107,24.9579 -83.1478,-13.4558 -121.4346,-21.0084 z"
       id="path4407"
       inkscape:connector-curvature="0"
       sodipodi:nodetypes="ccssccsszc" />
    <path
       style="color:#000000;display:inline;overflow:visible;visibility:visible;fill:#ffffff;fill-opacity:1;fill-rule:nonzero;stroke:none;stroke-width:1px;marker:none;enable-background:accumulate"
       d="m 666.6939,1912.014 c 38.36403,14.2827 84.86956,27.5154 96.07851,29.8219 -4.37169,-11.6312 -5.81209,-22.2337 -7.1164,-30.5082 20.64043,5.7806 115.57926,37.1569 135.10867,51.9928 -46.72733,-38.0638 -117.47092,-65.994 -151.73555,-73.3007 -0.59494,10.8648 0.83117,17.7165 0.34378,23.4081 -17.19324,-2.942 -71.86892,-22.6256 -71.86892,-22.6256 z"
       id="path5066"
       inkscape:connector-curvature="0"
       inkscape:transform-center-x="-112.42356"
       inkscape:transform-center-y="21.85935" />
    <path
       style="fill:#ffffff;stroke:none"
       d="m 371.20708,2363.1776 c 1.56368,-55.1279 60.92907,-63.2247 100.97884,-60.8217 33.29963,1.9981 161.35709,-11.9117 197.85157,38.4094 15.58365,21.4878 13.05898,77.5661 -8.60162,100.9098 -18.47137,19.9066 -52.04632,20.5191 -92.96372,26.7507 -50.80714,7.7377 -123.64083,-5.8877 -163.54586,-15.8346 -18.78444,-4.6823 -35.28297,-34.2859 -33.71921,-89.4136 z"
       id="path3100"
       inkscape:connector-curvature="0"
       sodipodi:nodetypes="zsssssz" />
    <path
       style="color:#000000;display:inline;overflow:visible;visibility:visible;fill:#ffffff;fill-opacity:1;fill-rule:nonzero;stroke:none;stroke-width:1px;marker:none;enable-background:accumulate"
       d="m 475.2266,2547.9667 c -3.17271,-112.5093 128.16646,-100.4504 221.66253,-109.2255 51.02585,-4.7891 236.20433,7.7475 253.80533,107.5635 10.13856,57.4969 -52.7263,106.5902 -77.63229,115.2235 -24.90582,8.6332 -145.25289,19.8298 -183.98884,17.199 -38.73577,-2.6308 -217.59797,20.414 -213.84673,-130.7605 z"
       id="path4974"
       inkscape:connector-curvature="0"
       sodipodi:nodetypes="cssssc" />
    <path
       style="fill:#ffffff;fill-rule:evenodd;stroke:none;stroke-width:1px;stroke-linecap:butt;stroke-linejoin:miter;stroke-opacity:1"
       d="m 1274.4309,3017.256 c -25.9077,-74.9353 -135.8732,-262.1385 -253.0276,-244.8772 -71.26976,10.5007 -133.5948,24.8303 -156.23535,-60.7422 -5.53435,-9.3115 -79.49392,-55.5178 -68.47418,-45.6614 73.55047,108.3097 57.38616,155.8485 221.82073,126.0514 132.8264,-23.6523 255.9164,225.2294 255.9164,225.2294 z"
       id="path4652"
       inkscape:connector-curvature="0"
       sodipodi:nodetypes="cscccc" />
    <path
       style="fill:#ffffff;stroke:none"
       d="m 674.2055,2679.5655 c 2.35343,-64.5735 91.70567,-74.0577 151.98559,-71.2429 50.12004,2.3405 242.86231,-13.9526 297.79101,44.9904 23.4554,25.1696 19.6554,90.8562 -12.9465,118.1996 -27.8016,23.3175 -78.336,24.0348 -139.92184,31.3342 -76.47102,9.0634 -186.09485,-6.8965 -246.15672,-18.5478 -28.27301,-5.4845 -53.10531,-40.1603 -50.75154,-104.7335 z"
       id="path3100-7"
       inkscape:connector-curvature="0"
       sodipodi:nodetypes="zsssssz" />
    <path
       style="color:#000000;display:inline;overflow:visible;visibility:visible;fill:#ffffff;fill-opacity:1;fill-rule:nonzero;stroke:none;stroke-width:1px;marker:none;enable-background:accumulate"
       d="m 501.39846,540.09731 c 32.14108,-24.99351 310.40171,-40.10316 384.10554,0.97204 61.51959,34.2849 37.5167,119.66652 -17.1952,139.33257 -54.71172,19.66611 -236.71778,17.38347 -316.48691,8.46738 -75.95118,-8.48937 -88.70467,-34.11348 -92.44063,-85.70747 -1.52478,-21.05751 9.87596,-38.07093 42.0172,-63.06452 z"
       id="path4040-4-3"
       inkscape:connector-curvature="0"
       sodipodi:nodetypes="zssssz" />
  </g>
  <g
     inkscape:groupmode="layer"
     id="layer1"
     inkscape:label="txt">
    <text
       xml:space="preserve"
       style="font-style:normal;font-variant:normal;font-weight:normal;font-stretch:normal;font-size:12px;line-height:125%;font-family:Lavi;-inkscape-font-specification:Lavi;text-align:center;letter-spacing:0px;word-spacing:0px;text-anchor:middle;fill:#000000;fill-opacity:1;stroke:none"
       x="515.20721"
       y="218.80753"
       id="text4246"
       sodipodi:linespacing="125%"><tspan
         sodipodi:role="line"
         style="font-size:45px"
         x="515.20721"
         y="218.80753"
         id="tspan3572">Už nejsme tak mladé, jako</tspan><tspan
         sodipodi:role="line"
         style="font-size:45px"
         x="523.11737"
         y="275.05753"
         id="tspan3576">jsme bývaly a nastal čas, </tspan><tspan
         sodipodi:role="line"
         style="font-size:45px"
         x="515.20721"
         y="331.30753"
         id="tspan3425">abyste se něco naučily.</tspan></text>
    <text
       xml:space="preserve"
       style="font-style:normal;font-variant:normal;font-weight:normal;font-stretch:normal;font-size:12px;line-height:125%;font-family:Lavi;-inkscape-font-specification:Lavi;text-align:center;letter-spacing:0px;word-spacing:0px;text-anchor:middle;fill:#000000;fill-opacity:1;stroke:none"
       x="560.0976"
       y="433.63156"
       id="text4246-9"
       sodipodi:linespacing="125%"><tspan
         sodipodi:role="line"
         style="font-size:45px"
         x="560.0976"
         y="433.63156"
         id="tspan3580">Navrhuji setkání s</tspan></text>
    <text
       xml:space="preserve"
       style="font-style:normal;font-variant:normal;font-weight:normal;font-stretch:normal;font-size:12px;line-height:125%;font-family:Lavi;-inkscape-font-specification:Lavi;text-align:center;letter-spacing:0px;word-spacing:0px;text-anchor:middle;fill:#000000;fill-opacity:1;stroke:none"
       x="865.90961"
       y="1049.8156"
       id="text4246-9-6"
       sodipodi:linespacing="125%"><tspan
         sodipodi:role="line"
         style="font-size:45px"
         x="865.90961"
         y="1049.8156"
         id="tspan4183-4">Ho ho!</tspan></text>
    <text
       xml:space="preserve"
       style="font-style:normal;font-variant:normal;font-weight:normal;font-stretch:normal;font-size:12px;line-height:125%;font-family:Lavi;-inkscape-font-specification:Lavi;text-align:center;letter-spacing:0px;word-spacing:0px;text-anchor:middle;fill:#000000;fill-opacity:1;stroke:none"
       x="1039.8502"
       y="1116.4899"
       id="text4246-9-6-2"
       sodipodi:linespacing="125%"><tspan
         sodipodi:role="line"
         style="font-size:45px"
         x="1039.8502"
         y="1116.4899"
         id="tspan4183-4-1">Mudrc?</tspan></text>
    <text
       xml:space="preserve"
       style="font-style:normal;font-variant:normal;font-weight:normal;font-stretch:normal;font-size:12px;line-height:125%;font-family:Lavi;-inkscape-font-specification:Lavi;text-align:center;letter-spacing:0px;word-spacing:0px;text-anchor:middle;fill:#000000;fill-opacity:1;stroke:none"
       x="1184.0806"
       y="1218.4452"
       id="text4246-9-6-2-4"
       sodipodi:linespacing="125%"><tspan
         sodipodi:role="line"
         style="font-size:45px"
         x="1191.9907"
         y="1218.4452"
         id="tspan4279">Nejsou ještě moc </tspan><tspan
         sodipodi:role="line"
         style="font-size:45px"
         x="1191.9907"
         y="1274.6952"
         id="tspan3439">mladé na to, aby jeho </tspan><tspan
         sodipodi:role="line"
         style="font-size:45px"
         x="1184.0806"
         y="1330.9452"
         id="tspan3593">lekci pochopily?</tspan></text>
    <text
       xml:space="preserve"
       style="font-style:normal;font-variant:normal;font-weight:normal;font-stretch:normal;font-size:12px;line-height:125%;font-family:Lavi;-inkscape-font-specification:Lavi;text-align:center;letter-spacing:0px;word-spacing:0px;text-anchor:middle;fill:#000000;fill-opacity:1;stroke:none"
       x="540.25098"
       y="1812.496"
       id="text4246-9-6-2-4-7"
       sodipodi:linespacing="125%"><tspan
         sodipodi:role="line"
         style="font-size:45px"
         x="540.25098"
         y="1812.496"
         id="tspan3401">Tak moc</tspan><tspan
         sodipodi:role="line"
         style="font-size:45px"
         x="540.25098"
         y="1868.746"
         id="tspan3455">mladé!?!</tspan></text>
    <text
       xml:space="preserve"
       style="font-style:normal;font-variant:normal;font-weight:normal;font-stretch:normal;font-size:15.14146233px;line-height:125%;font-family:Lavi;-inkscape-font-specification:Lavi;text-align:center;letter-spacing:0px;word-spacing:0px;text-anchor:middle;fill:#000000;fill-opacity:1;stroke:none"
       x="592.0083"
       y="1875.5066"
       id="text4246-9-6-2-4-7-3"
       sodipodi:linespacing="125%"
       transform="scale(0.96046588,1.0411614)"><tspan
         sodipodi:role="line"
         style="font-size:52.5px"
         x="592.0083"
         y="1875.5066"
         id="tspan3466">My za tím mudrcem</tspan><tspan
         sodipodi:role="line"
         style="font-size:56.78048325px"
         x="592.0083"
         y="1945.1151"
         id="tspan3470"><tspan
   style="font-size:52.5px"
   id="tspan3472">půjdeme</tspan>!</tspan></text>
    <path
       style="color:#000000;display:inline;overflow:visible;visibility:visible;fill:#ffffff;fill-opacity:1;fill-rule:nonzero;stroke:none;stroke-width:1px;marker:none;enable-background:accumulate"
       d="m 1859.9208,2026.0859 c -20.4432,-14.3102 -27.5983,-27.5982 -25.5539,-35.7755 2.0443,-8.1772 20.4431,-50.0857 42.9305,-55.1965 22.4875,-5.1108 80.7504,-11.2437 94.0385,-6.1329 13.2881,5.1107 51.1079,38.842 51.1079,56.2186 0,17.3767 -7.1551,51.1079 -27.5983,61.3294 -20.4431,10.2216 -110.393,16.3546 -134.9247,-20.4431 z"
       id="path3349"
       inkscape:connector-curvature="0" />
    <text
       xml:space="preserve"
       style="font-style:normal;font-variant:normal;font-weight:normal;font-stretch:normal;font-size:12px;line-height:125%;font-family:Lavi;-inkscape-font-specification:Lavi;text-align:center;letter-spacing:0px;word-spacing:0px;text-anchor:middle;fill:#000000;fill-opacity:1;stroke:none"
       x="1926.6875"
       y="2003.7067"
       id="text4246-9-6-2-4-7-38"
       sodipodi:linespacing="125%"><tspan
         sodipodi:role="line"
         style="font-size:45px"
         x="1926.6875"
         y="2003.7067"
         id="tspan4364-4">&quot;My&quot;?</tspan></text>
    <text
       xml:space="preserve"
       style="font-style:normal;font-variant:normal;font-weight:normal;font-stretch:normal;font-size:12px;line-height:125%;font-family:Lavi;-inkscape-font-specification:Lavi;text-align:center;letter-spacing:0px;word-spacing:0px;text-anchor:middle;fill:#000000;fill-opacity:1;stroke:none"
       x="527.52484"
       y="2364.4734"
       id="text4246-9-6-2-4-7-3-4-8-5"
       sodipodi:linespacing="125%"><tspan
         sodipodi:role="line"
         style="font-size:45px"
         x="535.435"
         y="2364.4734"
         id="tspan3604">Tak </tspan><tspan
         sodipodi:role="line"
         style="font-size:45px"
         x="527.52484"
         y="2420.7234"
         id="tspan3405">jsme tady.</tspan></text>
    <text
       xml:space="preserve"
       style="font-style:normal;font-variant:normal;font-weight:normal;font-stretch:normal;font-size:12px;line-height:125%;font-family:Lavi;-inkscape-font-specification:Lavi;text-align:center;letter-spacing:0px;word-spacing:0px;text-anchor:middle;fill:#000000;fill-opacity:1;stroke:none"
       x="709.08716"
       y="2450.3796"
       id="text4246-9-6-2-4-7-3-4-8-5-3"
       sodipodi:linespacing="125%"><tspan
         sodipodi:role="line"
         style="font-size:45px"
         x="709.08716"
         y="2450.3796"
         id="tspan4580-41" /><tspan
         sodipodi:role="line"
         style="font-size:45px"
         x="709.08716"
         y="2506.6296"
         id="tspan3613">Nechám vás,</tspan><tspan
         sodipodi:role="line"
         style="font-size:45px"
         x="709.08716"
         y="2562.8796"
         id="tspan3462">abyste se Mudrcovi</tspan><tspan
         sodipodi:role="line"
         style="font-size:45px"
         x="709.08716"
         y="2619.1296"
         id="tspan3464">mohly představit.</tspan><tspan
         sodipodi:role="line"
         style="font-size:45px"
         x="709.08716"
         y="2675.3796"
         id="tspan4251-3" /></text>
    <text
       xml:space="preserve"
       style="font-style:normal;font-variant:normal;font-weight:normal;font-stretch:normal;font-size:12px;line-height:125%;font-family:Lavi;-inkscape-font-specification:Lavi;text-align:center;letter-spacing:0px;word-spacing:0px;text-anchor:middle;fill:#000000;fill-opacity:1;stroke:none"
       x="914.03778"
       y="2691.9065"
       id="text4246-9-6-2-4-7-3-4-8-5-3-2"
       sodipodi:linespacing="125%"><tspan
         sodipodi:role="line"
         style="font-size:45px"
         x="921.94794"
         y="2691.9065"
         id="tspan3409">Najdete ho </tspan><tspan
         sodipodi:role="line"
         style="font-size:45px"
         x="914.03778"
         y="2748.1565"
         id="tspan3413">na vrcholu této hory.</tspan><tspan
         sodipodi:role="line"
         style="font-size:45px"
         x="914.03778"
         y="2804.4065"
         id="tspan4251-3-4" /></text>
    <path
       style="fill:#ffffff;fill-rule:evenodd;stroke:none"
       d="m 1613.7335,3119.4738 c 22.8206,65.5224 31.8525,60.4909 35.9109,30.0122 6.3221,11.0211 7.2917,43.3168 26.2711,4.027 11.0555,28.5744 20.3062,24.9438 28.0779,-5.0742 19.1482,54.1529 31.6312,22.9105 42.4229,10.8477 26.4688,30.3142 100.2553,35.0321 133.0701,-3.9544 6.6715,13.9277 16.1081,33.8757 22.6605,4.9428 9.376,12.1791 22.2364,-4.7723 37.4428,-41.3384 -2.2468,23.7947 -12.7577,64.3406 8.3073,40.8797 2.1911,17.0096 0.01,39.5072 44.8944,2.9427 -13.5301,48.4386 24.4752,-0.8275 61.293,-47.842 -23.346,41.0085 -55.1722,91.4525 -15.9749,75.0138 -22.3523,34.3511 -23.0916,57.2402 41.7043,45.3739 -42.4988,21.855 -74.9956,45.0556 -29.7053,78.7237 -28.4927,-0.9324 -35.5818,9.4602 -4.5197,40.039 -44.1713,-20.2556 -47.8454,-10.9393 -36.8203,9.1108 -9.0925,0.3254 -24.8974,-16.6353 -23.3281,11.1477 -24.685,-17.5396 -58.401,-55.3389 -55.2974,-10.5391 -25.4876,-34.414 -30.0625,-22.0955 -33.3018,-6.7926 -45.3675,-52.0175 -39.804,-20.9672 -48.7408,-13.5668 -13.065,-19.2382 -12.9264,-3.4666 -10.7397,17.7351 -12.4527,-22.4795 -23.8812,-31.1547 -32.6847,-4.4474 -7.8231,-12.368 -15.4325,-29.8866 -24.8459,-3.9334 -10.8113,-14.182 -22.3313,-19.8309 -36.9156,11.4096 -5.7987,-18.8971 -14.534,-32.508 -44.7036,-7.54 -5.1189,-40.5341 -30.7624,-34.0262 -63.0885,-12.2024 1.2831,-23.8104 -1.0521,-39.4578 -34.9684,16.147 7.2066,-24.3123 15.3887,-49.94 -4.8872,-37.1984 13.207,-46.5166 -34.066,-5.3246 -61.7614,7.476 31.861,-39.0106 78.3564,-86.403 41.441,-86.0215 25.7058,-27.001 28.5428,-40.5096 7.3702,-39.8521 1.8375,-8.3529 27.7594,-23.6559 -1.1838,-23.1263 15.4244,-11.3569 37.9256,-8.0504 32.6007,-62.3997 z"
       id="path4656"
       inkscape:connector-curvature="0"
       sodipodi:nodetypes="ccccccccccccccccccccccccccccccccc" />
    <path
       style="fill:#ffffff;fill-rule:evenodd;stroke:none;stroke-width:1px;stroke-linecap:butt;stroke-linejoin:miter;stroke-opacity:1"
       d="m 1395.9187,3167.1846 119.1853,69.1782 -1.1569,-33.8487 82.9076,45.0833 5.0953,-29.1891 -103.505,-45.5434 0.025,38.633 z"
       id="path4667"
       inkscape:connector-curvature="0"
       inkscape:transform-center-x="75.322047"
       inkscape:transform-center-y="-6.237049" />
    <text
       xml:space="preserve"
       style="font-style:normal;font-variant:normal;font-weight:normal;font-stretch:normal;font-size:12px;line-height:125%;font-family:Lavi;-inkscape-font-specification:Lavi;text-align:center;letter-spacing:0px;word-spacing:0px;text-anchor:middle;fill:#000000;fill-opacity:1;stroke:none"
       x="1801.1235"
       y="3238.427"
       id="text4246-9-6-2-4-7-3-4-8-5-9"
       sodipodi:linespacing="125%"><tspan
         sodipodi:role="line"
         style="font-size:45px"
         x="1801.1235"
         y="3238.427"
         id="tspan4445">Jste připravené</tspan></text>
    <text
       xml:space="preserve"
       style="font-style:normal;font-variant:normal;font-weight:normal;font-stretch:normal;font-size:10.62674809px;line-height:125%;font-family:Lavi;-inkscape-font-specification:Lavi;text-align:center;letter-spacing:0px;word-spacing:0px;text-anchor:middle;fill:#000000;fill-opacity:1;stroke:#000000;stroke-width:1.59401214;stroke-miterlimit:4;stroke-dasharray:none;stroke-opacity:1"
       x="2581.551"
       y="2951.2043"
       id="text4246-6-6-6-3-9"
       sodipodi:linespacing="125%"
       transform="matrix(0.89466356,0,-0.16927076,1.1177386,0,0)"><tspan
         sodipodi:role="line"
         style="font-size:53.13374329px;stroke:#000000;stroke-width:1.59401214;stroke-miterlimit:4;stroke-dasharray:none;stroke-opacity:1"
         x="2581.551"
         y="2951.2043"
         id="tspan4182-3-7">na pořádnou lekci?</tspan></text>
    <text
       xml:space="preserve"
       style="font-style:normal;font-variant:normal;font-weight:normal;font-stretch:normal;font-size:10.28139114px;line-height:125%;font-family:Lavi;-inkscape-font-specification:Lavi;text-align:center;letter-spacing:0px;word-spacing:0px;text-anchor:middle;fill:#000000;fill-opacity:1;stroke:#000000;stroke-width:1.54220855;stroke-miterlimit:4;stroke-dasharray:none;stroke-opacity:1"
       x="695.55621"
       y="463.8201"
       id="text4246-6-6-6-3-9-0"
       sodipodi:linespacing="125%"
       transform="matrix(0.92481111,0,-0.17497469,1.0813019,0,0)"><tspan
         sodipodi:role="line"
         style="font-size:51.40695572px;stroke:#000000;stroke-width:1.54220855;stroke-miterlimit:4;stroke-dasharray:none;stroke-opacity:1"
         x="695.55621"
         y="463.8201"
         id="tspan4182-3-7-6">Mudrcem hory.</tspan></text>
    <text
       xml:space="preserve"
       style="font-style:normal;font-variant:normal;font-weight:normal;font-stretch:normal;font-size:12px;line-height:125%;font-family:Lavi;-inkscape-font-specification:Lavi;text-align:center;letter-spacing:0px;word-spacing:0px;text-anchor:middle;fill:#000000;fill-opacity:1;stroke:none"
       x="684.43298"
       y="593.96454"
       id="text4246-9-9"
       sodipodi:linespacing="125%"><tspan
         sodipodi:role="line"
         style="font-size:45px"
         x="684.43298"
         y="593.96454"
         id="tspan3584">Jeho rada pro vás</tspan><tspan
         sodipodi:role="line"
         style="font-size:45px"
         x="684.43298"
         y="650.21454"
         id="tspan3435">bude klíčovou...</tspan></text>
  </g>
</svg>
