<?xml version="1.0" encoding="UTF-8" standalone="no"?>
<!-- Created with Inkscape (http://www.inkscape.org/) -->

<svg
   xmlns:dc="http://purl.org/dc/elements/1.1/"
   xmlns:cc="http://creativecommons.org/ns#"
   xmlns:rdf="http://www.w3.org/1999/02/22-rdf-syntax-ns#"
   xmlns:svg="http://www.w3.org/2000/svg"
   xmlns="http://www.w3.org/2000/svg"
   xmlns:xlink="http://www.w3.org/1999/xlink"
   xmlns:sodipodi="http://sodipodi.sourceforge.net/DTD/sodipodi-0.dtd"
   xmlns:inkscape="http://www.inkscape.org/namespaces/inkscape"
   id="svg2"
   version="1.1"
   inkscape:version="0.91 r13725"
   width="2481"
   height="3503"
   sodipodi:docname="Pepper-and-Carrot_by-David-Revoy_E16P05.svg">
  <metadata
     id="metadata8">
    <rdf:RDF>
      <cc:Work
         rdf:about="">
        <dc:format>image/svg+xml</dc:format>
        <dc:type
           rdf:resource="http://purl.org/dc/dcmitype/StillImage" />
        <dc:title />
      </cc:Work>
    </rdf:RDF>
  </metadata>
  <defs
     id="defs6">
    <filter
       style="color-interpolation-filters:sRGB"
       id="filter4375-4-1-1-1-9"
       inkscape:label="deevad outline effect">
      <feFlood
         id="feFlood4377-7-9-0-8-1"
         flood-opacity="1"
         flood-color="rgb(0,0,0)"
         result="flood" />
      <feComposite
         id="feComposite4379-3-8-8-2-77"
         in2="SourceGraphic"
         in="flood"
         operator="in"
         result="composite1" />
      <feMorphology
         id="feMorphology4393-1-0-49-8-9"
         operator="dilate"
         radius="1.3999999999999999"
         result="result3" />
      <feComposite
         id="feComposite4385-9-5-7-0-8"
         in2="result3"
         in="SourceGraphic"
         operator="over"
         result="composite2" />
    </filter>
    <filter
       style="color-interpolation-filters:sRGB"
       id="filter4375-4-1-1-1-9-9"
       inkscape:label="deevad outline effect">
      <feFlood
         id="feFlood4377-7-9-0-8-1-3"
         flood-opacity="1"
         flood-color="rgb(0,0,0)"
         result="flood" />
      <feComposite
         id="feComposite4379-3-8-8-2-77-0"
         in2="SourceGraphic"
         in="flood"
         operator="in"
         result="composite1" />
      <feMorphology
         id="feMorphology4393-1-0-49-8-9-9"
         operator="dilate"
         radius="1.3999999999999999"
         result="result3" />
      <feComposite
         id="feComposite4385-9-5-7-0-8-0"
         in2="result3"
         in="SourceGraphic"
         operator="over"
         result="composite2" />
    </filter>
  </defs>
  <sodipodi:namedview
     pagecolor="#ffffff"
     bordercolor="#666666"
     borderopacity="1"
     objecttolerance="10"
     gridtolerance="10"
     guidetolerance="10"
     inkscape:pageopacity="0"
     inkscape:pageshadow="2"
     inkscape:window-width="1920"
     inkscape:window-height="1024"
     id="namedview4"
     showgrid="false"
     inkscape:zoom="0.30245747"
     inkscape:cx="299.01591"
     inkscape:cy="1407.2133"
     inkscape:window-x="-4"
     inkscape:window-y="-4"
     inkscape:window-maximized="1"
     inkscape:current-layer="layer3" />
  <g
     inkscape:groupmode="layer"
     id="layer2"
     inkscape:label="artwork"
     sodipodi:insensitive="true">
    <image
       sodipodi:absref="C:\Documents and Settings\Katerina\Plocha\Feferonka a Karotka\Episode 16\cs\..\gfx_Pepper-and-Carrot_by-David-Revoy_E16P05.png"
       xlink:href="..\gfx_Pepper-and-Carrot_by-David-Revoy_E16P05.png"
       width="2481"
       height="3503"
       id="image10"
       x="0"
       y="0" />
  </g>
  <g
     inkscape:groupmode="layer"
     id="layer3"
     inkscape:label="speechbubbles"
     style="display:inline">
    <path
       style="color:#000000;display:inline;overflow:visible;visibility:visible;fill:#ffffff;fill-opacity:1;fill-rule:nonzero;stroke:none;stroke-width:1px;marker:none;enable-background:accumulate"
       d="m 199.29446,363.12229 c -3.01544,-9.36773 -11.96599,-55.51498 6.75497,-69.78614 18.72091,-14.27114 57.101,-22.98989 118.91778,-20.94069 61.81674,2.04919 101.8394,5.02049 122.69633,12.26584 20.85685,7.24533 37.41483,27.13597 38.92248,30.64888 3.01551,7.0258 19.12761,70.34581 -92.75394,71.66002 -97.29854,1.14291 -164.38308,3.08429 -194.53762,-23.84791 z"
       id="path3525"
       inkscape:connector-curvature="0"
       sodipodi:nodetypes="cssscsc" />
    <path
       style="color:#000000;display:inline;overflow:visible;visibility:visible;fill:#ffffff;fill-opacity:1;fill-rule:nonzero;stroke:none;stroke-width:1px;marker:none;enable-background:accumulate"
       d="m 1448.6174,401.33907 c 35.9433,-26.38695 203.9516,-18.62682 225.8604,3.14055 21.9088,21.76738 50.3293,70.56492 17.578,86.10607 -32.7515,15.54111 -229.5836,14.42157 -249.2976,-11.30187 -19.714,-25.72349 -30.0842,-51.55786 5.8592,-77.94475 z"
       id="path4008-8"
       inkscape:connector-curvature="0"
       sodipodi:nodetypes="zsssz" />
    <path
       style="color:#000000;display:inline;overflow:visible;visibility:visible;fill:#ffffff;fill-opacity:1;fill-rule:nonzero;stroke:none;stroke-width:1px;marker:none;enable-background:accumulate"
       d="m 1574.9826,472.92706 c -17.2236,21.55653 -27.0013,47.84376 -30.7097,54.7077 9.0582,0.57554 24.0252,6.05945 30.1356,7.68732 -7.9164,12.17468 -41.5695,61.31913 -55.7032,69.99973 35.6374,-19.992 75.7084,-62.50212 87.2261,-83.40695 -7.5963,-3.69432 -21.952,-5.88957 -25.8988,-7.94337 5.2655,-10.70917 31.3874,-37.31145 31.3874,-37.31145 z"
       id="path5066-7"
       inkscape:connector-curvature="0"
       sodipodi:nodetypes="cccccccc" />
    <path
       style="color:#000000;display:inline;overflow:visible;visibility:visible;fill:#ffffff;fill-opacity:1;fill-rule:nonzero;stroke:none;stroke-width:1px;marker:none;enable-background:accumulate"
       d="m 1653.4223,638.78217 c -4.3123,-22.84728 41.0314,-147.89859 220.3809,-144.91368 179.3495,2.98494 219.7212,88.13977 220.1082,118.97495 0.3871,30.835 -40.6206,81.51682 -66.4833,91.02709 -25.8623,9.51025 -93.49,32.72037 -137.7349,29.61857 -44.2448,-3.1021 -180.6443,-24.49842 -208.634,-50.33192 -27.9896,-25.83334 -24.3417,-38.4313 -27.6369,-44.37501 z"
       id="path3365"
       inkscape:connector-curvature="0" />
    <path
       style="fill:#ffffff;fill-rule:evenodd;stroke:none;stroke-width:1px;stroke-linecap:butt;stroke-linejoin:miter;stroke-opacity:1"
       d="m 1762.8157,816.08406 c -42.1519,-45.39439 -40.773,-120.33594 7.5658,-129.69827 20.5355,-23.77802 73.5214,-107.585 -23.6983,-32.34693 -18.5773,14.37686 -68.2811,101.3158 16.1325,162.0452 z"
       id="path4278"
       inkscape:connector-curvature="0"
       sodipodi:nodetypes="ccsc" />
    <path
       style="fill:#ffffff;fill-rule:evenodd;stroke:none;stroke-width:1px;stroke-linecap:butt;stroke-linejoin:miter;stroke-opacity:1"
       d="m 516.06668,1322.7543 c 32.15805,12.9951 33.92673,24.1591 4.00778,33.4136 31.34309,3.909 31.58453,29.5808 -3.06028,34.1808 73.88126,30.3422 58.08726,64.7746 41.57598,86.8037 40.39759,-19.8815 44.92294,5.6402 57.30425,21.2187 5.63677,-35.7431 12.57537,-14.4435 19.87727,22.7729 4.79948,-45.7928 11.01057,-50.3223 18.50896,-17.2236 6.0454,-29.4319 16.56254,-41.9863 32.21963,-35.1412 25.03205,-30.3949 39.22871,3.8394 56.92754,17.1843 3.76793,-30.388 16.36352,-33.211 31.77354,-27.2457 5.82621,-13.5024 9.48916,-32.4105 30.26428,-8.5596 2.14373,-24.9405 12.92056,-9.1714 21.04447,-5.9125 -10.6168,-12.3202 5.42517,-18.7274 52.13154,-18.3328 -18.43278,-4.4651 -17.84952,-14.1814 5.17733,-30.0957 -27.88771,-8.6525 -28.88795,-23.6883 -15.76316,-42.0776 -32.65843,-19.431 3.97909,-60.8314 17.3683,-86.679 -29.77435,16.4874 -51.47956,16.2098 -59.52097,-13.8337 -44.87405,34.999 -47.14785,16.9306 -43.68774,2.9981 -41.53923,40.8417 -53.04896,23.9973 -48.97173,12.0631 -74.67014,38.8768 -67.96184,11.7833 -86.35003,-8.2086 -2.7134,49.168 -21.08374,33.3042 -39.51875,17.1715 3.8919,40.5787 -7.27758,30.3877 -18.1322,21.258 0.12488,17.7563 -9.39227,24.466 -31.90991,16.2814 16.56656,11.9104 7.24573,15.9187 -41.2661,7.9639 z"
       id="path4289"
       inkscape:connector-curvature="0"
       sodipodi:nodetypes="cccccccccccccccccccccccc" />
    <path
       style="fill:#ffffff;stroke:none"
       d="m 766.56377,3188.1927 c -80.05798,-9.6516 -98.33119,-29.8794 -115.90541,-70.464 -10.64824,-24.5903 -13.86482,-40.3391 -13.86482,-40.3391 l -19.96131,19.8685 10.19515,28.2975 c 0,0 16.57734,75.9557 139.53639,62.6371 z"
       id="path3063"
       inkscape:connector-curvature="0"
       sodipodi:nodetypes="cscccc" />
    <path
       style="fill:#ffffff;fill-rule:evenodd;stroke:none;stroke-width:1px;stroke-linecap:butt;stroke-linejoin:miter;stroke-opacity:1"
       d="m 1925.9817,3137.7406 c 52.218,55.4321 81.3447,51.7137 76.8208,-52.534 23.6083,76.227 39.9913,93.2752 49.7076,55.7177 12.6721,37.6098 45.1288,24.8463 66.2769,0 5.7768,29.8713 18.1655,17.8172 28.887,16.3335 3.5313,6.7582 -8.597,23.5485 40.4022,1.1778 3.1739,8.9452 7.4496,16.6485 36.1508,-3.1838 7.4357,36.3074 31.2926,-2.0123 55.7328,-42.9823 -15.2268,50.3692 -8.9127,57.4836 10.5442,38.2064 -8.8955,20.7426 -14.2161,36.7995 19.5818,1.592 -11.5708,38.2864 6.1812,25.7717 60.5809,-23.0233 -37.1132,39.9593 -82.3015,89.1967 -39.4929,83.5169 -5.9699,11.983 -27.2644,22.4235 36.1509,41.3903 -11.8387,8.1314 -47.9821,-3.7511 -17.832,30.6775 4.0394,4.0246 -9.4837,6.4822 16.3257,17.0804 -15.2356,-0.7209 -24.5792,1.8549 -10.544,17.5113 -27.8108,-0.8465 -17.4051,15.6165 3.0127,36.6146 -40.274,-26.9346 -42.4904,-17.1454 -43.6826,-6.3677 -66.8759,-55.5284 -58.1514,-16.7219 -60.2515,-3.6684 -37.4897,-26.5918 -62.6427,-30.4993 -73.8083,22.7716 -20.4488,-46.1208 -27.5566,-57.1611 -73.8082,-27.0629 23.9065,-32.4038 -10.1035,-11.7593 -36.151,1.592 14.264,-40.4807 -21.936,-13.9134 -67.783,25.4709 25.6741,-44.7018 -3.4857,-28.5544 -46.695,3.1839 16.3257,-43.9151 4.2597,-56.3062 -59.2862,-58.0144 30.4151,-15.8408 33.6293,-44.6228 2.0472,-80.4841 35.6019,10.5596 46.2215,0.7513 21.0882,-38.2063 38.8321,31.976 21.1765,-14.4038 6.025,-57.3096 z"
       id="path4508"
       inkscape:connector-curvature="0"
       sodipodi:nodetypes="cccccccccccccccccccccccccccc" />
    <path
       style="color:#000000;display:inline;overflow:visible;visibility:visible;fill:#ffffff;fill-opacity:1;fill-rule:nonzero;stroke:none;stroke-width:1px;marker:none;enable-background:accumulate"
       d="m 1638.2464,3206.3732 c 54.3411,-2.252 78.9432,-21.3974 91.1531,-28.5238 -3.5763,-9.5 -8.9675,-20.9727 -16.552,-26.785 20.8008,7.2521 55.8636,23.6082 121.7894,43.5991 32.6654,-12.3283 7.4804,-48.4084 -7.6424,-88.7038 l -15.9649,32.0974 -44.6533,5.3405 c 0,0 -68.7398,-11.0844 -83.8186,-15.3403 11.3058,16.2359 22.1359,39.4549 23.6147,45.4861 -11.5248,13.7548 -40.7764,18.4153 -67.926,32.8298 z"
       id="path5162"
       inkscape:connector-curvature="0"
       sodipodi:nodetypes="cccccccccc" />
    <path
       style="fill:#ffffff;fill-rule:evenodd;stroke:none;stroke-width:1px;stroke-linecap:butt;stroke-linejoin:miter;stroke-opacity:1"
       d="m 211.80664,2958.1831 c 50.11103,4.2428 123.49003,-15.8242 82.97735,-79.7025 78.6354,45.2591 143.10842,37.358 271.02096,-33.7078 -10.62954,99.018 46.54086,89.7669 98.08108,70.7565 -49.46417,33.3203 39.32604,52.4139 87.0873,54.2856 -101.03427,72.0693 -47.98004,94.9897 -8.16912,122.1342 -99.29271,-20.0831 -75.27849,20.6088 -87.13805,43.6193 -85.17818,-52.1359 -147.12273,-39.7622 -196.06066,8.724 -25.59515,-26.3682 -33.6292,-80.8664 -127.98403,2.9078 34.69663,-72.3212 -10.78285,-64.7302 -84.41498,-29.0795 11.53984,-24.6335 80.12581,-62.0924 -35.39985,-58.1592 72.15957,-23.4181 87.29173,-55.1406 0,-101.7784 z"
       id="path4584"
       inkscape:connector-curvature="0"
       sodipodi:nodetypes="cccccccccccc" />
    <path
       style="fill:#ffffff;fill-rule:evenodd;stroke:none;stroke-width:1px;stroke-linecap:butt;stroke-linejoin:miter;stroke-opacity:1"
       d="m 1782.1108,2969.434 c 47.5089,11.6237 90.4537,18.8504 75.8533,-29.3605 84.0937,65.4534 72.0306,20.6267 85.3349,4.8934 49.9967,46.2361 93.0148,39.6471 130.3726,-9.7868 21.1188,71.306 65.3121,36.7578 104.298,26.0983 -0.096,20.0523 -10.7397,43.0459 104.2982,30.9916 -32.8923,18.1108 -45.1614,34.5519 28.4449,44.0409 -51.1301,14.5616 -79.2101,30.0563 -23.7041,48.9344 -29.4871,27.5008 -9.765,43.8445 30.8153,55.4588 -95.0154,1.6084 -72.1334,16.7381 -56.8898,30.9917 -80.8956,-29.3054 -92.2139,-17.5726 -85.3348,4.8935 -37.6521,-12.8877 -65.4821,-43.3487 -132.7431,-3.2623 -20.0042,-13.304 -38.4436,-30.1072 -82.9643,11.418 -3.1406,-36.2214 -35.6909,-34.8587 -82.9645,-14.6802 -12.4688,-33.969 -59.2889,-16.7219 -109.039,4.8934 40.6074,-33.1543 43.55,-60.8522 -35.5562,-76.6638 76.6605,-18.9667 62.7013,-34.2654 33.1858,-48.9342 29.1603,-13.7939 48.1732,-28.82 -28.4449,-55.4589 44.7967,4.1413 92.4949,9.4807 45.0377,-24.4673 z"
       id="path4582"
       inkscape:connector-curvature="0"
       sodipodi:nodetypes="ccccccccccccccccccc" />
    <path
       style="color:#000000;display:inline;overflow:visible;visibility:visible;fill:#ffffff;fill-opacity:1;fill-rule:nonzero;stroke:none;stroke-width:1px;marker:none;enable-background:accumulate"
       d="m 1836.0133,3160.6869 c 4.0673,-58.0816 32.5373,-124.1352 246.7405,-104.7747 214.203,19.3606 204.7133,33.0268 203.3575,110.469 -1.3556,77.4423 -97.6115,91.1084 -227.7605,71.7479 -130.1488,-19.3605 -218.2702,6.8331 -222.3375,-77.4422 z"
       id="path5026"
       inkscape:connector-curvature="0" />
  </g>
  <g
     inkscape:groupmode="layer"
     id="layer1"
     inkscape:label="txt">
    <path
       style="color:#000000;display:inline;overflow:visible;visibility:visible;fill:#ffffff;fill-opacity:1;fill-rule:nonzero;stroke:none;stroke-width:1px;marker:none;enable-background:accumulate"
       d="m 2161.1513,2018.3364 c 4.1786,-4.0098 -51.4117,-57.9648 -51.4117,-57.9648 0,0 -1.134,-22.9912 -2.2528,-27.937 -12.2737,-9.2903 -31.5157,-17.9125 -31.5157,-17.9125 l 16.4004,-57.8785 4.2148,41.1034 35.6867,4.8795 8.9531,39.5666 39.3388,41.9422 z"
       id="path4448"
       inkscape:connector-curvature="0"
       sodipodi:nodetypes="cccccccccc" />
    <path
       style="color:#000000;display:inline;overflow:visible;visibility:visible;fill:#ffffff;fill-opacity:1;fill-rule:nonzero;stroke:none;stroke-width:1px;marker:none;enable-background:accumulate"
       d="m 2057.3098,1929.0076 c -6.5254,20.6285 -43.3294,22.3583 -56.878,18.1652 27.3108,23.0767 26.3587,37.4147 -10.7217,39.6409 62.1845,41.5904 11.3681,35.2968 1.345,45.843 48.8263,14.3329 26.9809,32.1707 18.2881,49.9278 56.1211,0.6099 37.7552,29.0741 40.1206,51.7439 4.7577,-10.6377 27.3603,-43.0236 28.7203,-6.9641 37.1208,-34.4027 81.8319,-56.6251 85.3821,3.5798 14.9565,-30.2875 29.8683,-43.0881 28.7203,-6.9641 37.0577,-46.9839 70.3592,-30.0719 103.8582,-16.7925 8.7983,-14.1808 9.8234,-35.9667 38.288,-30.8613 -3.991,-14.0558 5.6198,-23.7176 27.3243,-29.4553 -28.8418,-8.4906 -34.1572,-17.2486 19.3955,-26.6735 -40.7506,-0.9116 -78.7506,-2.7794 -30.9414,-34.921 -14.9991,-0.7778 -50.586,26.0421 -33.994,-52.4468 -25.7918,25.127 -53.3092,38.9954 -87.8187,-13.6394 -16.3315,26.2953 -44.6584,39.3073 -56.9819,6.4624 -4.4294,14.0023 -22.7957,19.2684 -38.3875,19.907 -6.0293,-5.562 -12.2479,-13.1166 -18.7373,-23.0143 -10.6063,20.7826 -26.4721,34.8183 -56.9819,6.4623 z"
       id="path3549-3-7"
       inkscape:connector-curvature="0"
       sodipodi:nodetypes="cccccccccccccccccccc" />
    <text
       xml:space="preserve"
       style="font-style:normal;font-variant:normal;font-weight:normal;font-stretch:normal;font-size:12px;line-height:125%;font-family:Lavi;-inkscape-font-specification:Lavi;text-align:center;letter-spacing:0px;word-spacing:0px;text-anchor:middle;fill:#000000;fill-opacity:1;stroke:none"
       x="343.23199"
       y="344.86267"
       id="text4246"
       sodipodi:linespacing="125%"><tspan
         sodipodi:role="line"
         style="font-size:45px"
         x="343.23199"
         y="344.86267"
         id="tspan4167">Připravená!</tspan></text>
    <text
       xml:space="preserve"
       style="font-style:normal;font-variant:normal;font-weight:normal;font-stretch:normal;font-size:12px;line-height:125%;font-family:Lavi;-inkscape-font-specification:Lavi;text-align:center;letter-spacing:0px;word-spacing:0px;text-anchor:middle;fill:#000000;fill-opacity:1;stroke:none"
       x="1572.8054"
       y="459.81094"
       id="text4246-6"
       sodipodi:linespacing="125%"><tspan
         sodipodi:role="line"
         style="font-size:45px"
         x="1572.8054"
         y="459.81094"
         id="tspan4173">Já taky!</tspan></text>
    <text
       xml:space="preserve"
       style="font-style:normal;font-variant:normal;font-weight:normal;font-stretch:normal;font-size:12px;line-height:125%;font-family:Lavi;-inkscape-font-specification:Lavi;text-align:center;letter-spacing:0px;word-spacing:0px;text-anchor:middle;fill:#000000;fill-opacity:1;stroke:none"
       x="1873.1195"
       y="561.04291"
       id="text4246-6-6"
       sodipodi:linespacing="125%"><tspan
         sodipodi:role="line"
         style="font-size:45px"
         x="1873.1195"
         y="561.04291"
         id="tspan4476">Výborně!</tspan><tspan
         sodipodi:role="line"
         style="font-size:45px"
         x="1881.0297"
         y="617.29291"
         id="tspan3389">Tomu říkám </tspan><tspan
         sodipodi:role="line"
         style="font-size:45px"
         x="1873.1195"
         y="673.54291"
         id="tspan3393">správný přístup!</tspan></text>
    <path
       style="color:#000000;display:inline;overflow:visible;visibility:visible;fill:#ffffff;fill-opacity:1;fill-rule:nonzero;stroke:none;stroke-width:1px;marker:none;enable-background:accumulate"
       d="m 402.77879,347.50484 c 22.15612,15.10333 46.34463,36.52674 51.59716,42.36413 -9.06843,5.91442 -16.48478,13.03038 -22.33305,18.46202 10.67512,9.57878 62.90829,49.98418 79.13553,51.89842 -40.50503,-2.62141 -92.4131,-33.57964 -108.63684,-51.22873 6.9082,-8.69591 11.86637,-14.03973 15.42652,-18.71416 -7.66687,-9.40888 -28.79378,-26.04257 -28.79378,-26.04257 z"
       id="path5066"
       inkscape:connector-curvature="0"
       sodipodi:nodetypes="cccccccc" />
    <text
       xml:space="preserve"
       style="font-style:normal;font-variant:normal;font-weight:normal;font-stretch:normal;font-size:14.61915112px;line-height:125%;font-family:Lavi;-inkscape-font-specification:Lavi;text-align:center;letter-spacing:0px;word-spacing:0px;text-anchor:middle;fill:#000000;fill-opacity:1;stroke:#000000;stroke-width:3.50057316;stroke-miterlimit:4;stroke-dasharray:none;stroke-opacity:1"
       x="2721.9497"
       y="3000.0098"
       id="text4246-6-6-6-2"
       sodipodi:linespacing="125%"
       transform="matrix(0.91306665,0,-0.10964797,1.0952103,0,0)"><tspan
         sodipodi:role="line"
         style="font-size:54.82181931px;stroke:#000000;stroke-width:3.50057316;stroke-miterlimit:4;stroke-dasharray:none;stroke-opacity:1"
         x="2721.9497"
         y="3000.0098"
         id="tspan4204-9-4"><tspan
           style="font-size:73.09576416px;stroke-width:3.50057316;stroke-miterlimit:4;stroke-dasharray:none"
           id="tspan4401-4">ÚTOK !!!</tspan></tspan></text>
    <text
       xml:space="preserve"
       style="font-style:normal;font-variant:normal;font-weight:normal;font-stretch:normal;font-size:15.09734917px;line-height:125%;font-family:Lavi;-inkscape-font-specification:Lavi;text-align:center;letter-spacing:0px;word-spacing:0px;text-anchor:middle;fill:#000000;fill-opacity:1;stroke:#000000;stroke-width:2.26460218;stroke-miterlimit:4;stroke-dasharray:none;stroke-opacity:1"
       x="1377.0869"
       y="2650.5493"
       id="text4246-6-6-6-3"
       sodipodi:linespacing="125%"
       transform="matrix(0.89466356,0,-0.27376521,1.1177386,0,0)"><tspan
         sodipodi:role="line"
         style="font-size:56.6150589px;stroke:#000000;stroke-width:2.26460218;stroke-miterlimit:4;stroke-dasharray:none;stroke-opacity:1"
         x="1377.0869"
         y="2650.5493"
         id="tspan4204-9-1">Pří...</tspan><tspan
         sodipodi:role="line"
         style="font-size:56.6150589px;stroke:#000000;stroke-width:2.26460218;stroke-miterlimit:4;stroke-dasharray:none;stroke-opacity:1"
         x="1390.3561"
         y="2738.8806"
         id="tspan4182-3"><tspan
           style="font-size:75.48674774px;stroke-width:2.26460218"
           id="tspan4401-7">PŘÍŠERA! </tspan></tspan></text>
    <text
       xml:space="preserve"
       style="font-style:normal;font-variant:normal;font-weight:normal;font-stretch:normal;font-size:12.6776371px;line-height:125%;font-family:Lavi;-inkscape-font-specification:Lavi;text-align:center;letter-spacing:0px;word-spacing:0px;text-anchor:middle;fill:#000000;fill-opacity:1;stroke:#000000;stroke-width:1.90164542;stroke-miterlimit:4;stroke-dasharray:none;stroke-opacity:1"
       x="3148.9092"
       y="2792.0298"
       id="text4246-6-6-6-3-3"
       sodipodi:linespacing="125%"
       transform="matrix(0.88066605,0,-0.269482,1.1355042,0,0)"><tspan
         sodipodi:role="line"
         style="font-size:47.5411377px;stroke:#000000;stroke-width:1.90164542;stroke-miterlimit:4;stroke-dasharray:none;stroke-opacity:1"
         x="3148.9092"
         y="2792.0298"
         id="tspan4182-3-0"><tspan
           style="font-size:63.38818359px;stroke-width:1.90164542"
           id="tspan4401-7-3">Je to past!</tspan></tspan></text>
    <text
       xml:space="preserve"
       style="font-style:normal;font-variant:normal;font-weight:normal;font-stretch:normal;font-size:12.11902809px;line-height:125%;font-family:Lavi;-inkscape-font-specification:Lavi;text-align:center;letter-spacing:0px;word-spacing:0px;text-anchor:middle;fill:#000000;fill-opacity:1;stroke:#000000;stroke-width:1.81785417;stroke-miterlimit:4;stroke-dasharray:none;stroke-opacity:1"
       x="3101.9243"
       y="2743.5864"
       id="text4246-6-6-6-3-3-2"
       sodipodi:linespacing="125%"
       transform="matrix(0.89327675,0,-0.27334085,1.1194739,0,0)"><tspan
         sodipodi:role="line"
         style="font-size:45.44635391px;stroke:#000000;stroke-width:1.81785417;stroke-miterlimit:4;stroke-dasharray:none;stroke-opacity:1"
         x="3101.9243"
         y="2743.5864"
         id="tspan4182-3-0-0"><tspan
           style="font-size:60.59513855px;stroke-width:1.81785417"
           id="tspan4401-7-3-2">JÁ TO VĚDĚLA !!</tspan></tspan></text>
    <text
       xml:space="preserve"
       style="font-style:normal;font-variant:normal;font-weight:normal;font-stretch:normal;font-size:15.09734917px;line-height:125%;font-family:Lavi;-inkscape-font-specification:Lavi;text-align:center;letter-spacing:0px;word-spacing:0px;text-anchor:middle;fill:#000000;fill-opacity:1;stroke:#000000;stroke-width:2.26460218;stroke-miterlimit:4;stroke-dasharray:none;stroke-opacity:1"
       x="2980.5588"
       y="1829.2655"
       id="text4246-6-6-6-3-9"
       sodipodi:linespacing="125%"
       transform="matrix(0.89466356,0,-0.27376521,1.1177386,0,0)"><tspan
         sodipodi:role="line"
         style="font-size:75.48674774px;stroke:#000000;stroke-width:2.26460218;stroke-miterlimit:4;stroke-dasharray:none;stroke-opacity:1"
         x="2980.5588"
         y="1829.2655"
         id="tspan4182-3-7">Ale ne!</tspan></text>
    <text
       xml:space="preserve"
       style="font-style:normal;font-variant:normal;font-weight:normal;font-stretch:normal;font-size:20.24827003px;line-height:125%;font-family:Lavi;-inkscape-font-specification:Lavi;text-align:center;letter-spacing:0px;word-spacing:0px;text-anchor:middle;fill:#000000;fill-opacity:1;stroke:#000000;stroke-opacity:1"
       x="1062.8296"
       y="1297.6631"
       id="text4246-6-6-6"
       sodipodi:linespacing="125%"
       transform="matrix(0.92749476,0,-0.21361026,1.0781732,0,0)"><tspan
         sodipodi:role="line"
         style="font-size:75.93101501px;stroke:#000000;stroke-opacity:1"
         x="1062.8296"
         y="1297.6631"
         id="tspan4476-1">Běžte!</tspan></text>
  </g>
</svg>
