<?xml version="1.0" encoding="UTF-8" standalone="no"?>
<!-- Created with Inkscape (http://www.inkscape.org/) -->

<svg
   xmlns:dc="http://purl.org/dc/elements/1.1/"
   xmlns:cc="http://creativecommons.org/ns#"
   xmlns:rdf="http://www.w3.org/1999/02/22-rdf-syntax-ns#"
   xmlns:svg="http://www.w3.org/2000/svg"
   xmlns="http://www.w3.org/2000/svg"
   xmlns:xlink="http://www.w3.org/1999/xlink"
   xmlns:sodipodi="http://sodipodi.sourceforge.net/DTD/sodipodi-0.dtd"
   xmlns:inkscape="http://www.inkscape.org/namespaces/inkscape"
   id="svg2"
   version="1.1"
   inkscape:version="0.91 r13725"
   width="2481"
   height="3503"
   sodipodi:docname="Pepper-and-Carrot_by-David-Revoy_E16P06.svg">
  <metadata
     id="metadata8">
    <rdf:RDF>
      <cc:Work
         rdf:about="">
        <dc:format>image/svg+xml</dc:format>
        <dc:type
           rdf:resource="http://purl.org/dc/dcmitype/StillImage" />
        <dc:title />
      </cc:Work>
    </rdf:RDF>
  </metadata>
  <defs
     id="defs6">
    <filter
       style="color-interpolation-filters:sRGB"
       id="filter3018"
       inkscape:label="Lapping"
       inkscape:menu="Distort"
       inkscape:menu-tooltip="Something like a water noise"
       height="1.3"
       y="-0.15000001"
       width="1.3"
       x="-0.15000001">
      <feTurbulence
         id="feTurbulence3020"
         numOctaves="5"
         seed="0"
         type="fractalNoise"
         baseFrequency="0.045999999999999999"
         result="result1" />
      <feGaussianBlur
         id="feGaussianBlur3022"
         stdDeviation="2"
         result="result2" />
      <feDisplacementMap
         id="feDisplacementMap3024"
         in2="result2"
         scale="50"
         yChannelSelector="B"
         xChannelSelector="R"
         in="SourceGraphic" />
    </filter>
    <filter
       style="color-interpolation-filters:sRGB"
       id="filter3018-5"
       inkscape:label="Lapping"
       inkscape:menu="Distort"
       inkscape:menu-tooltip="Something like a water noise"
       height="1.3"
       y="-0.15000001"
       width="1.3"
       x="-0.15000001">
      <feTurbulence
         id="feTurbulence3020-9"
         numOctaves="2"
         seed="0"
         type="fractalNoise"
         baseFrequency="0.02802547770700637"
         result="result1" />
      <feGaussianBlur
         id="feGaussianBlur3022-7"
         stdDeviation="0.01"
         result="result2"
         baseFrequency="0.028000000000000001" />
      <feDisplacementMap
         id="feDisplacementMap3024-8"
         in2="result2"
         scale="50"
         yChannelSelector="B"
         xChannelSelector="R"
         in="SourceGraphic" />
    </filter>
    <filter
       inkscape:label="Ripple"
       inkscape:menu="Distort"
       inkscape:menu-tooltip="Horizontal rippling of edges"
       style="color-interpolation-filters:sRGB;"
       id="filter4265"
       y="-0.10000000000000001">
      <feTurbulence
         numOctaves="1"
         baseFrequency="0.002 0.107"
         id="feTurbulence4267" />
      <feColorMatrix
         values="5 0 0 0 0 0 0 0 0 0 0 0 0 0 0 0 0 0 4 0 "
         result="result91"
         id="feColorMatrix4269" />
      <feDisplacementMap
         yChannelSelector="A"
         xChannelSelector="R"
         scale="14.3"
         in="SourceGraphic"
         in2="result91"
         id="feDisplacementMap4271" />
    </filter>
    <filter
       style="color-interpolation-filters:sRGB"
       id="filter4375-4-1-1-1-9"
       inkscape:label="deevad outline effect">
      <feFlood
         id="feFlood4377-7-9-0-8-1"
         flood-opacity="1"
         flood-color="rgb(105,130,141)"
         result="flood" />
      <feComposite
         id="feComposite4379-3-8-8-2-77"
         in2="SourceGraphic"
         in="flood"
         operator="in"
         result="composite1" />
      <feMorphology
         id="feMorphology4393-1-0-49-8-9"
         operator="dilate"
         radius="4"
         result="result3" />
      <feComposite
         id="feComposite4385-9-5-7-0-8"
         in2="result3"
         in="SourceGraphic"
         operator="over"
         result="composite2" />
    </filter>
    <filter
       style="color-interpolation-filters:sRGB"
       id="filter3018-9"
       inkscape:label="Lapping"
       inkscape:menu="Distort"
       inkscape:menu-tooltip="Something like a water noise"
       height="1.3"
       y="-0.15000001"
       width="1.3"
       x="-0.15000001">
      <feTurbulence
         id="feTurbulence3020-3"
         numOctaves="5"
         seed="0"
         type="fractalNoise"
         baseFrequency="0.045999999999999999"
         result="result1" />
      <feGaussianBlur
         id="feGaussianBlur3022-77"
         stdDeviation="2"
         result="result2" />
      <feDisplacementMap
         id="feDisplacementMap3024-6"
         in2="result2"
         scale="50"
         yChannelSelector="B"
         xChannelSelector="R"
         in="SourceGraphic" />
    </filter>
    <filter
       inkscape:label="Ripple"
       inkscape:menu="Distort"
       inkscape:menu-tooltip="Horizontal rippling of edges"
       style="color-interpolation-filters:sRGB"
       id="filter4265-7"
       y="-0.1">
      <feTurbulence
         numOctaves="1"
         baseFrequency="0.002 0.107"
         id="feTurbulence4267-7" />
      <feColorMatrix
         values="5 0 0 0 0 0 0 0 0 0 0 0 0 0 0 0 0 0 4 0 "
         result="result91"
         id="feColorMatrix4269-1" />
      <feDisplacementMap
         yChannelSelector="A"
         xChannelSelector="R"
         scale="14.3"
         in="SourceGraphic"
         in2="result91"
         id="feDisplacementMap4271-2" />
    </filter>
  </defs>
  <sodipodi:namedview
     pagecolor="#ffffff"
     bordercolor="#666666"
     borderopacity="1"
     objecttolerance="10"
     gridtolerance="10"
     guidetolerance="10"
     inkscape:pageopacity="0"
     inkscape:pageshadow="2"
     inkscape:window-width="1680"
     inkscape:window-height="1033"
     id="namedview4"
     showgrid="false"
     inkscape:zoom="0.4"
     inkscape:cx="843.6751"
     inkscape:cy="882.97939"
     inkscape:window-x="1920"
     inkscape:window-y="0"
     inkscape:window-maximized="1"
     inkscape:current-layer="layer1" />
  <g
     inkscape:groupmode="layer"
     id="layer2"
     inkscape:label="artwork"
     sodipodi:insensitive="true">
    <image
       sodipodi:absref="/home/deevad/peppercarrot/webcomics/New/lang/fr/../gfx_Pepper-and-Carrot_by-David-Revoy_E16P06.png"
       xlink:href="../gfx_Pepper-and-Carrot_by-David-Revoy_E16P06.png"
       width="2481"
       height="3503"
       id="image10"
       x="0"
       y="0" />
  </g>
  <g
     inkscape:groupmode="layer"
     id="layer3"
     inkscape:label="speechbubbles">
    <path
       style="color:#000000;display:inline;overflow:visible;visibility:visible;fill:#0f0f0f;fill-opacity:1;fill-rule:nonzero;stroke:none;stroke-width:1px;marker:none;filter:url(#filter3018-9);enable-background:accumulate"
       d="m 168.28312,242.56886 c 0,-59.7361 29.8086,-90.5375 118.2404,-96.1379 88.4319,-5.6002 342.7586,-13.9748 381.5097,5.6261 38.751,19.601 38.7901,48.5099 40.7774,87.7117 1.9872,39.2018 -86.4447,99.8714 -174.8765,97.0713 -88.4319,-2.8002 -223.7312,5.5744 -271.4248,-8.4263 -47.6936,-14.0007 -90.2517,-38.2427 -94.2262,-85.8449 z"
       id="path3986"
       inkscape:connector-curvature="0"
       sodipodi:nodetypes="csssssc"
       transform="matrix(0.93497009,0,0,0.90016842,-52.108178,503.94598)" />
    <path
       style="color:#000000;display:inline;overflow:visible;visibility:visible;fill:#000000;fill-opacity:1;fill-rule:nonzero;stroke:none;stroke-width:1px;marker:none;enable-background:accumulate"
       d="m 678.07237,662.24549 c -17.09062,58.38926 -35.17677,61.96629 -52.88086,73.40862 -4.31685,-3.47698 -2.14346,-34.60622 -2.14346,-34.60622 0,0 -39.29405,58.68551 -54.58859,64.94605 -15.29463,6.2606 -27.5297,-21.752 -27.5297,-21.752 0,0 75.79585,-58.26928 86.63428,-72.14534 11.32175,10.04939 7.21526,27.97609 9.33626,33.40093 11.82429,-3.79121 34.43647,-22.66451 41.17207,-43.25204 z"
       id="path4456"
       inkscape:connector-curvature="0"
       sodipodi:nodetypes="cccscccc" />
    <path
       style="color:#000000;display:inline;overflow:visible;visibility:visible;fill:#d40000;fill-opacity:1;fill-rule:nonzero;stroke:none;stroke-width:1px;marker:none;filter:url(#filter4265-7);enable-background:accumulate"
       d="m 168.28312,242.56886 c 0,-59.7361 29.8086,-90.5375 118.2404,-96.1379 88.4319,-5.6002 342.7586,-13.9748 381.5097,5.6261 38.751,19.601 38.7901,48.5099 40.7774,87.7117 1.9872,39.2018 -86.4447,99.8714 -174.8765,97.0713 -88.4319,-2.8002 -223.7312,5.5744 -271.4248,-8.4263 -47.6936,-14.0007 -90.2517,-38.2427 -94.2262,-85.8449 z"
       id="path3986-3"
       inkscape:connector-curvature="0"
       sodipodi:nodetypes="csssssc"
       transform="matrix(0.06698198,-0.32487181,2.9224041,0.0069021,1172.2264,687.59367)" />
    <path
       style="fill:#d40000;fill-rule:evenodd;stroke:none;stroke-width:1px;stroke-linecap:butt;stroke-linejoin:miter;stroke-opacity:1"
       d="m 1705.3161,593.27326 c -12.5093,15.78328 -24.9092,31.67522 -37.4867,47.39062 -6.2386,4.93164 -12.3818,10.02377 -18.68,14.85513 -7.7939,3.28163 -15.5877,6.56325 -23.3815,9.84487 10.7721,-1.24294 21.5443,-2.48588 32.3164,-3.72882 -5.3861,12.84373 -10.7721,25.68746 -16.1582,38.53119 -11.6871,7.0588 -23.3188,14.23165 -35.0405,21.21929 -9.9542,3.67563 -19.8656,7.56392 -29.8466,11.10697 -10.6874,0.41106 -21.3749,0.82211 -32.0624,1.23317 17.4012,2.48588 34.8024,4.97177 52.2036,7.45765 14.5657,-5.44583 29.1905,-10.77073 43.7192,-16.29207 8.6285,-5.34147 17.257,-10.68294 25.8855,-16.02441 6.8382,-12.6115 13.4205,-25.36555 20.4276,-37.88287 3.963,-6.84514 7.9259,-13.69027 11.8889,-20.5354 -7.4576,1.65726 -14.9153,3.31451 -22.3729,4.97177 11.6008,-4.97177 23.2015,-9.94353 34.8023,-14.9153 7.906,-7.95314 15.9156,-15.82134 23.7569,-23.82745 4.9248,-7.38713 9.8495,-14.77427 14.7743,-22.1614 -14.9155,-0.38269 -29.8277,-1.0463 -44.7459,-1.24294 z"
       id="path4345"
       inkscape:connector-curvature="0" />
    <path
       style="color:#000000;display:inline;overflow:visible;visibility:visible;fill:#ffffff;fill-opacity:1;fill-rule:nonzero;stroke:none;stroke-width:1px;marker:none;enable-background:accumulate"
       d="m 249.81557,1781.9941 c -6.99068,-33.4085 11.6511,-122.1496 154.96049,-114.8415 143.30929,7.308 166.61172,49.0686 170.107,61.5968 3.4954,12.5281 33.7884,83.5211 -78.06276,102.3134 -111.85127,18.7922 -212.0512,-1.0441 -247.00473,-49.0687 z"
       id="path3525"
       inkscape:connector-curvature="0" />
    <path
       style="color:#000000;display:inline;overflow:visible;visibility:visible;fill:#ffffff;fill-opacity:1;fill-rule:nonzero;stroke:none;stroke-width:1px;marker:none;enable-background:accumulate"
       d="m 180.2125,1971.5745 c 13.27516,-109.8727 110.33239,-188.0325 350.85022,-161.1684 128.83421,14.3899 336.52141,-3.5792 317.88301,197.0793 -14.98322,161.3075 -215.45111,124.6853 -345.54457,123.6879 -43.87447,-0.3363 -257.63442,-0.2738 -294.50476,-56.1335 -23.07994,-34.9668 -31.16337,-69.3954 -28.6839,-103.4653 z"
       id="path4546"
       inkscape:connector-curvature="0"
       sodipodi:nodetypes="cssssc" />
    <path
       style="color:#000000;display:inline;overflow:visible;visibility:visible;fill:#ffffff;fill-opacity:1;fill-rule:nonzero;stroke:none;stroke-width:1px;marker:none;enable-background:accumulate"
       d="m 438.43437,2199.5298 c -14.15675,-50.7815 86.79094,-106.5958 309.92784,-91.1828 110.88528,7.6594 242.81809,21.7033 232.02237,112.3105 -10.81027,90.7292 -202.40375,86.5517 -240.49033,87.8468 -38.94345,1.3243 -240.69439,-14.5753 -274.36225,-47.8155 -21.0753,-20.8073 -28.7912,-41.1433 -27.09763,-61.159 z"
       id="path4546-5"
       inkscape:connector-curvature="0"
       sodipodi:nodetypes="cssssc" />
    <path
       style="color:#000000;display:inline;overflow:visible;visibility:visible;fill:#ffffff;fill-opacity:1;fill-rule:nonzero;stroke:none;stroke-width:1px;marker:none;enable-background:accumulate"
       d="m 645.47273,2232.968 c 13.11928,23.0119 29.95469,32.3734 36.94232,33.2431 6.98744,0.8697 57.07022,-0.7736 65.07249,1.8181 6.60183,2.1777 17.05613,3.1846 14.14115,8.9001 -2.91494,5.7155 -33.79762,33.8052 -26.32359,49.9661 7.47392,16.1612 17.94274,16.0669 34.31677,12.9347 16.3742,-3.132 37.8023,-6.9626 44.7101,4.447 6.9078,11.4096 -0.46986,25.3729 -6.35018,31.2084 -5.88032,5.8356 -46.0859,36.6028 -52.61213,48.2267 -6.5261,11.6238 -19.45278,48.8606 -3.49389,57.7636 0.31462,-23.2262 1.60591,-34.5819 9.54972,-43.7936 7.94394,-9.2117 21.04717,-27.0851 34.43081,-32.8949 13.38373,-5.8099 36.93066,-19.2374 41.36802,-30.283 4.43754,-11.0454 5.8785,-25.2509 -3.81432,-35.8892 -9.69268,-10.6383 -17.36793,-22.5755 -41.73619,-15.8272 -16.37408,3.132 -27.79784,-0.9997 -29.57624,-4.7143 -1.77827,-3.7147 5.5994,-17.678 18.77746,-26.9369 13.17822,-9.2588 20.40064,-21.0755 15.45156,-28.1193 -4.94917,-7.0436 -61.23846,-11.1948 -67.21947,-16.5505 -5.98088,-5.3556 -43.8441,-32.231 -43.8441,-32.231 z"
       id="path5058"
       inkscape:connector-curvature="0"
       sodipodi:nodetypes="cscsssssscssssccscccc" />
    <path
       style="fill:#ffffff;stroke:none"
       d="m 1994.7947,2272.5617 c -0.1223,-40.9084 46.118,-101.2071 146.9267,-96.9478 128.0212,5.409 155.2313,42.0155 156.3449,93.4925 1.8879,87.2602 -66.6973,109.3467 -168.8883,108.9513 -118.6411,-0.4591 -133.1723,-63.7706 -134.3833,-105.496 z"
       id="path3280-8"
       inkscape:connector-curvature="0"
       sodipodi:nodetypes="csssc" />
    <path
       style="color:#000000;display:inline;overflow:visible;visibility:visible;fill:#ffffff;fill-opacity:1;fill-rule:nonzero;stroke:none;stroke-width:1px;marker:none;enable-background:accumulate"
       d="m 2143.0641,2496.9906 c 14.2538,-10.9964 29.2494,-22.2742 38.0444,-38.39 2.4037,-4.6343 4.5686,-9.597 5.2999,-14.7679 -0.4379,-5.5474 -4.9724,-9.7458 -10.0301,-11.4235 -7.1343,-2.9342 -15.8493,-3.0529 -21.5082,-8.8625 -4.0169,-4.3289 -2.8198,-10.5378 -2.276,-15.8307 1.6508,-13.4639 5.1349,-26.783 4.629,-40.4411 0.4302,-15.4146 -0.2355,-31.6652 -7.7317,-45.5309 -3.058,-5.4366 -7.0173,-10.6962 -12.7384,-13.5146 -14.3488,-7.8958 -33.4384,-7.6739 -46.7972,2.2087 -7.9232,7.1128 -9.3323,21.0317 -1.4609,28.6971 4.0945,4.1085 10.3014,4.7898 15.7505,3.7773 10.3645,0.011 20.0973,6.0565 25.5175,14.7518 4.5906,7.103 6.9036,15.5737 6.9911,24.004 3.1462,11.4329 -1.9449,22.721 -4.3637,33.7526 -1.03,5.0564 -1.783,10.5048 -0.2812,15.5104 3.8395,6.6283 11.9608,8.3156 18.996,8.9502 7.2388,0.8414 15.7307,0.9995 20.8762,6.9773 4.1293,3.6675 0.5936,9.1252 -0.3839,13.4504 -4.9654,13.5159 -14.0889,25.3081 -25.0784,34.4841 -1.1122,0.796 -2.2811,1.4976 -3.4549,2.1973 z"
       id="path4496"
       inkscape:connector-curvature="0" />
    <text
       xml:space="preserve"
       style="font-style:normal;font-variant:normal;font-weight:normal;font-stretch:normal;font-size:9.79592609px;line-height:125%;font-family:Lavi;-inkscape-font-specification:Lavi;text-align:center;letter-spacing:0px;word-spacing:0px;text-anchor:middle;opacity:1;fill:#000000;fill-opacity:1;stroke:none"
       x="1232.4392"
       y="3440.9868"
       id="text4246-42-8"
       sodipodi:linespacing="125%"><tspan
         sodipodi:role="line"
         style="font-size:36.73472214px;fill:#000000"
         x="1232.4392"
         y="3440.9868"
         id="tspan4252-9-8" /></text>
  </g>
  <g
     inkscape:groupmode="layer"
     id="layer1"
     inkscape:label="txt"
     style="opacity:1">
    <text
       xml:space="preserve"
       style="font-style:normal;font-variant:normal;font-weight:normal;font-stretch:normal;font-size:51.64495087px;line-height:125%;font-family:Lavi;-inkscape-font-specification:Lavi;text-align:center;letter-spacing:0px;word-spacing:0px;text-anchor:middle;fill:#ffffff;fill-opacity:1;stroke:none"
       x="370.52264"
       y="728.71765"
       id="text4180"
       sodipodi:linespacing="125%"
       transform="scale(0.99830099,1.0017019)"><tspan
         sodipodi:role="line"
         id="tspan4182"
         x="370.52264"
         y="728.71765"
         style="font-style:normal;font-variant:normal;font-weight:normal;font-stretch:normal;font-size:50.4467392px;font-family:'Drukaatie burti';-inkscape-font-specification:'Drukaatie burti'">GRAVITAS SPIRALIS !</tspan></text>
    <text
       xml:space="preserve"
       style="font-style:normal;font-variant:normal;font-weight:normal;font-stretch:normal;font-size:51.64495087px;line-height:125%;font-family:Lavi;-inkscape-font-specification:Lavi;text-align:center;letter-spacing:0px;word-spacing:0px;text-anchor:middle;fill:#ffffff;fill-opacity:1;stroke:none"
       x="1915.5634"
       y="560.59735"
       id="text4180-1"
       sodipodi:linespacing="125%"
       transform="scale(0.99830099,1.0017019)"><tspan
         sodipodi:role="line"
         id="tspan4182-2"
         x="1915.5634"
         y="560.59735"
         style="font-style:normal;font-variant:normal;font-weight:normal;font-stretch:normal;font-size:50.4467392px;font-family:'Drukaatie burti';-inkscape-font-specification:'Drukaatie burti'">BRASERO INTENSIA !</tspan></text>
    <text
       xml:space="preserve"
       style="font-style:normal;font-variant:normal;font-weight:normal;font-stretch:normal;font-size:17.80657005px;line-height:125%;font-family:Lavi;-inkscape-font-specification:Lavi;letter-spacing:0px;word-spacing:0px;fill:#000000;fill-opacity:1;stroke:none;stroke-width:0.99236238;stroke-miterlimit:4;stroke-dasharray:none;stroke-opacity:1;filter:url(#filter4375-4-1-1-1-9)"
       x="787.65729"
       y="1584.5073"
       id="text4580"
       sodipodi:linespacing="125%"
       transform="matrix(1.1015253,-0.87314706,0.0870639,1.7091559,1073.6546,-517.49001)"><tspan
         sodipodi:role="line"
         id="tspan4582"
         x="787.65729"
         y="1584.5073"
         style="font-size:70px;fill:#ffffff;stroke:none">Plouf<tspan
   style="font-size:80.40014648px;stroke:none"
   id="tspan4617">!</tspan></tspan></text>
    <text
       xml:space="preserve"
       style="font-style:normal;font-variant:normal;font-weight:normal;font-stretch:normal;font-size:12px;line-height:125%;font-family:Lavi;-inkscape-font-specification:Lavi;text-align:center;letter-spacing:0px;word-spacing:0px;text-anchor:middle;fill:#000000;fill-opacity:1;stroke:none"
       x="407.92352"
       y="1765.991"
       id="text4246"
       sodipodi:linespacing="125%"><tspan
         sodipodi:role="line"
         style="font-size:45px"
         x="407.92352"
         y="1765.991"
         id="tspan4252">.. Ben quoi?</tspan></text>
    <text
       xml:space="preserve"
       style="font-style:normal;font-variant:normal;font-weight:normal;font-stretch:normal;font-size:12px;line-height:125%;font-family:Lavi;-inkscape-font-specification:Lavi;text-align:center;letter-spacing:0px;word-spacing:0px;text-anchor:middle;fill:#000000;fill-opacity:1;stroke:none"
       x="513.59961"
       y="1918.0811"
       id="text4246-2"
       sodipodi:linespacing="125%"><tspan
         sodipodi:role="line"
         style="font-size:45px"
         x="513.59961"
         y="1918.0811"
         id="tspan4589">Le monstre de la montagne</tspan><tspan
         sodipodi:role="line"
         style="font-size:45px"
         x="513.59961"
         y="1974.3311"
         id="tspan4601">de feu a plein de chose à</tspan><tspan
         sodipodi:role="line"
         style="font-size:45px"
         x="513.59961"
         y="2030.5811"
         id="tspan4609">nous enseigner...</tspan><tspan
         sodipodi:role="line"
         style="font-size:45px"
         x="513.59961"
         y="2086.8311"
         id="tspan4613">Imitez le un peu!</tspan></text>
    <text
       xml:space="preserve"
       style="font-style:normal;font-variant:normal;font-weight:normal;font-stretch:normal;font-size:12px;line-height:125%;font-family:Lavi;-inkscape-font-specification:Lavi;text-align:center;letter-spacing:0px;word-spacing:0px;text-anchor:middle;fill:#000000;fill-opacity:1;stroke:none"
       x="708.72864"
       y="2142.2004"
       id="text4246-2-5-1"
       sodipodi:linespacing="125%"><tspan
         sodipodi:role="line"
         style="font-size:45px"
         x="708.72864"
         y="2142.2004"
         id="tspan4552-6" /><tspan
         sodipodi:role="line"
         style="font-size:45px"
         x="716.63879"
         y="2198.4504"
         id="tspan4581">Rien de mieux pour </tspan><tspan
         sodipodi:role="line"
         style="font-size:45px"
         x="708.72864"
         y="2254.7004"
         id="tspan4585">nos rhumatismes!</tspan></text>
    <text
       xml:space="preserve"
       style="font-style:normal;font-variant:normal;font-weight:normal;font-stretch:normal;font-size:10.80389404px;line-height:125%;font-family:Lavi;-inkscape-font-specification:Lavi;text-align:center;letter-spacing:0px;word-spacing:0px;text-anchor:middle;fill:#000000;fill-opacity:1;stroke:none"
       x="2141.5684"
       y="2241.7585"
       id="text4246-2-0"
       sodipodi:linespacing="125%"><tspan
         sodipodi:role="line"
         style="font-size:36.0129776px"
         x="2141.5684"
         y="2241.7585"
         id="tspan4692">J'aurais dû</tspan><tspan
         sodipodi:role="line"
         style="font-size:36.0129776px"
         x="2141.5684"
         y="2286.7747"
         id="tspan4721">m'en douter...</tspan><tspan
         sodipodi:role="line"
         style="font-size:36.0129776px"
         x="2141.5684"
         y="2331.791"
         id="tspan4696">J'aurai dû!</tspan></text>
    <text
       xml:space="preserve"
       style="font-style:normal;font-variant:normal;font-weight:normal;font-stretch:normal;font-size:9.72782516px;line-height:125%;font-family:Arial;-inkscape-font-specification:Arial;text-align:center;letter-spacing:0px;word-spacing:0px;text-anchor:middle;display:inline;opacity:0.85500004;fill:#000000;fill-opacity:1;stroke:none"
       x="1240.6475"
       y="3384.2073"
       id="text4229"
       sodipodi:linespacing="125%"><tspan
         sodipodi:role="line"
         x="1240.6475"
         y="3384.2073"
         style="font-style:normal;font-variant:normal;font-weight:normal;font-stretch:normal;font-size:28.75px;font-family:Lavi;-inkscape-font-specification:Lavi;fill:#000000"
         id="tspan4169">Licence: Creative Commons Attribution 4.0, Logiciels: Krita, Inkscape on Ubuntu</tspan></text>
    <text
       xml:space="preserve"
       style="color:#000000;font-style:normal;font-variant:normal;font-weight:normal;font-stretch:normal;font-size:28.75px;line-height:125%;font-family:Lavi;-inkscape-font-specification:Lavi;text-indent:0;text-align:center;text-decoration:none;text-decoration-line:none;text-decoration-style:solid;text-decoration-color:#000000;letter-spacing:0px;word-spacing:0px;text-transform:none;direction:ltr;block-progression:tb;writing-mode:lr-tb;baseline-shift:baseline;text-anchor:middle;white-space:normal;clip-rule:nonzero;display:inline;overflow:visible;visibility:visible;opacity:0.85500004;isolation:auto;mix-blend-mode:normal;color-interpolation:sRGB;color-interpolation-filters:linearRGB;solid-color:#000000;solid-opacity:1;fill:#000000;fill-opacity:1;fill-rule:nonzero;stroke:none;stroke-width:1;stroke-linecap:butt;stroke-linejoin:miter;stroke-miterlimit:4;stroke-dasharray:none;stroke-dashoffset:0;stroke-opacity:1;color-rendering:auto;image-rendering:auto;shape-rendering:auto;text-rendering:auto;enable-background:accumulate"
       x="1242.353"
       y="3342.6431"
       id="text4246-42-4"
       sodipodi:linespacing="125%"><tspan
         sodipodi:role="line"
         style="color:#000000;font-style:normal;font-variant:normal;font-weight:normal;font-stretch:normal;font-size:28.75px;line-height:125%;font-family:Lavi;-inkscape-font-specification:Lavi;text-indent:0;text-align:center;text-decoration:none;text-decoration-line:none;text-decoration-style:solid;text-decoration-color:#000000;letter-spacing:0px;word-spacing:0px;text-transform:none;direction:ltr;block-progression:tb;writing-mode:lr-tb;baseline-shift:baseline;text-anchor:middle;white-space:normal;clip-rule:nonzero;display:inline;overflow:visible;visibility:visible;isolation:auto;mix-blend-mode:normal;color-interpolation:sRGB;color-interpolation-filters:linearRGB;solid-color:#000000;solid-opacity:1;fill:#000000;fill-opacity:1;fill-rule:nonzero;stroke:none;stroke-width:1;stroke-linecap:butt;stroke-linejoin:miter;stroke-miterlimit:4;stroke-dasharray:none;stroke-dashoffset:0;stroke-opacity:1;color-rendering:auto;image-rendering:auto;shape-rendering:auto;text-rendering:auto;enable-background:accumulate"
         x="1242.353"
         y="3342.6431"
         id="tspan4252-9-9">Basé sur l'univers d'Hereva crée par David Revoy avec les contributions de Craig Maloney, Willem Sonke, Moini, Hali, Cgand, Alex Gryson.</tspan></text>
    <text
       xml:space="preserve"
       style="font-style:normal;font-variant:normal;font-weight:normal;font-stretch:normal;font-size:63.55184174px;line-height:125%;font-family:Lavi;-inkscape-font-specification:Lavi;text-align:center;letter-spacing:0px;word-spacing:0px;text-anchor:middle;opacity:1;fill:#000000;fill-opacity:1;stroke:#000000;stroke-width:3.82200003;stroke-miterlimit:4;stroke-dasharray:none;stroke-opacity:1"
       x="2028.7821"
       y="2443.6147"
       id="text4213"
       sodipodi:linespacing="125%"
       transform="matrix(0.75304346,0,-0.11971288,1.3279446,0,0)"><tspan
         sodipodi:role="line"
         id="tspan4215"
         x="2028.7821"
         y="2443.6147"
         style="fill:#000000;stroke:#000000;stroke-width:3.82200003;stroke-miterlimit:4;stroke-dasharray:none">- FIN -</tspan></text>
    <text
       xml:space="preserve"
       style="font-style:normal;font-variant:normal;font-weight:normal;font-stretch:normal;font-size:9.79592609px;line-height:125%;font-family:Lavi;-inkscape-font-specification:Lavi;text-align:center;letter-spacing:0px;word-spacing:0px;text-anchor:middle;opacity:1;fill:#000000;fill-opacity:1;stroke:none"
       x="1240.3224"
       y="3300.3928"
       id="text4246-42"
       sodipodi:linespacing="125%"><tspan
         sodipodi:role="line"
         style="font-size:36.73472214px;fill:#000000"
         x="1240.3224"
         y="3300.3928"
         id="tspan4252-9">04/2016 - Dessin &amp; Scénario : David Revoy, www.peppercarrot.com</tspan></text>
  </g>
</svg>
