<?xml version="1.0" encoding="UTF-8" standalone="no"?>
<!-- Created with Inkscape (http://www.inkscape.org/) -->

<svg
   xmlns:dc="http://purl.org/dc/elements/1.1/"
   xmlns:cc="http://creativecommons.org/ns#"
   xmlns:rdf="http://www.w3.org/1999/02/22-rdf-syntax-ns#"
   xmlns:svg="http://www.w3.org/2000/svg"
   xmlns="http://www.w3.org/2000/svg"
   xmlns:xlink="http://www.w3.org/1999/xlink"
   xmlns:sodipodi="http://sodipodi.sourceforge.net/DTD/sodipodi-0.dtd"
   xmlns:inkscape="http://www.inkscape.org/namespaces/inkscape"
   id="svg2"
   version="1.1"
   inkscape:version="0.91 r13725"
   width="2481"
   height="3503"
   sodipodi:docname="Pepper-and-Carrot_by-David-Revoy_E16P05.svg">
  <metadata
     id="metadata8">
    <rdf:RDF>
      <cc:Work
         rdf:about="">
        <dc:format>image/svg+xml</dc:format>
        <dc:type
           rdf:resource="http://purl.org/dc/dcmitype/StillImage" />
        <dc:title />
      </cc:Work>
    </rdf:RDF>
  </metadata>
  <defs
     id="defs6">
    <filter
       style="color-interpolation-filters:sRGB"
       id="filter4375-4-1-1-1-9"
       inkscape:label="deevad outline effect">
      <feFlood
         id="feFlood4377-7-9-0-8-1"
         flood-opacity="1"
         flood-color="rgb(0,0,0)"
         result="flood" />
      <feComposite
         id="feComposite4379-3-8-8-2-77"
         in2="SourceGraphic"
         in="flood"
         operator="in"
         result="composite1" />
      <feMorphology
         id="feMorphology4393-1-0-49-8-9"
         operator="dilate"
         radius="1.3999999999999999"
         result="result3" />
      <feComposite
         id="feComposite4385-9-5-7-0-8"
         in2="result3"
         in="SourceGraphic"
         operator="over"
         result="composite2" />
    </filter>
    <filter
       style="color-interpolation-filters:sRGB"
       id="filter4375-4-1-1-1-9-9"
       inkscape:label="deevad outline effect">
      <feFlood
         id="feFlood4377-7-9-0-8-1-3"
         flood-opacity="1"
         flood-color="rgb(0,0,0)"
         result="flood" />
      <feComposite
         id="feComposite4379-3-8-8-2-77-0"
         in2="SourceGraphic"
         in="flood"
         operator="in"
         result="composite1" />
      <feMorphology
         id="feMorphology4393-1-0-49-8-9-9"
         operator="dilate"
         radius="1.3999999999999999"
         result="result3" />
      <feComposite
         id="feComposite4385-9-5-7-0-8-0"
         in2="result3"
         in="SourceGraphic"
         operator="over"
         result="composite2" />
    </filter>
  </defs>
  <sodipodi:namedview
     pagecolor="#ffffff"
     bordercolor="#666666"
     borderopacity="1"
     objecttolerance="10"
     gridtolerance="10"
     guidetolerance="10"
     inkscape:pageopacity="0"
     inkscape:pageshadow="2"
     inkscape:window-width="1855"
     inkscape:window-height="1056"
     id="namedview4"
     showgrid="false"
     inkscape:zoom="0.17983764"
     inkscape:cx="1044.7552"
     inkscape:cy="1540.4465"
     inkscape:window-x="65"
     inkscape:window-y="24"
     inkscape:window-maximized="1"
     inkscape:current-layer="layer3" />
  <g
     inkscape:groupmode="layer"
     id="layer2"
     inkscape:label="artwork"
     sodipodi:insensitive="true">
    <image
       sodipodi:absref="/home/thomas/Data/Copy/PepperCarrot/Git/peppercarrot_ep16_translation/no/../gfx_Pepper-and-Carrot_by-David-Revoy_E16P05.png"
       xlink:href="../gfx_Pepper-and-Carrot_by-David-Revoy_E16P05.png"
       y="0"
       x="0"
       id="image10"
       height="3503"
       width="2481" />
  </g>
  <g
     inkscape:groupmode="layer"
     id="layer3"
     inkscape:label="speechbubbles"
     style="display:inline">
    <path
       style="color:#000000;display:inline;overflow:visible;visibility:visible;fill:#ffffff;fill-opacity:1;fill-rule:nonzero;stroke:none;stroke-width:1px;marker:none;enable-background:accumulate"
       d="m 216.44983,362.48491 c -2.78184,-9.36773 -11.03899,-55.51498 6.23165,-69.78614 17.2706,-14.27114 52.67738,-22.98989 109.7052,-20.94069 57.02778,2.04919 93.94988,5.02049 113.19101,12.26584 19.24107,7.24533 34.5163,27.13597 35.90716,30.64888 2.78189,7.0258 17.64578,70.34581 -85.56828,71.66002 -89.7608,1.14291 -151.64829,3.08429 -179.46674,-23.84791 z"
       id="path3525"
       inkscape:connector-curvature="0"
       sodipodi:nodetypes="cssscsc" />
    <path
       style="color:#000000;display:inline;overflow:visible;visibility:visible;fill:#ffffff;fill-opacity:1;fill-rule:nonzero;stroke:none;stroke-width:1px;marker:none;enable-background:accumulate"
       d="m 1448.6174,401.33907 c 35.9433,-26.38695 203.9516,-18.62682 225.8604,3.14055 21.9088,21.76738 50.3293,70.56492 17.578,86.10607 -32.7515,15.54111 -229.5836,14.42157 -249.2976,-11.30187 -19.714,-25.72349 -30.0842,-51.55786 5.8592,-77.94475 z"
       id="path4008-8"
       inkscape:connector-curvature="0"
       sodipodi:nodetypes="zsssz" />
    <path
       style="color:#000000;display:inline;overflow:visible;visibility:visible;fill:#ffffff;fill-opacity:1;fill-rule:nonzero;stroke:none;stroke-width:1px;marker:none;enable-background:accumulate"
       d="m 1574.9826,472.92706 c -17.2236,21.55653 -27.0013,47.84376 -30.7097,54.7077 9.0582,0.57554 24.0252,6.05945 30.1356,7.68732 -7.9164,12.17468 -41.5695,61.31913 -55.7032,69.99973 35.6374,-19.992 75.7084,-62.50212 87.2261,-83.40695 -7.5963,-3.69432 -21.952,-5.88957 -25.8988,-7.94337 5.2655,-10.70917 31.3874,-37.31145 31.3874,-37.31145 z"
       id="path5066-7"
       inkscape:connector-curvature="0"
       sodipodi:nodetypes="cccccccc" />
    <path
       style="color:#000000;display:inline;overflow:visible;visibility:visible;fill:#ffffff;fill-opacity:1;fill-rule:nonzero;stroke:none;stroke-width:1px;marker:none;enable-background:accumulate"
       d="m 1668.6092,561.82114 c 27.8989,-39.14928 38.4498,-60.53397 215.1087,-58.04259 176.6588,2.4914 210.3418,34.29118 211.8911,89.47352 1.5528,55.30456 -25.2665,82.78331 -50.7412,90.72112 -25.4743,7.9378 -101.9172,22.3954 -145.4983,19.80646 -43.581,-2.58919 -180.709,-17.30713 -205.504,-42.00991 -29.5357,-29.42582 -42.3987,-75.89358 -25.2563,-99.9486 z"
       id="path3365"
       inkscape:connector-curvature="0"
       sodipodi:nodetypes="sssssss" />
    <path
       style="fill:#ffffff;fill-rule:evenodd;stroke:none;stroke-width:1px;stroke-linecap:butt;stroke-linejoin:miter;stroke-opacity:1"
       d="m 1762.8157,816.08406 c -42.1519,-45.39439 -40.773,-120.33594 7.5658,-129.69827 20.5355,-23.77802 73.5214,-107.585 -23.6983,-32.34693 -18.5773,14.37686 -68.2811,101.3158 16.1325,162.0452 z"
       id="path4278"
       inkscape:connector-curvature="0"
       sodipodi:nodetypes="ccsc" />
    <path
       style="fill:#ffffff;fill-rule:evenodd;stroke:none;stroke-width:1px;stroke-linecap:butt;stroke-linejoin:miter;stroke-opacity:1"
       d="m 500.77511,1322.0592 c 32.15805,12.9951 23.50066,36.6704 -6.41829,45.9249 31.34309,3.909 34.36481,37.9217 -0.28,42.5217 37.73755,24.0866 37.23512,41.1421 20.72384,63.1712 40.39759,-19.8815 56.04408,0.08 60.08454,26.7793 22.31848,-28.0973 53.58458,-16.5287 60.88648,20.6877 4.79948,-45.7928 11.01057,-50.3223 18.50896,-17.2236 6.0454,-29.4319 16.56254,-41.9863 32.21963,-35.1412 25.03205,-30.3949 39.22871,3.8394 56.92754,17.1843 3.76793,-30.388 16.36352,-33.211 31.77354,-27.2457 5.82621,-13.5024 9.48916,-32.4105 30.26428,-8.5596 2.14373,-24.9405 12.92056,-9.1714 21.04447,-5.9125 -10.6168,-12.3202 5.42517,-18.7274 52.13154,-18.3328 -18.43278,-4.4651 -6.03331,-21.1321 16.99354,-37.0464 -27.88771,-8.6525 3.08534,-24.3834 16.21013,-42.7727 -32.65843,-19.431 -27.9942,-60.8314 -14.60499,-86.679 -29.77435,16.4874 -63.29577,23.8556 -71.33718,-6.1879 -44.87405,34.999 -47.14785,16.9306 -43.68774,2.9981 -41.53923,40.8417 -53.04896,23.9973 -48.97173,12.0631 -74.67014,38.8768 -67.96184,11.7833 -86.35003,-8.2086 -2.7134,49.168 -21.08374,33.3042 -39.51875,17.1715 3.8919,40.5787 -17.00858,17.8764 -27.8632,8.7467 0.12488,17.7563 -15.64791,18.9054 -38.16555,10.7208 16.56656,11.9104 7.9408,33.2955 -40.57103,25.3407 z"
       id="path4289"
       inkscape:connector-curvature="0"
       sodipodi:nodetypes="cccccccccccccccccccccccc" />
    <path
       style="fill:#ffffff;stroke:none"
       d="m 766.56377,3188.1927 c -80.05798,-9.6516 -98.33119,-29.8794 -115.90541,-70.464 -10.64824,-24.5903 -13.86482,-40.3391 -13.86482,-40.3391 l -19.96131,19.8685 10.19515,28.2975 c 0,0 16.57734,75.9557 139.53639,62.6371 z"
       id="path3063"
       inkscape:connector-curvature="0"
       sodipodi:nodetypes="cscccc" />
    <path
       style="fill:#ffffff;fill-rule:evenodd;stroke:none;stroke-width:1px;stroke-linecap:butt;stroke-linejoin:miter;stroke-opacity:1"
       d="m 1760.2626,3138.3467 c 75.1721,56.0717 117.1022,52.3104 110.5897,-53.1401 33.9862,77.1065 57.5708,94.3514 71.5582,56.3606 18.2425,38.0437 64.9666,25.133 95.411,0 8.3162,30.2159 26.1508,18.0228 41.5852,16.5219 5.0837,6.8362 -12.3761,23.8202 58.1623,1.1914 4.5691,9.0484 10.7244,16.8406 52.0421,-3.2205 10.7043,36.7263 45.0482,-2.0355 80.2319,-43.4782 -21.9203,50.9503 -12.8306,58.1468 15.1792,38.6472 -12.8059,20.9819 -20.4652,37.2241 28.1895,1.6104 -16.657,38.7281 8.8985,26.069 87.2112,-23.289 -53.4275,40.4204 -118.4797,90.2259 -56.8533,84.4805 -8.5941,12.1213 -39.2492,22.6823 52.0424,41.8679 -17.0429,8.2252 -69.0744,-3.7944 -25.6707,31.0315 5.8149,4.071 -13.6527,6.557 23.5021,17.2775 -21.9329,-0.7293 -35.3838,1.8763 -15.1789,17.7133 -40.0359,-0.8563 -25.056,15.7967 4.3369,37.0371 -57.9776,-27.2454 -61.1682,-17.3433 -62.8845,-6.4412 -96.2734,-56.1691 -83.7138,-16.9148 -86.737,-3.7107 -53.9696,-26.8986 -90.1793,-30.8512 -106.2531,23.0343 -29.4378,-46.6529 -39.6699,-57.8206 -106.2529,-27.3751 34.4153,-32.7777 -14.5449,-11.895 -52.0424,1.6103 20.5343,-40.9477 -31.5786,-14.0739 -97.5792,25.7648 36.96,-45.2176 -5.0179,-28.8839 -67.2212,3.2206 23.5022,-44.4217 6.1322,-56.9558 -85.3472,-58.6837 43.7848,-16.0236 48.412,-45.1377 2.947,-81.4128 51.2519,10.6815 66.5395,0.76 30.358,-38.6471 55.9022,32.3449 30.4856,-14.57 8.6737,-57.9709 z"
       id="path4508"
       inkscape:connector-curvature="0"
       sodipodi:nodetypes="cccccccccccccccccccccccccccc" />
    <path
       style="color:#000000;display:inline;overflow:visible;visibility:visible;fill:#ffffff;fill-opacity:1;fill-rule:nonzero;stroke:none;stroke-width:1px;marker:none;enable-background:accumulate"
       d="m 1638.2464,3206.3732 c 54.3411,-2.252 78.9432,-21.3974 91.1531,-28.5238 -3.5763,-9.5 -8.9675,-20.9727 -16.552,-26.785 20.8008,7.2521 55.8636,23.6082 121.7894,43.5991 32.6654,-12.3283 7.4804,-48.4084 -7.6424,-88.7038 l -15.9649,32.0974 -44.6533,5.3405 c 0,0 -68.7398,-11.0844 -83.8186,-15.3403 11.3058,16.2359 22.1359,39.4549 23.6147,45.4861 -11.5248,13.7548 -40.7764,18.4153 -67.926,32.8298 z"
       id="path5162"
       inkscape:connector-curvature="0"
       sodipodi:nodetypes="cccccccccc" />
    <path
       style="fill:#ffffff;fill-rule:evenodd;stroke:none;stroke-width:1px;stroke-linecap:butt;stroke-linejoin:miter;stroke-opacity:1"
       d="m 146.82553,2938.8034 c 55.48784,4.698 155.66933,-6.7055 110.80972,-77.4378 87.07282,50.1153 158.46366,41.3664 300.10095,-37.3246 -11.77007,109.6424 51.5346,99.3987 108.60498,78.3485 -54.77157,36.8955 43.54564,58.0378 96.43159,60.1103 -111.87504,79.8022 -53.1282,105.1819 -9.04565,135.239 -109.94661,-22.238 -83.35572,22.8201 -96.48778,48.2996 -94.31763,-57.73 -162.9087,-44.0287 -217.09757,9.66 -28.34146,-29.1974 -37.23754,-89.5432 -141.71645,3.2198 38.4195,-80.0811 -30.8689,-59.9576 -112.40161,-20.4817 12.77804,-27.2766 60.78023,-66.9519 -43.70511,-67.1037 60.97307,-36.7474 101.16488,-80.8875 4.50693,-132.5294 z"
       id="path4584"
       inkscape:connector-curvature="0"
       sodipodi:nodetypes="cccccccccccc" />
    <path
       style="fill:#ffffff;fill-rule:evenodd;stroke:none;stroke-width:1px;stroke-linecap:butt;stroke-linejoin:miter;stroke-opacity:1"
       d="m 1791.3544,2964.272 c 42.9482,22.4805 74.1218,28.0495 60.923,-17.6066 76.0209,61.9849 58.742,25.9074 70.7691,11.0079 45.1971,43.7859 84.0856,37.5461 117.8571,-9.2682 19.0914,67.5273 83.2625,28.4361 118.5058,18.3415 -0.087,18.9897 0.4893,38.2153 104.4838,26.7998 -29.7347,17.151 -40.826,32.7209 25.7142,41.7071 -46.2217,13.7899 -71.606,28.4635 -21.4285,46.3412 -26.6564,26.0435 -43.2459,50.4444 -6.5612,61.4432 -85.8941,1.5232 -65.2088,15.8511 -51.4285,29.3494 -73.1298,-27.7524 -83.3615,-16.6414 -77.1428,4.6342 -34.0376,-12.2048 -59.1959,-41.0516 -120,-3.0894 -18.0838,-12.599 -34.7531,-28.5118 -74.9999,10.8129 -2.8391,-34.3019 -32.2646,-33.0115 -75,-13.9023 -11.2718,-32.1689 -53.5973,-15.8357 -98.5714,4.6341 36.7091,-31.3974 24.0722,-57.6275 -47.4399,-72.6012 54.0042,-21.7859 23.5386,-40.0981 -3.1435,-53.9896 26.361,-13.0629 65.2194,-13.2704 25.2758,-57.619 43.0458,19.2189 77.2417,7.7035 52.1869,-26.995 z"
       id="path4582"
       inkscape:connector-curvature="0"
       sodipodi:nodetypes="ccccccccccccccccccc" />
    <path
       style="color:#000000;display:inline;overflow:visible;visibility:visible;fill:#ffffff;fill-opacity:1;fill-rule:nonzero;stroke:none;stroke-width:1px;marker:none;enable-background:accumulate"
       d="m 1773.1946,3160.6869 c 4.873,-58.0816 38.984,-124.1352 295.6292,-104.7747 256.6449,19.3606 245.2749,33.0268 243.6505,110.469 -1.6242,77.4423 -116.9522,91.1084 -272.8885,71.7479 -155.9364,-19.3605 -261.5182,6.8331 -266.3912,-77.4422 z"
       id="path5026"
       inkscape:connector-curvature="0" />
  </g>
  <g
     inkscape:groupmode="layer"
     id="layer1"
     inkscape:label="txt">
    <path
       style="color:#000000;display:inline;overflow:visible;visibility:visible;fill:#ffffff;fill-opacity:1;fill-rule:nonzero;stroke:none;stroke-width:1px;marker:none;enable-background:accumulate"
       d="m 2161.1513,2018.3364 c 4.1786,-4.0098 -51.4117,-57.9648 -51.4117,-57.9648 0,0 -1.134,-22.9912 -2.2528,-27.937 -12.2737,-9.2903 -31.5157,-17.9125 -31.5157,-17.9125 l 16.4004,-57.8785 4.2148,41.1034 35.6867,4.8795 8.9531,39.5666 39.3388,41.9422 z"
       id="path4448"
       inkscape:connector-curvature="0"
       sodipodi:nodetypes="cccccccccc" />
    <path
       style="color:#000000;display:inline;overflow:visible;visibility:visible;fill:#ffffff;fill-opacity:1;fill-rule:nonzero;stroke:none;stroke-width:1px;marker:none;enable-background:accumulate"
       d="m 2057.3098,1929.0076 c -6.5254,20.6285 -43.3294,22.3583 -56.878,18.1652 27.3108,23.0767 26.3587,37.4147 -10.7217,39.6409 62.1845,41.5904 11.3681,35.2968 1.345,45.843 48.8263,14.3329 26.9809,32.1707 18.2881,49.9278 56.1211,0.6099 37.7552,29.0741 40.1206,51.7439 4.7577,-10.6377 27.3603,-43.0236 28.7203,-6.9641 37.1208,-34.4027 81.8319,-56.6251 85.3821,3.5798 14.9565,-30.2875 29.8683,-43.0881 28.7203,-6.9641 37.0577,-46.9839 70.3592,-30.0719 103.8582,-16.7925 8.7983,-14.1808 9.8234,-35.9667 38.288,-30.8613 -3.991,-14.0558 5.6198,-23.7176 27.3243,-29.4553 -28.8418,-8.4906 -34.1572,-17.2486 19.3955,-26.6735 -40.7506,-0.9116 -78.7506,-2.7794 -30.9414,-34.921 -14.9991,-0.7778 -50.586,26.0421 -33.994,-52.4468 -25.7918,25.127 -53.3092,38.9954 -87.8187,-13.6394 -16.3315,26.2953 -44.6584,39.3073 -56.9819,6.4624 -4.4294,14.0023 -22.7957,19.2684 -38.3875,19.907 -6.0293,-5.562 -12.2479,-13.1166 -18.7373,-23.0143 -10.6063,20.7826 -26.4721,34.8183 -56.9819,6.4623 z"
       id="path3549-3-7"
       inkscape:connector-curvature="0"
       sodipodi:nodetypes="cccccccccccccccccccc" />
    <text
       xml:space="preserve"
       style="font-style:normal;font-variant:normal;font-weight:normal;font-stretch:normal;font-size:12px;line-height:125%;font-family:Lavi;-inkscape-font-specification:Lavi;text-align:center;letter-spacing:0px;word-spacing:0px;text-anchor:middle;fill:#000000;fill-opacity:1;stroke:none"
       x="343.23199"
       y="344.86267"
       id="text4246"
       sodipodi:linespacing="125%"><tspan
         sodipodi:role="line"
         style="font-size:45px"
         x="343.23199"
         y="344.86267"
         id="tspan4167">Jeg er klar!</tspan></text>
    <text
       xml:space="preserve"
       style="font-style:normal;font-variant:normal;font-weight:normal;font-stretch:normal;font-size:12px;line-height:125%;font-family:Lavi;-inkscape-font-specification:Lavi;text-align:center;letter-spacing:0px;word-spacing:0px;text-anchor:middle;fill:#000000;fill-opacity:1;stroke:none"
       x="1566.6134"
       y="459.81094"
       id="text4246-6"
       sodipodi:linespacing="125%"><tspan
         sodipodi:role="line"
         style="font-size:45px"
         x="1566.6134"
         y="459.81094"
         id="tspan4173">Jeg ogs<tspan
   style="font-size:40px"
   id="tspan4185">å</tspan>!</tspan></text>
    <text
       xml:space="preserve"
       style="font-style:normal;font-variant:normal;font-weight:normal;font-stretch:normal;font-size:12px;line-height:125%;font-family:Lavi;-inkscape-font-specification:Lavi;text-align:center;letter-spacing:0px;word-spacing:0px;text-anchor:middle;fill:#000000;fill-opacity:1;stroke:none"
       x="1886.3446"
       y="587.49286"
       id="text4246-6-6"
       sodipodi:linespacing="125%"><tspan
         sodipodi:role="line"
         style="font-size:45px"
         x="1886.3446"
         y="587.49286"
         id="tspan4190">Veldig bra! Det er</tspan><tspan
         sodipodi:role="line"
         style="font-size:45px"
         x="1886.3446"
         y="643.74286"
         id="tspan4194">rette innstillingen!</tspan></text>
    <path
       style="color:#000000;display:inline;overflow:visible;visibility:visible;fill:#ffffff;fill-opacity:1;fill-rule:nonzero;stroke:none;stroke-width:1px;marker:none;enable-background:accumulate"
       d="m 402.77879,347.50484 c 22.15612,15.10333 46.34463,36.52674 51.59716,42.36413 -9.06843,5.91442 -16.48478,13.03038 -22.33305,18.46202 10.67512,9.57878 62.90829,49.98418 79.13553,51.89842 -40.50503,-2.62141 -92.4131,-33.57964 -108.63684,-51.22873 6.9082,-8.69591 11.86637,-14.03973 15.42652,-18.71416 -7.66687,-9.40888 -28.79378,-26.04257 -28.79378,-26.04257 z"
       id="path5066"
       inkscape:connector-curvature="0"
       sodipodi:nodetypes="cccccccc" />
    <text
       xml:space="preserve"
       style="font-style:normal;font-variant:normal;font-weight:normal;font-stretch:normal;font-size:14.61915112px;line-height:125%;font-family:Lavi;-inkscape-font-specification:Lavi;text-align:center;letter-spacing:0px;word-spacing:0px;text-anchor:middle;fill:#000000;fill-opacity:1;stroke:#000000;stroke-width:3.50057316;stroke-miterlimit:4;stroke-dasharray:none;stroke-opacity:1"
       x="2616.5769"
       y="2996.991"
       id="text4246-6-6-6-2"
       sodipodi:linespacing="125%"
       transform="matrix(0.91306665,0,-0.10964797,1.0952103,0,0)"><tspan
         sodipodi:role="line"
         style="font-size:54.82181931px;stroke:#000000;stroke-width:3.50057316;stroke-miterlimit:4;stroke-dasharray:none;stroke-opacity:1"
         x="2616.5769"
         y="2996.991"
         id="tspan4204-9-4"><tspan
           style="font-size:73.09576416px;stroke-width:3.50057316;stroke-miterlimit:4;stroke-dasharray:none"
           id="tspan4401-4">TIL ANGREP !!!</tspan></tspan></text>
    <text
       xml:space="preserve"
       style="font-style:normal;font-variant:normal;font-weight:normal;font-stretch:normal;font-size:15.09734917px;line-height:125%;font-family:Lavi;-inkscape-font-specification:Lavi;text-align:center;letter-spacing:0px;word-spacing:0px;text-anchor:middle;fill:#000000;fill-opacity:1;stroke:#000000;stroke-width:2.26460218;stroke-miterlimit:4;stroke-dasharray:none;stroke-opacity:1"
       x="1330.5355"
       y="2643.2915"
       id="text4246-6-6-6-3"
       sodipodi:linespacing="125%"
       transform="matrix(0.89466356,0,-0.27376521,1.1177386,0,0)"><tspan
         sodipodi:role="line"
         style="font-size:56.6150589px;stroke:#000000;stroke-width:2.26460218;stroke-miterlimit:4;stroke-dasharray:none;stroke-opacity:1"
         x="1330.5355"
         y="2643.2915"
         id="tspan4204-9-1">ET...</tspan><tspan
         sodipodi:role="line"
         style="font-size:56.6150589px;stroke:#000000;stroke-width:2.26460218;stroke-miterlimit:4;stroke-dasharray:none;stroke-opacity:1"
         x="1343.8047"
         y="2731.6228"
         id="tspan4182-3"><tspan
           style="font-size:75.48674774px;stroke-width:2.26460218"
           id="tspan4401-7">ET MONSTER! </tspan></tspan></text>
    <text
       xml:space="preserve"
       style="font-style:normal;font-variant:normal;font-weight:normal;font-stretch:normal;font-size:12.11296082px;line-height:125%;font-family:Lavi;-inkscape-font-specification:Lavi;text-align:center;letter-spacing:0px;word-spacing:0px;text-anchor:middle;fill:#000000;fill-opacity:1;stroke:#000000;stroke-width:1.90164542;stroke-miterlimit:4;stroke-dasharray:none;stroke-opacity:1"
       x="3161.9504"
       y="2795.7734"
       id="text4246-6-6-6-3-3"
       sodipodi:linespacing="125%"
       transform="matrix(0.88127134,0,-0.26966722,1.1347243,0,0)"><tspan
         sodipodi:role="line"
         style="font-size:45.42360306px;stroke:#000000;stroke-width:1.90164542;stroke-miterlimit:4;stroke-dasharray:none;stroke-opacity:1"
         x="3161.9504"
         y="2795.7734"
         id="tspan4182-3-0"><tspan
           style="font-size:60.56480408px;stroke-width:1.90164542"
           id="tspan4401-7-3">DET ER EN FELLE !</tspan></tspan></text>
    <text
       xml:space="preserve"
       style="font-style:normal;font-variant:normal;font-weight:normal;font-stretch:normal;font-size:11.26058006px;line-height:125%;font-family:Lavi;-inkscape-font-specification:Lavi;text-align:center;letter-spacing:0px;word-spacing:0px;text-anchor:middle;fill:#000000;fill-opacity:1;stroke:#000000;stroke-width:1.81785417;stroke-miterlimit:4;stroke-dasharray:none;stroke-opacity:1"
       x="3068.1604"
       y="2747.407"
       id="text4246-6-6-6-3-3-2"
       sodipodi:linespacing="125%"
       transform="matrix(0.89429408,0,-0.27365214,1.1182004,0,0)"><tspan
         sodipodi:role="line"
         style="font-size:42.22717285px;stroke:#000000;stroke-width:1.81785417;stroke-miterlimit:4;stroke-dasharray:none;stroke-opacity:1"
         x="3068.1604"
         y="2747.407"
         id="tspan4182-3-0-0"><tspan
           style="font-size:56.30289841px;stroke-width:1.81785417"
           id="tspan4401-7-3-2">JEG VISSTE DET !!</tspan></tspan></text>
    <text
       xml:space="preserve"
       style="font-style:normal;font-variant:normal;font-weight:normal;font-stretch:normal;font-size:15.09734917px;line-height:125%;font-family:Lavi;-inkscape-font-specification:Lavi;text-align:center;letter-spacing:0px;word-spacing:0px;text-anchor:middle;fill:#000000;fill-opacity:1;stroke:#000000;stroke-width:2.26460218;stroke-miterlimit:4;stroke-dasharray:none;stroke-opacity:1"
       x="2980.5588"
       y="1829.2655"
       id="text4246-6-6-6-3-9"
       sodipodi:linespacing="125%"
       transform="matrix(0.89466356,0,-0.27376521,1.1177386,0,0)"><tspan
         sodipodi:role="line"
         style="font-size:75.48674774px;stroke:#000000;stroke-width:2.26460218;stroke-miterlimit:4;stroke-dasharray:none;stroke-opacity:1"
         x="2980.5588"
         y="1829.2655"
         id="tspan4182-3-7"><tspan
   style="font-size:67.50000017px"
   id="tspan4187">Å</tspan>nei !</tspan></text>
    <text
       xml:space="preserve"
       style="font-style:normal;font-variant:normal;font-weight:normal;font-stretch:normal;font-size:20.24827003px;line-height:125%;font-family:Lavi;-inkscape-font-specification:Lavi;text-align:center;letter-spacing:0px;word-spacing:0px;text-anchor:middle;fill:#000000;fill-opacity:1;stroke:#000000;stroke-opacity:1"
       x="711.13989"
       y="1410.2054"
       id="text4246-6-6-6"
       sodipodi:linespacing="125%"
       transform="matrix(0.90154271,-0.21786991,0.04563123,1.0981824,0,0)"><tspan
         sodipodi:role="line"
         style="font-size:75.93101501px;stroke:#000000;stroke-opacity:1"
         x="711.13989"
         y="1410.2054"
         id="tspan4476-1"
         dy="0"
         rotate="4.1000004 4.1000004 4.1000004 4.1000004 4.1000004 4.1000004 4.1000004 4.1000004 4.1000004 0">Fremmad !</tspan></text>
  </g>
</svg>
