<?xml version="1.0" encoding="UTF-8" standalone="no"?>
<!-- Created with Inkscape (http://www.inkscape.org/) -->

<svg
   xmlns:dc="http://purl.org/dc/elements/1.1/"
   xmlns:cc="http://creativecommons.org/ns#"
   xmlns:rdf="http://www.w3.org/1999/02/22-rdf-syntax-ns#"
   xmlns:svg="http://www.w3.org/2000/svg"
   xmlns="http://www.w3.org/2000/svg"
   xmlns:xlink="http://www.w3.org/1999/xlink"
   xmlns:sodipodi="http://sodipodi.sourceforge.net/DTD/sodipodi-0.dtd"
   xmlns:inkscape="http://www.inkscape.org/namespaces/inkscape"
   id="svg2"
   version="1.1"
   inkscape:version="0.91 r13725"
   width="2481"
   height="3503"
   sodipodi:docname="Pepper-and-Carrot_by-David-Revoy_E16P04.svg">
  <metadata
     id="metadata8">
    <rdf:RDF>
      <cc:Work
         rdf:about="">
        <dc:format>image/svg+xml</dc:format>
        <dc:type
           rdf:resource="http://purl.org/dc/dcmitype/StillImage" />
        <dc:title />
      </cc:Work>
    </rdf:RDF>
  </metadata>
  <defs
     id="defs6" />
  <sodipodi:namedview
     pagecolor="#ffffff"
     bordercolor="#666666"
     borderopacity="1"
     objecttolerance="10"
     gridtolerance="10"
     guidetolerance="10"
     inkscape:pageopacity="0"
     inkscape:pageshadow="2"
     inkscape:window-width="1226"
     inkscape:window-height="1029"
     id="namedview4"
     showgrid="false"
     inkscape:zoom="0.42773947"
     inkscape:cx="1122.2695"
     inkscape:cy="1441.9055"
     inkscape:window-x="677"
     inkscape:window-y="-3"
     inkscape:window-maximized="0"
     inkscape:current-layer="layer1" />
  <g
     inkscape:groupmode="layer"
     id="layer2"
     inkscape:label="artwork"
     sodipodi:insensitive="true">
    <image
       sodipodi:absref="C:\Users\Kari\Documents\Pepper and Carrot\Episode 16\fi\..\peppercarrot_ep16_translation-master\en\.\..\gfx_Pepper-and-Carrot_by-David-Revoy_E16P04.png"
       xlink:href="..\peppercarrot_ep16_translation-master\en\.\..\gfx_Pepper-and-Carrot_by-David-Revoy_E16P04.png"
       width="2481"
       height="3503"
       id="image10"
       x="0"
       y="0" />
  </g>
  <g
     inkscape:groupmode="layer"
     id="layer3"
     inkscape:label="speechbubbles">
    <path
       style="fill:#ffffff;stroke:none"
       d="m 166.39322,265.82928 c 9.081,-58.82058 40.4515,-115.12036 229.5001,-122.68297 94.52434,-3.7813 276.72853,-5.38247 367.43903,22.09133 90.71053,27.47381 89.92736,84.02261 90.34013,106.29038 0.41277,22.26778 7.99418,77.46676 -85.17714,99.10547 -93.17131,21.63871 -287.09539,9.71717 -363.45783,10.55747 -152.7249,1.6806 -233.69103,-0.2414 -238.64429,-115.36168 z"
       id="path3270"
       inkscape:connector-curvature="0"
       sodipodi:nodetypes="csssssc" />
    <path
       style="color:#000000;display:inline;overflow:visible;visibility:visible;fill:#ffffff;fill-opacity:1;fill-rule:nonzero;stroke:none;stroke-width:1px;marker:none;enable-background:accumulate"
       d="m 314.85628,371.33323 c 43.52753,-36.01763 420.36598,-57.79185 520.18048,1.40079 83.31377,49.40728 50.80751,172.449 -23.28687,200.78935 C 737.65575,601.8638 491.17145,598.57433 383.14296,585.72555 280.28498,573.49168 263.01339,536.56529 257.95392,462.21424 255.88895,431.86868 271.32857,407.351 314.85628,371.33323 Z"
       id="path4040-4"
       inkscape:connector-curvature="0"
       sodipodi:nodetypes="zssssz" />
    <path
       style="color:#000000;display:inline;overflow:visible;visibility:visible;fill:#ffffff;fill-opacity:1;fill-rule:nonzero;stroke:none;stroke-width:1px;marker:none;enable-background:accumulate"
       d="M 548.56247,346.28345 C 818.67335,851.31918 962.4842,769.73858 1139.7545,716.83443 950.46167,803.3409 775.67489,874.14978 501.74228,369.42576 c -14.05374,-25.89419 46.82019,-23.14231 46.82019,-23.14231 z"
       id="path4008"
       inkscape:connector-curvature="0"
       sodipodi:nodetypes="ccsc" />
    <path
       style="color:#000000;display:inline;overflow:visible;visibility:visible;fill:#ffffff;fill-opacity:1;fill-rule:nonzero;stroke:none;stroke-width:1px;marker:none;enable-background:accumulate"
       d="m 748.16188,1059.3648 c -4.9419,-27.0877 8.23649,-99.03943 109.54588,-93.11397 101.30924,5.92537 117.78244,39.78497 120.25334,49.94287 2.4709,10.1579 23.8859,67.7194 -55.18475,82.9563 -79.07073,15.2368 -149.90485,-0.8466 -174.61447,-39.7852 z"
       id="path3525"
       inkscape:connector-curvature="0" />
    <path
       style="color:#000000;display:inline;overflow:visible;visibility:visible;fill:#ffffff;fill-opacity:1;fill-rule:nonzero;stroke:none;stroke-width:1px;marker:none;enable-background:accumulate"
       d="m 852.68349,1126.1957 c -9.75072,-28.0107 16.25118,-102.4142 216.14251,-96.2868 199.8906,6.1274 232.3934,41.1407 237.2686,51.6448 4.8755,10.5039 47.1288,70.0268 -108.8835,85.7829 -156.0124,15.7559 -295.77367,-0.8754 -344.52761,-41.1409 z"
       id="path3525-0"
       inkscape:connector-curvature="0" />
    <path
       style="color:#000000;display:inline;overflow:visible;visibility:visible;fill:#ffffff;fill-opacity:1;fill-rule:nonzero;stroke:none;stroke-width:1px;marker:none;enable-background:accumulate"
       d="m 926.42022,1257.075 c 0.59322,-44.6301 21.44965,-93.7304 97.08088,-118.7096 75.6315,-24.9793 227.4649,-9.3804 254.6897,-2.8919 34.3869,8.1955 123.7985,36.2564 148.5278,70.4396 24.7295,34.183 32.65,77.03 22.1937,107.4417 -10.456,30.4114 -48.4593,59.7088 -80.7903,68.8562 -32.3309,9.1475 -231.4538,14.1158 -268.115,4.7936 -36.6611,-9.3221 -96.544,-14.4613 -127.14279,-38.0317 -31.02125,-23.8955 -47.03739,-47.2678 -46.44399,-91.8979 z"
       id="path3373"
       inkscape:connector-curvature="0"
       sodipodi:nodetypes="zsssssssz" />
    <path
       style="color:#000000;display:inline;overflow:visible;visibility:visible;fill:#ffffff;fill-opacity:1;fill-rule:nonzero;stroke:none;stroke-width:1px;marker:none;enable-background:accumulate"
       d="m 1353.1045,1486.1109 c -17.6743,6.4442 -35.9622,13.4942 -56.6916,8.7928 -5.9074,-1.4988 -12.0586,-3.5824 -17.8157,-7.536 -5.6534,-5.6714 -8.1342,-14.8796 -7.7374,-22.3553 -0.038,-11.0732 3.5645,-21.3765 -0.132,-33.3984 -2.8396,-8.7238 -9.889,-13.0983 -15.6943,-17.3851 -14.8818,-10.591 -30.3953,-18.9029 -44.5591,-32.1972 -16.4134,-13.8335 -33.2388,-29.725 -44.6315,-51.3879 -4.4162,-8.6329 -8.2604,-18.1551 -8.7808,-27.4678 -2.1762,-24.1255 6.2222,-46.2462 22.341,-52.6796 10.8776,-2.6518 26.1352,8.6451 30.8391,24.9803 2.5746,8.6101 0.6371,16.5032 -2.7594,21.9348 -4.4219,12.1322 -2.2192,29.1384 4.6177,43.565 5.515,11.975 19.9292,13.9114 28.768,21.8543 10.6917,14.3128 22.5926,18.8565 35.242,26.2872 5.7643,3.498 17.2268,13.0885 21.8547,19.5004 5.3367,10.6553 3.6397,23.8849 1.2988,32.7032 -2.2102,9.2491 -6.7566,13.924 -2.6636,25.5015 2.0954,8.2407 10.4347,11.3429 15.4067,14.2225 16.3541,6.7626 22.9447,11.3822 37.3062,7.063 1.3135,-0.5605 2.5522,-1.2752 3.7912,-1.9972 z"
       id="path4496"
       inkscape:connector-curvature="0"
       sodipodi:nodetypes="cccccccccccccccccccccc" />
    <path
       style="color:#000000;display:inline;overflow:visible;visibility:visible;fill:#ffffff;fill-opacity:1;fill-rule:nonzero;stroke:none;stroke-width:1px;marker:none;enable-background:accumulate"
       d="m 391.02755,1750.4783 c -7.87244,16.8439 -52.27414,18.2563 -68.61963,14.8325 32.94874,18.8431 31.80005,30.5506 -12.93504,32.3684 75.02151,33.9602 13.71494,28.8212 1.62265,37.4326 58.90577,11.7033 32.55073,26.2686 22.06346,40.7678 67.70636,0.4981 45.54916,23.7401 48.40285,42.2509 5.73985,-8.6861 33.00837,-35.1304 34.64912,-5.6864 44.78382,-28.0911 98.72475,-46.2366 103.00783,2.9231 18.04415,-24.731 36.03415,-35.1833 34.64909,-5.6866 44.70777,-38.364 84.8839,-24.5547 125.29811,-13.7116 10.61459,-11.5793 11.8514,-29.3682 46.19207,-25.1995 -4.81497,-11.4771 6.77989,-19.3663 32.9649,-24.0513 -34.79574,-6.933 -41.20847,-14.0841 23.39941,-21.7799 -49.16281,-0.7444 -95.00748,-2.2695 -37.3288,-28.5144 -18.0954,-0.6352 -61.02864,21.2643 -41.01147,-42.8249 -31.11606,20.5173 -64.31411,31.8413 -105.94744,-11.137 -19.70301,21.4711 -53.87743,32.0959 -68.745,5.2768 -5.3437,11.4334 -27.5015,15.7334 -46.31187,16.2548 -7.274,-4.5416 -14.77629,-10.7102 -22.60525,-18.7922 -12.79584,16.9699 -31.93697,28.4306 -68.74499,5.2769 z"
       id="path3549-3-7"
       inkscape:connector-curvature="0"
       sodipodi:nodetypes="cccccccccccccccccccc" />
    <path
       style="color:#000000;display:inline;overflow:visible;visibility:visible;fill:#ffffff;fill-opacity:1;fill-rule:nonzero;stroke:none;stroke-width:1px;marker:none;enable-background:accumulate"
       d="m 364.4778,1892.888 c 27.35291,-19.988 258.24266,-41.6839 339.39206,-0.4927 81.14944,41.1912 31.92767,90.6206 -14.63354,106.3481 -46.56111,15.7275 -183.58391,32.9529 -246.10879,19.4722 -62.52502,-13.4808 -111.22802,-33.6319 -114.40739,-74.893 -1.29768,-16.8404 8.40466,-30.4465 35.75766,-50.4346 z"
       id="path4040"
       inkscape:connector-curvature="0"
       sodipodi:nodetypes="zssssz" />
    <path
       style="fill:#ffffff;fill-rule:evenodd;stroke:none;stroke-width:1px;stroke-linecap:butt;stroke-linejoin:miter;stroke-opacity:1"
       d="m 1714.2654,2080.7017 c 84.2926,8.4181 101.7865,32.4194 119.9299,8.2333 13.6724,-32.3165 73.9597,-7.8033 80.1837,-16.9339 13.3752,-19.6213 -23.6159,-28.5877 -14.9153,-48.4748 8.7006,-19.887 29.8306,-43.5029 29.8306,-43.5029 l 16.1582,9.9435 c 0,0 -26.2419,26.5691 -24.999,37.7556 1.2429,11.1864 26.242,48.0074 3.869,56.708 -22.3729,8.7006 -76.8117,-7.6784 -88.6225,17.2796 -11.8107,24.9579 -83.1478,-13.4558 -121.4346,-21.0084 z"
       id="path4407"
       inkscape:connector-curvature="0"
       sodipodi:nodetypes="ccssccsszc" />
    <path
       style="color:#000000;display:inline;overflow:visible;visibility:visible;fill:#ffffff;fill-opacity:1;fill-rule:nonzero;stroke:none;stroke-width:1px;marker:none;enable-background:accumulate"
       d="m 666.6939,1912.014 c 38.36403,14.2827 84.86956,27.5154 96.07851,29.8219 -4.37169,-11.6312 -5.81209,-22.2337 -7.1164,-30.5082 20.64043,5.7806 115.57926,37.1569 135.10867,51.9928 -46.72733,-38.0638 -117.47092,-65.994 -151.73555,-73.3007 -0.59494,10.8648 0.83117,17.7165 0.34378,23.4081 -17.19324,-2.942 -71.86892,-22.6256 -71.86892,-22.6256 z"
       id="path5066"
       inkscape:connector-curvature="0"
       inkscape:transform-center-x="-112.42356"
       inkscape:transform-center-y="21.85935" />
    <path
       style="fill:#ffffff;stroke:none"
       d="m 333.8167,2342.1368 c 1.80037,-55.1279 70.15142,-63.2247 116.26321,-60.8217 38.33993,1.9981 185.78044,-11.9117 227.7988,38.4094 17.94243,21.4878 15.03561,77.5661 -9.90358,100.9098 -21.26724,19.9066 -59.92416,20.5191 -107.0349,26.7507 -58.49742,7.7377 -142.35537,-5.8877 -188.30051,-15.8346 -21.62769,-4.6823 -40.62347,-34.2859 -38.82302,-89.4136 z"
       id="path3100"
       inkscape:connector-curvature="0"
       sodipodi:nodetypes="zsssssz" />
    <path
       style="color:#000000;fill:#ffffff;fill-opacity:1;fill-rule:nonzero;stroke:none;stroke-width:1px;marker:none;visibility:visible;display:inline;overflow:visible;enable-background:accumulate"
       d="m 451.85388,2540.3406 c -3.49953,-119.0514 141.36845,-106.2913 244.49525,-115.5767 56.28185,-5.0676 260.53495,8.198 279.94898,113.818 11.18289,60.8402 -58.15747,112.7882 -85.62894,121.9235 -27.47129,9.1352 -160.21491,20.9828 -202.94092,18.1991 -42.72582,-2.7838 -240.01202,21.601 -235.87437,-138.3639 z"
       id="path4974"
       inkscape:connector-curvature="0"
       sodipodi:nodetypes="cssssc" />
    <path
       style="fill:#ffffff;fill-rule:evenodd;stroke:none;stroke-width:1px;stroke-linecap:butt;stroke-linejoin:miter;stroke-opacity:1"
       d="m 1237.025,3033.6211 c -25.9077,-74.9353 -135.8732,-262.1385 -253.0276,-244.8772 -71.26981,10.5007 -133.59485,24.8303 -156.2354,-60.7422 -5.53435,-9.3115 -79.49392,-55.5178 -68.47418,-45.6614 73.55047,108.3097 57.38616,155.8485 221.82078,126.0514 132.8264,-23.6523 255.9164,225.2294 255.9164,225.2294 z"
       id="path4652"
       inkscape:connector-curvature="0"
       sodipodi:nodetypes="cscccc" />
    <path
       style="fill:#ffffff;stroke:none"
       d="m 690.56515,2688.8923 c 2.2706,-72.9761 88.47785,-83.6944 146.63606,-80.5134 48.35594,2.6451 234.31419,-15.7682 287.30949,50.8448 22.6298,28.4448 18.9636,102.679 -12.4908,133.5804 -26.8231,26.3517 -75.5788,27.1624 -134.99695,35.4116 -73.77942,10.2428 -179.54475,-7.7939 -237.49259,-20.9613 -27.27787,-6.1982 -51.23613,-45.3862 -48.96521,-118.3621 z"
       id="path3100-7"
       inkscape:connector-curvature="0"
       sodipodi:nodetypes="zsssssz" />
    <path
       style="color:#000000;display:inline;overflow:visible;visibility:visible;fill:#ffffff;fill-opacity:1;fill-rule:nonzero;stroke:none;stroke-width:1px;marker:none;enable-background:accumulate"
       d="m 503.73633,579.84113 c 32.14108,-24.99351 310.40171,-40.10316 384.10554,0.97204 61.51959,34.2849 37.5167,119.66652 -17.1952,139.33257 -54.71172,19.66611 -236.71778,17.38347 -316.48691,8.46738 -75.95118,-8.48937 -88.70467,-34.11348 -92.44063,-85.70747 -1.52478,-21.05751 9.87596,-38.07093 42.0172,-63.06452 z"
       id="path4040-4-3"
       inkscape:connector-curvature="0"
       sodipodi:nodetypes="zssssz" />
    <text
       xml:space="preserve"
       style="font-style:normal;font-variant:normal;font-weight:normal;font-stretch:normal;font-size:12px;line-height:125%;font-family:Lavi;-inkscape-font-specification:Lavi;text-align:center;letter-spacing:0px;word-spacing:0px;text-anchor:middle;fill:#000000;fill-opacity:1;stroke:none"
       x="569.67163"
       y="549.36517"
       id="text4246-9-1"
       sodipodi:linespacing="125%"><tspan
         sodipodi:role="line"
         style="font-size:45px"
         x="569.67163"
         y="549.36517"
         id="tspan3413-0">kanssa.</tspan></text>
  </g>
  <g
     inkscape:groupmode="layer"
     id="layer1"
     inkscape:label="txt">
    <text
       xml:space="preserve"
       style="font-style:normal;font-variant:normal;font-weight:normal;font-stretch:normal;font-size:12px;line-height:125%;font-family:Lavi;-inkscape-font-specification:Lavi;text-align:center;letter-spacing:0px;word-spacing:0px;text-anchor:middle;fill:#000000;fill-opacity:1;stroke:none"
       x="515.20721"
       y="218.80753"
       id="text4246"
       sodipodi:linespacing="125%"><tspan
         sodipodi:role="line"
         style="font-size:45px"
         x="515.20721"
         y="218.80753"
         id="tspan3572">Emme ole enää niin nuoria</tspan><tspan
         sodipodi:role="line"
         style="font-size:45px"
         x="515.20721"
         y="275.05753"
         id="tspan3403">kuin ennen, ja nyt olisi</tspan><tspan
         sodipodi:role="line"
         style="font-size:45px"
         x="515.20721"
         y="331.30753"
         id="tspan3576">hyvä hetki oppitunnille.</tspan></text>
    <text
       xml:space="preserve"
       style="font-style:normal;font-variant:normal;font-weight:normal;font-stretch:normal;font-size:12px;line-height:125%;font-family:Lavi;-inkscape-font-specification:Lavi;text-align:center;letter-spacing:0px;word-spacing:0px;text-anchor:middle;fill:#000000;fill-opacity:1;stroke:none"
       x="569.4491"
       y="431.29367"
       id="text4246-9"
       sodipodi:linespacing="125%"><tspan
         sodipodi:role="line"
         style="font-size:45px"
         x="569.4491"
         y="431.29367"
         id="tspan3413">Ehdotan tapaamista</tspan></text>
    <text
       xml:space="preserve"
       style="font-style:normal;font-variant:normal;font-weight:normal;font-stretch:normal;font-size:12px;line-height:125%;font-family:Lavi;-inkscape-font-specification:Lavi;text-align:center;letter-spacing:0px;word-spacing:0px;text-anchor:middle;fill:#000000;fill-opacity:1;stroke:none"
       x="865.90961"
       y="1049.8156"
       id="text4246-9-6"
       sodipodi:linespacing="125%"><tspan
         sodipodi:role="line"
         style="font-size:45px"
         x="865.90961"
         y="1049.8156"
         id="tspan4183-4">Hah hah!</tspan></text>
    <text
       xml:space="preserve"
       style="font-style:normal;font-variant:normal;font-weight:normal;font-stretch:normal;font-size:12px;line-height:125%;font-family:Lavi;-inkscape-font-specification:Lavi;text-align:center;letter-spacing:0px;word-spacing:0px;text-anchor:middle;fill:#000000;fill-opacity:1;stroke:none"
       x="1074.2822"
       y="1116.4899"
       id="text4246-9-6-2"
       sodipodi:linespacing="125%"><tspan
         sodipodi:role="line"
         style="font-size:45px"
         x="1074.2822"
         y="1116.4899"
         id="tspan4183-4-1">Vai tietäjän kanssa?</tspan></text>
    <text
       xml:space="preserve"
       style="font-style:normal;font-variant:normal;font-weight:normal;font-stretch:normal;font-size:12px;line-height:125%;font-family:Lavi;-inkscape-font-specification:Lavi;text-align:center;letter-spacing:0px;word-spacing:0px;text-anchor:middle;fill:#000000;fill-opacity:1;stroke:none"
       x="1184.0806"
       y="1225.4587"
       id="text4246-9-6-2-4"
       sodipodi:linespacing="125%"><tspan
         sodipodi:role="line"
         style="font-size:45px"
         x="1184.0806"
         y="1225.4587"
         id="tspan4279">Eivätkö he ole liian</tspan><tspan
         sodipodi:role="line"
         style="font-size:45px"
         x="1184.0806"
         y="1281.7087"
         id="tspan3591">nuoria ymmärtämään</tspan><tspan
         sodipodi:role="line"
         style="font-size:45px"
         x="1184.0806"
         y="1337.9587"
         id="tspan3593">hänen opetuksensa?</tspan></text>
    <text
       xml:space="preserve"
       style="font-style:normal;font-variant:normal;font-weight:normal;font-stretch:normal;font-size:12px;line-height:125%;font-family:Lavi;-inkscape-font-specification:Lavi;text-align:center;letter-spacing:0px;word-spacing:0px;text-anchor:middle;fill:#000000;fill-opacity:1;stroke:none"
       x="535.57526"
       y="1824.1853"
       id="text4246-9-6-2-4-7"
       sodipodi:linespacing="125%"><tspan
         sodipodi:role="line"
         style="font-size:45px"
         x="535.57526"
         y="1824.1853"
         id="tspan4347">Liian nuoria</tspan><tspan
         sodipodi:role="line"
         style="font-size:45px"
         x="535.57526"
         y="1880.4353"
         id="tspan3597">mihin!?</tspan></text>
    <text
       xml:space="preserve"
       style="font-style:normal;font-variant:normal;font-weight:normal;font-stretch:normal;font-size:15.14146233px;line-height:125%;font-family:Lavi;-inkscape-font-specification:Lavi;text-align:center;letter-spacing:0px;word-spacing:0px;text-anchor:middle;fill:#000000;fill-opacity:1;stroke:none"
       x="570.10138"
       y="1888.0491"
       id="text4246-9-6-2-4-7-3"
       sodipodi:linespacing="125%"
       transform="scale(0.96046588,1.0411614)"><tspan
         sodipodi:role="line"
         style="font-size:56.78048325px"
         x="570.10138"
         y="1888.0491"
         id="tspan4359">Me menemme!</tspan></text>
    <path
       style="color:#000000;display:inline;overflow:visible;visibility:visible;fill:#ffffff;fill-opacity:1;fill-rule:nonzero;stroke:none;stroke-width:1px;marker:none;enable-background:accumulate"
       d="m 1859.9208,2026.0859 c -20.4432,-14.3102 -27.5983,-27.5982 -25.5539,-35.7755 2.0443,-8.1772 20.4431,-50.0857 42.9305,-55.1965 22.4875,-5.1108 80.7504,-11.2437 94.0385,-6.1329 13.2881,5.1107 51.1079,38.842 51.1079,56.2186 0,17.3767 -7.1551,51.1079 -27.5983,61.3294 -20.4431,10.2216 -110.393,16.3546 -134.9247,-20.4431 z"
       id="path3349"
       inkscape:connector-curvature="0" />
    <text
       xml:space="preserve"
       style="font-style:normal;font-variant:normal;font-weight:normal;font-stretch:normal;font-size:12px;line-height:125%;font-family:Lavi;-inkscape-font-specification:Lavi;text-align:center;letter-spacing:0px;word-spacing:0px;text-anchor:middle;fill:#000000;fill-opacity:1;stroke:none"
       x="1926.6875"
       y="2003.7067"
       id="text4246-9-6-2-4-7-38"
       sodipodi:linespacing="125%"><tspan
         sodipodi:role="line"
         style="font-size:45px"
         x="1926.6875"
         y="2003.7067"
         id="tspan4364-4">&quot;Me&quot;?</tspan></text>
    <text
       xml:space="preserve"
       style="font-style:normal;font-variant:normal;font-weight:normal;font-stretch:normal;font-size:12px;line-height:125%;font-family:Lavi;-inkscape-font-specification:Lavi;text-align:center;letter-spacing:0px;word-spacing:0px;text-anchor:middle;fill:#000000;fill-opacity:1;stroke:none"
       x="508.82184"
       y="2348.1084"
       id="text4246-9-6-2-4-7-3-4-8-5"
       sodipodi:linespacing="125%"><tspan
         sodipodi:role="line"
         style="font-size:45px"
         x="508.82184"
         y="2348.1084"
         id="tspan4251">No niin,</tspan><tspan
         sodipodi:role="line"
         style="font-size:45px"
         x="508.82184"
         y="2404.3584"
         id="tspan3604">tässä olemme.</tspan></text>
    <text
       xml:space="preserve"
       style="font-style:normal;font-variant:normal;font-weight:normal;font-stretch:normal;font-size:12px;line-height:125%;font-family:Lavi;-inkscape-font-specification:Lavi;text-align:center;letter-spacing:0px;word-spacing:0px;text-anchor:middle;fill:#000000;fill-opacity:1;stroke:none"
       x="709.08716"
       y="2450.3796"
       id="text4246-9-6-2-4-7-3-4-8-5-3"
       sodipodi:linespacing="125%"><tspan
         sodipodi:role="line"
         style="font-size:45px"
         x="709.08716"
         y="2450.3796"
         id="tspan4580-41" /><tspan
         sodipodi:role="line"
         style="font-size:45px"
         x="709.08716"
         y="2506.6296"
         id="tspan4365">Annan teidän mennä</tspan><tspan
         sodipodi:role="line"
         style="font-size:45px"
         x="709.08716"
         y="2562.8796"
         id="tspan3613">esittäytymään</tspan><tspan
         sodipodi:role="line"
         style="font-size:45px"
         x="709.08716"
         y="2619.1296"
         id="tspan3457">tietäjälle.</tspan><tspan
         sodipodi:role="line"
         style="font-size:45px"
         x="709.08716"
         y="2675.3796"
         id="tspan4251-3" /></text>
    <text
       xml:space="preserve"
       style="font-style:normal;font-variant:normal;font-weight:normal;font-stretch:normal;font-size:12px;line-height:125%;font-family:Lavi;-inkscape-font-specification:Lavi;text-align:center;letter-spacing:0px;word-spacing:0px;text-anchor:middle;fill:#000000;fill-opacity:1;stroke:none"
       x="916.37567"
       y="2708.2715"
       id="text4246-9-6-2-4-7-3-4-8-5-3-2"
       sodipodi:linespacing="125%"><tspan
         sodipodi:role="line"
         style="font-size:45px"
         x="916.37567"
         y="2708.2715"
         id="tspan4427">Löydätte hänet</tspan><tspan
         sodipodi:role="line"
         style="font-size:45px"
         x="916.37567"
         y="2764.5215"
         id="tspan4251-3-4">vuoren huipulta.</tspan></text>
    <path
       style="fill:#ffffff;fill-rule:evenodd;stroke:none"
       d="m 1618.5893,3119.4738 c 28.1919,65.5224 39.3495,60.4909 44.3631,30.0122 7.8101,11.0211 9.0079,43.3168 32.4544,4.027 13.6577,28.5744 25.0857,24.9438 34.6867,-5.0742 23.6549,54.1529 39.0761,22.9105 52.4078,10.8477 32.6986,30.3142 123.852,35.0321 164.3904,-3.9544 8.2417,13.9277 19.8994,33.8757 27.994,4.9428 11.5828,12.1791 27.4701,-4.7723 46.2555,-41.3384 -2.7755,23.7947 -15.7604,64.3406 10.2627,40.8797 2.7068,17.0096 0.012,39.5072 55.461,2.9427 -16.7146,48.4386 30.2359,-0.8275 75.7194,-47.842 -28.8409,41.0085 -68.158,91.4525 -19.7348,75.0138 -27.6133,34.3511 -28.5267,57.2402 51.52,45.3739 -52.5015,21.855 -92.647,45.0556 -36.6969,78.7237 -35.1989,-0.9324 -43.9565,9.4602 -5.5836,40.039 -54.5676,-20.2556 -59.1066,-10.9393 -45.4865,9.1108 -11.2325,0.3254 -30.7574,-16.6353 -28.8188,11.1477 -30.495,-17.5396 -72.1467,-55.3389 -68.3125,-10.5391 -31.4865,-34.414 -37.1383,-22.0955 -41.14,-6.7926 -56.0456,-52.0175 -49.1726,-20.9672 -60.2128,-13.5668 -16.14,-19.2382 -15.9689,-3.4666 -13.2674,17.7351 -15.3837,-22.4795 -29.5021,-31.1547 -40.3776,-4.4474 -9.6644,-12.368 -19.0649,-29.8866 -30.6939,-3.9334 -13.3559,-14.182 -27.5873,-19.8309 -45.6043,11.4096 -7.1634,-18.8971 -17.9547,-32.508 -55.2253,-7.54 -6.3237,-40.5341 -38.0029,-34.0262 -77.9375,-12.2024 1.5852,-23.8104 -1.2997,-39.4578 -43.1987,16.147 8.9027,-24.3123 19.0107,-49.94 -6.0376,-37.1984 16.3156,-46.5166 -42.0839,-5.3246 -76.2979,7.476 39.3599,-39.0106 96.7989,-86.403 51.1948,-86.0215 31.7562,-27.001 35.2608,-40.5096 9.105,-39.8521 2.2699,-8.3529 34.2929,-23.6559 -1.4625,-23.1263 19.0548,-11.3569 46.8521,-8.0504 40.2738,-62.3997 z"
       id="path4656"
       inkscape:connector-curvature="0"
       sodipodi:nodetypes="ccccccccccccccccccccccccccccccccc" />
    <path
       style="fill:#ffffff;fill-rule:evenodd;stroke:none;stroke-width:1px;stroke-linecap:butt;stroke-linejoin:miter;stroke-opacity:1"
       d="m 1395.9187,3167.1846 119.1853,69.1782 -1.1569,-33.8487 82.9076,45.0833 5.0953,-29.1891 -103.505,-45.5434 0.025,38.633 z"
       id="path4667"
       inkscape:connector-curvature="0"
       inkscape:transform-center-x="75.322047"
       inkscape:transform-center-y="-6.237049" />
    <text
       xml:space="preserve"
       style="font-style:normal;font-variant:normal;font-weight:normal;font-stretch:normal;font-size:12px;line-height:125%;font-family:Lavi;-inkscape-font-specification:Lavi;text-align:center;letter-spacing:0px;word-spacing:0px;text-anchor:middle;fill:#000000;fill-opacity:1;stroke:none"
       x="1822.1644"
       y="3238.427"
       id="text4246-9-6-2-4-7-3-4-8-5-9"
       sodipodi:linespacing="125%"><tspan
         sodipodi:role="line"
         style="font-size:45px"
         x="1822.1644"
         y="3238.427"
         id="tspan4445">Oletteko valmiit</tspan><tspan
         sodipodi:role="line"
         style="font-size:45px"
         x="1822.1644"
         y="3294.677"
         id="tspan3461" /></text>
    <text
       xml:space="preserve"
       style="font-style:normal;font-variant:normal;font-weight:normal;font-stretch:normal;font-size:10.62674809px;line-height:125%;font-family:Lavi;-inkscape-font-specification:Lavi;text-align:center;letter-spacing:0px;word-spacing:0px;text-anchor:middle;fill:#000000;fill-opacity:1;stroke:#000000;stroke-width:1.59401214;stroke-miterlimit:4;stroke-dasharray:none;stroke-opacity:1"
       x="2636.4268"
       y="2951.2043"
       id="text4246-6-6-6-3-9"
       sodipodi:linespacing="125%"
       transform="matrix(0.89466356,0,-0.16927076,1.1177386,0,0)"><tspan
         sodipodi:role="line"
         style="font-size:53.13374329px;stroke:#000000;stroke-width:1.59401214;stroke-miterlimit:4;stroke-dasharray:none;stroke-opacity:1"
         x="2636.4268"
         y="2951.2043"
         id="tspan4182-3-7">todelliselle oppitunnille?</tspan></text>
    <text
       xml:space="preserve"
       style="font-style:normal;font-variant:normal;font-weight:normal;font-stretch:normal;font-size:10.28139114px;line-height:125%;font-family:Lavi;-inkscape-font-specification:Lavi;text-align:center;letter-spacing:0px;word-spacing:0px;text-anchor:middle;fill:#000000;fill-opacity:1;stroke:#000000;stroke-width:1.54220855;stroke-miterlimit:4;stroke-dasharray:none;stroke-opacity:1"
       x="704.03174"
       y="455.17175"
       id="text4246-6-6-6-3-9-0"
       sodipodi:linespacing="125%"
       transform="matrix(0.92481111,0,-0.17497469,1.0813019,0,0)"><tspan
         sodipodi:role="line"
         style="font-size:51.40695572px;stroke:#000000;stroke-width:1.54220855;stroke-miterlimit:4;stroke-dasharray:none;stroke-opacity:1"
         x="704.03174"
         y="455.17175"
         id="tspan4182-3-7-6">vuoren tietäjän</tspan></text>
    <text
       xml:space="preserve"
       style="font-style:normal;font-variant:normal;font-weight:normal;font-stretch:normal;font-size:12px;line-height:125%;font-family:Lavi;-inkscape-font-specification:Lavi;text-align:center;letter-spacing:0px;word-spacing:0px;text-anchor:middle;fill:#000000;fill-opacity:1;stroke:none"
       x="698.46021"
       y="636.0462"
       id="text4246-9-9"
       sodipodi:linespacing="125%"><tspan
         sodipodi:role="line"
         style="font-size:45px"
         x="698.46021"
         y="636.0462"
         id="tspan3584">Hänen neuvonsa</tspan><tspan
         sodipodi:role="line"
         style="font-size:45px"
         x="698.46021"
         y="692.2962"
         id="tspan3437">ovat nyt tarpeen...</tspan></text>
  </g>
</svg>
