<?xml version="1.0" encoding="UTF-8" standalone="no"?>
<!-- Created with Inkscape (http://www.inkscape.org/) -->

<svg
   xmlns:dc="http://purl.org/dc/elements/1.1/"
   xmlns:cc="http://creativecommons.org/ns#"
   xmlns:rdf="http://www.w3.org/1999/02/22-rdf-syntax-ns#"
   xmlns:svg="http://www.w3.org/2000/svg"
   xmlns="http://www.w3.org/2000/svg"
   xmlns:xlink="http://www.w3.org/1999/xlink"
   xmlns:sodipodi="http://sodipodi.sourceforge.net/DTD/sodipodi-0.dtd"
   xmlns:inkscape="http://www.inkscape.org/namespaces/inkscape"
   id="svg2"
   version="1.1"
   inkscape:version="0.91 r13725"
   width="2481"
   height="3503"
   sodipodi:docname="Pepper-and-Carrot_by-David-Revoy_E16P03.svg">
  <metadata
     id="metadata8">
    <rdf:RDF>
      <cc:Work
         rdf:about="">
        <dc:format>image/svg+xml</dc:format>
        <dc:type
           rdf:resource="http://purl.org/dc/dcmitype/StillImage" />
        <dc:title />
      </cc:Work>
    </rdf:RDF>
  </metadata>
  <defs
     id="defs6">
    <filter
       style="color-interpolation-filters:sRGB"
       id="filter4375-4-1-1-1"
       inkscape:label="deevad outline effect">
      <feFlood
         id="feFlood4377-7-9-0-8"
         flood-opacity="1"
         flood-color="rgb(0,0,0)"
         result="flood" />
      <feComposite
         id="feComposite4379-3-8-8-2"
         in2="SourceGraphic"
         in="flood"
         operator="in"
         result="composite1" />
      <feMorphology
         id="feMorphology4393-1-0-49-8"
         operator="dilate"
         radius="4"
         result="result3" />
      <feComposite
         id="feComposite4385-9-5-7-0"
         in2="result3"
         in="SourceGraphic"
         operator="over"
         result="composite2" />
    </filter>
    <filter
       style="color-interpolation-filters:sRGB"
       id="filter4375-4-1-1-1-8"
       inkscape:label="deevad outline effect">
      <feFlood
         id="feFlood4377-7-9-0-8-4"
         flood-opacity="1"
         flood-color="rgb(0,0,0)"
         result="flood" />
      <feComposite
         id="feComposite4379-3-8-8-2-5"
         in2="SourceGraphic"
         in="flood"
         operator="in"
         result="composite1" />
      <feMorphology
         id="feMorphology4393-1-0-49-8-1"
         operator="dilate"
         radius="4"
         result="result3" />
      <feComposite
         id="feComposite4385-9-5-7-0-7"
         in2="result3"
         in="SourceGraphic"
         operator="over"
         result="composite2" />
    </filter>
  </defs>
  <sodipodi:namedview
     pagecolor="#ffffff"
     bordercolor="#666666"
     borderopacity="1"
     objecttolerance="10"
     gridtolerance="10"
     guidetolerance="10"
     inkscape:pageopacity="0"
     inkscape:pageshadow="2"
     inkscape:window-width="1282"
     inkscape:window-height="1036"
     id="namedview4"
     showgrid="false"
     inkscape:zoom="0.4946937"
     inkscape:cx="1216.2797"
     inkscape:cy="1189.2023"
     inkscape:window-x="625"
     inkscape:window-y="1"
     inkscape:window-maximized="0"
     inkscape:current-layer="layer1" />
  <g
     inkscape:groupmode="layer"
     id="layer2"
     inkscape:label="artwork"
     sodipodi:insensitive="true">
    <image
       sodipodi:absref="C:\Users\Kari\Documents\Pepper and Carrot\Episode 16\fi\..\peppercarrot_ep16_translation-master\en\.\..\gfx_Pepper-and-Carrot_by-David-Revoy_E16P03.png"
       xlink:href="..\peppercarrot_ep16_translation-master\en\.\..\gfx_Pepper-and-Carrot_by-David-Revoy_E16P03.png"
       width="2481"
       height="3503"
       id="image10"
       x="0"
       y="0" />
  </g>
  <g
     inkscape:groupmode="layer"
     id="layer3"
     inkscape:label="speechbubbles">
    <path
       style="color:#000000;display:inline;overflow:visible;visibility:visible;fill:#ffffff;fill-opacity:1;fill-rule:nonzero;stroke:none;stroke-width:1px;marker:none;enable-background:accumulate"
       d="m 1530.5664,614.12504 c -23.5422,-44.79099 -54.1129,-86.36208 -69.4889,-134.89415 l -9.2637,44.46765 c -14.5297,-14.22937 -19.1139,-35.6541 -27.0752,-54.63573 l -11.338,37.30803 c -33.8829,-34.01763 -74.8115,-85.94086 -98.9326,-124.1838 l -58.8695,-5.7337 c 28.9026,35.70192 134.8788,118.42738 157.7121,160.07431 l 12.6468,-24.8312 c 9.8817,13.23086 19.2558,26.89199 26.3633,42.47502 L 1465.44,521.55 Z"
       id="path4032"
       inkscape:connector-curvature="0"
       sodipodi:nodetypes="cccccccccccc" />
    <path
       style="color:#000000;display:inline;overflow:visible;visibility:visible;fill:#ffffff;fill-opacity:1;fill-rule:nonzero;stroke:none;stroke-width:1px;marker:none;enable-background:accumulate"
       d="m 1027.4098,237.31343 -47.70566,-8.62236 4.22464,14.09441 c -28.4095,0.76478 -43.21138,-3.65883 -63.36885,-6.04045 l 31.68437,18.12127 -5.2807,5.03373 c 5.1441,2.94322 12.906,4.95064 14.78602,9.06067 -14.35141,2.56124 -24.66978,2.55955 -36.53844,3.543 11.1676,3.40383 20.4652,7.34232 27.03312,12.06145 l -38.02127,8.05387 34.85051,7.04607 c -26.21347,11.58645 -59.16043,18.89383 -89.77028,27.68651 l 108.78326,-4.02702 -16.89827,9.06067 c 11.19474,2.78405 9.99484,1.88393 14.78601,3.52363 2.3736,3.39377 -37.39656,17.50461 -33.79673,16.10785 4.22467,-0.50341 40.13364,-2.51691 40.13364,-2.51691 0,0 -31.68448,14.0944 -27.45982,14.0944 4.2245,0 39.07743,-3.52362 39.07743,-3.52362 l -11.61761,13.591 33.65373,-6.89718 -8.5568,24.24952 c 11.979,-0.99416 25.8096,-2.32127 31.5727,-1.34549 -4.0128,6.82503 -8.7462,9.37481 -18.8886,20.24412 19.2492,-4.71821 62.6223,-13.64591 62.6223,-13.64591 l 6.2676,22.19484 42.2461,-17.61795 7.3931,12.08089 31.6843,-15.10112 0,15.60452 c 16.3674,-3.01772 25.7608,-12.52262 41.1899,-18.12135 l 3.1683,58.39091 55.1268,-54.86198 11.025,28.54067 26.7896,-21.4988 3.1684,16.10783 29.5722,-21.64489 22.1791,19.63139 21.1231,-18.12128 c 34.1271,18.37512 53.1524,35.00224 79.211,49.33023 -4.4579,-20.32012 -8.1779,-40.05427 -6.3368,-55.37067 11.9697,-1.59608 23.9392,1.59628 35.9089,6.04044 l -6.3369,-13.591 44.3584,9.06067 -20.0669,-21.14157 c 67.7114,-0.67737 54.1181,2.95086 69.7059,5.03372 l -12.6737,-13.591 46.4707,10.57078 c -12.6952,-11.24696 -29.3696,-23.44229 -38.0216,-33.72578 l 48.5828,2.51683 c -19.0379,-9.04805 -42.9572,-15.76968 -56.2765,-27.54316 l 42.5467,-1.1489 -40.1336,-15.10111 31.6842,-8.55728 -25.3473,-2.01352 42.2458,-18.12126 -55.9759,-1.51012 67.5936,-32.71907 -78.1551,7.04725 6.3368,-23.65841 -43.3019,17.11456 43.3019,-59.39762 c -35.2879,20.98117 -68.0465,32.90986 -109.3821,53.57048 l -15.2507,-5.96477 -16.8911,3.089 4.2246,-16.96892 -62.3127,20.6381 6.3369,-9.564 -19.0107,9.06068 4.2244,-12.58429 -32.7405,15.10111 3.0144,-13.15756 -15.6882,8.62723 -4.8308,-8.26719 -18.4044,5.24697 c -17.7088,-20.23219 -34.0653,-55.95509 -34.0653,-55.95509 0,0 -19.2981,25.43081 -40.9215,56.96187 l -11.6176,-9.56061 -14.4853,8.84054 -14.6321,-11.4274 -22.0301,13.65531 c -17.4211,-10.40298 -27.5675,-16.77675 -34.4004,-27.17975 3.3699,9.74979 5.8198,16.29936 0.9044,27.03632 -64.3105,-16.43858 -62.3853,-17.90451 -86.4526,-27.03632 -6.5949,11.73738 16.5842,22.75764 12.8527,31.77737 z"
       id="path4024"
       inkscape:connector-curvature="0"
       sodipodi:nodetypes="cccccccccccccccccsccccccccccccccccccccccccccccccccccccccccccccccccccccccccccccccccccc" />
    <path
       inkscape:connector-curvature="0"
       style="fill:#ffffff;fill-rule:evenodd;stroke:none"
       d="m 547.16652,1199.0507 c -146.61429,-0.1258 -293.53343,1.1314 -304.48387,2.641 -12.39161,1.7081 -33.35155,13.4061 -53.62539,27.7978 l -12.07757,-0.6247 7.59413,3.8649 c -0.8417,0.6171 -1.68177,1.2358 -2.51799,1.8598 l -40.36052,-8.7452 29.03434,17.5504 c -8.68981,7.039 -16.64164,14.1698 -22.95062,20.6927 4.40141,34.8451 7.8294,56.2509 19.51682,73.3865 l -7.3494,12.1561 18.80368,0.9711 c 0.12274,0.113 0.25084,0.2255 0.37473,0.3383 l -13.0947,13.7867 22.79767,-5.9555 c 0.0498,0.036 0.0953,0.071 0.14531,0.1075 l -29.02669,32.0139 31.63454,-9.0583 -37.71825,29.1847 72.19389,-30.7882 c 1.07941,0.5341 2.12974,1.061 3.24261,1.6035 0.63501,0.3096 1.31052,0.6129 2.00751,0.9124 l -0.79153,9.1517 16.77322,-4.2224 c 87.49387,20.189 363.93834,8.5724 488.78289,-0.7654 l 24.93328,22.0969 -4.86774,-16.1018 36.50228,24.1527 -18.25114,-32.2052 19.46712,11.0714 -7.29969,-12.0772 19.46711,6.0378 -2.19679,-10.2949 c 55.69018,-10.4912 85.6435,-33.7358 94.66654,-56.1255 9.73373,-24.1532 4.86731,-57.3643 2.43387,-69.4408 -1.24058,-6.1567 -9.44918,-16.7557 -19.76728,-26.7384 l 13.68356,-12.5104 -21.25284,5.625 c -8.02165,-6.8314 -16.55955,-12.7091 -23.7651,-15.6891 -9.73372,-4.0255 -156.0437,-5.534 -302.65799,-5.6598 z"
       id="path4212" />
    <path
       style="fill:#ffffff;fill-rule:evenodd;stroke:none;stroke-width:1px;stroke-linecap:butt;stroke-linejoin:miter;stroke-opacity:1"
       d="m 859.93893,1272.3203 c 56.86661,-10.0335 105.79244,-10.5381 175.55377,-36.0453 l -19.7842,24.3214 30.6717,-8.1632 -12.4294,26.1018 c 0,0 202.5995,-33.5594 193.8989,-33.5594 -8.7006,0 -224.9071,61.577 -224.9071,61.577 l 17.0647,-28.9567 -42.99824,16.0553 22.13933,-23.8168 -161.58242,57.1754 z"
       id="path4230"
       inkscape:connector-curvature="0"
       sodipodi:nodetypes="cccccscccccc" />
    <path
       style="fill:#ffffff;fill-rule:evenodd;stroke:none"
       d="m 781.98741,1823.7856 -43.65346,29.8306 -14.55114,14.9153 12.31251,13.6724 -16.7898,0 4.47729,23.6159 -41.41483,2.4859 39.17619,18.6441 -30.22163,2.4859 30.22163,18.6441 -2.23865,9.9435 -12.31249,11.1865 12.31249,44.7459 41.41484,22.373 -17.90913,8.7006 33.57959,1.2429 19.02845,22.373 39.17617,12.4294 30.22163,4.9717 -26.86369,16.1583 48.13076,-9.9435 -21.26707,18.6441 47.01142,-13.6724 74.99435,1.243 119.76726,-4.9718 40.2955,-4.9718 31.3409,14.9153 -6.7159,-11.1864 30.2218,-1.243 80.5909,21.13 24.6251,6.2147 -15.6706,-32.3165 22.3864,13.6724 -5.5967,-27.3447 39.1764,-4.9718 20.1477,-13.6723 54.8466,29.8306 -21.2671,-29.8306 30.2216,18.6441 -20.1477,-26.1018 26.8636,11.1865 -20.1478,-24.8589 29.1024,-2.4858 3.3578,-39.7742 c 0,0 -16.7897,-11.1865 -12.3124,-11.1865 4.4773,0 24.625,-11.1864 24.625,-11.1864 l -15.6704,-8.7006 26.8637,-4.9718 -30.2217,-17.4012 13.4319,-14.9153 -17.9091,-34.8023 -4.4773,-26.1018 -24.625,-16.1583 -39.1763,-38.5312 -29.1023,-8.7006 -362.65946,-9.9435 -110.81263,9.9435 z"
       id="path4294"
       inkscape:connector-curvature="0" />
    <path
       style="fill:#ffffff;fill-rule:evenodd;stroke:none;stroke-width:1px;stroke-linecap:butt;stroke-linejoin:miter;stroke-opacity:1"
       d="m 1462.9425,2214.0693 -101.9212,-93.2206 6.2147,28.5876 -91.9777,-82.0341 -62.1471,11.1865 178.9836,110.6218 -9.9435,-28.5877 z"
       id="path4305"
       inkscape:connector-curvature="0" />
    <path
       style="fill:#ffffff;fill-rule:evenodd;stroke:none;stroke-width:1px;stroke-linecap:butt;stroke-linejoin:miter;stroke-opacity:1"
       d="m 384.4688,2625.9484 c -16.61632,14.0495 -18.08663,51.2796 -17.36781,64.6324 0.71882,13.3527 17.30248,63.2387 31.41022,67.1321 14.10772,3.8935 108.59614,16.4505 124.19777,15.8234 15.60165,-0.6272 103.69147,-10.1156 117.32,-15.1239 13.62853,-5.0085 25.02071,-51.5585 24.46162,-61.9441 -0.55908,-10.3853 -6.82151,-62.1732 -24.47615,-67.4109 -17.65463,-5.2377 -93.55358,-27.463 -109.07535,-25.3521 -15.52178,2.1107 -142.30803,2.7468 -146.4703,22.2431 z"
       id="path4408"
       inkscape:connector-curvature="0" />
    <path
       style="fill:#ffffff;fill-rule:evenodd;stroke:none;stroke-width:1px;stroke-linecap:butt;stroke-linejoin:miter;stroke-opacity:1"
       d="m 775.86914,2700.9124 c 14.79411,-21.3692 37.80717,-29.5882 55.88887,-29.5882 18.0817,0 290.95099,-4.9314 300.81369,-1.6438 9.8628,3.2876 55.8889,14.7941 55.8889,37.8072 0,23.0131 4.9314,49.3137 -8.219,64.1078 -13.1503,14.7941 -133.147,26.3007 -167.6666,23.0131 -34.51963,-3.2876 -184.10457,-8.219 -202.18627,-9.8628 -18.08169,-1.6437 -42.73855,-23.013 -39.45097,-39.4509 3.28758,-16.4379 4.93138,-44.3824 4.93138,-44.3824 z"
       id="path4410"
       inkscape:connector-curvature="0"
       sodipodi:nodetypes="csssssssc" />
    <path
       style="fill:#ffffff;fill-rule:evenodd;stroke:none;stroke-width:1px;stroke-linecap:butt;stroke-linejoin:miter;stroke-opacity:1"
       d="m 522.03985,2689.4104 c 193.55341,-0.3243 379.15326,41.3597 567.43005,79.9806 44.8357,122.0573 105.1467,166.4381 215.0829,188.0625 -136.5707,-22.4748 -165.0897,-59.102 -228.0528,-171.8502 -183.40766,-54.4054 -369.51017,-68.3491 -558.78343,-82.1423 z"
       id="path4412"
       inkscape:connector-curvature="0"
       sodipodi:nodetypes="cccccc" />
  </g>
  <g
     inkscape:groupmode="layer"
     id="layer1"
     inkscape:label="txt">
    <text
       xml:space="preserve"
       style="font-style:normal;font-variant:normal;font-weight:normal;font-stretch:normal;font-size:12px;line-height:125%;font-family:Lavi;-inkscape-font-specification:Lavi;text-align:center;letter-spacing:0px;word-spacing:0px;text-anchor:middle;fill:#000000;fill-opacity:1;stroke:none"
       x="1260.5409"
       y="298.5723"
       id="text4246"
       sodipodi:linespacing="125%"><tspan
         sodipodi:role="line"
         style="font-size:45px"
         x="1260.5409"
         y="298.5723"
         id="tspan3537">Mitä tarkoitat, ettet</tspan><tspan
         sodipodi:role="line"
         style="font-size:45px"
         x="1260.5409"
         y="354.8223"
         id="tspan3396">muka opi mitään?!</tspan></text>
    <text
       xml:space="preserve"
       style="font-style:normal;font-variant:normal;font-weight:normal;font-stretch:normal;font-size:12px;line-height:125%;font-family:Lavi;-inkscape-font-specification:Lavi;text-align:center;letter-spacing:0px;word-spacing:0px;text-anchor:middle;fill:#000000;fill-opacity:1;stroke:none"
       x="528.66364"
       y="1288.5115"
       id="text4246-9"
       sodipodi:linespacing="125%"><tspan
         sodipodi:role="line"
         style="font-size:45px"
         x="528.66364"
         y="1288.5115"
         id="tspan4210">Eikä sinulla ole edes uskallusta</tspan><tspan
         sodipodi:role="line"
         style="font-size:45px"
         x="528.66364"
         y="1344.7615"
         id="tspan3544">tulla kertomaan sitä meille itse?!</tspan></text>
    <text
       xml:space="preserve"
       style="font-style:normal;font-variant:normal;font-weight:normal;font-stretch:normal;font-size:12px;line-height:125%;font-family:Lavi;-inkscape-font-specification:Lavi;text-align:center;letter-spacing:0px;word-spacing:0px;text-anchor:middle;fill:#000000;fill-opacity:1;stroke:none"
       x="1079.519"
       y="1882.459"
       id="text4246-9-6"
       sodipodi:linespacing="125%"><tspan
         sodipodi:role="line"
         style="font-size:45px"
         x="1079.519"
         y="1882.459"
         id="tspan4292">Jos selkäni ei vaivaisi minua,</tspan><tspan
         sodipodi:role="line"
         style="font-size:45px"
         x="1079.519"
         y="1938.709"
         id="tspan3416">antaisin sinulle kunnon opetuksen!</tspan><tspan
         sodipodi:role="line"
         style="font-size:45px"
         x="1079.519"
         y="1994.959"
         id="tspan3424">Eikä se olisi noituudessa,</tspan><tspan
         sodipodi:role="line"
         style="font-size:45px"
         x="1079.519"
         y="2051.209"
         id="tspan3440">jos ymmärrät!</tspan></text>
    <text
       xml:space="preserve"
       style="font-style:normal;font-variant:normal;font-weight:normal;font-stretch:normal;font-size:12px;line-height:125%;font-family:Lavi;-inkscape-font-specification:Lavi;text-align:center;letter-spacing:0px;word-spacing:0px;text-anchor:middle;fill:#000000;fill-opacity:1;stroke:none"
       x="519.11725"
       y="2672.6763"
       id="text4246-9-6-3"
       sodipodi:linespacing="125%"><tspan
         sodipodi:role="line"
         style="font-size:45px"
         x="519.11725"
         y="2672.6763"
         id="tspan4292-8">Rauhoituhan,</tspan><tspan
         sodipodi:role="line"
         style="font-size:45px"
         x="519.11725"
         y="2728.9263"
         id="tspan4349">Tinjami</tspan></text>
    <text
       xml:space="preserve"
       style="font-style:normal;font-variant:normal;font-weight:normal;font-stretch:normal;font-size:12px;line-height:125%;font-family:Lavi;-inkscape-font-specification:Lavi;text-align:center;letter-spacing:0px;word-spacing:0px;text-anchor:middle;fill:#000000;fill-opacity:1;stroke:none"
       x="982.7735"
       y="2744.8301"
       id="text4246-9-6-9"
       sodipodi:linespacing="125%"><tspan
         sodipodi:role="line"
         style="font-size:45px"
         x="982.7735"
         y="2744.8301"
         id="tspan4292-6">He ovat oikeassa...</tspan></text>
    <text
       xml:space="preserve"
       style="font-style:normal;font-variant:normal;font-weight:normal;font-stretch:normal;font-size:8.20311546px;line-height:125%;font-family:Lavi;-inkscape-font-specification:Lavi;text-align:center;letter-spacing:0px;word-spacing:0px;text-anchor:middle;fill:#ffffff;fill-opacity:1;stroke:#ffffff;stroke-width:0.41015577;stroke-miterlimit:4;stroke-dasharray:none;stroke-opacity:1"
       x="764.05621"
       y="923.35193"
       id="text4246-8"
       sodipodi:linespacing="125%"
       transform="matrix(0.89618362,-0.24886542,0.02679547,1.1084018,0,0)"><tspan
         sodipodi:role="line"
         style="font-size:30.7616806px;fill:#ffffff;stroke:#ffffff;stroke-width:0.41015577;stroke-miterlimit:4;stroke-dasharray:none;stroke-opacity:1"
         x="764.05621"
         y="923.35193"
         id="tspan4150-8">piip</tspan></text>
    <text
       xml:space="preserve"
       style="font-style:normal;font-variant:normal;font-weight:normal;font-stretch:normal;font-size:8.20311546px;line-height:125%;font-family:Lavi;-inkscape-font-specification:Lavi;text-align:center;letter-spacing:0px;word-spacing:0px;text-anchor:middle;fill:#ffffff;fill-opacity:1;stroke:#ffffff;stroke-width:0.41015577;stroke-miterlimit:4;stroke-dasharray:none;stroke-opacity:1"
       x="543.87469"
       y="837.68304"
       id="text4246-8-4"
       sodipodi:linespacing="125%"
       transform="matrix(0.89618362,-0.24886542,0.02679547,1.1084018,0,0)"><tspan
         sodipodi:role="line"
         style="font-size:30.7616806px;fill:#ffffff;stroke:#ffffff;stroke-width:0.41015577;stroke-miterlimit:4;stroke-dasharray:none;stroke-opacity:1"
         x="543.87469"
         y="837.68304"
         id="tspan4150-8-7">piip</tspan></text>
    <text
       xml:space="preserve"
       style="font-style:normal;font-variant:normal;font-weight:normal;font-stretch:normal;font-size:8.20311546px;line-height:125%;font-family:Lavi;-inkscape-font-specification:Lavi;text-align:center;letter-spacing:0px;word-spacing:0px;text-anchor:middle;fill:#ffffff;fill-opacity:1;stroke:#ffffff;stroke-width:0.41015577;stroke-miterlimit:4;stroke-dasharray:none;stroke-opacity:1"
       x="334.54736"
       y="936.29169"
       id="text4246-8-5"
       sodipodi:linespacing="125%"
       transform="matrix(0.89618362,-0.24886542,0.02679547,1.1084018,0,0)"><tspan
         sodipodi:role="line"
         style="font-size:30.7616806px;fill:#ffffff;stroke:#ffffff;stroke-width:0.41015577;stroke-miterlimit:4;stroke-dasharray:none;stroke-opacity:1"
         x="334.54736"
         y="936.29169"
         id="tspan4150-8-71">piip</tspan></text>
    <text
       xml:space="preserve"
       style="font-style:normal;font-variant:normal;font-weight:normal;font-stretch:normal;font-size:8.20311546px;line-height:125%;font-family:Lavi;-inkscape-font-specification:Lavi;text-align:center;letter-spacing:0px;word-spacing:0px;text-anchor:middle;fill:#ffffff;fill-opacity:1;stroke:#ffffff;stroke-width:0.41015577;stroke-miterlimit:4;stroke-dasharray:none;stroke-opacity:1"
       x="87.779213"
       y="987.71484"
       id="text4246-8-7"
       sodipodi:linespacing="125%"
       transform="matrix(0.73686042,-0.56755246,0.44156597,1.0170015,0,0)"><tspan
         sodipodi:role="line"
         style="font-size:30.7616806px;fill:#ffffff;stroke:#ffffff;stroke-width:0.41015577;stroke-miterlimit:4;stroke-dasharray:none;stroke-opacity:1"
         x="87.779213"
         y="987.71484"
         id="tspan4150-8-79">piip</tspan></text>
    <text
       xml:space="preserve"
       style="font-style:normal;font-variant:normal;font-weight:normal;font-stretch:normal;font-size:8.20311546px;line-height:125%;font-family:Lavi;-inkscape-font-specification:Lavi;text-align:center;letter-spacing:0px;word-spacing:0px;text-anchor:middle;fill:#ffffff;fill-opacity:1;stroke:#ffffff;stroke-width:0.41015577;stroke-miterlimit:4;stroke-dasharray:none;stroke-opacity:1"
       x="336.62546"
       y="1084.5326"
       id="text4246-8-9"
       sodipodi:linespacing="125%"
       transform="matrix(0.89618362,-0.24886542,0.02679547,1.1084018,0,0)"><tspan
         sodipodi:role="line"
         style="font-size:30.7616806px;fill:#ffffff;stroke:#ffffff;stroke-width:0.41015577;stroke-miterlimit:4;stroke-dasharray:none;stroke-opacity:1"
         x="336.62546"
         y="1084.5326"
         id="tspan4150-8-2">piip</tspan></text>
    <text
       xml:space="preserve"
       style="font-style:normal;font-variant:normal;font-weight:normal;font-stretch:normal;font-size:8.20311546px;line-height:125%;font-family:Lavi;-inkscape-font-specification:Lavi;text-align:center;letter-spacing:0px;word-spacing:0px;text-anchor:middle;fill:#ffffff;fill-opacity:1;stroke:#ffffff;stroke-width:0.41015577;stroke-miterlimit:4;stroke-dasharray:none;stroke-opacity:1"
       x="552.94135"
       y="1012.8113"
       id="text4246-8-7-5"
       sodipodi:linespacing="125%"
       transform="matrix(0.89774281,-0.24318074,0.01977029,1.1085494,0,0)"><tspan
         sodipodi:role="line"
         style="font-size:30.7616806px;fill:#ffffff;stroke:#ffffff;stroke-width:0.41015577;stroke-miterlimit:4;stroke-dasharray:none;stroke-opacity:1"
         x="552.94135"
         y="1012.8113"
         id="tspan4150-8-79-8">piip</tspan></text>
    <text
       xml:space="preserve"
       style="font-style:normal;font-variant:normal;font-weight:normal;font-stretch:normal;font-size:8.20311546px;line-height:125%;font-family:Lavi;-inkscape-font-specification:Lavi;text-align:center;letter-spacing:0px;word-spacing:0px;text-anchor:middle;fill:#ffffff;fill-opacity:1;stroke:#ffffff;stroke-width:0.41015577;stroke-miterlimit:4;stroke-dasharray:none;stroke-opacity:1"
       x="156.05554"
       y="847.95422"
       id="text4246-8-7-4"
       sodipodi:linespacing="125%"
       transform="matrix(0.73686042,-0.56755246,0.44156597,1.0170015,0,0)"><tspan
         sodipodi:role="line"
         style="font-size:30.7616806px;fill:#ffffff;stroke:#ffffff;stroke-width:0.41015577;stroke-miterlimit:4;stroke-dasharray:none;stroke-opacity:1"
         x="156.05554"
         y="847.95422"
         id="tspan4150-8-79-5">piip</tspan></text>
    <text
       xml:space="preserve"
       style="font-style:normal;font-variant:normal;font-weight:normal;font-stretch:normal;font-size:8.20311546px;line-height:125%;font-family:Lavi;-inkscape-font-specification:Lavi;text-align:center;letter-spacing:0px;word-spacing:0px;text-anchor:middle;fill:#ffffff;fill-opacity:1;stroke:#ffffff;stroke-width:0.41015577;stroke-miterlimit:4;stroke-dasharray:none;stroke-opacity:1"
       x="358.29056"
       y="983.72534"
       id="text4246-8-7-6"
       sodipodi:linespacing="125%"
       transform="matrix(0.73686042,-0.56755246,0.44156597,1.0170015,0,0)"><tspan
         sodipodi:role="line"
         style="font-size:30.7616806px;fill:#ffffff;stroke:#ffffff;stroke-width:0.41015577;stroke-miterlimit:4;stroke-dasharray:none;stroke-opacity:1"
         x="358.29056"
         y="983.72534"
         id="tspan4150-8-79-86">piip</tspan></text>
    <text
       xml:space="preserve"
       style="font-style:normal;font-variant:normal;font-weight:normal;font-stretch:normal;font-size:8.20311546px;line-height:125%;font-family:Lavi;-inkscape-font-specification:Lavi;text-align:center;letter-spacing:0px;word-spacing:0px;text-anchor:middle;fill:#ffffff;fill-opacity:1;stroke:#ffffff;stroke-width:0.41015577;stroke-miterlimit:4;stroke-dasharray:none;stroke-opacity:1"
       x="-93.625549"
       y="854.11603"
       id="text4246-8-7-3"
       sodipodi:linespacing="125%"
       transform="matrix(0.73686042,-0.56755246,0.44156597,1.0170015,0,0)"><tspan
         sodipodi:role="line"
         style="font-size:30.7616806px;fill:#ffffff;stroke:#ffffff;stroke-width:0.41015577;stroke-miterlimit:4;stroke-dasharray:none;stroke-opacity:1"
         x="-93.625549"
         y="854.11603"
         id="tspan4150-8-79-2">piip</tspan></text>
    <text
       xml:space="preserve"
       style="font-style:normal;font-variant:normal;font-weight:normal;font-stretch:normal;font-size:8.20311546px;line-height:125%;font-family:Lavi;-inkscape-font-specification:Lavi;text-align:center;letter-spacing:0px;word-spacing:0px;text-anchor:middle;fill:#ffffff;fill-opacity:1;stroke:#ffffff;stroke-width:0.41015577;stroke-miterlimit:4;stroke-dasharray:none;stroke-opacity:1"
       x="-161.61777"
       y="976.23895"
       id="text4246-8-7-3-4"
       sodipodi:linespacing="125%"
       transform="matrix(0.73686042,-0.56755246,0.44156597,1.0170015,0,0)"><tspan
         sodipodi:role="line"
         style="font-size:30.7616806px;fill:#ffffff;stroke:#ffffff;stroke-width:0.41015577;stroke-miterlimit:4;stroke-dasharray:none;stroke-opacity:1"
         x="-161.61777"
         y="976.23895"
         id="tspan4150-8-79-2-4">piip</tspan></text>
    <text
       xml:space="preserve"
       style="font-size:17.80657005px;font-style:normal;font-variant:normal;font-weight:normal;font-stretch:normal;line-height:125%;letter-spacing:0px;word-spacing:0px;fill:#000000;fill-opacity:1;stroke:#000000;stroke-width:0.99236238;stroke-miterlimit:4;stroke-opacity:1;stroke-dasharray:none;filter:url(#filter4375-4-1-1-1);font-family:Lavi;-inkscape-font-specification:Lavi"
       x="787.65729"
       y="1584.5073"
       id="text4580"
       sodipodi:linespacing="125%"
       transform="matrix(1.031805,-0.51321442,-0.19048641,1.3599228,744.55089,-116.50742)"><tspan
         sodipodi:role="line"
         id="tspan4582"
         x="787.65729"
         y="1584.5073"
         style="font-size:70px;fill:#ffffff"><tspan
           style="font-size:80.40014648px"
           id="tspan4617">BAM!</tspan></tspan></text>
  </g>
</svg>
