<?xml version="1.0" encoding="UTF-8" standalone="no"?>
<!-- Created with Inkscape (http://www.inkscape.org/) -->

<svg
   xmlns:dc="http://purl.org/dc/elements/1.1/"
   xmlns:cc="http://creativecommons.org/ns#"
   xmlns:rdf="http://www.w3.org/1999/02/22-rdf-syntax-ns#"
   xmlns:svg="http://www.w3.org/2000/svg"
   xmlns="http://www.w3.org/2000/svg"
   xmlns:xlink="http://www.w3.org/1999/xlink"
   xmlns:sodipodi="http://sodipodi.sourceforge.net/DTD/sodipodi-0.dtd"
   xmlns:inkscape="http://www.inkscape.org/namespaces/inkscape"
   id="svg2"
   version="1.1"
   inkscape:version="0.91 r13725"
   width="2481"
   height="3503"
   sodipodi:docname="Pepper-and-Carrot_by-David-Revoy_E16P02.svg">
  <metadata
     id="metadata8">
    <rdf:RDF>
      <cc:Work
         rdf:about="">
        <dc:format>image/svg+xml</dc:format>
        <dc:type
           rdf:resource="http://purl.org/dc/dcmitype/StillImage" />
        <dc:title />
      </cc:Work>
    </rdf:RDF>
  </metadata>
  <defs
     id="defs6" />
  <sodipodi:namedview
     pagecolor="#ffffff"
     bordercolor="#666666"
     borderopacity="1"
     objecttolerance="10"
     gridtolerance="10"
     guidetolerance="10"
     inkscape:pageopacity="0"
     inkscape:pageshadow="2"
     inkscape:window-width="1255"
     inkscape:window-height="1041"
     id="namedview4"
     showgrid="false"
     inkscape:zoom="0.46"
     inkscape:cx="1281.0779"
     inkscape:cy="3374.8591"
     inkscape:window-x="651"
     inkscape:window-y="0"
     inkscape:window-maximized="0"
     inkscape:current-layer="layer1" />
  <g
     inkscape:groupmode="layer"
     id="layer2"
     inkscape:label="artwork"
     sodipodi:insensitive="true">
    <image
       sodipodi:absref="C:\Users\Kari\Documents\Pepper and Carrot\Episode 16\fi\..\peppercarrot_ep16_translation-master\en\.\..\gfx_Pepper-and-Carrot_by-David-Revoy_E16P02.png"
       xlink:href="..\peppercarrot_ep16_translation-master\en\.\..\gfx_Pepper-and-Carrot_by-David-Revoy_E16P02.png"
       y="0"
       x="0"
       id="image10"
       height="3503"
       width="2481" />
  </g>
  <g
     inkscape:groupmode="layer"
     id="layer3"
     inkscape:label="speechbubbles">
    <path
       style="fill:#ffffff;fill-rule:evenodd;stroke:none;stroke-width:1px;stroke-linecap:butt;stroke-linejoin:miter;stroke-opacity:1"
       d="m 159.47183,1204.4941 c 8.4673,-30.5523 31.2689,-53.7332 56.0849,-69.2079 11.8098,-7.471 25.3086,-12.9459 39.1219,-11.5058 13.7227,0.8605 27.1264,5.9979 41.0009,4.2135 16.871,-0.5894 34.0382,-3.1608 50.7155,0.5135 14.8255,4.0092 30.1,6.0856 45.3989,6.206 10.7929,-2.5448 20.6691,4.2379 30.3078,8.2947 8.6531,4.3821 17.4915,8.9796 24.7596,15.758 6.6961,9.5154 14.7138,17.7936 21.4881,27.2243 4.4326,5.1557 4.0067,12.2771 3.8025,18.8678 -0.5757,13.4964 -1.5506,27.2058 -5.1691,40.2084 -2.1654,8.2549 -10.1691,10.9868 -16.319,14.7801 -14.5516,8.0076 -30.0035,14.08 -43.8912,23.5033 -13.7587,4.8251 -28.3804,2.5682 -42.4906,1.839 -11.8234,-1.4363 -23.7171,-3.4392 -35.6421,-1.7689 -15.1777,1.2223 -30.3093,4.3872 -45.5413,3.9818 -19.0815,-2.7818 -37.3564,-9.6313 -55.848,-15.1258 -16.5903,-4.8429 -31.711,-13.9495 -46.2197,-23.6913 -7.75,-5.532 -15.9543,-11.9621 -18.6894,-22.1569 -2.2421,-7.02 -2.7704,-14.5367 -2.8697,-21.9338 z"
       id="path4365"
       inkscape:connector-curvature="0" />
    <path
       style="fill:#ffffff;stroke:none"
       d="m 526.05317,1332.6787 c -30.94804,-5.9742 -33.65755,-15.3739 -35.85896,-26.3529 -2.20164,-10.979 -2.97755,-21.2157 -9.14413,-25.0411 -6.16635,-3.8252 -15.85979,-4.8779 -23.17719,-4.6934 -7.31743,0.1844 -5.29357,-9.0401 -8.28411,-16.1281 -2.99067,-7.0881 -31.76642,-37.2963 -31.76642,-37.2963 0,0 -1.64154,31.4089 0.94371,41.0513 2.58502,9.6423 3.48097,13.1815 5.57556,16.7304 2.09482,3.5489 8.54676,11.5174 16.06913,13.2832 7.52237,1.7658 15.47204,-0.2404 21.46624,-0.192 5.99426,0.048 8.9236,8.3554 12.37845,16.2997 3.45476,7.9444 7.26292,13.1493 20.83234,18.6149 11.63149,4.6851 30.96538,3.7243 30.96538,3.7243 z"
       id="path3023-2"
       inkscape:connector-curvature="0"
       sodipodi:nodetypes="csssscssssssc" />
    <path
       style="color:#000000;display:inline;overflow:visible;visibility:visible;fill:#ffffff;fill-opacity:1;fill-rule:nonzero;stroke:none;stroke-width:1px;marker:none;enable-background:accumulate"
       d="m 1376.0536,1388.1593 c -57.0687,-49.889 -102.9543,-172.3013 -86.6488,-194.7512 16.3053,-22.45 46.725,-30.9961 124.1755,-30.9961 77.4503,0 779.5265,-27.8853 859.015,24.498 79.4884,52.3834 47.4504,147.6186 -21.8473,208.7325 -69.2977,61.1138 -530.2442,48.6417 -530.2442,48.6417 0,0 -256.809,7.4833 -344.4502,-56.1249 z"
       id="path3992"
       inkscape:connector-curvature="0"
       sodipodi:nodetypes="csssscc" />
    <path
       style="fill:#ffffff;stroke:none"
       d="m 1730.4411,1493.8746 c -2.6402,-37.6103 44.6947,-131.7639 275.5912,-124.6819 230.8967,7.082 303.1637,48.4519 309.93,115.3043 10.7039,105.7584 -110.7707,134.0208 -285.1971,141.8541 -179.8147,8.0755 -303.1148,-64.5207 -300.3241,-132.4765 z"
       id="path3280-8"
       inkscape:connector-curvature="0"
       sodipodi:nodetypes="csssc" />
    <path
       style="color:#000000;display:inline;overflow:visible;visibility:visible;fill:#ffffff;fill-opacity:1;fill-rule:nonzero;stroke:none;stroke-width:1px;marker:none;enable-background:accumulate"
       d="m 1219.1793,1379.025 c 11.1145,-52.0341 49.4885,-48.0105 61.0024,-50.7043 11.5139,-2.6938 53.2465,-12.1003 59.6337,-55.0276 6.3873,-42.9274 50.5704,-62.6224 50.5704,-62.6224 l -8.1471,64.4127 c 0,0 -26.1867,43.4877 -51.8954,55.4317 -25.7088,11.9439 -66.72,11.6091 -78.3208,20.0382 -11.601,8.429 -26.2997,13.0823 -32.8432,28.4717 z"
       id="path4018"
       inkscape:connector-curvature="0" />
    <path
       style="color:#000000;display:inline;overflow:visible;visibility:visible;fill:#ffffff;fill-opacity:1;fill-rule:nonzero;stroke:none;stroke-width:1px;marker:none;enable-background:accumulate"
       d="M 177.96119,186.8969 C 182.94267,120.51512 230.74676,81.175978 462.09939,83.911567 653.33686,86.172813 746.84402,103.47351 737.9927,188.82051 725.70604,307.29203 563.95115,287.54455 450.63745,294.51788 376.20594,292.94092 180.36075,307.92069 177.96119,186.8969 Z"
       id="path4546"
       inkscape:connector-curvature="0"
       sodipodi:nodetypes="csscc" />
    <path
       style="color:#000000;display:inline;overflow:visible;visibility:visible;fill:#ffffff;fill-opacity:1;fill-rule:nonzero;stroke:none;stroke-width:1px;marker:none;enable-background:accumulate"
       d="M 1143.8843,406.32102 C 1139.8342,512.978 1079.6935,597.22051 813.84723,591.72243 594.09718,587.17772 483.86995,540.94481 483.07183,403.21871 482.07603,231.38033 714.26961,253.79688 833.08192,253.75434 918.62839,256.64311 1143.05,243.68845 1143.8843,406.32102 Z"
       id="path4546-3"
       inkscape:connector-curvature="0"
       sodipodi:nodetypes="csscc" />
    <path
       style="color:#000000;display:inline;overflow:visible;visibility:visible;fill:#ffffff;fill-opacity:1;fill-rule:nonzero;stroke:none;stroke-width:1px;marker:none;enable-background:accumulate"
       d="m 1212.2695,581.74978 c -67.2618,20.68446 -152.2854,0.78987 -192.165,-42.94991 -39.87945,-43.73978 14.3178,-40.84093 14.3178,-40.84093 0,0 77.3502,101.9849 177.8472,83.79084 z"
       id="path5002"
       inkscape:connector-curvature="0"
       sodipodi:nodetypes="cscc" />
    <path
       style="fill:#ffffff;fill-rule:evenodd;stroke:none;stroke-width:1px;stroke-linecap:butt;stroke-linejoin:miter;stroke-opacity:1"
       d="m 79.966435,2099.1511 23.546955,16.5657 5.77671,-21.4719 13.96365,6.4871 -8.37819,-75.0437 30.72004,69.1176 2.79273,-17.9728 12.56729,24.3675 36.42692,-12.4014 6.8604,-60.1338 15.36001,50.8644 11.17093,-21.4922 7.8925,27.5955 c 0,0 1.88205,5.8508 15.8457,3.444 13.96366,-2.4068 141.79599,8.1107 167.56383,27.4464 l 22.98224,10.8299 22.56755,-15.6995 -6.45156,25.9982 47.36086,-44.6486 -27.28149,57.896 17.92704,-10.5738 -8.71946,22.558 c 0,0 4.22581,12.5723 8.41491,18.2243 40.49459,49.2001 60.14929,161.0823 67.33048,184.8243 l 30.72004,-4.0456 -20.94548,14.463 c 9.14048,6.8815 41.99548,17.939 111.3259,-11.0639 0,0 -64.15436,46.875 -108.60984,42.3299 -9.56642,5.363 39.34647,16.1258 39.34647,16.1258 l -53.28076,7.0224 -5.84311,50.2449 39.09823,18.1639 -44.68369,-8.9001 37.70186,43.4558 -46.80583,-10.4859 -4.82814,27.4284 -7.68395,10.0525 c -16.12139,12.0575 -39.33705,38.6664 -60.92293,44.5464 0,4.4469 23.38547,49.1163 23.38547,49.1163 l -52.01461,-29.4904 24.0873,35.7863 -56.27233,-30.2588 -14.37279,-0.407 -8.37819,3.5193 c -43.28733,26.5831 -143.43861,11.3479 -160.19499,8.0103 -1.39637,0.093 -18.15274,42.707 -18.15274,42.707 l -7.69184,-37.5036 -11.85728,15.0808 -6.95817,-10.1598 -51.07677,69.2495 17.83286,-82.0028 -35.99696,34.0016 5.36921,-46.4598 -27.96162,33.5054 4.93852,-42.7868 -16.109444,4.9859 z"
       id="path4603"
       inkscape:connector-curvature="0"
       sodipodi:nodetypes="cccccccccccccsscccccccccccccccccccccccccccccccccccccccccc" />
    <path
       style="color:#000000;display:inline;overflow:visible;visibility:visible;fill:#ffffff;fill-opacity:1;fill-rule:nonzero;stroke:none;stroke-width:1px;marker:none;enable-background:accumulate"
       d="m 911.57297,2905.1862 c 26.15941,-35.2543 82.16095,-65.5675 156.19513,-78.8643 74.0341,-13.2967 211.5557,-12.838 235.7905,-9.3658 24.2346,3.4721 157.3586,15.071 186.5886,34.2365 29.2299,19.1652 68.7814,42.8654 77.7025,67.9563 8.9214,25.0909 2.8452,86.0066 -23.7889,99.9521 -26.6342,13.9453 -148.5752,45.553 -220.0518,48.5351 -71.4766,2.9823 -237.9994,-6.3821 -285.5577,-14.1337 -47.55828,-7.7516 -97.95553,-17.8163 -113.43039,-45.1473 -15.47501,-27.331 -44.14549,-63.0881 -13.44794,-103.1689 z"
       id="path3533"
       inkscape:connector-curvature="0" />
    <path
       style="fill:#ffffff;stroke:none"
       d="m 1665.3162,3027.9651 c -45.7195,6.3375 -53.9298,-5.1776 -62.1848,-19.0773 -8.2551,-13.8997 -14.1828,-27.4561 -24.5416,-29.7762 -10.3587,-2.3201 -24.2907,0.778 -34.3436,4.4479 -10.0531,3.6701 -16.0502,-4.3086 -23.5544,-12.549 -7.5042,-8.2404 -57.2715,-41.3793 -57.2715,-41.3793 0,0 12.6136,43.4743 20.7667,55.3773 8.1531,11.903 11.0722,16.2967 15.6572,20.1434 4.5852,3.8466 17.3035,11.6669 28.565,10.553 11.2614,-1.1138 21.3268,-7.5562 29.6567,-10.2912 8.3298,-2.7351 21.007,2.5425 29.5605,11.7303 8.5534,9.1878 31.1188,27.0998 49.1012,23.41 17.9825,-3.6897 28.5886,-12.5889 28.5886,-12.5889 z"
       id="path3023"
       inkscape:connector-curvature="0"
       sodipodi:nodetypes="csssscssssssc" />
  </g>
  <g
     inkscape:groupmode="layer"
     id="layer1"
     inkscape:label="txt"
     style="display:inline">
    <text
       xml:space="preserve"
       style="font-style:normal;font-variant:normal;font-weight:normal;font-stretch:normal;font-size:12px;line-height:125%;font-family:Lavi;-inkscape-font-specification:Lavi;text-align:center;letter-spacing:0px;word-spacing:0px;text-anchor:middle;fill:#000000;fill-opacity:1;stroke:none"
       x="812.651"
       y="281.03253"
       id="text4246-4"
       sodipodi:linespacing="125%"><tspan
         sodipodi:role="line"
         style="font-size:45px"
         x="812.651"
         y="281.03253"
         id="tspan4253" /><tspan
         sodipodi:role="line"
         style="font-size:45px"
         x="812.651"
         y="337.28253"
         id="tspan3455">En aio ryhtyä mihinkään</tspan><tspan
         sodipodi:role="line"
         style="font-size:45px"
         x="812.651"
         y="393.53253"
         id="tspan3453">sovittelutoimintaan, en</tspan><tspan
         sodipodi:role="line"
         style="font-size:45px"
         x="812.651"
         y="449.78253"
         id="tspan3405">edes ystävän puolesta.</tspan><tspan
         sodipodi:role="line"
         style="font-size:45px"
         x="812.651"
         y="506.03253"
         id="tspan3465">Sellaiset päättyvät</tspan><tspan
         sodipodi:role="line"
         style="font-size:45px"
         x="812.651"
         y="562.28253"
         id="tspan3409">aina kehnosti.</tspan></text>
    <text
       xml:space="preserve"
       style="font-style:normal;font-variant:normal;font-weight:normal;font-stretch:normal;font-size:12px;line-height:125%;font-family:Lavi;-inkscape-font-specification:Lavi;text-align:center;letter-spacing:0px;word-spacing:0px;text-anchor:middle;fill:#000000;fill-opacity:1;stroke:none"
       x="461.65384"
       y="184.25279"
       id="text4246-42"
       sodipodi:linespacing="125%"><tspan
         sodipodi:role="line"
         style="font-size:45px"
         x="461.65384"
         y="184.25279"
         id="tspan4251">Tämä sinun täytyy</tspan><tspan
         sodipodi:role="line"
         style="font-size:45px"
         x="469.564"
         y="240.50279"
         id="tspan3442">hoitaa ihan itse. </tspan></text>
    <text
       xml:space="preserve"
       style="font-style:normal;font-variant:normal;font-weight:normal;font-stretch:normal;font-size:12px;line-height:125%;font-family:Lavi;-inkscape-font-specification:Lavi;text-align:center;letter-spacing:0px;word-spacing:0px;text-anchor:middle;fill:#000000;fill-opacity:1;stroke:none"
       x="322.12131"
       y="1139.8259"
       id="text4246-4-3"
       sodipodi:linespacing="125%"><tspan
         sodipodi:role="line"
         style="font-size:45px"
         x="322.12131"
         y="1139.8259"
         id="tspan4253-3" /><tspan
         sodipodi:role="line"
         style="font-size:45px"
         x="322.12131"
         y="1196.0759"
         id="tspan4261-5">M-mutta</tspan><tspan
         sodipodi:role="line"
         style="font-size:45px"
         x="322.12131"
         y="1252.3259"
         id="tspan4324">Saffron...</tspan></text>
    <text
       xml:space="preserve"
       style="font-style:normal;font-variant:normal;font-weight:normal;font-stretch:normal;font-size:12px;line-height:125%;font-family:Lavi;-inkscape-font-specification:Lavi;text-align:center;letter-spacing:0px;word-spacing:0px;text-anchor:middle;fill:#000000;fill-opacity:1;stroke:none"
       x="1789.4443"
       y="1220.8199"
       id="text4246-4-3-5"
       sodipodi:linespacing="125%"><tspan
         sodipodi:role="line"
         style="font-size:45px"
         x="1789.4443"
         y="1220.8199"
         id="tspan3476">En opi mitään kummitätieni kanssa. He ovat</tspan><tspan
         sodipodi:role="line"
         style="font-size:45px"
         x="1789.4443"
         y="1277.0699"
         id="tspan3486">vallanneet kotini, eivätkä tee muuta kuin</tspan><tspan
         sodipodi:role="line"
         style="font-size:45px"
         x="1789.4443"
         y="1333.3199"
         id="tspan3421">valittavat vanhojen luittensa kolotusta ja</tspan><tspan
         sodipodi:role="line"
         style="font-size:45px"
         x="1789.4443"
         y="1389.5699"
         id="tspan3433">huutavat minulle mitä sitten teenkin...</tspan></text>
    <text
       xml:space="preserve"
       style="font-style:normal;font-variant:normal;font-weight:normal;font-stretch:normal;font-size:12px;line-height:125%;font-family:Lavi;-inkscape-font-specification:Lavi;text-align:center;letter-spacing:0px;word-spacing:0px;text-anchor:middle;fill:#000000;fill-opacity:1;stroke:none"
       x="306.43314"
       y="2137.4983"
       id="text4246-4-3-4"
       sodipodi:linespacing="125%"><tspan
         sodipodi:role="line"
         style="font-size:45px"
         x="306.43314"
         y="2137.4983"
         id="tspan4253-3-4" /><tspan
         sodipodi:role="line"
         style="font-size:45px"
         x="306.43314"
         y="2193.7483"
         id="tspan3516">Kuules nyt,</tspan><tspan
         sodipodi:role="line"
         style="font-size:45px"
         x="306.43314"
         y="2249.9983"
         id="tspan3514"><tspan
   style="font-style:italic;font-weight:bold"
   id="tspan3503">sinä olet noita</tspan>, joten</tspan><tspan
         sodipodi:role="line"
         style="font-size:45px"
         x="306.43314"
         y="2306.2483"
         id="tspan3454">ala käyttäytyä</tspan><tspan
         sodipodi:role="line"
         style="font-size:45px"
         x="306.43314"
         y="2362.4983"
         id="tspan3448">kuten sellainen!</tspan></text>
    <text
       xml:space="preserve"
       style="font-style:normal;font-variant:normal;font-weight:normal;font-stretch:normal;font-size:12px;line-height:125%;font-family:Lavi;-inkscape-font-specification:Lavi;text-align:center;letter-spacing:0px;word-spacing:0px;text-anchor:middle;fill:#000000;fill-opacity:1;stroke:none"
       x="301.6976"
       y="2553.5493"
       id="text4246-4-3-4-7"
       sodipodi:linespacing="125%"><tspan
         sodipodi:role="line"
         style="font-size:45px"
         x="301.6976"
         y="2553.5493"
         id="tspan4438">Ole iso tyttöl!</tspan></text>
    <text
       xml:space="preserve"
       style="font-style:normal;font-variant:normal;font-weight:normal;font-stretch:normal;font-size:12px;line-height:125%;font-family:Lavi;-inkscape-font-specification:Lavi;text-align:center;letter-spacing:0px;word-spacing:0px;text-anchor:middle;fill:#000000;fill-opacity:1;stroke:none"
       x="308.17023"
       y="2459.7542"
       id="text4246-4-3-4-7-0"
       sodipodi:linespacing="125%"><tspan
         sodipodi:role="line"
         style="font-size:45px"
         x="308.17023"
         y="2459.7542"
         id="tspan4434">Puhu heille suoraan!</tspan></text>
    <text
       xml:space="preserve"
       style="font-style:normal;font-variant:normal;font-weight:normal;font-stretch:normal;font-size:12px;line-height:125%;font-family:Lavi;-inkscape-font-specification:Lavi;text-align:center;letter-spacing:0px;word-spacing:0px;text-anchor:middle;fill:#000000;fill-opacity:1;stroke:none"
       x="2027.725"
       y="1469.8671"
       id="text4246-4-3-5-1"
       sodipodi:linespacing="125%"><tspan
         sodipodi:role="line"
         style="font-size:45px"
         x="2027.725"
         y="1469.8671"
         id="tspan4482">Etkö kuitenkin voisi tulla</tspan><tspan
         sodipodi:role="line"
         style="font-size:45px"
         x="2027.725"
         y="1526.1171"
         id="tspan3495">mukaan ja auttaa minua</tspan><tspan
         sodipodi:role="line"
         style="font-size:45px"
         x="2027.725"
         y="1582.3671"
         id="tspan3499">puhumaan heille ... ?</tspan></text>
    <text
       xml:space="preserve"
       style="font-style:normal;font-variant:normal;font-weight:normal;font-stretch:normal;font-size:12px;line-height:125%;font-family:Lavi;-inkscape-font-specification:Lavi;text-align:center;letter-spacing:0px;word-spacing:0px;text-anchor:middle;fill:#000000;fill-opacity:1;stroke:none"
       x="1241.7258"
       y="2895.5386"
       id="text4246-4-3-5-1-7"
       sodipodi:linespacing="125%"><tspan
         sodipodi:role="line"
         style="font-size:45px"
         x="1241.7258"
         y="2895.5386"
         id="tspan4482-9">Hyvä on sitten!</tspan><tspan
         sodipodi:role="line"
         style="font-size:45px"
         x="1241.7258"
         y="2951.7886"
         id="tspan4515">Kaipa minä voin tulla</tspan><tspan
         sodipodi:role="line"
         style="font-size:45px"
         x="1241.7258"
         y="3008.0386"
         id="tspan3456">kanssasi ja puhua heille.</tspan><tspan
         sodipodi:role="line"
         style="font-size:45px"
         x="1241.7258"
         y="3064.2886"
         id="tspan3533" /></text>
  </g>
</svg>
