<?xml version="1.0" encoding="UTF-8" standalone="no"?>
<!-- Created with Inkscape (http://www.inkscape.org/) -->

<svg
   xmlns:dc="http://purl.org/dc/elements/1.1/"
   xmlns:cc="http://creativecommons.org/ns#"
   xmlns:rdf="http://www.w3.org/1999/02/22-rdf-syntax-ns#"
   xmlns:svg="http://www.w3.org/2000/svg"
   xmlns="http://www.w3.org/2000/svg"
   xmlns:xlink="http://www.w3.org/1999/xlink"
   xmlns:sodipodi="http://sodipodi.sourceforge.net/DTD/sodipodi-0.dtd"
   xmlns:inkscape="http://www.inkscape.org/namespaces/inkscape"
   id="svg2"
   version="1.1"
   inkscape:version="0.48.5 r10040"
   width="2481"
   height="3503"
   sodipodi:docname="Pepper-and-Carrot_by-David-Revoy_E16P03.svg">
  <metadata
     id="metadata8">
    <rdf:RDF>
      <cc:Work
         rdf:about="">
        <dc:format>image/svg+xml</dc:format>
        <dc:type
           rdf:resource="http://purl.org/dc/dcmitype/StillImage" />
        <dc:title />
      </cc:Work>
    </rdf:RDF>
  </metadata>
  <defs
     id="defs6">
    <filter
       style="color-interpolation-filters:sRGB"
       id="filter4375-4-1-1-1"
       inkscape:label="deevad outline effect">
      <feFlood
         id="feFlood4377-7-9-0-8"
         flood-opacity="1"
         flood-color="rgb(0,0,0)"
         result="flood" />
      <feComposite
         id="feComposite4379-3-8-8-2"
         in2="SourceGraphic"
         in="flood"
         operator="in"
         result="composite1" />
      <feMorphology
         id="feMorphology4393-1-0-49-8"
         operator="dilate"
         radius="4"
         result="result3" />
      <feComposite
         id="feComposite4385-9-5-7-0"
         in2="result3"
         in="SourceGraphic"
         operator="over"
         result="composite2" />
    </filter>
    <filter
       style="color-interpolation-filters:sRGB"
       id="filter4375-4-1-1-1-8"
       inkscape:label="deevad outline effect">
      <feFlood
         id="feFlood4377-7-9-0-8-4"
         flood-opacity="1"
         flood-color="rgb(0,0,0)"
         result="flood" />
      <feComposite
         id="feComposite4379-3-8-8-2-5"
         in2="SourceGraphic"
         in="flood"
         operator="in"
         result="composite1" />
      <feMorphology
         id="feMorphology4393-1-0-49-8-1"
         operator="dilate"
         radius="4"
         result="result3" />
      <feComposite
         id="feComposite4385-9-5-7-0-7"
         in2="result3"
         in="SourceGraphic"
         operator="over"
         result="composite2" />
    </filter>
  </defs>
  <sodipodi:namedview
     pagecolor="#ffffff"
     bordercolor="#666666"
     borderopacity="1"
     objecttolerance="10"
     gridtolerance="10"
     guidetolerance="10"
     inkscape:pageopacity="0"
     inkscape:pageshadow="2"
     inkscape:window-width="1895"
     inkscape:window-height="1155"
     id="namedview4"
     showgrid="false"
     inkscape:zoom="0.65193397"
     inkscape:cx="1182.3918"
     inkscape:cy="1420.6008"
     inkscape:window-x="25"
     inkscape:window-y="1"
     inkscape:window-maximized="1"
     inkscape:current-layer="layer1" />
  <g
     inkscape:groupmode="layer"
     id="layer2"
     inkscape:label="artwork"
     sodipodi:insensitive="true">
    <image
       sodipodi:absref="/Users/gand/Documents/Pepper&amp;Carrot/peppercarrot_ep16_translation/it/../gfx_Pepper-and-Carrot_by-David-Revoy_E16P03.png"
       xlink:href="../gfx_Pepper-and-Carrot_by-David-Revoy_E16P03.png"
       width="2481"
       height="3503"
       id="image10"
       x="0"
       y="0" />
  </g>
  <g
     inkscape:groupmode="layer"
     id="layer3"
     inkscape:label="speechbubbles">
    <path
       style="color:#000000;display:inline;overflow:visible;visibility:visible;fill:#ffffff;fill-opacity:1;fill-rule:nonzero;stroke:none;stroke-width:1px;marker:none;enable-background:accumulate"
       d="m 1530.5664,614.12504 c -23.5422,-44.79099 -54.1129,-86.36208 -69.4889,-134.89415 l -9.2637,44.46765 c -14.5297,-14.22937 -19.1139,-35.6541 -27.0752,-54.63573 l -11.338,37.30803 c -33.8829,-34.01763 -74.8115,-85.94086 -98.9326,-124.1838 l -58.8695,-5.7337 c 28.9026,35.70192 134.8788,118.42738 157.7121,160.07431 l 12.6468,-24.8312 c 9.8817,13.23086 19.2558,26.89199 26.3633,42.47502 L 1465.44,521.55 Z"
       id="path4032"
       inkscape:connector-curvature="0"
       sodipodi:nodetypes="cccccccccccc" />
    <path
       style="color:#000000;fill:#ffffff;fill-opacity:1;fill-rule:nonzero;stroke:none;stroke-width:1px;marker:none;visibility:visible;display:inline;overflow:visible;enable-background:accumulate"
       d="m 989.39893,237.31343 -55.20115,-8.62236 4.88842,14.09441 c -32.87318,0.76478 -50.00075,-3.65883 -73.32536,-6.04045 l 36.66262,18.12127 -6.11039,5.03373 c 5.95232,2.94322 14.93377,4.95064 17.10919,9.06067 -16.60631,2.56124 -28.54589,2.55955 -42.27935,3.543 12.92224,3.40383 23.68069,7.34232 31.28055,12.06145 l -43.99517,8.05387 40.32622,7.04607 c -30.33213,11.58645 -68.45569,18.89383 -103.87495,27.68651 l 125.87525,-4.02702 -19.55332,9.06067 c 12.58109,4.71584 11.46924,2.38156 17.10919,3.52363 2.74652,3.39377 -43.2723,17.50461 -39.10686,16.10785 4.88845,-0.50341 46.43942,-2.51691 46.43942,-2.51691 0,0 -36.66274,14.0944 -31.7743,14.0944 4.88825,0 45.21726,-3.52362 45.21726,-3.52362 l -13.44296,13.591 52.54991,-7.55055 -21.99771,16.89905 c 13.67213,-0.99417 22.49342,-1.34121 17.63259,4.53488 0.45997,7.80509 -0.103,11.33494 -4.46762,22.36759 19.62751,-3.08477 23.91639,-2.07119 39.38509,-3.02857 63.6178,-29.30017 49.0807,-9.74814 40.3288,11.5775 l 48.8838,-17.61795 8.5546,12.08089 36.6626,-15.10112 0,15.60452 c 18.9389,-3.01772 29.8083,-12.52262 47.6617,-18.12135 l 3.666,58.39091 63.7883,-54.86198 12.7573,28.54067 30.9988,-21.4988 3.6662,16.10783 34.2185,-21.64489 25.6639,19.63139 24.442,-18.12128 c 39.4891,18.37512 61.5037,35.00224 91.6566,49.33023 -5.1585,-20.32012 -9.4628,-40.05427 -7.3324,-55.37067 13.8503,-1.59608 27.7004,1.59628 41.5509,6.04044 l -7.3326,-13.591 51.3279,9.06067 -23.2197,-21.14157 c 78.35,-0.67737 62.621,2.95086 80.658,5.03372 l -14.665,-13.591 53.7722,10.57078 c -14.6898,-11.24696 -33.9842,-23.44229 -43.9956,-33.72578 l 56.2161,2.51683 c -22.0291,-9.04805 -49.7066,-15.76968 -65.1185,-27.54316 l 49.2314,-1.1489 -46.4393,-15.10111 36.6624,-8.55728 -29.3298,-2.01352 48.8835,-18.12126 -64.7708,-1.51012 78.2138,-32.71907 -90.4348,7.04725 7.3325,-23.65841 -50.1056,17.11456 50.1056,-59.39762 c -40.8322,20.98117 -78.7381,32.90986 -126.5681,53.57048 l -17.6471,-5.96477 -19.545,3.089 4.8884,-16.96892 -72.1032,20.6381 7.3326,-9.564 -21.9977,9.06068 4.8881,-12.58429 -37.8847,15.10111 3.488,-13.15756 -18.153,8.62723 -5.59,-8.26719 -21.296,5.24697 c -20.4912,-20.23219 -39.4176,-55.95509 -39.4176,-55.95509 0,0 -22.3302,25.43081 -47.351,56.96187 l -13.4431,-9.56061 -16.7611,8.84054 -16.9311,-11.4274 -25.4915,13.65531 c -20.1582,-10.40298 -31.8988,-16.77675 -39.8054,-27.17975 3.8995,9.74979 6.7342,16.29936 1.0466,27.03632 -74.4149,-16.43858 -72.1873,-17.90451 -100.03608,-27.03632 -7.63108,11.73738 19.18984,22.75764 14.87211,31.77737 z"
       id="path4024"
       inkscape:connector-curvature="0"
       sodipodi:nodetypes="cccccccccccccccccsccccccccccccccccccccccccccccccccccccccccccccccccccccccccccccccccccc" />
    <path
       inkscape:connector-curvature="0"
       style="fill:#ffffff;fill-rule:evenodd;stroke:none"
       d="m 547.16652,1199.0507 c -146.61429,-0.1258 -293.53343,1.1314 -304.48387,2.641 -12.39161,1.7081 -33.35155,13.4061 -53.62539,27.7978 l -12.07757,-0.6247 7.59413,3.8649 c -0.8417,0.6171 -1.68177,1.2358 -2.51799,1.8598 l -40.36052,-8.7452 29.03434,17.5504 c -8.68981,7.039 -16.64164,14.1698 -22.95062,20.6927 4.40141,34.8451 7.8294,56.2509 19.51682,73.3865 l -7.3494,12.1561 18.80368,0.9711 c 0.12274,0.113 0.25084,0.2255 0.37473,0.3383 l -13.0947,13.7867 22.79767,-5.9555 c 0.0498,0.036 0.0953,0.071 0.14531,0.1075 l -29.02669,32.0139 31.63454,-9.0583 -37.71825,29.1847 72.19389,-30.7882 c 1.07941,0.5341 2.12974,1.061 3.24261,1.6035 0.63501,0.3096 1.31052,0.6129 2.00751,0.9124 l -0.79153,9.1517 16.77322,-4.2224 c 87.49387,20.189 363.93834,8.5724 488.78289,-0.7654 l 24.93328,22.0969 -4.86774,-16.1018 36.50228,24.1527 -18.25114,-32.2052 19.46712,11.0714 -7.29969,-12.0772 19.46711,6.0378 -2.19679,-10.2949 c 55.69018,-10.4912 85.6435,-33.7358 94.66654,-56.1255 9.73373,-24.1532 4.86731,-57.3643 2.43387,-69.4408 -1.24058,-6.1567 -9.44918,-16.7557 -19.76728,-26.7384 l 13.68356,-12.5104 -21.25284,5.625 c -8.02165,-6.8314 -16.55955,-12.7091 -23.7651,-15.6891 -9.73372,-4.0255 -156.0437,-5.534 -302.65799,-5.6598 z"
       id="path4212" />
    <path
       style="fill:#ffffff;fill-rule:evenodd;stroke:none;stroke-width:1px;stroke-linecap:butt;stroke-linejoin:miter;stroke-opacity:1"
       d="m 859.93893,1272.3203 c 56.86661,-10.0335 105.79244,-10.5381 175.55377,-36.0453 l -19.7842,24.3214 30.6717,-8.1632 -12.4294,26.1018 c 0,0 202.5995,-33.5594 193.8989,-33.5594 -8.7006,0 -224.9071,61.577 -224.9071,61.577 l 17.0647,-28.9567 -42.99824,16.0553 22.13933,-23.8168 -161.58242,57.1754 z"
       id="path4230"
       inkscape:connector-curvature="0"
       sodipodi:nodetypes="cccccscccccc" />
    <path
       style="fill:#ffffff;fill-rule:evenodd;stroke:none"
       d="m 767.1245,1823.7856 -45.33124,29.8306 -15.1104,14.9153 12.78573,13.6724 -17.4351,0 4.64937,23.6159 -43.00658,2.4859 40.6819,18.6441 -31.38317,2.4859 31.38317,18.6441 -2.32469,9.9435 -12.78573,11.1865 12.78573,44.7459 43.00656,22.373 -18.59743,8.7006 34.87018,1.2429 19.75979,22.373 40.68187,12.4294 31.38317,4.9717 -27.89615,16.1583 49.9806,-9.9435 -22.08445,18.6441 48.81826,-13.6724 77.8767,1.243 124.37041,-4.9718 41.8443,-4.9718 32.5454,14.9153 -6.9741,-11.1864 31.3833,-1.243 83.6883,21.13 25.5716,6.2147 -16.2728,-32.3165 23.2468,13.6724 -5.8117,-27.3447 40.6819,-4.9718 20.9221,-13.6723 56.9546,29.8306 -22.0844,-29.8306 31.3831,18.6441 -20.9221,-26.1018 27.8962,11.1865 -20.9222,-24.8589 30.2208,-2.4858 3.487,-39.7742 c 0,0 -17.4349,-11.1865 -12.7856,-11.1865 4.6492,0 25.5715,-11.1864 25.5715,-11.1864 l -16.2729,-8.7006 27.8962,-4.9718 -31.3832,-17.4012 13.9481,-14.9153 -18.5974,-34.8023 -4.6494,-26.1018 -25.5715,-16.1583 -40.6818,-38.5312 -30.2209,-8.7006 -376.59796,-9.9435 -115.0716,9.9435 z"
       id="path4294"
       inkscape:connector-curvature="0" />
    <path
       style="fill:#ffffff;fill-rule:evenodd;stroke:none;stroke-width:1px;stroke-linecap:butt;stroke-linejoin:miter;stroke-opacity:1"
       d="m 1462.9425,2214.0693 -101.9212,-93.2206 6.2147,28.5876 -91.9777,-82.0341 -62.1471,11.1865 178.9836,110.6218 -9.9435,-28.5877 z"
       id="path4305"
       inkscape:connector-curvature="0" />
    <path
       style="fill:#ffffff;fill-rule:evenodd;stroke:none;stroke-width:1px;stroke-linecap:butt;stroke-linejoin:miter;stroke-opacity:1"
       d="m 422.51878,2625.9484 c -14.35862,14.0495 -15.62916,51.2796 -15.00801,64.6324 0.62116,13.3527 14.95155,63.2387 27.14244,67.1321 12.19087,3.8935 93.84089,16.4505 107.32269,15.8234 13.48181,-0.6272 89.60264,-10.1156 101.37943,-15.1239 11.77678,-5.0085 21.62108,-51.5585 21.13795,-61.9441 -0.48311,-10.3853 -5.89465,-62.1732 -21.15051,-67.4109 -15.25585,-5.2377 -80.84221,-27.463 -94.255,-25.3521 -13.41279,2.1107 -122.97226,2.7468 -126.56899,22.2431 z"
       id="path4408"
       inkscape:connector-curvature="0" />
    <path
       style="fill:#ffffff;fill-rule:evenodd;stroke:none;stroke-width:1px;stroke-linecap:butt;stroke-linejoin:miter;stroke-opacity:1"
       d="m 775.86914,2700.9124 c 14.79411,-21.3692 37.80717,-29.5882 55.88887,-29.5882 18.0817,0 290.95099,-4.9314 300.81369,-1.6438 9.8628,3.2876 55.8889,14.7941 55.8889,37.8072 0,23.0131 4.9314,49.3137 -8.219,64.1078 -13.1503,14.7941 -133.147,26.3007 -167.6666,23.0131 -34.51963,-3.2876 -184.10457,-8.219 -202.18627,-9.8628 -18.08169,-1.6437 -42.73855,-23.013 -39.45097,-39.4509 3.28758,-16.4379 4.93138,-44.3824 4.93138,-44.3824 z"
       id="path4410"
       inkscape:connector-curvature="0"
       sodipodi:nodetypes="csssssssc" />
    <path
       style="fill:#ffffff;fill-rule:evenodd;stroke:none;stroke-width:1px;stroke-linecap:butt;stroke-linejoin:miter;stroke-opacity:1"
       d="m 522.03985,2689.4104 c 193.55341,-0.3243 379.15326,41.3597 567.43005,79.9806 44.8357,122.0573 105.1467,166.4381 215.0829,188.0625 -136.5707,-22.4748 -165.0897,-59.102 -228.0528,-171.8502 -183.40766,-54.4054 -369.51017,-68.3491 -558.78343,-82.1423 z"
       id="path4412"
       inkscape:connector-curvature="0"
       sodipodi:nodetypes="cccccc" />
  </g>
  <g
     inkscape:groupmode="layer"
     id="layer1"
     inkscape:label="txt">
    <text
       xml:space="preserve"
       style="font-size:12px;font-style:normal;font-variant:normal;font-weight:normal;font-stretch:normal;text-align:center;line-height:125%;letter-spacing:0px;word-spacing:0px;text-anchor:middle;fill:#000000;fill-opacity:1;stroke:none;font-family:Lavi;-inkscape-font-specification:Lavi"
       x="1268.6267"
       y="292.50793"
       id="text4246"
       sodipodi:linespacing="125%"><tspan
         sodipodi:role="line"
         style="font-size:45px"
         x="1268.6267"
         y="292.50793"
         id="tspan4150">Come sarebbe a dire</tspan><tspan
         sodipodi:role="line"
         style="font-size:45px;font-style:normal;-inkscape-font-specification:Lavi"
         x="1268.6267"
         y="348.75793"
         id="tspan3537">che non stai imparando niente?!</tspan></text>
    <text
       xml:space="preserve"
       style="font-size:12px;font-style:normal;font-variant:normal;font-weight:normal;font-stretch:normal;text-align:center;line-height:125%;letter-spacing:0px;word-spacing:0px;text-anchor:middle;fill:#000000;fill-opacity:1;stroke:none;font-family:Lavi;-inkscape-font-specification:Lavi"
       x="528.66364"
       y="1288.5115"
       id="text4246-9"
       sodipodi:linespacing="125%"><tspan
         sodipodi:role="line"
         style="font-size:45px"
         x="528.66364"
         y="1288.5115"
         id="tspan4210">E non hai nemmeno il coraggio</tspan><tspan
         sodipodi:role="line"
         style="font-size:45px"
         x="528.66364"
         y="1344.7615"
         id="tspan3544">di venire a dircelo da sola?!</tspan></text>
    <text
       xml:space="preserve"
       style="font-size:12px;font-style:normal;font-variant:normal;font-weight:normal;font-stretch:normal;text-align:center;line-height:125%;letter-spacing:0px;word-spacing:0px;text-anchor:middle;fill:#000000;fill-opacity:1;stroke:none;font-family:Lavi;-inkscape-font-specification:Lavi"
       x="1079.519"
       y="1882.459"
       id="text4246-9-6"
       sodipodi:linespacing="125%"><tspan
         sodipodi:role="line"
         style="font-size:45px"
         x="1079.519"
         y="1882.459"
         id="tspan4292">Se non avessi male alla schiena,</tspan><tspan
         sodipodi:role="line"
         style="font-size:45px"
         x="1079.519"
         y="1938.709"
         id="tspan3559">ti darei una bella lezione!</tspan><tspan
         sodipodi:role="line"
         style="font-size:45px"
         x="1079.519"
         y="1994.959"
         id="tspan3555">E non certo di stregoneria…</tspan><tspan
         sodipodi:role="line"
         style="font-size:45px"
         x="1079.519"
         y="2051.209"
         id="tspan3557">se intendi cosa voglio dire!</tspan></text>
    <text
       xml:space="preserve"
       style="font-size:12px;font-style:normal;font-variant:normal;font-weight:normal;font-stretch:normal;text-align:center;line-height:125%;letter-spacing:0px;word-spacing:0px;text-anchor:middle;fill:#000000;fill-opacity:1;stroke:none;font-family:Lavi;-inkscape-font-specification:Lavi"
       x="537.3103"
       y="2674.6978"
       id="text4246-9-6-3"
       sodipodi:linespacing="125%"><tspan
         sodipodi:role="line"
         style="font-size:45px"
         x="537.3103"
         y="2674.6978"
         id="tspan4292-8">Thyme,</tspan><tspan
         sodipodi:role="line"
         style="font-size:45px"
         x="537.3103"
         y="2730.9478"
         id="tspan4349">calmati</tspan></text>
    <text
       xml:space="preserve"
       style="font-size:12px;font-style:normal;font-variant:normal;font-weight:normal;font-stretch:normal;text-align:center;line-height:125%;letter-spacing:0px;word-spacing:0px;text-anchor:middle;fill:#000000;fill-opacity:1;stroke:none;font-family:Lavi;-inkscape-font-specification:Lavi"
       x="982.7735"
       y="2744.8301"
       id="text4246-9-6-9"
       sodipodi:linespacing="125%"><tspan
         sodipodi:role="line"
         style="font-size:45px"
         x="982.7735"
         y="2744.8301"
         id="tspan4292-6">Hanno ragione...</tspan></text>
    <text
       xml:space="preserve"
       style="font-size:8.20311546px;font-style:normal;font-variant:normal;font-weight:normal;font-stretch:normal;text-align:center;line-height:125%;letter-spacing:0px;word-spacing:0px;text-anchor:middle;fill:#ffffff;fill-opacity:1;stroke:#ffffff;stroke-width:0.41015577;stroke-miterlimit:4;stroke-opacity:1;stroke-dasharray:none;font-family:Lavi;-inkscape-font-specification:Lavi"
       x="761.90906"
       y="920.14966"
       id="text4246-8"
       sodipodi:linespacing="125%"
       transform="matrix(0.89618363,-0.24886542,0.02679547,1.1084018,0,0)"><tspan
         sodipodi:role="line"
         style="font-size:30.7616806px;fill:#ffffff;stroke:#ffffff;stroke-width:0.41015577;stroke-miterlimit:4;stroke-opacity:1;stroke-dasharray:none"
         x="761.90906"
         y="920.14966"
         id="tspan4150-8">cip</tspan></text>
    <text
       xml:space="preserve"
       style="font-size:8.20311546px;font-style:normal;font-variant:normal;font-weight:normal;font-stretch:normal;text-align:center;line-height:125%;letter-spacing:0px;word-spacing:0px;text-anchor:middle;fill:#ffffff;fill-opacity:1;stroke:#ffffff;stroke-width:0.41015577;stroke-miterlimit:4;stroke-opacity:1;stroke-dasharray:none;font-family:Lavi;-inkscape-font-specification:Lavi"
       x="543.87469"
       y="837.68304"
       id="text4246-8-4"
       sodipodi:linespacing="125%"
       transform="matrix(0.89618362,-0.24886542,0.02679547,1.1084018,0,0)"><tspan
         sodipodi:role="line"
         style="font-size:30.7616806px;fill:#ffffff;stroke:#ffffff;stroke-width:0.41015577;stroke-miterlimit:4;stroke-opacity:1;stroke-dasharray:none"
         x="543.87469"
         y="837.68304"
         id="tspan4150-8-7">cip</tspan></text>
    <text
       xml:space="preserve"
       style="font-size:8.20311546px;font-style:normal;font-variant:normal;font-weight:normal;font-stretch:normal;text-align:center;line-height:125%;letter-spacing:0px;word-spacing:0px;text-anchor:middle;fill:#ffffff;fill-opacity:1;stroke:#ffffff;stroke-width:0.41015577;stroke-miterlimit:4;stroke-opacity:1;stroke-dasharray:none;font-family:Lavi;-inkscape-font-specification:Lavi"
       x="331.09775"
       y="939.14404"
       id="text4246-8-5"
       sodipodi:linespacing="125%"
       transform="matrix(0.89618362,-0.24886542,0.02679547,1.1084018,0,0)"><tspan
         sodipodi:role="line"
         style="font-size:30.7616806px;fill:#ffffff;stroke:#ffffff;stroke-width:0.41015577;stroke-miterlimit:4;stroke-opacity:1;stroke-dasharray:none"
         x="331.09775"
         y="939.14404"
         id="tspan4150-8-71">cip</tspan></text>
    <text
       xml:space="preserve"
       style="font-size:8.20311546px;font-style:normal;font-variant:normal;font-weight:normal;font-stretch:normal;text-align:center;line-height:125%;letter-spacing:0px;word-spacing:0px;text-anchor:middle;fill:#ffffff;fill-opacity:1;stroke:#ffffff;stroke-width:0.41015577;stroke-miterlimit:4;stroke-opacity:1;stroke-dasharray:none;font-family:Lavi;-inkscape-font-specification:Lavi"
       x="85.560303"
       y="991.41766"
       id="text4246-8-7"
       sodipodi:linespacing="125%"
       transform="matrix(0.73686042,-0.56755246,0.44156597,1.0170015,0,0)"><tspan
         sodipodi:role="line"
         style="font-size:30.7616806px;fill:#ffffff;stroke:#ffffff;stroke-width:0.41015577;stroke-miterlimit:4;stroke-opacity:1;stroke-dasharray:none"
         x="85.560303"
         y="991.41766"
         id="tspan4150-8-79">cip</tspan></text>
    <text
       xml:space="preserve"
       style="font-size:8.20311546px;font-style:normal;font-variant:normal;font-weight:normal;font-stretch:normal;text-align:center;line-height:125%;letter-spacing:0px;word-spacing:0px;text-anchor:middle;fill:#ffffff;fill-opacity:1;stroke:#ffffff;stroke-width:0.41015577;stroke-miterlimit:4;stroke-opacity:1;stroke-dasharray:none;font-family:Lavi;-inkscape-font-specification:Lavi"
       x="329.94168"
       y="1083.0319"
       id="text4246-8-9"
       sodipodi:linespacing="125%"
       transform="matrix(0.89618362,-0.24886542,0.02679547,1.1084018,0,0)"><tspan
         sodipodi:role="line"
         style="font-size:30.7616806px;fill:#ffffff;stroke:#ffffff;stroke-width:0.41015577;stroke-miterlimit:4;stroke-opacity:1;stroke-dasharray:none"
         x="329.94168"
         y="1083.0319"
         id="tspan4150-8-2">cip</tspan></text>
    <text
       xml:space="preserve"
       style="font-size:8.20311546px;font-style:normal;font-variant:normal;font-weight:normal;font-stretch:normal;text-align:center;line-height:125%;letter-spacing:0px;word-spacing:0px;text-anchor:middle;fill:#ffffff;fill-opacity:1;stroke:#ffffff;stroke-width:0.41015577;stroke-miterlimit:4;stroke-opacity:1;stroke-dasharray:none;font-family:Lavi;-inkscape-font-specification:Lavi"
       x="550.73297"
       y="1011.4202"
       id="text4246-8-7-5"
       sodipodi:linespacing="125%"
       transform="matrix(0.89774282,-0.24318074,0.01977029,1.1085494,0,0)"><tspan
         sodipodi:role="line"
         style="font-size:30.7616806px;fill:#ffffff;stroke:#ffffff;stroke-width:0.41015577;stroke-miterlimit:4;stroke-opacity:1;stroke-dasharray:none"
         x="550.73297"
         y="1011.4202"
         id="tspan4150-8-79-8">cip</tspan></text>
    <text
       xml:space="preserve"
       style="font-size:8.20311546px;font-style:normal;font-variant:normal;font-weight:normal;font-stretch:normal;text-align:center;line-height:125%;letter-spacing:0px;word-spacing:0px;text-anchor:middle;fill:#ffffff;fill-opacity:1;stroke:#ffffff;stroke-width:0.41015577;stroke-miterlimit:4;stroke-opacity:1;stroke-dasharray:none;font-family:Lavi;-inkscape-font-specification:Lavi"
       x="156.05554"
       y="847.95422"
       id="text4246-8-7-4"
       sodipodi:linespacing="125%"
       transform="matrix(0.73686042,-0.56755246,0.44156597,1.0170015,0,0)"><tspan
         sodipodi:role="line"
         style="font-size:30.7616806px;fill:#ffffff;stroke:#ffffff;stroke-width:0.41015577;stroke-miterlimit:4;stroke-opacity:1;stroke-dasharray:none"
         x="156.05554"
         y="847.95422"
         id="tspan4150-8-79-5">cip</tspan></text>
    <text
       xml:space="preserve"
       style="font-size:8.20311546px;font-style:normal;font-variant:normal;font-weight:normal;font-stretch:normal;text-align:center;line-height:125%;letter-spacing:0px;word-spacing:0px;text-anchor:middle;fill:#ffffff;fill-opacity:1;stroke:#ffffff;stroke-width:0.41015577;stroke-miterlimit:4;stroke-opacity:1;stroke-dasharray:none;font-family:Lavi;-inkscape-font-specification:Lavi"
       x="351.84869"
       y="983.09503"
       id="text4246-8-7-6"
       sodipodi:linespacing="125%"
       transform="matrix(0.73686042,-0.56755246,0.44156597,1.0170015,0,0)"><tspan
         sodipodi:role="line"
         style="font-size:30.7616806px;fill:#ffffff;stroke:#ffffff;stroke-width:0.41015577;stroke-miterlimit:4;stroke-opacity:1;stroke-dasharray:none"
         x="351.84869"
         y="983.09503"
         id="tspan4150-8-79-86">cip</tspan></text>
    <text
       xml:space="preserve"
       style="font-size:8.20311546px;font-style:normal;font-variant:normal;font-weight:normal;font-stretch:normal;text-align:center;line-height:125%;letter-spacing:0px;word-spacing:0px;text-anchor:middle;fill:#ffffff;fill-opacity:1;stroke:#ffffff;stroke-width:0.41015577;stroke-miterlimit:4;stroke-opacity:1;stroke-dasharray:none;font-family:Lavi;-inkscape-font-specification:Lavi"
       x="-99.220016"
       y="858.89972"
       id="text4246-8-7-3"
       sodipodi:linespacing="125%"
       transform="matrix(0.73686042,-0.56755246,0.44156597,1.0170015,0,0)"><tspan
         sodipodi:role="line"
         style="font-size:30.7616806px;fill:#ffffff;stroke:#ffffff;stroke-width:0.41015577;stroke-miterlimit:4;stroke-opacity:1;stroke-dasharray:none"
         x="-99.220016"
         y="858.89972"
         id="tspan4150-8-79-2">cip</tspan></text>
    <text
       xml:space="preserve"
       style="font-size:8.20311546px;font-style:normal;font-variant:normal;font-weight:normal;font-stretch:normal;text-align:center;line-height:125%;letter-spacing:0px;word-spacing:0px;text-anchor:middle;fill:#ffffff;fill-opacity:1;stroke:#ffffff;stroke-width:0.41015577;stroke-miterlimit:4;stroke-opacity:1;stroke-dasharray:none;font-family:Lavi;-inkscape-font-specification:Lavi"
       x="-166.903"
       y="978.23053"
       id="text4246-8-7-3-4"
       sodipodi:linespacing="125%"
       transform="matrix(0.73686042,-0.56755246,0.44156597,1.0170015,0,0)"><tspan
         sodipodi:role="line"
         style="font-size:30.7616806px;fill:#ffffff;stroke:#ffffff;stroke-width:0.41015577;stroke-miterlimit:4;stroke-opacity:1;stroke-dasharray:none"
         x="-166.903"
         y="978.23053"
         id="tspan4150-8-79-2-4">cip</tspan></text>
    <text
       xml:space="preserve"
       style="font-size:17.80657005px;font-style:normal;font-variant:normal;font-weight:normal;font-stretch:normal;line-height:125%;letter-spacing:0px;word-spacing:0px;fill:#000000;fill-opacity:1;stroke:#000000;stroke-width:0.99236238;stroke-miterlimit:4;stroke-opacity:1;stroke-dasharray:none;filter:url(#filter4375-4-1-1-1);font-family:Lavi;-inkscape-font-specification:Lavi"
       x="787.65729"
       y="1584.5073"
       id="text4580"
       sodipodi:linespacing="125%"
       transform="matrix(1.031805,-0.51321442,-0.19048641,1.3599228,744.55089,-116.50742)"><tspan
         sodipodi:role="line"
         id="tspan4582"
         x="787.65729"
         y="1584.5073"
         style="font-size:70px;fill:#ffffff"><tspan
           style="font-size:80.40014648px"
           id="tspan4617">SBAM!</tspan></tspan></text>
  </g>
</svg>
