<?xml version="1.0" encoding="UTF-8" standalone="no"?>
<!-- Created with Inkscape (http://www.inkscape.org/) -->

<svg
   xmlns:dc="http://purl.org/dc/elements/1.1/"
   xmlns:cc="http://creativecommons.org/ns#"
   xmlns:rdf="http://www.w3.org/1999/02/22-rdf-syntax-ns#"
   xmlns:svg="http://www.w3.org/2000/svg"
   xmlns="http://www.w3.org/2000/svg"
   xmlns:xlink="http://www.w3.org/1999/xlink"
   xmlns:sodipodi="http://sodipodi.sourceforge.net/DTD/sodipodi-0.dtd"
   xmlns:inkscape="http://www.inkscape.org/namespaces/inkscape"
   id="svg2"
   version="1.1"
   inkscape:version="0.48.5 r10040"
   width="2481"
   height="3503"
   sodipodi:docname="Pepper-and-Carrot_by-David-Revoy_E16P05.svg">
  <metadata
     id="metadata8">
    <rdf:RDF>
      <cc:Work
         rdf:about="">
        <dc:format>image/svg+xml</dc:format>
        <dc:type
           rdf:resource="http://purl.org/dc/dcmitype/StillImage" />
        <dc:title />
      </cc:Work>
    </rdf:RDF>
  </metadata>
  <defs
     id="defs6">
    <filter
       style="color-interpolation-filters:sRGB"
       id="filter4375-4-1-1-1-9"
       inkscape:label="deevad outline effect">
      <feFlood
         id="feFlood4377-7-9-0-8-1"
         flood-opacity="1"
         flood-color="rgb(0,0,0)"
         result="flood" />
      <feComposite
         id="feComposite4379-3-8-8-2-77"
         in2="SourceGraphic"
         in="flood"
         operator="in"
         result="composite1" />
      <feMorphology
         id="feMorphology4393-1-0-49-8-9"
         operator="dilate"
         radius="1.3999999999999999"
         result="result3" />
      <feComposite
         id="feComposite4385-9-5-7-0-8"
         in2="result3"
         in="SourceGraphic"
         operator="over"
         result="composite2" />
    </filter>
    <filter
       style="color-interpolation-filters:sRGB"
       id="filter4375-4-1-1-1-9-9"
       inkscape:label="deevad outline effect">
      <feFlood
         id="feFlood4377-7-9-0-8-1-3"
         flood-opacity="1"
         flood-color="rgb(0,0,0)"
         result="flood" />
      <feComposite
         id="feComposite4379-3-8-8-2-77-0"
         in2="SourceGraphic"
         in="flood"
         operator="in"
         result="composite1" />
      <feMorphology
         id="feMorphology4393-1-0-49-8-9-9"
         operator="dilate"
         radius="1.3999999999999999"
         result="result3" />
      <feComposite
         id="feComposite4385-9-5-7-0-8-0"
         in2="result3"
         in="SourceGraphic"
         operator="over"
         result="composite2" />
    </filter>
  </defs>
  <sodipodi:namedview
     pagecolor="#ffffff"
     bordercolor="#666666"
     borderopacity="1"
     objecttolerance="10"
     gridtolerance="10"
     guidetolerance="10"
     inkscape:pageopacity="0"
     inkscape:pageshadow="2"
     inkscape:window-width="1895"
     inkscape:window-height="1155"
     id="namedview4"
     showgrid="false"
     inkscape:zoom="0.42773946"
     inkscape:cx="1489.2659"
     inkscape:cy="1655.6687"
     inkscape:window-x="25"
     inkscape:window-y="1"
     inkscape:window-maximized="1"
     inkscape:current-layer="layer1" />
  <g
     inkscape:groupmode="layer"
     id="layer2"
     inkscape:label="artwork"
     sodipodi:insensitive="true">
    <image
       sodipodi:absref="/Users/gand/Documents/Pepper&amp;Carrot/peppercarrot_ep16_translation/it/../gfx_Pepper-and-Carrot_by-David-Revoy_E16P05.png"
       xlink:href="../gfx_Pepper-and-Carrot_by-David-Revoy_E16P05.png"
       y="0"
       x="0"
       id="image10"
       height="3503"
       width="2481" />
  </g>
  <g
     inkscape:groupmode="layer"
     id="layer3"
     inkscape:label="speechbubbles"
     style="display:inline">
    <path
       style="color:#000000;display:inline;overflow:visible;visibility:visible;fill:#ffffff;fill-opacity:1;fill-rule:nonzero;stroke:none;stroke-width:1px;marker:none;enable-background:accumulate"
       d="m 224.93748,363.12229 c -2.50784,-9.36773 -9.95172,-55.51498 5.61788,-69.78614 15.56956,-14.27114 47.489,-22.98989 98.89996,-20.94069 51.41092,2.04919 84.69644,5.02049 102.04245,12.26584 17.34595,7.24533 31.11667,27.13597 32.37054,30.64888 2.50789,7.0258 15.90779,70.34581 -77.14037,71.66002 -80.91996,1.14291 -136.71194,3.08429 -161.79046,-23.84791 z"
       id="path3525"
       inkscape:connector-curvature="0"
       sodipodi:nodetypes="cssscsc" />
    <path
       style="color:#000000;display:inline;overflow:visible;visibility:visible;fill:#ffffff;fill-opacity:1;fill-rule:nonzero;stroke:none;stroke-width:1px;marker:none;enable-background:accumulate"
       d="m 1448.6174,401.33907 c 35.9433,-26.38695 203.9516,-18.62682 225.8604,3.14055 21.9088,21.76738 50.3293,70.56492 17.578,86.10607 -32.7515,15.54111 -229.5836,14.42157 -249.2976,-11.30187 -19.714,-25.72349 -30.0842,-51.55786 5.8592,-77.94475 z"
       id="path4008-8"
       inkscape:connector-curvature="0"
       sodipodi:nodetypes="zsssz" />
    <path
       style="color:#000000;display:inline;overflow:visible;visibility:visible;fill:#ffffff;fill-opacity:1;fill-rule:nonzero;stroke:none;stroke-width:1px;marker:none;enable-background:accumulate"
       d="m 1574.9826,472.92706 c -17.2236,21.55653 -27.0013,47.84376 -30.7097,54.7077 9.0582,0.57554 24.0252,6.05945 30.1356,7.68732 -7.9164,12.17468 -41.5695,61.31913 -55.7032,69.99973 35.6374,-19.992 75.7084,-62.50212 87.2261,-83.40695 -7.5963,-3.69432 -21.952,-5.88957 -25.8988,-7.94337 5.2655,-10.70917 31.3874,-37.31145 31.3874,-37.31145 z"
       id="path5066-7"
       inkscape:connector-curvature="0"
       sodipodi:nodetypes="cccccccc" />
    <path
       style="color:#000000;display:inline;overflow:visible;visibility:visible;fill:#ffffff;fill-opacity:1;fill-rule:nonzero;stroke:none;stroke-width:1px;marker:none;enable-background:accumulate"
       d="m 1666.6432,624.73182 c -4.2476,-19.06965 40.4158,-123.44465 217.0747,-120.95327 176.6588,2.4914 216.4248,73.56651 216.806,99.30331 0.3813,25.73666 -40.0112,68.03862 -65.4859,75.97643 -25.4743,7.9378 -92.0874,27.3103 -135.6685,24.72136 -43.581,-2.58919 -177.9342,-20.44779 -205.504,-42.00991 -27.5697,-21.56198 -23.9766,-32.07696 -27.2223,-37.03792 z"
       id="path3365"
       inkscape:connector-curvature="0" />
    <path
       style="fill:#ffffff;fill-rule:evenodd;stroke:none;stroke-width:1px;stroke-linecap:butt;stroke-linejoin:miter;stroke-opacity:1"
       d="m 1762.8157,816.08406 c -42.1519,-45.39439 -40.773,-120.33594 7.5658,-129.69827 20.5355,-23.77802 73.5214,-107.585 -23.6983,-32.34693 -18.5773,14.37686 -68.2811,101.3158 16.1325,162.0452 z"
       id="path4278"
       inkscape:connector-curvature="0"
       sodipodi:nodetypes="ccsc" />
    <path
       style="fill:#ffffff;fill-rule:evenodd;stroke:none"
       d="m 516.06668,1322.7543 c 32.15805,12.9951 33.92673,24.1591 4.00778,33.4136 31.34309,3.909 31.58453,29.5808 -3.06028,34.1808 73.88126,30.3422 58.08726,64.7746 41.57598,86.8037 40.39759,-19.8815 44.92294,5.6402 57.30425,21.2187 5.63677,-35.7431 12.57537,-14.4435 19.87727,22.7729 4.79948,-45.7928 11.01057,-50.3223 18.50896,-17.2236 6.0454,-29.4319 16.56254,-41.9863 32.21963,-35.1412 25.03205,-30.3949 39.22871,3.8394 56.92754,17.1843 3.76793,-30.388 16.36352,-33.211 31.77354,-27.2457 5.82621,-13.5024 9.48916,-32.4105 30.26428,-8.5596 2.14373,-24.9405 12.92056,-9.1714 21.04447,-5.9125 -10.6168,-12.3202 5.42517,-18.7274 52.13154,-18.3328 -18.43278,-4.4651 -17.84952,-14.1814 5.17733,-30.0957 -27.88771,-8.6525 -28.88795,-23.6883 -15.76316,-42.0776 -32.65843,-19.431 3.97909,-60.8314 17.3683,-86.679 -29.77435,16.4874 -51.47956,16.2098 -59.52097,-13.8337 -44.87405,34.999 -47.14785,16.9306 -43.68774,2.9981 -41.53923,40.8417 -53.04896,23.9973 -48.97173,12.0631 -74.67014,38.8768 -67.96184,11.7833 -86.35003,-8.2086 -2.7134,49.168 -21.08374,33.3042 -39.51875,17.1715 3.8919,40.5787 -7.27758,30.3877 -18.1322,21.258 0.12488,17.7563 -9.39227,24.466 -31.90991,16.2814 16.56656,11.9104 7.24573,15.9187 -41.2661,7.9639 z"
       id="path4289"
       inkscape:connector-curvature="0"
       sodipodi:nodetypes="cccccccccccccccccccccccc" />
    <path
       style="fill:#ffffff;stroke:none"
       d="m 766.56377,3188.1927 c -80.05798,-9.6516 -98.33119,-29.8794 -115.90541,-70.464 -10.64824,-24.5903 -13.86482,-40.3391 -13.86482,-40.3391 l -19.96131,19.8685 10.19515,28.2975 c 0,0 16.57734,75.9557 139.53639,62.6371 z"
       id="path3063"
       inkscape:connector-curvature="0"
       sodipodi:nodetypes="cscccc" />
    <path
       style="fill:#ffffff;fill-rule:evenodd;stroke:none"
       d="m 1742.7106,3138.3467 c 77.2332,56.0717 120.3129,52.3104 113.6219,-53.1401 34.918,77.1065 59.1492,94.3514 73.5202,56.3606 18.7426,38.0437 66.7478,25.133 98.0269,0 8.5443,30.2159 26.8679,18.0228 42.7254,16.5219 5.2231,6.8362 -12.7154,23.8202 59.757,1.1914 4.6944,9.0484 11.0185,16.8406 53.469,-3.2205 10.9978,36.7263 46.2834,-2.0355 82.4317,-43.4782 -22.5213,50.9503 -13.1823,58.1468 15.5954,38.6472 -13.157,20.9819 -21.0263,37.2241 28.9624,1.6104 -17.1137,38.7281 9.1425,26.069 89.6024,-23.289 -54.8924,40.4204 -121.7282,90.2259 -58.4121,84.4805 -8.8297,12.1213 -40.3254,22.6823 53.4693,41.8679 -17.5102,8.2252 -70.9683,-3.7944 -26.3745,31.0315 5.9743,4.071 -14.0271,6.557 24.1464,17.2775 -22.5342,-0.7293 -36.3539,1.8763 -15.595,17.7133 -41.1337,-0.8563 -25.743,15.7967 4.4558,37.0371 -59.5673,-27.2454 -62.8453,-17.3433 -64.6087,-6.4412 -98.913,-56.1691 -86.0091,-16.9148 -89.1152,-3.7107 -55.4493,-26.8986 -92.6518,-30.8512 -109.1663,23.0343 -30.245,-46.6529 -40.7576,-57.8206 -109.1662,-27.3751 35.3589,-32.7777 -14.9437,-11.895 -53.4693,1.6103 21.0973,-40.9477 -32.4444,-14.0739 -100.2546,25.7648 37.9733,-45.2176 -5.1555,-28.8839 -69.0643,3.2206 24.1466,-44.4217 6.3003,-56.9558 -87.6873,-58.6837 44.9853,-16.0236 49.7394,-45.1377 3.0278,-81.4128 52.6572,10.6815 68.3639,0.76 31.1904,-38.6471 57.4349,32.3449 31.3214,-14.57 8.9115,-57.9709 z"
       id="path4508"
       inkscape:connector-curvature="0"
       sodipodi:nodetypes="cccccccccccccccccccccccccccc" />
    <path
       style="color:#000000;display:inline;overflow:visible;visibility:visible;fill:#ffffff;fill-opacity:1;fill-rule:nonzero;stroke:none;stroke-width:1px;marker:none;enable-background:accumulate"
       d="m 1638.2464,3206.3732 c 54.3411,-2.252 78.9432,-21.3974 91.1531,-28.5238 -3.5763,-9.5 -8.9675,-20.9727 -16.552,-26.785 20.8008,7.2521 55.8636,23.6082 121.7894,43.5991 32.6654,-12.3283 7.4804,-48.4084 -7.6424,-88.7038 l -15.9649,32.0974 -44.6533,5.3405 c 0,0 -68.7398,-11.0844 -83.8186,-15.3403 11.3058,16.2359 22.1359,39.4549 23.6147,45.4861 -11.5248,13.7548 -40.7764,18.4153 -67.926,32.8298 z"
       id="path5162"
       inkscape:connector-curvature="0"
       sodipodi:nodetypes="cccccccccc" />
    <path
       style="fill:#ffffff;fill-rule:evenodd;stroke:none"
       d="m 200.11728,2958.1831 c 52.93574,4.2428 130.45105,-15.8242 87.6547,-79.7025 83.06801,45.2591 151.17531,37.358 286.29817,-33.7078 -11.22871,99.018 49.16433,89.7669 103.60982,70.7565 -52.25241,33.3203 41.54282,52.4139 91.99633,54.2856 -106.72948,72.0693 -50.68463,94.9897 -8.6296,122.1342 -104.88975,-20.0831 -79.52187,20.6088 -92.04994,43.6193 -89.9796,-52.1359 -155.41591,-39.7622 -207.11243,8.724 -27.03792,-26.3682 -35.52484,-80.8664 -135.19836,2.9078 36.65244,-72.3212 -11.39068,-64.7302 -89.17339,-29.0795 12.19034,-24.6335 84.64244,-62.0924 -37.3953,-58.1592 76.22714,-23.4181 92.21228,-55.1406 0,-101.7784 z"
       id="path4584"
       inkscape:connector-curvature="0"
       sodipodi:nodetypes="cccccccccccc" />
    <path
       style="fill:#ffffff;fill-rule:evenodd;stroke:none;stroke-width:1px;stroke-linecap:butt;stroke-linejoin:miter;stroke-opacity:1"
       d="m 1777.3321,2980.8438 c 42.9482,11.0077 81.7703,17.8515 68.5715,-27.8046 76.0209,61.9849 65.1158,19.5336 77.1429,4.6341 45.1971,43.7859 84.0856,37.5461 117.8571,-9.2682 19.0914,67.5273 59.0422,34.8099 94.2855,24.7153 -0.087,18.9897 -9.7087,40.7648 94.2858,29.3493 -29.7347,17.151 -40.826,32.7209 25.7142,41.7071 -46.2217,13.7899 -71.606,28.4635 -21.4285,46.3412 -26.6564,26.0435 -8.8276,41.5211 27.8571,52.5199 -85.8941,1.5232 -65.2088,15.8511 -51.4285,29.3494 -73.1298,-27.7524 -83.3615,-16.6414 -77.1428,4.6342 -34.0376,-12.2048 -59.1959,-41.0516 -120,-3.0894 -18.0838,-12.599 -34.7531,-28.5118 -74.9999,10.8129 -2.8391,-34.3019 -32.2646,-33.0115 -75,-13.9023 -11.2718,-32.1689 -53.5973,-15.8357 -98.5714,4.6341 36.7091,-31.3974 39.3692,-57.6275 -32.1429,-72.6012 69.3012,-17.9616 56.6821,-32.4496 30,-46.3411 26.361,-13.0629 43.5487,-27.2927 -25.7142,-52.52 40.4963,3.9219 83.6155,8.9783 40.7141,-23.1707 z"
       id="path4582"
       inkscape:connector-curvature="0"
       sodipodi:nodetypes="ccccccccccccccccccc" />
    <path
       style="color:#000000;display:inline;overflow:visible;visibility:visible;fill:#ffffff;fill-opacity:1;fill-rule:nonzero;stroke:none;stroke-width:1px;marker:none;enable-background:accumulate"
       d="m 1773.1946,3160.6869 c 4.873,-58.0816 38.984,-124.1352 295.6292,-104.7747 256.6449,19.3606 245.2749,33.0268 243.6505,110.469 -1.6242,77.4423 -116.9522,91.1084 -272.8885,71.7479 -155.9364,-19.3605 -261.5182,6.8331 -266.3912,-77.4422 z"
       id="path5026"
       inkscape:connector-curvature="0" />
  </g>
  <g
     inkscape:groupmode="layer"
     id="layer1"
     inkscape:label="txt">
    <path
       style="color:#000000;display:inline;overflow:visible;visibility:visible;fill:#ffffff;fill-opacity:1;fill-rule:nonzero;stroke:none;stroke-width:1px;marker:none;enable-background:accumulate"
       d="m 2161.1513,2018.3364 c 4.1786,-4.0098 -51.4117,-57.9648 -51.4117,-57.9648 0,0 -1.134,-22.9912 -2.2528,-27.937 -12.2737,-9.2903 -31.5157,-17.9125 -31.5157,-17.9125 l 16.4004,-57.8785 4.2148,41.1034 35.6867,4.8795 8.9531,39.5666 39.3388,41.9422 z"
       id="path4448"
       inkscape:connector-curvature="0"
       sodipodi:nodetypes="cccccccccc" />
    <path
       style="color:#000000;display:inline;overflow:visible;visibility:visible;fill:#ffffff;fill-opacity:1;fill-rule:nonzero;stroke:none;stroke-width:1px;marker:none;enable-background:accumulate"
       d="m 2057.3098,1929.0076 c -6.5254,20.6285 -43.3294,22.3583 -56.878,18.1652 27.3108,23.0767 26.3587,37.4147 -10.7217,39.6409 62.1845,41.5904 11.3681,35.2968 1.345,45.843 48.8263,14.3329 26.9809,32.1707 18.2881,49.9278 56.1211,0.6099 37.7552,29.0741 40.1206,51.7439 4.7577,-10.6377 27.3603,-43.0236 28.7203,-6.9641 37.1208,-34.4027 81.8319,-56.6251 85.3821,3.5798 14.9565,-30.2875 29.8683,-43.0881 28.7203,-6.9641 37.0577,-46.9839 70.3592,-30.0719 103.8582,-16.7925 8.7983,-14.1808 9.8234,-35.9667 38.288,-30.8613 -3.991,-14.0558 5.6198,-23.7176 27.3243,-29.4553 -28.8418,-8.4906 -34.1572,-17.2486 19.3955,-26.6735 -40.7506,-0.9116 -78.7506,-2.7794 -30.9414,-34.921 -14.9991,-0.7778 -50.586,26.0421 -33.994,-52.4468 -25.7918,25.127 -53.3092,38.9954 -87.8187,-13.6394 -16.3315,26.2953 -44.6584,39.3073 -56.9819,6.4624 -4.4294,14.0023 -22.7957,19.2684 -38.3875,19.907 -6.0293,-5.562 -12.2479,-13.1166 -18.7373,-23.0143 -10.6063,20.7826 -26.4721,34.8183 -56.9819,6.4623 z"
       id="path3549-3-7"
       inkscape:connector-curvature="0"
       sodipodi:nodetypes="cccccccccccccccccccc" />
    <text
       xml:space="preserve"
       style="font-size:12px;font-style:normal;font-variant:normal;font-weight:normal;font-stretch:normal;text-align:center;line-height:125%;letter-spacing:0px;word-spacing:0px;text-anchor:middle;fill:#000000;fill-opacity:1;stroke:none;font-family:Lavi;-inkscape-font-specification:Lavi"
       x="343.23199"
       y="344.86267"
       id="text4246"
       sodipodi:linespacing="125%"><tspan
         sodipodi:role="line"
         style="font-size:45px"
         x="343.23199"
         y="344.86267"
         id="tspan4167">Pronta!</tspan></text>
    <text
       xml:space="preserve"
       style="font-size:12px;font-style:normal;font-variant:normal;font-weight:normal;font-stretch:normal;text-align:center;line-height:125%;letter-spacing:0px;word-spacing:0px;text-anchor:middle;fill:#000000;fill-opacity:1;stroke:none;font-family:Lavi;-inkscape-font-specification:Lavi"
       x="1572.8054"
       y="459.81094"
       id="text4246-6"
       sodipodi:linespacing="125%"><tspan
         sodipodi:role="line"
         style="font-size:45px"
         x="1572.8054"
         y="459.81094"
         id="tspan4173">Anch'io!</tspan></text>
    <text
       xml:space="preserve"
       style="font-size:12px;font-style:normal;font-variant:normal;font-weight:normal;font-stretch:normal;text-align:center;line-height:125%;letter-spacing:0px;word-spacing:0px;text-anchor:middle;fill:#000000;fill-opacity:1;stroke:none;font-family:Lavi;-inkscape-font-specification:Lavi"
       x="1886.3446"
       y="587.49286"
       id="text4246-6-6"
       sodipodi:linespacing="125%"><tspan
         sodipodi:role="line"
         style="font-size:45px"
         x="1886.3446"
         y="587.49286"
         id="tspan4472">Bene!</tspan><tspan
         sodipodi:role="line"
         style="font-size:45px"
         x="1886.3446"
         y="643.74286"
         id="tspan4476">Ottimo inizio!</tspan></text>
    <path
       style="color:#000000;display:inline;overflow:visible;visibility:visible;fill:#ffffff;fill-opacity:1;fill-rule:nonzero;stroke:none;stroke-width:1px;marker:none;enable-background:accumulate"
       d="m 402.77879,347.50484 c 22.15612,15.10333 46.34463,36.52674 51.59716,42.36413 -9.06843,5.91442 -16.48478,13.03038 -22.33305,18.46202 10.67512,9.57878 62.90829,49.98418 79.13553,51.89842 -40.50503,-2.62141 -92.4131,-33.57964 -108.63684,-51.22873 6.9082,-8.69591 11.86637,-14.03973 15.42652,-18.71416 -7.66687,-9.40888 -28.79378,-26.04257 -28.79378,-26.04257 z"
       id="path5066"
       inkscape:connector-curvature="0"
       sodipodi:nodetypes="cccccccc" />
    <text
       xml:space="preserve"
       style="font-size:14.61915112px;font-style:normal;font-variant:normal;font-weight:normal;font-stretch:normal;text-align:center;line-height:125%;letter-spacing:0px;word-spacing:0px;text-anchor:middle;fill:#000000;fill-opacity:1;stroke:#000000;stroke-width:3.50057316;stroke-miterlimit:4;stroke-opacity:1;stroke-dasharray:none;font-family:Lavi;-inkscape-font-specification:Lavi"
       x="2591.4849"
       y="3001.26"
       id="text4246-6-6-6-2"
       sodipodi:linespacing="125%"
       transform="matrix(0.91306665,0,-0.10964797,1.0952103,0,0)"><tspan
         sodipodi:role="line"
         style="font-size:54.82181931px;stroke:#000000;stroke-width:3.50057316;stroke-miterlimit:4;stroke-opacity:1;stroke-dasharray:none"
         x="2591.4849"
         y="3001.26"
         id="tspan4204-9-4"><tspan
           style="font-size:73.09576416px;stroke-width:3.50057316;stroke-miterlimit:4;stroke-dasharray:none"
           id="tspan4401-4">ATTACCHIAMO !!!</tspan></tspan></text>
    <text
       xml:space="preserve"
       style="font-size:15.09734917px;font-style:normal;font-variant:normal;font-weight:normal;font-stretch:normal;text-align:center;line-height:125%;letter-spacing:0px;word-spacing:0px;text-anchor:middle;fill:#000000;fill-opacity:1;stroke:#000000;stroke-width:2.26460218;stroke-miterlimit:4;stroke-opacity:1;stroke-dasharray:none;font-family:Lavi;-inkscape-font-specification:Lavi"
       x="1377.0869"
       y="2650.5493"
       id="text4246-6-6-6-3"
       sodipodi:linespacing="125%"
       transform="matrix(0.89466356,0,-0.27376521,1.1177386,0,0)"><tspan
         sodipodi:role="line"
         style="font-size:56.6150589px;stroke:#000000;stroke-width:2.26460218;stroke-miterlimit:4;stroke-opacity:1;stroke-dasharray:none"
         x="1377.0869"
         y="2650.5493"
         id="tspan4204-9-1">UN...</tspan><tspan
         sodipodi:role="line"
         style="font-size:56.6150589px;stroke:#000000;stroke-width:2.26460218;stroke-miterlimit:4;stroke-opacity:1;stroke-dasharray:none"
         x="1390.3561"
         y="2738.8806"
         id="tspan4182-3"><tspan
           style="font-size:75.48674774px;stroke-width:2.26460218"
           id="tspan4401-7">UN MOSTRO! </tspan></tspan></text>
    <text
       xml:space="preserve"
       style="font-size:12.6776371px;font-style:normal;font-variant:normal;font-weight:normal;font-stretch:normal;text-align:center;line-height:125%;letter-spacing:0px;word-spacing:0px;text-anchor:middle;fill:#000000;fill-opacity:1;stroke:#000000;stroke-width:1.90164542;stroke-miterlimit:4;stroke-opacity:1;stroke-dasharray:none;font-family:Lavi;-inkscape-font-specification:Lavi"
       x="3177.5171"
       y="2807.4412"
       id="text4246-6-6-6-3-3"
       sodipodi:linespacing="125%"
       transform="matrix(0.88066605,0,-0.269482,1.1355042,0,0)"><tspan
         sodipodi:role="line"
         style="font-size:47.5411377px;stroke:#000000;stroke-width:1.90164542;stroke-miterlimit:4;stroke-opacity:1;stroke-dasharray:none"
         x="3177.5171"
         y="2807.4412"
         id="tspan4182-3-0"><tspan
           style="font-size:63.38818359px;stroke-width:1.90164542"
           id="tspan4401-7-3">È UNA TRAPPOLA !</tspan></tspan></text>
    <text
       xml:space="preserve"
       style="font-size:12.11902809px;font-style:normal;font-variant:normal;font-weight:normal;font-stretch:normal;text-align:center;line-height:125%;letter-spacing:0px;word-spacing:0px;text-anchor:middle;fill:#000000;fill-opacity:1;stroke:#000000;stroke-width:1.81785417;stroke-miterlimit:4;stroke-opacity:1;stroke-dasharray:none;font-family:Lavi;-inkscape-font-specification:Lavi"
       x="3059.2305"
       y="2761.3069"
       id="text4246-6-6-6-3-3-2"
       sodipodi:linespacing="125%"
       transform="matrix(0.89327675,0,-0.27334085,1.1194739,0,0)"><tspan
         sodipodi:role="line"
         style="font-size:45.44635391px;stroke:#000000;stroke-width:1.81785417;stroke-miterlimit:4;stroke-opacity:1;stroke-dasharray:none"
         x="3059.2305"
         y="2761.3069"
         id="tspan4182-3-0-0"><tspan
           style="font-size:60.59513855px;stroke-width:1.81785417"
           id="tspan4401-7-3-2">LO SAPEVO !!</tspan></tspan></text>
    <text
       xml:space="preserve"
       style="font-size:15.09734917px;font-style:normal;font-variant:normal;font-weight:normal;font-stretch:normal;text-align:center;line-height:125%;letter-spacing:0px;word-spacing:0px;text-anchor:middle;fill:#000000;fill-opacity:1;stroke:#000000;stroke-width:2.26460218;stroke-miterlimit:4;stroke-opacity:1;stroke-dasharray:none;font-family:Lavi;-inkscape-font-specification:Lavi"
       x="2980.5588"
       y="1829.2655"
       id="text4246-6-6-6-3-9"
       sodipodi:linespacing="125%"
       transform="matrix(0.89466356,0,-0.27376521,1.1177386,0,0)"><tspan
         sodipodi:role="line"
         style="font-size:75.48674774px;stroke:#000000;stroke-width:2.26460218;stroke-miterlimit:4;stroke-opacity:1;stroke-dasharray:none"
         x="2993.8279"
         y="1829.2655"
         id="tspan4182-3-7">Oh no !</tspan></text>
    <text
       xml:space="preserve"
       style="font-size:20.24827003px;font-style:normal;font-variant:normal;font-weight:normal;font-stretch:normal;text-align:center;line-height:125%;letter-spacing:0px;word-spacing:0px;text-anchor:middle;fill:#000000;fill-opacity:1;stroke:#000000;stroke-opacity:1;font-family:Lavi;-inkscape-font-specification:Lavi"
       x="1062.8296"
       y="1297.6631"
       id="text4246-6-6-6"
       sodipodi:linespacing="125%"
       transform="matrix(0.92749476,0,-0.21361026,1.0781732,0,0)"><tspan
         sodipodi:role="line"
         style="font-size:75.93101501px;stroke:#000000;stroke-opacity:1"
         x="1062.8296"
         y="1297.6631"
         id="tspan4476-1">Via !</tspan></text>
  </g>
</svg>
