<?xml version="1.0" encoding="UTF-8" standalone="no"?>
<!-- Created with Inkscape (http://www.inkscape.org/) -->

<svg
   xmlns:dc="http://purl.org/dc/elements/1.1/"
   xmlns:cc="http://creativecommons.org/ns#"
   xmlns:rdf="http://www.w3.org/1999/02/22-rdf-syntax-ns#"
   xmlns:svg="http://www.w3.org/2000/svg"
   xmlns="http://www.w3.org/2000/svg"
   xmlns:xlink="http://www.w3.org/1999/xlink"
   xmlns:sodipodi="http://sodipodi.sourceforge.net/DTD/sodipodi-0.dtd"
   xmlns:inkscape="http://www.inkscape.org/namespaces/inkscape"
   id="svg2"
   version="1.1"
   inkscape:version="0.91 r"
   width="2481"
   height="3503"
   sodipodi:docname="Pepper-and-Carrot_by-David-Revoy_E16P04.svg">
  <metadata
     id="metadata8">
    <rdf:RDF>
      <cc:Work
         rdf:about="">
        <dc:format>image/svg+xml</dc:format>
        <dc:type
           rdf:resource="http://purl.org/dc/dcmitype/StillImage" />
        <dc:title />
      </cc:Work>
    </rdf:RDF>
  </metadata>
  <defs
     id="defs6" />
  <sodipodi:namedview
     pagecolor="#ffffff"
     bordercolor="#666666"
     borderopacity="1"
     objecttolerance="10"
     gridtolerance="10"
     guidetolerance="10"
     inkscape:pageopacity="0"
     inkscape:pageshadow="2"
     inkscape:window-width="1366"
     inkscape:window-height="711"
     id="namedview4"
     showgrid="false"
     inkscape:zoom="0.42773947"
     inkscape:cx="1134.0097"
     inkscape:cy="508.21984"
     inkscape:window-x="0"
     inkscape:window-y="30"
     inkscape:window-maximized="1"
     inkscape:current-layer="layer1"
     showguides="false" />
  <g
     inkscape:groupmode="layer"
     id="layer2"
     inkscape:label="artwork"
     sodipodi:insensitive="true">
    <image
       sodipodi:absref="/home/nightmare/Projects/p_c/peppercarrot_ep16_translation/uk/../gfx_Pepper-and-Carrot_by-David-Revoy_E16P04.png"
       xlink:href="../gfx_Pepper-and-Carrot_by-David-Revoy_E16P04.png"
       width="2481"
       height="3503"
       id="image10"
       x="0"
       y="0" />
  </g>
  <g
     inkscape:groupmode="layer"
     id="layer3"
     inkscape:label="speechbubbles">
    <path
       style="fill:#ffffff;stroke:none"
       d="m 166.39322,265.82928 c 9.081,-58.82058 40.4515,-115.12036 229.5001,-122.68297 94.52434,-3.7813 276.72853,-5.38247 367.43903,22.09133 90.71053,27.47381 89.92736,84.02261 90.34013,106.29038 0.41277,22.26778 7.99418,77.46676 -85.17714,99.10547 -93.17131,21.63871 -287.09539,9.71717 -363.45783,10.55747 -152.7249,1.6806 -233.69103,-0.2414 -238.64429,-115.36168 z"
       id="path3270"
       inkscape:connector-curvature="0"
       sodipodi:nodetypes="csssssc" />
    <path
       style="color:#000000;display:inline;overflow:visible;visibility:visible;fill:#ffffff;fill-opacity:1;fill-rule:nonzero;stroke:none;stroke-width:1px;marker:none;enable-background:accumulate"
       d="m 314.85628,373.35194 c 43.52753,-35.69292 420.36598,-57.27084 520.18048,1.38816 83.31377,48.96186 50.80751,170.89433 -23.28687,198.97918 C 737.65575,601.80422 491.17145,598.5444 383.14296,585.81145 280.28498,573.68788 263.01339,537.09439 257.95392,463.41363 255.88895,433.34165 271.32857,409.045 314.85628,373.35194 Z"
       id="path4040-4"
       inkscape:connector-curvature="0"
       sodipodi:nodetypes="zssssz" />
    <path
       style="color:#000000;display:inline;overflow:visible;visibility:visible;fill:#ffffff;fill-opacity:1;fill-rule:nonzero;stroke:none;stroke-width:1px;marker:none;enable-background:accumulate"
       d="M 548.56247,346.28345 C 818.67335,851.31918 962.4842,769.73858 1139.7545,716.83443 950.46167,803.3409 775.67489,874.14978 501.74228,369.42576 c -14.05374,-25.89419 46.82019,-23.14231 46.82019,-23.14231 z"
       id="path4008"
       inkscape:connector-curvature="0"
       sodipodi:nodetypes="ccsc" />
    <path
       style="color:#000000;display:inline;overflow:visible;visibility:visible;fill:#ffffff;fill-opacity:1;fill-rule:nonzero;stroke:none;stroke-width:1px;marker:none;enable-background:accumulate"
       d="m 748.16188,1059.3648 c -4.9419,-27.0877 8.23649,-99.03943 109.54588,-93.11397 101.30924,5.92537 117.78244,39.78497 120.25334,49.94287 2.4709,10.1579 23.8859,67.7194 -55.18475,82.9563 -79.07073,15.2368 -149.90485,-0.8466 -174.61447,-39.7852 z"
       id="path3525"
       inkscape:connector-curvature="0" />
    <path
       style="color:#000000;display:inline;overflow:visible;visibility:visible;fill:#ffffff;fill-opacity:1;fill-rule:nonzero;stroke:none;stroke-width:1px;marker:none;enable-background:accumulate"
       d="m 922.12831,1127.7684 c -5.86932,-28.4665 9.78218,-104.0808 130.10399,-97.8537 120.3215,6.2271 139.8861,41.8102 142.8206,52.4852 2.9348,10.6749 28.3686,71.1664 -65.5409,87.1789 -93.9095,16.0123 -178.03692,-0.8897 -207.38369,-41.8104 z"
       id="path3525-0"
       inkscape:connector-curvature="0" />
    <path
       style="color:#000000;display:inline;overflow:visible;visibility:visible;fill:#ffffff;fill-opacity:1;fill-rule:nonzero;stroke:none;stroke-width:1px;marker:none;enable-background:accumulate"
       d="m 926.41958,1247.8119 c 0.56954,-41.5075 20.59327,-87.1725 93.20492,-110.404 72.6119,-23.2316 218.3833,-8.7241 244.5212,-2.6896 33.014,7.6221 118.8558,33.7197 142.5978,65.5113 23.7421,31.7913 31.3464,71.6405 21.3076,99.9244 -10.0386,28.2837 -46.5246,55.5313 -77.5648,64.0387 -31.04,8.5075 -222.2129,13.1282 -257.4104,4.4582 -35.1974,-8.6699 -92.6895,-13.4495 -122.06661,-35.3708 -29.78272,-22.2236 -45.15941,-43.9607 -44.58971,-85.4682 z"
       id="path3373"
       inkscape:connector-curvature="0"
       sodipodi:nodetypes="zsssssssz" />
    <path
       style="color:#000000;display:inline;overflow:visible;visibility:visible;fill:#ffffff;fill-opacity:1;fill-rule:nonzero;stroke:none;stroke-width:1px;marker:none;enable-background:accumulate"
       d="m 1353.1045,1455.7186 c -17.6743,6.4442 -35.9622,13.4942 -56.6916,8.7928 -5.9074,-1.4988 -12.0586,-3.5824 -17.8157,-7.536 -5.6534,-5.6714 -8.1342,-14.8796 -7.7374,-22.3553 -0.038,-11.0732 3.5645,-21.3765 -0.132,-33.3984 -2.8396,-8.7238 -9.889,-13.0983 -15.6943,-17.3851 -14.8818,-10.591 -30.3953,-18.9029 -44.5591,-32.1972 -16.4134,-13.8335 -33.2388,-29.725 -44.6315,-51.3879 -4.4162,-8.6329 -8.2604,-18.1551 -8.7808,-27.4678 -2.1762,-24.1255 6.2222,-46.2462 22.341,-52.6796 10.8776,-2.6518 26.1352,8.6451 30.8391,24.9803 2.5746,8.6101 0.6371,16.5032 -2.7594,21.9348 -4.4219,12.1322 -2.2192,29.1384 4.6177,43.565 5.515,11.975 19.9292,13.9114 28.768,21.8543 10.6917,14.3128 22.5926,18.8565 35.242,26.2872 5.7643,3.498 17.2268,13.0885 21.8547,19.5004 5.3367,10.6553 3.6397,23.8849 1.2988,32.7032 -2.2102,9.2491 -6.7566,13.924 -2.6636,25.5015 2.0954,8.2407 10.4347,11.3429 15.4067,14.2225 16.3541,6.7626 22.9447,11.3822 37.3062,7.063 1.3135,-0.5605 2.5522,-1.2752 3.7912,-1.9972 z"
       id="path4496"
       inkscape:connector-curvature="0"
       sodipodi:nodetypes="cccccccccccccccccccccc" />
    <path
       style="color:#000000;display:inline;overflow:visible;visibility:visible;fill:#ffffff;fill-opacity:1;fill-rule:nonzero;stroke:none;stroke-width:1px;marker:none;enable-background:accumulate"
       d="m 385.88252,1751.5451 c -8.72984,19.0857 -57.96737,20.6859 -76.09306,16.8065 36.53721,21.3509 35.26343,34.6164 -14.34381,36.6762 83.19217,38.4798 15.20865,32.6568 1.79937,42.4142 65.32127,13.2609 36.09587,29.7646 24.46642,46.1934 75.08033,0.5643 50.50997,26.8995 53.67445,47.8739 6.36499,-9.8421 36.60335,-39.8058 38.42279,-6.4432 49.66128,-31.8297 109.47696,-52.39 114.22652,3.3121 20.00936,-28.0224 39.95867,-39.8657 38.42275,-6.4434 49.57695,-43.4696 94.12871,-27.8225 138.94447,-15.5364 11.77063,-13.1203 13.14215,-33.2766 51.22289,-28.5531 -5.33937,-13.0047 7.51829,-21.9437 36.55514,-27.2523 -38.58538,-7.8556 -45.69653,-15.9585 25.94787,-24.6785 -54.51718,-0.8434 -105.35485,-2.5715 -41.39432,-32.3092 -20.06619,-0.7196 -67.67533,24.0943 -45.47807,-48.5241 -34.50494,23.2477 -71.31862,36.0789 -117.48629,-12.6192 -21.84888,24.3285 -59.74527,36.3673 -76.23208,5.979 -5.9257,12.955 -30.49672,17.8274 -51.35574,18.4182 -8.06622,-5.146 -16.38559,-12.1356 -25.06722,-21.2932 -14.18946,19.2283 -35.41526,32.2142 -76.23208,5.9791 z"
       id="path3549-3-7"
       inkscape:connector-curvature="0"
       sodipodi:nodetypes="cccccccccccccccccccc" />
    <path
       style="color:#000000;fill:#ffffff;fill-opacity:1;fill-rule:nonzero;stroke:none;stroke-width:1px;marker:none;visibility:visible;display:inline;overflow:visible;enable-background:accumulate"
       d="m 424.86372,1892.888 c 21.70076,-19.988 204.87984,-41.6839 269.26066,-0.4927 64.38085,41.1912 25.33019,90.6206 -11.60969,106.3481 -36.9398,15.7275 -145.64844,32.9529 -195.25329,19.4722 -49.60495,-13.4808 -88.24404,-33.6319 -90.76644,-74.893 -1.02952,-16.8404 6.66794,-30.4465 28.36876,-50.4346 z"
       id="path4040"
       inkscape:connector-curvature="0"
       sodipodi:nodetypes="zssssz" />
    <path
       style="fill:#ffffff;fill-rule:evenodd;stroke:none;stroke-width:1px;stroke-linecap:butt;stroke-linejoin:miter;stroke-opacity:1"
       d="m 1714.2654,2080.7017 c 84.2926,8.4181 101.7865,32.4194 119.9299,8.2333 13.6724,-32.3165 73.9597,-7.8033 80.1837,-16.9339 13.3752,-19.6213 -23.6159,-28.5877 -14.9153,-48.4748 8.7006,-19.887 29.8306,-43.5029 29.8306,-43.5029 l 16.1582,9.9435 c 0,0 -26.2419,26.5691 -24.999,37.7556 1.2429,11.1864 26.242,48.0074 3.869,56.708 -22.3729,8.7006 -76.8117,-7.6784 -88.6225,17.2796 -11.8107,24.9579 -83.1478,-13.4558 -121.4346,-21.0084 z"
       id="path4407"
       inkscape:connector-curvature="0"
       sodipodi:nodetypes="ccssccsszc" />
    <path
       style="color:#000000;display:inline;overflow:visible;visibility:visible;fill:#ffffff;fill-opacity:1;fill-rule:nonzero;stroke:none;stroke-width:1px;marker:none;enable-background:accumulate"
       d="m 666.6939,1912.014 c 38.36403,14.2827 84.86956,27.5154 96.07851,29.8219 -4.37169,-11.6312 -5.81209,-22.2337 -7.1164,-30.5082 20.64043,5.7806 115.57926,37.1569 135.10867,51.9928 -46.72733,-38.0638 -117.47092,-65.994 -151.73555,-73.3007 -0.59494,10.8648 0.83117,17.7165 0.34378,23.4081 -17.19324,-2.942 -71.86892,-22.6256 -71.86892,-22.6256 z"
       id="path5066"
       inkscape:connector-curvature="0"
       inkscape:transform-center-x="-112.42356"
       inkscape:transform-center-y="21.85935" />
    <path
       style="fill:#ffffff;stroke:none"
       d="m 333.8167,2342.1368 c 1.80037,-55.1279 70.15142,-63.2247 116.26321,-60.8217 38.33993,1.9981 185.78044,-11.9117 227.7988,38.4094 17.94243,21.4878 15.03561,77.5661 -9.90358,100.9098 -21.26724,19.9066 -59.92416,20.5191 -107.0349,26.7507 -58.49742,7.7377 -142.35537,-5.8877 -188.30051,-15.8346 -21.62769,-4.6823 -40.62347,-34.2859 -38.82302,-89.4136 z"
       id="path3100"
       inkscape:connector-curvature="0"
       sodipodi:nodetypes="zsssssz" />
    <path
       style="color:#000000;display:inline;overflow:visible;visibility:visible;fill:#ffffff;fill-opacity:1;fill-rule:nonzero;stroke:none;stroke-width:1px;marker:none;enable-background:accumulate"
       d="m 421.46497,2519.0956 c -3.68628,-121.2321 148.91245,-108.2382 257.54253,-117.6937 59.28528,-5.1605 274.43816,8.3481 294.88819,115.9027 11.77966,61.9547 -61.26098,114.8543 -90.19844,124.1569 -28.93728,9.3025 -168.76463,21.3672 -213.77068,18.5324 -45.00585,-2.8348 -252.82006,21.9966 -248.4616,-140.8983 z"
       id="path4974"
       inkscape:connector-curvature="0"
       sodipodi:nodetypes="cssssc" />
    <path
       style="fill:#ffffff;fill-rule:evenodd;stroke:none;stroke-width:1px;stroke-linecap:butt;stroke-linejoin:miter;stroke-opacity:1"
       d="m 1237.025,3033.6211 c -25.9077,-74.9353 -135.8732,-262.1385 -253.0276,-244.8772 -71.26981,10.5007 -133.59485,24.8303 -156.2354,-60.7422 -5.53435,-9.3115 -79.49392,-55.5178 -68.47418,-45.6614 73.55047,108.3097 57.38616,155.8485 221.82078,126.0514 132.8264,-23.6523 255.9164,225.2294 255.9164,225.2294 z"
       id="path4652"
       inkscape:connector-curvature="0"
       sodipodi:nodetypes="cscccc" />
    <path
       style="fill:#ffffff;stroke:none"
       d="m 748.99248,2690.5881 c 1.97476,-74.5039 76.94992,-85.4466 127.5306,-82.199 42.05556,2.7005 203.78502,-16.0983 249.87542,51.9093 19.6814,29.0403 16.4928,104.8286 -10.8633,136.3769 -23.3283,26.9034 -65.7315,27.731 -117.40799,36.1529 -64.16657,10.4573 -156.15156,-7.957 -206.54928,-21.4001 -23.72379,-6.328 -44.56049,-46.3364 -42.58545,-120.84 z"
       id="path3100-7"
       inkscape:connector-curvature="0"
       sodipodi:nodetypes="zsssssz" />
    <path
       style="color:#000000;display:inline;overflow:visible;visibility:visible;fill:#ffffff;fill-opacity:1;fill-rule:nonzero;stroke:none;stroke-width:1px;marker:none;enable-background:accumulate"
       d="m 503.73633,579.84113 c 32.14108,-24.99351 310.40171,-40.10316 384.10554,0.97204 61.51959,34.2849 37.5167,119.66652 -17.1952,139.33257 -54.71172,19.66611 -236.71778,17.38347 -316.48691,8.46738 -75.95118,-8.48937 -88.70467,-34.11348 -92.44063,-85.70747 -1.52478,-21.05751 9.87596,-38.07093 42.0172,-63.06452 z"
       id="path4040-4-3"
       inkscape:connector-curvature="0"
       sodipodi:nodetypes="zssssz" />
  </g>
  <g
     inkscape:groupmode="layer"
     id="layer1"
     inkscape:label="txt">
    <text
       xml:space="preserve"
       style="font-style:normal;font-variant:normal;font-weight:normal;font-stretch:normal;font-size:12px;line-height:125%;font-family:Lavi;-inkscape-font-specification:Lavi;text-align:center;letter-spacing:0px;word-spacing:0px;text-anchor:middle;fill:#000000;fill-opacity:1;stroke:none"
       x="505.85571"
       y="214.13177"
       id="text4246"
       sodipodi:linespacing="125%"><tspan
         sodipodi:role="line"
         style="font-style:normal;font-variant:normal;font-weight:normal;font-stretch:normal;font-size:50px;font-family:Neucha;-inkscape-font-specification:Neucha"
         x="505.85571"
         y="214.13177"
         id="tspan3572">Ми вже не такі молоді,</tspan><tspan
         sodipodi:role="line"
         style="font-style:normal;font-variant:normal;font-weight:normal;font-stretch:normal;font-size:50px;font-family:Neucha;-inkscape-font-specification:Neucha"
         x="505.85571"
         y="276.63177"
         id="tspan3405">як колись, і тепер</tspan><tspan
         sodipodi:role="line"
         style="font-style:normal;font-variant:normal;font-weight:normal;font-stretch:normal;font-size:50px;font-family:Neucha;-inkscape-font-specification:Neucha"
         x="505.85571"
         y="339.13177"
         id="tspan3409">настав час для уроку.</tspan></text>
    <text
       xml:space="preserve"
       style="font-style:normal;font-variant:normal;font-weight:normal;font-stretch:normal;font-size:12px;line-height:125%;font-family:Lavi;-inkscape-font-specification:Lavi;text-align:center;letter-spacing:0px;word-spacing:0px;text-anchor:middle;fill:#000000;fill-opacity:1;stroke:none"
       x="576.46271"
       y="438.30731"
       id="text4246-9"
       sodipodi:linespacing="125%"><tspan
         sodipodi:role="line"
         style="font-style:normal;font-variant:normal;font-weight:normal;font-stretch:normal;font-size:50px;font-family:Neucha;-inkscape-font-specification:Neucha"
         x="576.46271"
         y="438.30731"
         id="tspan3413">Я пропоную звернутися до</tspan></text>
    <text
       xml:space="preserve"
       style="font-style:normal;font-variant:normal;font-weight:normal;font-stretch:normal;font-size:12px;line-height:125%;font-family:Lavi;-inkscape-font-specification:Lavi;text-align:center;letter-spacing:0px;word-spacing:0px;text-anchor:middle;fill:#000000;fill-opacity:1;stroke:none"
       x="865.90961"
       y="1049.8156"
       id="text4246-9-6"
       sodipodi:linespacing="125%"><tspan
         sodipodi:role="line"
         style="font-size:50px;-inkscape-font-specification:Neucha;font-family:Neucha;font-weight:normal;font-style:normal;font-stretch:normal;font-variant:normal"
         x="865.90961"
         y="1049.8156"
         id="tspan4183-4">Хе-хе-е!</tspan></text>
    <text
       xml:space="preserve"
       style="font-style:normal;font-variant:normal;font-weight:normal;font-stretch:normal;font-size:12px;line-height:125%;font-family:Lavi;-inkscape-font-specification:Lavi;text-align:center;letter-spacing:0px;word-spacing:0px;text-anchor:middle;fill:#000000;fill-opacity:1;stroke:none"
       x="1069.6064"
       y="1116.4899"
       id="text4246-9-6-2"
       sodipodi:linespacing="125%"><tspan
         sodipodi:role="line"
         style="font-style:normal;font-variant:normal;font-weight:normal;font-stretch:normal;font-size:50px;font-family:Neucha;-inkscape-font-specification:Neucha"
         x="1069.6064"
         y="1116.4899"
         id="tspan4183-4-1">Мудрець?</tspan></text>
    <text
       xml:space="preserve"
       style="font-style:normal;font-variant:normal;font-weight:normal;font-stretch:normal;font-size:12px;line-height:125%;font-family:Lavi;-inkscape-font-specification:Lavi;text-align:center;letter-spacing:0px;word-spacing:0px;text-anchor:middle;fill:#000000;fill-opacity:1;stroke:none"
       x="1184.0806"
       y="1216.1073"
       id="text4246-9-6-2-4"
       sodipodi:linespacing="125%"><tspan
         sodipodi:role="line"
         style="font-style:normal;font-variant:normal;font-weight:normal;font-stretch:normal;font-size:50px;font-family:Neucha;-inkscape-font-specification:Neucha"
         x="1184.0806"
         y="1216.1073"
         id="tspan3593">Чи не занадто вони</tspan><tspan
         sodipodi:role="line"
         style="font-style:normal;font-variant:normal;font-weight:normal;font-stretch:normal;font-size:50px;font-family:Neucha;-inkscape-font-specification:Neucha"
         x="1184.0806"
         y="1278.6073"
         id="tspan3428">молоді, щоб зрозуміти</tspan><tspan
         sodipodi:role="line"
         style="font-style:normal;font-variant:normal;font-weight:normal;font-stretch:normal;font-size:50px;font-family:Neucha;-inkscape-font-specification:Neucha"
         x="1184.0806"
         y="1341.1073"
         id="tspan3432">його вчення?</tspan></text>
    <text
       xml:space="preserve"
       style="font-style:normal;font-variant:normal;font-weight:normal;font-stretch:normal;font-size:12px;line-height:125%;font-family:Lavi;-inkscape-font-specification:Lavi;text-align:center;letter-spacing:0px;word-spacing:0px;text-anchor:middle;fill:#000000;fill-opacity:1;stroke:none"
       x="535.57526"
       y="1824.1853"
       id="text4246-9-6-2-4-7"
       sodipodi:linespacing="125%"><tspan
         sodipodi:role="line"
         style="font-style:normal;font-variant:normal;font-weight:normal;font-stretch:normal;font-size:50px;font-family:Neucha;-inkscape-font-specification:Neucha"
         x="535.57526"
         y="1824.1853"
         id="tspan3440">Для чого це ми</tspan><tspan
         sodipodi:role="line"
         style="font-style:normal;font-variant:normal;font-weight:normal;font-stretch:normal;font-size:50px;font-family:Neucha;-inkscape-font-specification:Neucha"
         x="535.57526"
         y="1886.6853"
         id="tspan3406">занадто молоді?!</tspan></text>
    <text
       xml:space="preserve"
       style="font-style:normal;font-variant:normal;font-weight:normal;font-stretch:normal;font-size:15.14146233px;line-height:125%;font-family:Lavi;-inkscape-font-specification:Lavi;text-align:center;letter-spacing:0px;word-spacing:0px;text-anchor:middle;fill:#000000;fill-opacity:1;stroke:none"
       x="582.27185"
       y="1888.0491"
       id="text4246-9-6-2-4-7-3"
       sodipodi:linespacing="125%"
       transform="scale(0.96046588,1.0411614)"><tspan
         sodipodi:role="line"
         style="font-style:normal;font-variant:normal;font-weight:normal;font-stretch:normal;font-size:62.5px;font-family:Neucha;-inkscape-font-specification:Neucha"
         x="582.27185"
         y="1888.0491"
         id="tspan4359">Ми йдемо!</tspan></text>
    <path
       style="color:#000000;display:inline;overflow:visible;visibility:visible;fill:#ffffff;fill-opacity:1;fill-rule:nonzero;stroke:none;stroke-width:1px;marker:none;enable-background:accumulate"
       d="m 1859.9208,2026.0859 c -20.4432,-14.3102 -27.5983,-27.5982 -25.5539,-35.7755 2.0443,-8.1772 20.4431,-50.0857 42.9305,-55.1965 22.4875,-5.1108 80.7504,-11.2437 94.0385,-6.1329 13.2881,5.1107 51.1079,38.842 51.1079,56.2186 0,17.3767 -7.1551,51.1079 -27.5983,61.3294 -20.4431,10.2216 -110.393,16.3546 -134.9247,-20.4431 z"
       id="path3349"
       inkscape:connector-curvature="0" />
    <text
       xml:space="preserve"
       style="font-style:normal;font-variant:normal;font-weight:normal;font-stretch:normal;font-size:12px;line-height:125%;font-family:Lavi;-inkscape-font-specification:Lavi;text-align:center;letter-spacing:0px;word-spacing:0px;text-anchor:middle;fill:#000000;fill-opacity:1;stroke:none"
       x="1926.6875"
       y="2003.7067"
       id="text4246-9-6-2-4-7-38"
       sodipodi:linespacing="125%"><tspan
         sodipodi:role="line"
         style="font-style:normal;font-variant:normal;font-weight:normal;font-stretch:normal;font-size:50px;font-family:Neucha;-inkscape-font-specification:Neucha"
         x="1926.6875"
         y="2003.7067"
         id="tspan4364-4">&quot;Ми&quot;?</tspan></text>
    <text
       xml:space="preserve"
       style="font-style:normal;font-variant:normal;font-weight:normal;font-stretch:normal;font-size:12px;line-height:125%;font-family:Lavi;-inkscape-font-specification:Lavi;text-align:center;letter-spacing:0px;word-spacing:0px;text-anchor:middle;fill:#000000;fill-opacity:1;stroke:none"
       x="508.82184"
       y="2348.1084"
       id="text4246-9-6-2-4-7-3-4-8-5"
       sodipodi:linespacing="125%"><tspan
         sodipodi:role="line"
         style="font-style:normal;font-variant:normal;font-weight:normal;font-stretch:normal;font-size:50px;font-family:Neucha;-inkscape-font-specification:Neucha"
         x="508.82184"
         y="2348.1084"
         id="tspan4251">Отже,</tspan><tspan
         sodipodi:role="line"
         style="font-style:normal;font-variant:normal;font-weight:normal;font-stretch:normal;font-size:50px;font-family:Neucha;-inkscape-font-specification:Neucha"
         x="508.82184"
         y="2410.6084"
         id="tspan3604">ми на місці.</tspan></text>
    <text
       xml:space="preserve"
       style="font-style:normal;font-variant:normal;font-weight:normal;font-stretch:normal;font-size:12px;line-height:125%;font-family:Lavi;-inkscape-font-specification:Lavi;text-align:center;letter-spacing:0px;word-spacing:0px;text-anchor:middle;fill:#000000;fill-opacity:1;stroke:none"
       x="692.72205"
       y="2441.0281"
       id="text4246-9-6-2-4-7-3-4-8-5-3"
       sodipodi:linespacing="125%"><tspan
         sodipodi:role="line"
         style="font-size:45px"
         x="692.72205"
         y="2441.0281"
         id="tspan4580-41" /><tspan
         sodipodi:role="line"
         style="font-style:normal;font-variant:normal;font-weight:normal;font-stretch:normal;font-size:50px;font-family:Neucha;-inkscape-font-specification:Neucha"
         x="692.72205"
         y="2499.0061"
         id="tspan3613">Я дам вам можливість</tspan><tspan
         sodipodi:role="line"
         style="font-style:normal;font-variant:normal;font-weight:normal;font-stretch:normal;font-size:50px;font-family:Neucha;-inkscape-font-specification:Neucha"
         x="692.72205"
         y="2561.5061"
         id="tspan3447">самостійно представитися</tspan><tspan
         sodipodi:role="line"
         style="font-style:normal;font-variant:normal;font-weight:normal;font-stretch:normal;font-size:50px;font-family:Neucha;-inkscape-font-specification:Neucha"
         x="692.72205"
         y="2624.0061"
         id="tspan3449">Мудрецю.</tspan><tspan
         sodipodi:role="line"
         style="font-style:normal;font-variant:normal;font-weight:normal;font-stretch:normal;font-size:50px;font-family:Neucha;-inkscape-font-specification:Neucha"
         x="692.72205"
         y="2686.5061"
         id="tspan4251-3" /></text>
    <text
       xml:space="preserve"
       style="font-style:normal;font-variant:normal;font-weight:normal;font-stretch:normal;font-size:12px;line-height:125%;font-family:Lavi;-inkscape-font-specification:Lavi;text-align:center;letter-spacing:0px;word-spacing:0px;text-anchor:middle;fill:#000000;fill-opacity:1;stroke:none"
       x="928.06506"
       y="2677.8792"
       id="text4246-9-6-2-4-7-3-4-8-5-3-2"
       sodipodi:linespacing="125%"><tspan
         sodipodi:role="line"
         style="font-style:normal;font-variant:normal;font-weight:normal;font-stretch:normal;font-size:50px;font-family:Neucha;-inkscape-font-specification:Neucha"
         x="928.06506"
         y="2677.8792"
         id="tspan3624">Ви знайдете</tspan><tspan
         sodipodi:role="line"
         style="font-style:normal;font-variant:normal;font-weight:normal;font-stretch:normal;font-size:50px;font-family:Neucha;-inkscape-font-specification:Neucha"
         x="928.06506"
         y="2740.3792"
         id="tspan3453">його на вершині</tspan><tspan
         sodipodi:role="line"
         style="font-style:normal;font-variant:normal;font-weight:normal;font-stretch:normal;font-size:50px;font-family:Neucha;-inkscape-font-specification:Neucha"
         x="928.06506"
         y="2802.8792"
         id="tspan3455">цього схилу.</tspan><tspan
         sodipodi:role="line"
         style="font-style:normal;font-variant:normal;font-weight:normal;font-stretch:normal;font-size:50px;font-family:Neucha;-inkscape-font-specification:Neucha"
         x="928.06506"
         y="2865.3792"
         id="tspan4251-3-4" /></text>
    <path
       style="fill:#ffffff;fill-rule:evenodd;stroke:none"
       d="m 1603.7608,3119.7202 c 23.3089,69.0655 32.534,63.7619 36.6793,31.6351 6.4573,11.617 7.4477,45.6591 26.8332,4.2447 11.292,30.1196 20.7407,26.2926 28.6787,-5.3485 19.5579,57.0811 32.308,24.1493 43.3306,11.4342 27.0351,31.9534 102.4005,36.9265 135.9174,-4.1682 6.8142,14.6808 16.4528,35.7075 23.1454,5.2101 9.5766,12.8377 22.7122,-5.0304 38.2439,-43.5737 -2.2948,25.0813 -13.0307,67.8197 8.4851,43.0902 2.238,17.9294 0.01,41.6435 45.855,3.1018 -13.8196,51.0579 24.9989,-0.8722 62.6045,-50.429 -23.8456,43.226 -56.3528,96.3977 -16.3167,79.0701 -22.8306,36.2086 -23.5857,60.3354 42.5966,47.8274 -43.4081,23.0368 -76.6003,47.492 -30.3409,82.9806 -29.1024,-0.9828 -36.3431,9.9718 -4.6164,42.2041 -45.1164,-21.3509 -48.8692,-11.5309 -37.6082,9.6034 -9.287,0.343 -25.4301,-17.5348 -23.8272,11.7505 -25.2132,-18.488 -59.6506,-58.3313 -56.4806,-11.109 -26.033,-36.2749 -30.7058,-23.2902 -34.0144,-7.1599 -46.3382,-54.8302 -40.6556,-22.1009 -49.7837,-14.3004 -13.3445,-20.2785 -13.203,-3.654 -10.9695,18.6941 -12.7191,-23.695 -24.3922,-32.8393 -33.384,-4.6879 -7.9905,-13.0367 -15.7627,-31.5026 -25.3775,-4.146 -11.0427,-14.9489 -22.8092,-20.9033 -37.7055,12.0265 -5.9228,-19.9189 -14.845,-34.2658 -45.6602,-7.9477 -5.2284,-42.7259 -31.4206,-35.8661 -64.4384,-12.8622 1.3106,-25.098 -1.0746,-41.5915 -35.7166,17.0201 7.3608,-25.627 15.718,-52.6404 -4.9918,-39.2099 13.4896,-49.0319 -34.7949,-5.6125 -63.0829,7.8803 32.5428,-41.1201 80.033,-91.0751 42.3278,-90.673 26.2558,-28.4611 29.1535,-42.7001 7.5279,-42.0071 1.8768,-8.8045 28.3533,-24.935 -1.2092,-24.3768 15.7545,-11.971 38.7371,-8.4857 33.2983,-65.7739 z"
       id="path4656"
       inkscape:connector-curvature="0"
       sodipodi:nodetypes="ccccccccccccccccccccccccccccccccc" />
    <path
       style="fill:#ffffff;fill-rule:evenodd;stroke:none;stroke-width:1px;stroke-linecap:butt;stroke-linejoin:miter;stroke-opacity:1"
       d="m 1395.9187,3167.1846 119.1853,69.1782 -1.1569,-33.8487 82.9076,45.0833 5.0953,-29.1891 -103.505,-45.5434 0.025,38.633 z"
       id="path4667"
       inkscape:connector-curvature="0"
       inkscape:transform-center-x="75.322047"
       inkscape:transform-center-y="-6.237049" />
    <text
       xml:space="preserve"
       style="font-style:normal;font-variant:normal;font-weight:normal;font-stretch:normal;font-size:12px;line-height:125%;font-family:Lavi;-inkscape-font-specification:Lavi;text-align:center;letter-spacing:0px;word-spacing:0px;text-anchor:middle;fill:#000000;fill-opacity:1;stroke:none"
       x="1801.1235"
       y="3238.427"
       id="text4246-9-6-2-4-7-3-4-8-5-9"
       sodipodi:linespacing="125%"><tspan
         sodipodi:role="line"
         style="font-style:normal;font-variant:normal;font-weight:normal;font-stretch:normal;font-size:50px;font-family:Neucha;-inkscape-font-specification:Neucha"
         x="1801.1235"
         y="3238.427"
         id="tspan4445">Ви готові до</tspan></text>
    <text
       xml:space="preserve"
       style="font-style:normal;font-variant:normal;font-weight:normal;font-stretch:normal;font-size:10.62674809px;line-height:125%;font-family:Lavi;-inkscape-font-specification:Lavi;text-align:center;letter-spacing:0px;word-spacing:0px;text-anchor:middle;fill:#000000;fill-opacity:1;stroke:#000000;stroke-width:1.59401214;stroke-miterlimit:4;stroke-dasharray:none;stroke-opacity:1"
       x="2568.4854"
       y="2951.2043"
       id="text4246-6-6-6-3-9"
       sodipodi:linespacing="125%"
       transform="matrix(0.89466356,0,-0.16927076,1.1177386,0,0)"><tspan
         sodipodi:role="line"
         style="font-style:normal;font-variant:normal;font-weight:normal;font-stretch:normal;font-size:60px;font-family:Neucha;-inkscape-font-specification:Neucha;stroke:#000000;stroke-width:1.59401214;stroke-miterlimit:4;stroke-dasharray:none;stroke-opacity:1"
         x="2568.4854"
         y="2951.2043"
         id="tspan4182-3-7">справжнього уроку?</tspan></text>
    <text
       xml:space="preserve"
       style="font-style:normal;font-variant:normal;font-weight:normal;font-stretch:normal;font-size:10.28139114px;line-height:125%;font-family:Lavi;-inkscape-font-specification:Lavi;text-align:center;letter-spacing:0px;word-spacing:0px;text-anchor:middle;fill:#000000;fill-opacity:1;stroke:#000000;stroke-width:1.54220855;stroke-miterlimit:4;stroke-dasharray:none;stroke-opacity:1"
       x="706.4126"
       y="481.11685"
       id="text4246-6-6-6-3-9-0"
       sodipodi:linespacing="125%"
       transform="matrix(0.92481111,0,-0.17497469,1.0813019,0,0)"><tspan
         sodipodi:role="line"
         style="font-style:normal;font-variant:normal;font-weight:normal;font-stretch:normal;font-size:70px;font-family:Neucha;-inkscape-font-specification:Neucha;stroke:#000000;stroke-width:1.54220855;stroke-miterlimit:4;stroke-dasharray:none;stroke-opacity:1"
         x="706.4126"
         y="481.11685"
         id="tspan4182-3-7-6">Гірського Мудрецю</tspan></text>
    <text
       xml:space="preserve"
       style="font-style:normal;font-variant:normal;font-weight:normal;font-stretch:normal;font-size:12px;line-height:125%;font-family:Lavi;-inkscape-font-specification:Lavi;text-align:center;letter-spacing:0px;word-spacing:0px;text-anchor:middle;fill:#000000;fill-opacity:1;stroke:none"
       x="698.46021"
       y="636.0462"
       id="text4246-9-9"
       sodipodi:linespacing="125%"><tspan
         sodipodi:role="line"
         style="font-style:normal;font-variant:normal;font-weight:normal;font-stretch:normal;font-size:50px;font-family:Neucha;-inkscape-font-specification:Neucha"
         x="698.46021"
         y="636.0462"
         id="tspan3419">Його порада буде</tspan><tspan
         sodipodi:role="line"
         style="font-style:normal;font-variant:normal;font-weight:normal;font-stretch:normal;font-size:50px;font-family:Neucha;-inkscape-font-specification:Neucha"
         x="698.46021"
         y="698.5462"
         id="tspan3401">як ніколи корисна...</tspan></text>
  </g>
</svg>
