<?xml version="1.0" encoding="UTF-8" standalone="no"?>
<!-- Created with Inkscape (http://www.inkscape.org/) -->

<svg
   xmlns:dc="http://purl.org/dc/elements/1.1/"
   xmlns:cc="http://creativecommons.org/ns#"
   xmlns:rdf="http://www.w3.org/1999/02/22-rdf-syntax-ns#"
   xmlns:svg="http://www.w3.org/2000/svg"
   xmlns="http://www.w3.org/2000/svg"
   xmlns:xlink="http://www.w3.org/1999/xlink"
   xmlns:sodipodi="http://sodipodi.sourceforge.net/DTD/sodipodi-0.dtd"
   xmlns:inkscape="http://www.inkscape.org/namespaces/inkscape"
   id="svg2"
   version="1.1"
   inkscape:version="0.91 r"
   width="2481"
   height="3503"
   sodipodi:docname="Pepper-and-Carrot_by-David-Revoy_E16P02.svg">
  <metadata
     id="metadata8">
    <rdf:RDF>
      <cc:Work
         rdf:about="">
        <dc:format>image/svg+xml</dc:format>
        <dc:type
           rdf:resource="http://purl.org/dc/dcmitype/StillImage" />
        <dc:title />
      </cc:Work>
    </rdf:RDF>
  </metadata>
  <defs
     id="defs6" />
  <sodipodi:namedview
     pagecolor="#ffffff"
     bordercolor="#666666"
     borderopacity="1"
     objecttolerance="10"
     gridtolerance="10"
     guidetolerance="10"
     inkscape:pageopacity="0"
     inkscape:pageshadow="2"
     inkscape:window-width="1366"
     inkscape:window-height="711"
     id="namedview4"
     showgrid="false"
     inkscape:zoom="0.46"
     inkscape:cx="1085.4157"
     inkscape:cy="344.89093"
     inkscape:window-x="0"
     inkscape:window-y="30"
     inkscape:window-maximized="1"
     inkscape:current-layer="layer1" />
  <g
     inkscape:groupmode="layer"
     id="layer2"
     inkscape:label="artwork"
     sodipodi:insensitive="true">
    <image
       sodipodi:absref="/home/nightmare/Projects/p_c/peppercarrot_ep16_translation/uk/../gfx_Pepper-and-Carrot_by-David-Revoy_E16P02.png"
       xlink:href="../gfx_Pepper-and-Carrot_by-David-Revoy_E16P02.png"
       y="0"
       x="0"
       id="image10"
       height="3503"
       width="2481" />
  </g>
  <g
     inkscape:groupmode="layer"
     id="layer3"
     inkscape:label="speechbubbles">
    <path
       style="fill:#ffffff;fill-rule:evenodd;stroke:none;stroke-width:1px;stroke-linecap:butt;stroke-linejoin:miter;stroke-opacity:1"
       d="m 155.124,1212.01 c 9.17347,-33.3892 33.87671,-58.7225 60.76235,-75.634 12.79473,-8.1647 27.41933,-14.148 42.38465,-12.5742 14.86716,0.9404 29.38872,6.5549 44.42035,4.6048 18.27802,-0.6442 36.87697,-3.4543 54.94514,0.5611 16.06194,4.3815 32.61033,6.6507 49.18514,6.7823 11.69302,-2.7811 22.39289,4.6314 32.83545,9.0649 9.37477,4.789 18.95028,9.8133 26.82454,17.2211 7.25454,10.399 15.94092,19.4458 23.28019,29.7522 4.80229,5.6344 4.34087,13.417 4.11963,20.6197 -0.62372,14.7496 -1.67992,29.7319 -5.6002,43.9418 -2.34599,9.0214 -11.01719,12.007 -17.68,16.1525 -15.76519,8.7511 -32.50577,15.3874 -47.5517,25.6857 -14.90616,5.2731 -30.7473,2.8066 -46.03428,2.0097 -12.80947,-1.5697 -25.6951,-3.7585 -38.61464,-1.9331 -16.4435,1.3358 -32.83707,4.7945 -49.33942,4.3515 -20.67288,-3.0401 -40.4719,-10.5256 -60.50569,-16.5303 -17.97391,-5.2926 -34.35568,-15.2447 -50.07439,-25.8911 -8.39634,-6.0456 -17.28488,-13.0728 -20.24809,-24.2142 -2.42908,-7.6718 -3.00145,-15.8865 -3.10903,-23.9704 z"
       id="path4365"
       inkscape:connector-curvature="0" />
    <path
       style="fill:#ffffff;stroke:none"
       d="m 526.05317,1332.6787 c -30.94804,-5.9742 -33.65755,-15.3739 -35.85896,-26.3529 -2.20164,-10.979 -2.97755,-21.2157 -9.14413,-25.0411 -6.16635,-3.8252 -15.85979,-4.8779 -23.17719,-4.6934 -7.31743,0.1844 -5.29357,-9.0401 -8.28411,-16.1281 -2.99067,-7.0881 -31.76642,-37.2963 -31.76642,-37.2963 0,0 -1.64154,31.4089 0.94371,41.0513 2.58502,9.6423 3.48097,13.1815 5.57556,16.7304 2.09482,3.5489 8.54676,11.5174 16.06913,13.2832 7.52237,1.7658 15.47204,-0.2404 21.46624,-0.192 5.99426,0.048 8.9236,8.3554 12.37845,16.2997 3.45476,7.9444 7.26292,13.1493 20.83234,18.6149 11.63149,4.6851 30.96538,3.7243 30.96538,3.7243 z"
       id="path3023-2"
       inkscape:connector-curvature="0"
       sodipodi:nodetypes="csssscssssssc" />
    <path
       style="color:#000000;display:inline;overflow:visible;visibility:visible;fill:#ffffff;fill-opacity:1;fill-rule:nonzero;stroke:none;stroke-width:1px;marker:none;enable-background:accumulate"
       d="m 1400.3319,1385.4903 c -51.7854,-46.527 -93.4227,-160.6901 -78.6269,-181.6272 14.7958,-20.9371 42.3992,-28.9073 112.6792,-28.9073 70.2799,0 707.3571,-26.0062 779.4864,22.8471 72.1293,48.8534 43.0574,137.6708 -19.8246,194.6663 -62.8821,56.9955 -481.1536,45.3639 -481.1536,45.3639 0,0 -233.0334,6.979 -312.5605,-52.3428 z"
       id="path3992"
       inkscape:connector-curvature="0"
       sodipodi:nodetypes="csssscc" />
    <path
       style="fill:#ffffff;stroke:none"
       d="m 1717.3965,1510.0775 c -2.6108,-38.5604 44.1975,-135.0927 272.5255,-127.8317 228.3283,7.2608 299.7914,49.6759 306.4824,118.2172 10.5848,108.4301 -109.5385,137.4064 -282.0245,145.4377 -177.8145,8.2796 -299.7431,-66.1506 -296.9834,-135.8232 z"
       id="path3280-8"
       inkscape:connector-curvature="0"
       sodipodi:nodetypes="csssc" />
    <path
       style="color:#000000;display:inline;overflow:visible;visibility:visible;fill:#ffffff;fill-opacity:1;fill-rule:nonzero;stroke:none;stroke-width:1px;marker:none;enable-background:accumulate"
       d="m 1219.1793,1379.025 c 11.1145,-52.0341 49.4885,-48.0105 61.0024,-50.7043 11.5139,-2.6938 53.2465,-12.1003 59.6337,-55.0276 6.3873,-42.9274 50.5704,-62.6224 50.5704,-62.6224 l -8.1471,64.4127 c 0,0 -26.1867,43.4877 -51.8954,55.4317 -25.7088,11.9439 -66.72,11.6091 -78.3208,20.0382 -11.601,8.429 -26.2997,13.0823 -32.8432,28.4717 z"
       id="path4018"
       inkscape:connector-curvature="0" />
    <path
       style="color:#000000;display:inline;overflow:visible;visibility:visible;fill:#ffffff;fill-opacity:1;fill-rule:nonzero;stroke:none;stroke-width:1px;marker:none;enable-background:accumulate"
       d="M 177.96119,197.48784 C 182.94267,122.88885 230.74676,78.680011 462.09939,81.754231 653.33686,84.295391 746.84402,103.73769 737.9927,199.64957 725.70604,332.78635 563.95115,310.59438 450.63745,318.43093 376.20594,316.65876 180.36075,333.49284 177.96119,197.48784 Z"
       id="path4546"
       inkscape:connector-curvature="0"
       sodipodi:nodetypes="csscc" />
    <path
       style="color:#000000;display:inline;overflow:visible;visibility:visible;fill:#ffffff;fill-opacity:1;fill-rule:nonzero;stroke:none;stroke-width:1px;marker:none;enable-background:accumulate"
       d="m 1143.8843,418.22097 c -4.0501,99.82061 -64.1908,178.66345 -330.03707,173.51778 -219.75005,-4.25341 -329.97728,-47.52294 -330.7754,-176.42124 -0.9958,-160.8241 231.19778,-139.84438 350.01009,-139.88419 85.54647,2.70361 309.96808,-9.4207 310.80238,142.78765 z"
       id="path4546-3"
       inkscape:connector-curvature="0"
       sodipodi:nodetypes="csscc" />
    <path
       style="color:#000000;display:inline;overflow:visible;visibility:visible;fill:#ffffff;fill-opacity:1;fill-rule:nonzero;stroke:none;stroke-width:1px;marker:none;enable-background:accumulate"
       d="m 1212.2695,581.74978 c -67.2618,20.68446 -152.2854,0.78987 -192.165,-42.94991 -39.87945,-43.73978 14.3178,-40.84093 14.3178,-40.84093 0,0 77.3502,101.9849 177.8472,83.79084 z"
       id="path5002"
       inkscape:connector-curvature="0"
       sodipodi:nodetypes="cscc" />
    <path
       style="fill:#ffffff;fill-rule:evenodd;stroke:none;stroke-width:1px;stroke-linecap:butt;stroke-linejoin:miter;stroke-opacity:1"
       d="m 79.983472,2079.7091 24.220568,17.0837 5.94196,-22.1433 14.36311,6.6899 -8.61786,-77.3902 31.59885,71.2788 2.87262,-18.5348 12.92681,25.1295 37.46898,-12.7892 7.05666,-62.0141 15.79942,52.4548 11.4905,-22.1642 8.11828,28.4584 c 0,0 1.93589,6.0337 16.299,3.5517 14.36312,-2.4821 145.85236,8.3643 172.35735,28.3046 l 23.63969,11.1685 23.21315,-16.1904 -6.63613,26.8112 48.71572,-46.0448 -28.06193,59.7064 18.43988,-10.9044 -8.9689,23.2633 c 0,0 4.3467,12.9654 8.65564,18.7942 41.65302,50.7385 61.86998,166.1191 69.25661,190.6035 l 31.59885,-4.1721 -21.54467,14.9153 c 9.40196,7.0966 43.19685,18.4999 114.51061,-11.4099 0,0 -65.98963,48.3407 -111.71685,43.6535 -9.84009,5.5307 40.47206,16.6301 40.47206,16.6301 l -54.80497,7.2419 -6.01027,51.816 40.21672,18.7319 -45.96196,-9.1784 38.7804,44.8146 -48.14481,-10.8138 -4.96626,28.2861 -7.90376,10.3668 c -16.58258,12.4346 -40.46237,39.8755 -62.66576,45.9394 0,4.5859 24.05446,50.6521 24.05446,50.6521 l -53.5026,-30.4126 24.77637,36.9053 -57.88212,-31.2049 -14.78396,-0.4198 -8.61786,3.6294 c -44.52566,27.4143 -147.54198,11.7027 -164.77771,8.2608 -1.43632,0.096 -18.67204,44.0424 -18.67204,44.0424 l -7.91188,-38.6763 -12.19648,15.5523 -7.15723,-10.4775 -52.53793,71.4149 18.34301,-84.5669 -37.02673,35.0648 5.52281,-47.9126 -28.761522,34.5531 5.079797,-44.1247 -16.570289,5.1418 z"
       id="path4603"
       inkscape:connector-curvature="0"
       sodipodi:nodetypes="cccccccccccccsscccccccccccccccccccccccccccccccccccccccccc" />
    <path
       style="color:#000000;display:inline;overflow:visible;visibility:visible;fill:#ffffff;fill-opacity:1;fill-rule:nonzero;stroke:none;stroke-width:1px;marker:none;enable-background:accumulate"
       d="m 911.57297,2905.1862 c 26.15941,-35.2543 82.16095,-65.5675 156.19513,-78.8643 74.0341,-13.2967 211.5557,-12.838 235.7905,-9.3658 24.2346,3.4721 157.3586,15.071 186.5886,34.2365 29.2299,19.1652 68.7814,42.8654 77.7025,67.9563 8.9214,25.0909 2.8452,86.0066 -23.7889,99.9521 -26.6342,13.9453 -148.5752,45.553 -220.0518,48.5351 -71.4766,2.9823 -237.9994,-6.3821 -285.5577,-14.1337 -47.55828,-7.7516 -97.95553,-17.8163 -113.43039,-45.1473 -15.47501,-27.331 -44.14549,-63.0881 -13.44794,-103.1689 z"
       id="path3533"
       inkscape:connector-curvature="0" />
    <path
       style="fill:#ffffff;stroke:none"
       d="m 1665.3162,3027.9651 c -45.7195,6.3375 -53.9298,-5.1776 -62.1848,-19.0773 -8.2551,-13.8997 -14.1828,-27.4561 -24.5416,-29.7762 -10.3587,-2.3201 -24.2907,0.778 -34.3436,4.4479 -10.0531,3.6701 -16.0502,-4.3086 -23.5544,-12.549 -7.5042,-8.2404 -57.2715,-41.3793 -57.2715,-41.3793 0,0 12.6136,43.4743 20.7667,55.3773 8.1531,11.903 11.0722,16.2967 15.6572,20.1434 4.5852,3.8466 17.3035,11.6669 28.565,10.553 11.2614,-1.1138 21.3268,-7.5562 29.6567,-10.2912 8.3298,-2.7351 21.007,2.5425 29.5605,11.7303 8.5534,9.1878 31.1188,27.0998 49.1012,23.41 17.9825,-3.6897 28.5886,-12.5889 28.5886,-12.5889 z"
       id="path3023"
       inkscape:connector-curvature="0"
       sodipodi:nodetypes="csssscssssssc" />
  </g>
  <g
     inkscape:groupmode="layer"
     id="layer1"
     inkscape:label="txt"
     style="display:inline">
    <text
       xml:space="preserve"
       style="font-style:normal;font-variant:normal;font-weight:normal;font-stretch:normal;font-size:12px;line-height:125%;font-family:Lavi;-inkscape-font-specification:Lavi;text-align:center;letter-spacing:0px;word-spacing:0px;text-anchor:middle;fill:#000000;fill-opacity:1;stroke:none"
       x="812.651"
       y="281.03253"
       id="text4246-4"
       sodipodi:linespacing="125%"><tspan
         sodipodi:role="line"
         style="font-size:45px"
         x="812.651"
         y="281.03253"
         id="tspan4253" /><tspan
         sodipodi:role="line"
         style="font-style:normal;font-variant:normal;font-weight:normal;font-stretch:normal;font-size:45px;font-family:Neucha;-inkscape-font-specification:Neucha"
         x="812.651"
         y="334.64987"
         id="tspan3405">Особисто я не втягуюсь</tspan><tspan
         sodipodi:role="line"
         style="font-style:normal;font-variant:normal;font-weight:normal;font-stretch:normal;font-size:45px;font-family:Neucha;-inkscape-font-specification:Neucha"
         x="812.651"
         y="390.89987"
         id="tspan3394">до посередництва в чужих</tspan><tspan
         sodipodi:role="line"
         style="font-style:normal;font-variant:normal;font-weight:normal;font-stretch:normal;font-size:45px;font-family:Neucha;-inkscape-font-specification:Neucha"
         x="812.651"
         y="447.14987"
         id="tspan3409">справах, навіть якщо це стосується</tspan><tspan
         sodipodi:role="line"
         style="font-style:normal;font-variant:normal;font-weight:normal;font-stretch:normal;font-size:45px;font-family:Neucha;-inkscape-font-specification:Neucha"
         x="812.651"
         y="503.39987"
         id="tspan3398">друзів. Це завжди закінчується</tspan><tspan
         sodipodi:role="line"
         style="font-style:normal;font-variant:normal;font-weight:normal;font-stretch:normal;font-size:45px;font-family:Neucha;-inkscape-font-specification:Neucha"
         x="812.651"
         y="559.6499"
         id="tspan3402">погано.</tspan></text>
    <text
       xml:space="preserve"
       style="font-style:normal;font-variant:normal;font-weight:normal;font-stretch:normal;font-size:12px;line-height:125%;font-family:Lavi;-inkscape-font-specification:Lavi;text-align:center;letter-spacing:0px;word-spacing:0px;text-anchor:middle;fill:#000000;fill-opacity:1;stroke:none"
       x="439.9147"
       y="153.81801"
       id="text4246-42"
       sodipodi:linespacing="125%"><tspan
         sodipodi:role="line"
         style="font-style:normal;font-variant:normal;font-weight:normal;font-stretch:normal;font-size:45px;font-family:Neucha;-inkscape-font-specification:Neucha"
         x="439.9147"
         y="153.81801"
         id="tspan3442">Це одна з тих</tspan><tspan
         sodipodi:role="line"
         style="font-style:normal;font-variant:normal;font-weight:normal;font-stretch:normal;font-size:45px;font-family:Neucha;-inkscape-font-specification:Neucha"
         x="439.9147"
         y="210.06801"
         id="tspan3386">ситуацій, з якими ти повинна</tspan><tspan
         sodipodi:role="line"
         style="font-style:normal;font-variant:normal;font-weight:normal;font-stretch:normal;font-size:45px;font-family:Neucha;-inkscape-font-specification:Neucha"
         x="446.19888"
         y="266.31799"
         id="tspan3390">розбиратися самостійно. </tspan></text>
    <text
       xml:space="preserve"
       style="font-style:normal;font-variant:normal;font-weight:normal;font-stretch:normal;font-size:12px;line-height:125%;font-family:Lavi;-inkscape-font-specification:Lavi;text-align:center;letter-spacing:0px;word-spacing:0px;text-anchor:middle;fill:#000000;fill-opacity:1;stroke:none"
       x="322.12131"
       y="1139.8259"
       id="text4246-4-3"
       sodipodi:linespacing="125%"><tspan
         sodipodi:role="line"
         style="font-size:45px"
         x="322.12131"
         y="1139.8259"
         id="tspan4253-3" /><tspan
         sodipodi:role="line"
         style="font-style:normal;font-variant:normal;font-weight:normal;font-stretch:normal;font-size:45px;font-family:Neucha;-inkscape-font-specification:Neucha"
         x="322.12131"
         y="1193.4432"
         id="tspan4324">Сафрон...</tspan><tspan
         sodipodi:role="line"
         style="font-style:normal;font-variant:normal;font-weight:normal;font-stretch:normal;font-size:45px;font-family:Neucha;-inkscape-font-specification:Neucha"
         x="322.12131"
         y="1249.6932"
         id="tspan3421">Б-будь ласка..</tspan></text>
    <text
       xml:space="preserve"
       style="font-style:normal;font-variant:normal;font-weight:normal;font-stretch:normal;font-size:12px;line-height:125%;font-family:Lavi;-inkscape-font-specification:Lavi;text-align:center;letter-spacing:0px;word-spacing:0px;text-anchor:middle;fill:#000000;fill-opacity:1;stroke:none"
       x="1806.8357"
       y="1233.8634"
       id="text4246-4-3-5"
       sodipodi:linespacing="125%"><tspan
         sodipodi:role="line"
         style="font-style:normal;font-variant:normal;font-weight:normal;font-stretch:normal;font-size:45px;font-family:Neucha;-inkscape-font-specification:Neucha"
         x="1806.8357"
         y="1233.8634"
         id="tspan4322">Мої хрещені мене нічому не навчають,</tspan><tspan
         sodipodi:role="line"
         style="font-style:normal;font-variant:normal;font-weight:normal;font-stretch:normal;font-size:45px;font-family:Neucha;-inkscape-font-specification:Neucha"
         x="1806.8357"
         y="1290.1134"
         id="tspan3484">а все, що вони роблять - займають мій дім,</tspan><tspan
         sodipodi:role="line"
         style="font-style:normal;font-variant:normal;font-weight:normal;font-stretch:normal;font-size:45px;font-family:Neucha;-inkscape-font-specification:Neucha"
         x="1806.8357"
         y="1346.3634"
         id="tspan3476">скаржаться на свої старі хрустячі кістки та</tspan><tspan
         sodipodi:role="line"
         style="font-style:normal;font-variant:normal;font-weight:normal;font-stretch:normal;font-size:45px;font-family:Neucha;-inkscape-font-specification:Neucha"
         x="1806.8357"
         y="1402.6134"
         id="tspan3486">сваряться на мене, що б я не робила...</tspan></text>
    <text
       xml:space="preserve"
       style="font-style:normal;font-variant:normal;font-weight:normal;font-stretch:normal;font-size:12px;line-height:125%;font-family:Lavi;-inkscape-font-specification:Lavi;text-align:center;letter-spacing:0px;word-spacing:0px;text-anchor:middle;fill:#000000;fill-opacity:1;stroke:none"
       x="312.95486"
       y="2130.9766"
       id="text4246-4-3-4"
       sodipodi:linespacing="125%"><tspan
         sodipodi:role="line"
         style="font-size:45px"
         x="312.95486"
         y="2130.9766"
         id="tspan4253-3-4" /><tspan
         sodipodi:role="line"
         style="font-style:normal;font-variant:normal;font-weight:normal;font-stretch:normal;font-size:45px;font-family:Neucha;-inkscape-font-specification:Neucha"
         x="312.95486"
         y="2184.594"
         id="tspan4356">Послухай,</tspan><tspan
         sodipodi:role="line"
         style="font-style:normal;font-variant:normal;font-weight:normal;font-stretch:normal;font-size:45px;font-family:Neucha;-inkscape-font-specification:Neucha"
         x="312.95486"
         y="2240.844"
         id="tspan3514">ти ж відьма, ото й почни</tspan><tspan
         sodipodi:role="line"
         style="font-style:normal;font-variant:normal;font-weight:normal;font-stretch:normal;font-size:45px;font-family:Neucha;-inkscape-font-specification:Neucha"
         x="312.95486"
         y="2297.094"
         id="tspan3423">вести себе як належить</tspan><tspan
         sodipodi:role="line"
         style="font-style:normal;font-variant:normal;font-weight:normal;font-stretch:normal;font-size:45px;font-family:Neucha;-inkscape-font-specification:Neucha"
         x="312.95486"
         y="2353.344"
         id="tspan3404">відьмі!</tspan></text>
    <text
       xml:space="preserve"
       style="font-style:normal;font-variant:normal;font-weight:normal;font-stretch:normal;font-size:12px;line-height:125%;font-family:Lavi;-inkscape-font-specification:Lavi;text-align:center;letter-spacing:0px;word-spacing:0px;text-anchor:middle;fill:#000000;fill-opacity:1;stroke:none"
       x="301.6976"
       y="2553.5493"
       id="text4246-4-3-4-7"
       sodipodi:linespacing="125%"><tspan
         sodipodi:role="line"
         style="font-style:normal;font-variant:normal;font-weight:normal;font-stretch:normal;font-size:45px;font-family:Neucha;-inkscape-font-specification:Neucha"
         x="301.6976"
         y="2553.5493"
         id="tspan4438">Як доросла дівчина!</tspan></text>
    <text
       xml:space="preserve"
       style="font-style:normal;font-variant:normal;font-weight:normal;font-stretch:normal;font-size:12px;line-height:125%;font-family:Lavi;-inkscape-font-specification:Lavi;text-align:center;letter-spacing:0px;word-spacing:0px;text-anchor:middle;fill:#000000;fill-opacity:1;stroke:none"
       x="321.21371"
       y="2433.6672"
       id="text4246-4-3-4-7-0"
       sodipodi:linespacing="125%"><tspan
         sodipodi:role="line"
         style="font-style:normal;font-variant:normal;font-weight:bold;font-stretch:normal;font-size:45px;font-family:Neucha;-inkscape-font-specification:Neucha"
         x="321.21371"
         y="2433.6672"
         id="tspan3406">Поговори з ними сама!</tspan></text>
    <text
       xml:space="preserve"
       style="font-style:normal;font-variant:normal;font-weight:normal;font-stretch:normal;font-size:12px;line-height:125%;font-family:Lavi;-inkscape-font-specification:Lavi;text-align:center;letter-spacing:0px;word-spacing:0px;text-anchor:middle;fill:#000000;fill-opacity:1;stroke:none"
       x="2014.6814"
       y="1485.0845"
       id="text4246-4-3-5-1"
       sodipodi:linespacing="125%"><tspan
         sodipodi:role="line"
         style="font-style:normal;font-variant:normal;font-weight:normal;font-stretch:normal;font-size:45px;font-family:Neucha;-inkscape-font-specification:Neucha"
         x="2014.6814"
         y="1485.0845"
         id="tspan4482">Ти правда не зможеш прийти</tspan><tspan
         sodipodi:role="line"
         style="font-style:normal;font-variant:normal;font-weight:normal;font-stretch:normal;font-size:45px;font-family:Neucha;-inkscape-font-specification:Neucha"
         x="2014.6814"
         y="1541.3345"
         id="tspan3495">та допомогти мені поговорити</tspan><tspan
         sodipodi:role="line"
         style="font-style:normal;font-variant:normal;font-weight:normal;font-stretch:normal;font-size:45px;font-family:Neucha;-inkscape-font-specification:Neucha"
         x="2014.6814"
         y="1597.5845"
         id="tspan3499">про це з ними?..</tspan></text>
    <text
       xml:space="preserve"
       style="font-style:normal;font-variant:normal;font-weight:normal;font-stretch:normal;font-size:12px;line-height:125%;font-family:Lavi;-inkscape-font-specification:Lavi;text-align:center;letter-spacing:0px;word-spacing:0px;text-anchor:middle;fill:#000000;fill-opacity:1;stroke:none"
       x="1241.7258"
       y="2895.5386"
       id="text4246-4-3-5-1-7"
       sodipodi:linespacing="125%"><tspan
         sodipodi:role="line"
         style="font-style:normal;font-variant:normal;font-weight:normal;font-stretch:normal;font-size:45px;font-family:Neucha;-inkscape-font-specification:Neucha"
         x="1241.7258"
         y="2895.5386"
         id="tspan4482-9">Та гаразд вже, гаразд!</tspan><tspan
         sodipodi:role="line"
         style="font-style:normal;font-variant:normal;font-weight:normal;font-stretch:normal;font-size:45px;font-family:Neucha;-inkscape-font-specification:Neucha"
         x="1241.7258"
         y="2951.7886"
         id="tspan3533">Мабуть, я зможу піти з тобою</tspan><tspan
         sodipodi:role="line"
         style="font-style:normal;font-variant:normal;font-weight:normal;font-stretch:normal;font-size:45px;font-family:Neucha;-inkscape-font-specification:Neucha"
         x="1241.7258"
         y="3008.0386"
         id="tspan3433">поговорити з твоїми хрещеними.</tspan></text>
  </g>
</svg>
