<?xml version="1.0" encoding="UTF-8" standalone="no"?>
<!-- Created with Inkscape (http://www.inkscape.org/) -->

<svg
   xmlns:dc="http://purl.org/dc/elements/1.1/"
   xmlns:cc="http://creativecommons.org/ns#"
   xmlns:rdf="http://www.w3.org/1999/02/22-rdf-syntax-ns#"
   xmlns:svg="http://www.w3.org/2000/svg"
   xmlns="http://www.w3.org/2000/svg"
   xmlns:xlink="http://www.w3.org/1999/xlink"
   xmlns:sodipodi="http://sodipodi.sourceforge.net/DTD/sodipodi-0.dtd"
   xmlns:inkscape="http://www.inkscape.org/namespaces/inkscape"
   id="svg2"
   version="1.1"
   inkscape:version="0.91 r13725"
   width="2481"
   height="3503"
   sodipodi:docname="Pepper-and-Carrot_by-David-Revoy_E16P04.svg">
  <metadata
     id="metadata8">
    <rdf:RDF>
      <cc:Work
         rdf:about="">
        <dc:format>image/svg+xml</dc:format>
        <dc:type
           rdf:resource="http://purl.org/dc/dcmitype/StillImage" />
        <dc:title />
      </cc:Work>
    </rdf:RDF>
  </metadata>
  <defs
     id="defs6" />
  <sodipodi:namedview
     pagecolor="#ffffff"
     bordercolor="#666666"
     borderopacity="1"
     objecttolerance="10"
     gridtolerance="10"
     guidetolerance="10"
     inkscape:pageopacity="0"
     inkscape:pageshadow="2"
     inkscape:window-width="1600"
     inkscape:window-height="831"
     id="namedview4"
     showgrid="false"
     inkscape:zoom="0.30245748"
     inkscape:cx="835.30961"
     inkscape:cy="2849.0978"
     inkscape:window-x="1280"
     inkscape:window-y="0"
     inkscape:window-maximized="1"
     inkscape:current-layer="layer1" />
  <g
     inkscape:groupmode="layer"
     id="layer2"
     inkscape:label="artwork"
     sodipodi:insensitive="true">
    <image
       sodipodi:absref="/home/willem/Git/peppercarrot_ep16_translation/nl/../gfx_Pepper-and-Carrot_by-David-Revoy_E16P04.png"
       xlink:href="../gfx_Pepper-and-Carrot_by-David-Revoy_E16P04.png"
       width="2481"
       height="3503"
       id="image10"
       x="0"
       y="0" />
  </g>
  <g
     inkscape:groupmode="layer"
     id="layer3"
     inkscape:label="speechbubbles">
    <path
       style="fill:#ffffff;stroke:none"
       d="m 144.93821,265.82928 c 9.64772,-58.82058 42.97595,-115.12036 243.82246,-122.68297 100.42329,-3.7813 293.99825,-5.38247 390.3697,22.09133 96.37148,27.47381 95.53943,84.02261 95.97796,106.29038 0.43853,22.26778 8.49308,77.46676 -90.49276,99.10547 -98.98583,21.63871 -305.01208,9.71717 -386.14005,10.55747 -162.25597,1.6806 -248.27493,-0.2414 -253.53731,-115.36168 z"
       id="path3270"
       inkscape:connector-curvature="0"
       sodipodi:nodetypes="csssssc" />
    <path
       style="color:#000000;display:inline;overflow:visible;visibility:visible;fill:#ffffff;fill-opacity:1;fill-rule:nonzero;stroke:none;stroke-width:1px;marker:none;enable-background:accumulate"
       d="m 352.97405,373.35194 c 39.05528,-35.69292 377.17543,-57.27084 466.73448,1.38816 74.75369,48.96186 45.58728,170.89433 -20.89426,198.97918 -66.48133,28.08494 -287.64058,24.82512 -384.56967,12.09217 -92.28982,-12.12357 -107.78684,-48.71706 -112.32648,-122.39782 -1.8528,-30.07198 12.00047,-54.36863 51.05593,-90.06169 z"
       id="path4040-4"
       inkscape:connector-curvature="0"
       sodipodi:nodetypes="zssssz" />
    <path
       style="color:#000000;display:inline;overflow:visible;visibility:visible;fill:#ffffff;fill-opacity:1;fill-rule:nonzero;stroke:none;stroke-width:1px;marker:none;enable-background:accumulate"
       d="M 548.56247,346.28345 C 818.67335,851.31918 962.4842,769.73858 1139.7545,716.83443 950.46167,803.3409 775.67489,874.14978 501.74228,369.42576 c -14.05374,-25.89419 46.82019,-23.14231 46.82019,-23.14231 z"
       id="path4008"
       inkscape:connector-curvature="0"
       sodipodi:nodetypes="ccsc" />
    <path
       style="color:#000000;display:inline;overflow:visible;visibility:visible;fill:#ffffff;fill-opacity:1;fill-rule:nonzero;stroke:none;stroke-width:1px;marker:none;enable-background:accumulate"
       d="m 748.16188,1059.3648 c -4.9419,-27.0877 8.23649,-99.03943 109.54588,-93.11397 101.30924,5.92537 117.78244,39.78497 120.25334,49.94287 2.4709,10.1579 23.8859,67.7194 -55.18475,82.9563 -79.07073,15.2368 -149.90485,-0.8466 -174.61447,-39.7852 z"
       id="path3525"
       inkscape:connector-curvature="0" />
    <path
       style="color:#000000;display:inline;overflow:visible;visibility:visible;fill:#ffffff;fill-opacity:1;fill-rule:nonzero;stroke:none;stroke-width:1px;marker:none;enable-background:accumulate"
       d="m 922.12831,1127.7684 c -5.86932,-28.4665 9.78218,-104.0808 130.10399,-97.8537 120.3215,6.2271 139.8861,41.8102 142.8206,52.4852 2.9348,10.6749 28.3686,71.1664 -65.5409,87.1789 -93.9095,16.0123 -178.03692,-0.8897 -207.38369,-41.8104 z"
       id="path3525-0"
       inkscape:connector-curvature="0" />
    <path
       style="color:#000000;display:inline;overflow:visible;visibility:visible;fill:#ffffff;fill-opacity:1;fill-rule:nonzero;stroke:none;stroke-width:1px;marker:none;enable-background:accumulate"
       d="m 926.42022,1257.075 c 0.59322,-44.6301 11.03892,-103.188 90.64438,-105.8366 123.6075,-4.1126 380.006,-18.5618 422.527,47.1654 47.4971,73.4193 11.7438,149.4692 -70.3968,164.4977 -117.3624,21.4727 -247.1056,36.1789 -368.4391,-6.4193 -44.63414,-15.6703 -74.92888,-54.7771 -74.33548,-99.4072 z"
       id="path3373"
       inkscape:connector-curvature="0"
       sodipodi:nodetypes="zssssz" />
    <path
       style="color:#000000;display:inline;overflow:visible;visibility:visible;fill:#ffffff;fill-opacity:1;fill-rule:nonzero;stroke:none;stroke-width:1px;marker:none;enable-background:accumulate"
       d="m 1353.1045,1486.1109 c -17.6743,6.4442 -35.9622,13.4942 -56.6916,8.7928 -5.9074,-1.4988 -12.0586,-3.5824 -17.8157,-7.536 -5.6534,-5.6714 -8.1342,-14.8796 -7.7374,-22.3553 -0.038,-11.0732 3.5645,-21.3765 -0.132,-33.3984 -2.8396,-8.7238 -9.889,-13.0983 -15.6943,-17.3851 -14.8818,-10.591 -30.3953,-18.9029 -44.5591,-32.1972 -16.4134,-13.8335 -33.2388,-29.725 -44.6315,-51.3879 -4.4162,-8.6329 -8.2604,-18.1551 -8.7808,-27.4678 -2.1762,-24.1255 6.2222,-46.2462 22.341,-52.6796 10.8776,-2.6518 26.1352,8.6451 30.8391,24.9803 2.5746,8.6101 0.6371,16.5032 -2.7594,21.9348 -4.4219,12.1322 -2.2192,29.1384 4.6177,43.565 5.515,11.975 19.9292,13.9114 28.768,21.8543 10.6917,14.3128 22.5926,18.8565 35.242,26.2872 5.7643,3.498 17.2268,13.0885 21.8547,19.5004 5.3367,10.6553 3.6397,23.8849 1.2988,32.7032 -2.2102,9.2491 -6.7566,13.924 -2.6636,25.5015 2.0954,8.2407 10.4347,11.3429 15.4067,14.2225 16.3541,6.7626 22.9447,11.3822 37.3062,7.063 1.3135,-0.5605 2.5522,-1.2752 3.7912,-1.9972 z"
       id="path4496"
       inkscape:connector-curvature="0"
       sodipodi:nodetypes="cccccccccccccccccccccc" />
    <path
       style="color:#000000;display:inline;overflow:visible;visibility:visible;fill:#ffffff;fill-opacity:1;fill-rule:nonzero;stroke:none;stroke-width:1px;marker:none;enable-background:accumulate"
       d="m 331.746,1739.7508 c -6.60276,16.8439 -43.84327,18.2563 -57.55253,14.8325 27.63471,18.8431 26.67128,30.5506 -10.84885,32.3684 62.9219,33.9602 11.50297,28.8212 1.36095,37.4326 49.40533,11.7033 27.30088,26.2686 18.50502,40.7678 56.78655,0.4981 38.20291,23.7401 40.59635,42.2509 4.81412,-8.6861 27.68472,-35.1304 29.06085,-5.6864 37.561,-28.0911 82.80224,-46.2366 86.39453,2.9231 15.13396,-24.731 30.2225,-35.1833 29.06082,-5.6866 37.49722,-38.364 71.19367,-24.5547 105.0898,-13.7116 8.90265,-11.5793 9.93999,-29.3682 38.74213,-25.1995 -4.0384,-11.4771 5.68642,-19.3663 27.64826,-24.0513 -29.18382,-6.933 -34.56229,-14.0841 19.62551,-21.7799 -41.23374,-0.7444 -79.6845,-2.2695 -31.30834,-28.5144 -15.17694,-0.6352 -51.18583,21.2643 -34.39707,-42.8249 -26.0976,20.5173 -53.94141,31.8413 -88.86004,-11.137 -16.52527,21.4711 -45.18798,32.0959 -57.65768,5.2768 -4.48186,11.4334 -23.066,15.7334 -38.8426,16.2548 -6.10084,-4.5416 -12.39315,-10.7102 -18.95944,-18.7922 -10.7321,16.9699 -26.78611,28.4306 -57.65767,5.2769 z"
       id="path3549-3-7"
       inkscape:connector-curvature="0"
       sodipodi:nodetypes="cccccccccccccccccccc" />
    <path
       style="color:#000000;display:inline;overflow:visible;visibility:visible;fill:#ffffff;fill-opacity:1;fill-rule:nonzero;stroke:none;stroke-width:1px;marker:none;enable-background:accumulate"
       d="m 241.27202,1870.0999 c 33.46715,-19.988 328.21249,-53.1147 424.35916,-5.044 82.38691,41.1912 43.33738,92.1377 1.81767,107.8652 -55.26781,20.9352 -277.71895,26.8845 -354.22006,13.4038 -76.50125,-13.4808 -102.7147,-19.978 -106.60478,-61.2391 -1.58773,-16.8404 1.18078,-34.9978 34.64801,-54.9859 z"
       id="path4040"
       inkscape:connector-curvature="0"
       sodipodi:nodetypes="zssssz" />
    <path
       style="fill:#ffffff;fill-rule:evenodd;stroke:none;stroke-width:1px;stroke-linecap:butt;stroke-linejoin:miter;stroke-opacity:1"
       d="m 1714.2654,2080.7017 c 84.2926,8.4181 101.7865,32.4194 119.9299,8.2333 13.6724,-32.3165 73.9597,-7.8033 80.1837,-16.9339 13.3752,-19.6213 -23.6159,-28.5877 -14.9153,-48.4748 8.7006,-19.887 29.8306,-43.5029 29.8306,-43.5029 l 16.1582,9.9435 c 0,0 -26.2419,26.5691 -24.999,37.7556 1.2429,11.1864 26.242,48.0074 3.869,56.708 -22.3729,8.7006 -76.8117,-7.6784 -88.6225,17.2796 -11.8107,24.9579 -83.1478,-13.4558 -121.4346,-21.0084 z"
       id="path4407"
       inkscape:connector-curvature="0"
       sodipodi:nodetypes="ccssccsszc" />
    <path
       style="color:#000000;display:inline;overflow:visible;visibility:visible;fill:#ffffff;fill-opacity:1;fill-rule:nonzero;stroke:none;stroke-width:1px;marker:none;enable-background:accumulate"
       d="m 663.61056,1929.2967 c 39.3748,11.199 86.78236,20.7065 98.13879,22.1179 -5.27925,-11.2484 -7.55493,-21.7035 -9.51055,-29.8486 21.03345,4.1275 118.15926,27.8852 138.80244,41.1276 -49.5955,-34.243 -122.32913,-56.4819 -157.06485,-61.0516 0.26751,10.8778 2.23185,17.595 2.19682,23.3073 -17.37225,-1.5709 -73.43525,-16.8619 -73.43525,-16.8619 z"
       id="path5066"
       inkscape:connector-curvature="0"
       inkscape:transform-center-x="-112.42356"
       inkscape:transform-center-y="21.85935" />
    <path
       style="fill:#ffffff;stroke:none"
       d="m 378.86221,2387.2375 c 1.64832,-39.7054 64.22697,-45.537 106.44452,-43.8063 35.10203,1.4391 170.09086,-8.5793 208.56068,27.664 16.42715,15.4764 13.76581,55.8664 -9.06721,72.6795 -19.47117,14.3376 -54.86343,14.7788 -97.99556,19.267 -53.55718,5.5729 -130.33314,-4.2406 -172.39811,-11.4048 -19.80118,-3.3723 -37.19272,-24.6941 -35.54432,-64.3994 z"
       id="path3100"
       inkscape:connector-curvature="0"
       sodipodi:nodetypes="zsssssz" />
    <path
       style="color:#000000;display:inline;overflow:visible;visibility:visible;fill:#ffffff;fill-opacity:1;fill-rule:nonzero;stroke:none;stroke-width:1px;marker:none;enable-background:accumulate"
       d="m 466.86599,2549.4847 c -3.15079,-113.0476 127.28053,-100.931 220.13035,-109.7481 50.67314,-4.8121 234.57163,7.7845 252.05098,108.0781 10.06847,57.772 -52.36186,107.1002 -77.09568,115.7748 -24.73367,8.6745 -144.24888,19.9247 -182.71707,17.2814 -38.46803,-2.6435 -216.0939,20.5116 -212.36858,-131.3862 z"
       id="path4974"
       inkscape:connector-curvature="0"
       sodipodi:nodetypes="cssssc" />
    <path
       style="fill:#ffffff;fill-rule:evenodd;stroke:none;stroke-width:1px;stroke-linecap:butt;stroke-linejoin:miter;stroke-opacity:1"
       d="m 1237.025,3033.6211 c -25.9077,-74.9353 -135.8732,-262.1385 -253.0276,-244.8772 -71.26981,10.5007 -133.59485,24.8303 -156.2354,-60.7422 -5.53435,-9.3115 -79.49392,-55.5178 -68.47418,-45.6614 73.55047,108.3097 57.38616,155.8485 221.82078,126.0514 132.8264,-23.6523 255.9164,225.2294 255.9164,225.2294 z"
       id="path4652"
       inkscape:connector-curvature="0"
       sodipodi:nodetypes="cscccc" />
    <path
       style="fill:#ffffff;stroke:none"
       d="m 679.8342,2700.1864 c 2.2184,-79.2853 86.44367,-90.9302 143.26478,-87.4742 47.24419,2.8738 228.92712,-17.1315 280.70402,55.2406 22.1095,30.904 18.5276,111.5562 -12.2036,145.1292 -26.2065,28.63 -73.8412,29.5107 -131.89331,38.4731 -72.08317,11.1284 -175.41685,-8.4677 -232.03243,-22.7735 -26.65072,-6.7341 -50.05816,-49.3101 -47.83946,-128.5952 z"
       id="path3100-7"
       inkscape:connector-curvature="0"
       sodipodi:nodetypes="zsssssz" />
    <path
       style="color:#000000;display:inline;overflow:visible;visibility:visible;fill:#ffffff;fill-opacity:1;fill-rule:nonzero;stroke:none;stroke-width:1px;marker:none;enable-background:accumulate"
       d="m 523.91309,579.84113 c 28.71236,-24.99351 277.28896,-40.10316 343.13028,0.97204 54.95686,34.2849 33.51453,119.66652 -15.36087,139.33257 -48.87523,19.66611 -211.46541,17.38347 -282.72501,8.46738 -67.84892,-8.48937 -79.24191,-34.11348 -82.57933,-85.70747 -1.36212,-21.05751 8.82242,-38.07093 37.53493,-63.06452 z"
       id="path4040-4-3"
       inkscape:connector-curvature="0"
       sodipodi:nodetypes="zssssz" />
  </g>
  <g
     inkscape:groupmode="layer"
     id="layer1"
     inkscape:label="txt">
    <text
       xml:space="preserve"
       style="font-style:normal;font-variant:normal;font-weight:normal;font-stretch:normal;font-size:12px;line-height:125%;font-family:Lavi;-inkscape-font-specification:Lavi;text-align:center;letter-spacing:0px;word-spacing:0px;text-anchor:middle;fill:#000000;fill-opacity:1;stroke:none"
       x="515.20721"
       y="218.80753"
       id="text4246"
       sodipodi:linespacing="125%"><tspan
         sodipodi:role="line"
         style="font-size:45px"
         x="515.20721"
         y="218.80753"
         id="tspan4146">We worden al een dagje</tspan><tspan
         sodipodi:role="line"
         style="font-size:45px"
         x="515.20721"
         y="275.05753"
         id="tspan6782">ouder, en het moment voor</tspan><tspan
         sodipodi:role="line"
         style="font-size:45px"
         x="515.20721"
         y="331.30753"
         id="tspan4337">een goede les is aangebroken.</tspan></text>
    <text
       xml:space="preserve"
       style="font-style:normal;font-variant:normal;font-weight:normal;font-stretch:normal;font-size:12px;line-height:125%;font-family:Lavi;-inkscape-font-specification:Lavi;text-align:center;letter-spacing:0px;word-spacing:0px;text-anchor:middle;fill:#000000;fill-opacity:1;stroke:none"
       x="576.46271"
       y="410.25284"
       id="text4246-9"
       sodipodi:linespacing="125%"><tspan
         sodipodi:role="line"
         style="font-size:45px"
         x="584.37286"
         y="410.25284"
         id="tspan4324">Ik stel een</tspan><tspan
         sodipodi:role="line"
         style="font-size:45px"
         x="576.46271"
         y="466.50284"
         id="tspan4199">ontmoeting voor met</tspan></text>
    <text
       xml:space="preserve"
       style="font-style:normal;font-variant:normal;font-weight:normal;font-stretch:normal;font-size:12px;line-height:125%;font-family:Lavi;-inkscape-font-specification:Lavi;text-align:center;letter-spacing:0px;word-spacing:0px;text-anchor:middle;fill:#000000;fill-opacity:1;stroke:none"
       x="865.90961"
       y="1049.8156"
       id="text4246-9-6"
       sodipodi:linespacing="125%"><tspan
         sodipodi:role="line"
         style="font-size:45px"
         x="865.90961"
         y="1049.8156"
         id="tspan4183-4">Hè hè!</tspan></text>
    <text
       xml:space="preserve"
       style="font-style:normal;font-variant:normal;font-weight:normal;font-stretch:normal;font-size:12px;line-height:125%;font-family:Lavi;-inkscape-font-specification:Lavi;text-align:center;letter-spacing:0px;word-spacing:0px;text-anchor:middle;fill:#000000;fill-opacity:1;stroke:none"
       x="1069.6064"
       y="1116.4899"
       id="text4246-9-6-2"
       sodipodi:linespacing="125%"><tspan
         sodipodi:role="line"
         style="font-size:45px"
         x="1069.6064"
         y="1116.4899"
         id="tspan4183-4-1">De wijze?</tspan></text>
    <text
       xml:space="preserve"
       style="font-style:normal;font-variant:normal;font-weight:normal;font-stretch:normal;font-size:12px;line-height:125%;font-family:Lavi;-inkscape-font-specification:Lavi;text-align:center;letter-spacing:0px;word-spacing:0px;text-anchor:middle;fill:#000000;fill-opacity:1;stroke:none"
       x="1192.4185"
       y="1223.2"
       id="text4246-9-6-2-4"
       sodipodi:linespacing="125%"><tspan
         sodipodi:role="line"
         style="font-size:45px"
         x="1192.4185"
         y="1223.2"
         id="tspan4183-4-1-5">Zijn ze niet nog wat</tspan><tspan
         sodipodi:role="line"
         style="font-size:45px"
         x="1192.4185"
         y="1279.45"
         id="tspan4277">te jong om zijn lessen</tspan><tspan
         sodipodi:role="line"
         style="font-size:45px"
         x="1192.4185"
         y="1335.7"
         id="tspan4279">te begrijpen?</tspan></text>
    <text
       xml:space="preserve"
       style="font-style:normal;font-variant:normal;font-weight:normal;font-stretch:normal;font-size:12px;line-height:125%;font-family:Lavi;-inkscape-font-specification:Lavi;text-align:center;letter-spacing:0px;word-spacing:0px;text-anchor:middle;fill:#000000;fill-opacity:1;stroke:none"
       x="450.82797"
       y="1805.9486"
       id="text4246-9-6-2-4-7"
       sodipodi:linespacing="125%"><tspan
         sodipodi:role="line"
         style="font-size:45px"
         x="450.82797"
         y="1805.9486"
         id="tspan4364">Te jong</tspan><tspan
         sodipodi:role="line"
         style="font-size:45px"
         x="450.82797"
         y="1862.1986"
         id="tspan4347">waarvoor!?</tspan></text>
    <text
       xml:space="preserve"
       style="font-style:normal;font-variant:normal;font-weight:normal;font-stretch:normal;font-size:15.14146233px;line-height:125%;font-family:Lavi;-inkscape-font-specification:Lavi;text-align:center;letter-spacing:0px;word-spacing:0px;text-anchor:middle;fill:#000000;fill-opacity:1;stroke:none"
       x="478.94159"
       y="1864.3513"
       id="text4246-9-6-2-4-7-3"
       sodipodi:linespacing="125%"
       transform="scale(0.96046588,1.0411614)"><tspan
         sodipodi:role="line"
         style="font-size:56.78048325px"
         x="478.94159"
         y="1864.3513"
         id="tspan4359">We gaan erheen!</tspan></text>
    <path
       style="color:#000000;display:inline;overflow:visible;visibility:visible;fill:#ffffff;fill-opacity:1;fill-rule:nonzero;stroke:none;stroke-width:1px;marker:none;enable-background:accumulate"
       d="m 1859.9208,2026.0859 c -20.4432,-14.3102 -27.5983,-27.5982 -25.5539,-35.7755 2.0443,-8.1772 20.4431,-50.0857 42.9305,-55.1965 22.4875,-5.1108 80.7504,-11.2437 94.0385,-6.1329 13.2881,5.1107 51.1079,38.842 51.1079,56.2186 0,17.3767 -7.1551,51.1079 -27.5983,61.3294 -20.4431,10.2216 -110.393,16.3546 -134.9247,-20.4431 z"
       id="path3349"
       inkscape:connector-curvature="0" />
    <text
       xml:space="preserve"
       style="font-style:normal;font-variant:normal;font-weight:normal;font-stretch:normal;font-size:12px;line-height:125%;font-family:Lavi;-inkscape-font-specification:Lavi;text-align:center;letter-spacing:0px;word-spacing:0px;text-anchor:middle;fill:#000000;fill-opacity:1;stroke:none"
       x="1930.9785"
       y="2009.0704"
       id="text4246-9-6-2-4-7-38"
       sodipodi:linespacing="125%"><tspan
         sodipodi:role="line"
         style="font-size:45px"
         x="1930.9785"
         y="2009.0704"
         id="tspan4364-4">&quot;We&quot;?</tspan></text>
    <text
       xml:space="preserve"
       style="font-style:normal;font-variant:normal;font-weight:normal;font-stretch:normal;font-size:12px;line-height:125%;font-family:Lavi;-inkscape-font-specification:Lavi;text-align:center;letter-spacing:0px;word-spacing:0px;text-anchor:middle;fill:#000000;fill-opacity:1;stroke:none"
       x="543.14978"
       y="2414.6189"
       id="text4246-9-6-2-4-7-3-4-8-5"
       sodipodi:linespacing="125%"><tspan
         sodipodi:role="line"
         style="font-size:45px"
         x="543.14978"
         y="2414.6189"
         id="tspan4297">We zijn er.</tspan><tspan
         sodipodi:role="line"
         style="font-size:45px"
         x="543.14978"
         y="2470.8689"
         id="tspan4251" /></text>
    <text
       xml:space="preserve"
       style="font-style:normal;font-variant:normal;font-weight:normal;font-stretch:normal;font-size:12px;line-height:125%;font-family:Lavi;-inkscape-font-specification:Lavi;text-align:center;letter-spacing:0px;word-spacing:0px;text-anchor:middle;fill:#000000;fill-opacity:1;stroke:none"
       x="695.37817"
       y="2464.8162"
       id="text4246-9-6-2-4-7-3-4-8-5-3"
       sodipodi:linespacing="125%"><tspan
         sodipodi:role="line"
         style="font-size:45px"
         x="695.37817"
         y="2464.8162"
         id="tspan4580-41" /><tspan
         sodipodi:role="line"
         style="font-size:45px"
         x="695.37817"
         y="2521.0662"
         id="tspan4253-7">Ik laat jullie</tspan><tspan
         sodipodi:role="line"
         style="font-size:45px"
         x="695.37817"
         y="2577.3162"
         id="tspan4255-9">kennismaken met</tspan><tspan
         sodipodi:role="line"
         style="font-size:45px"
         x="695.37817"
         y="2633.5662"
         id="tspan4365">de wijze.</tspan><tspan
         sodipodi:role="line"
         style="font-size:45px"
         x="695.37817"
         y="2689.8162"
         id="tspan4251-3" /></text>
    <text
       xml:space="preserve"
       style="font-style:normal;font-variant:normal;font-weight:normal;font-stretch:normal;font-size:12px;line-height:125%;font-family:Lavi;-inkscape-font-specification:Lavi;text-align:center;letter-spacing:0px;word-spacing:0px;text-anchor:middle;fill:#000000;fill-opacity:1;stroke:none"
       x="899.64813"
       y="2682.126"
       id="text4246-9-6-2-4-7-3-4-8-5-3-2"
       sodipodi:linespacing="125%"><tspan
         sodipodi:role="line"
         style="font-size:45px"
         x="899.64813"
         y="2682.126"
         id="tspan4365-3">Hij is</tspan><tspan
         sodipodi:role="line"
         style="font-size:45px"
         x="899.64813"
         y="2738.376"
         id="tspan4421">bovenaan deze</tspan><tspan
         sodipodi:role="line"
         style="font-size:45px"
         x="899.64813"
         y="2794.626"
         id="tspan4427">helling te vinden.</tspan><tspan
         sodipodi:role="line"
         style="font-size:45px"
         x="899.64813"
         y="2850.876"
         id="tspan4251-3-4" /></text>
    <path
       style="fill:#ffffff;fill-rule:evenodd;stroke:none;stroke-width:1px;stroke-linecap:butt;stroke-linejoin:miter;stroke-opacity:1"
       d="m 1578.2242,3119.4738 c 28.6802,65.5224 40.0311,60.4909 45.1316,30.0122 7.9454,11.0211 9.1639,43.3168 33.0166,4.027 13.8941,28.5744 25.52,24.9438 35.2873,-5.0742 24.0648,54.1529 39.753,22.9105 53.3155,10.8477 33.265,30.3142 125.9973,35.0321 167.2378,-3.9544 8.3845,13.9277 20.2439,33.8757 28.4788,4.9428 11.7834,12.1791 27.9459,-4.7723 47.0568,-41.3384 -2.8238,23.7947 -16.0335,64.3406 10.4403,40.8797 2.7537,17.0096 0.011,39.5072 56.4216,2.9427 -17.0041,48.4386 30.7597,-0.8275 77.0309,-47.842 -29.3404,41.0085 -69.3384,91.4525 -20.0767,75.0138 -28.0916,34.3511 -29.0207,57.2402 52.4125,45.3739 -53.411,21.855 -94.2518,45.0556 -37.3326,78.7237 -35.8086,-0.9324 -44.7178,9.4602 -5.6802,40.039 -55.5128,-20.2556 -60.1304,-10.9393 -46.2743,9.1108 -11.4272,0.3254 -31.2903,-16.6353 -29.318,11.1477 -31.0233,-17.5396 -73.3963,-55.3389 -69.4958,-10.5391 -32.0318,-34.414 -37.7814,-22.0955 -41.8525,-6.7926 -57.0162,-52.0175 -50.0242,-20.9672 -61.2557,-13.5668 -16.4196,-19.2382 -16.2454,-3.4666 -13.4973,17.7351 -15.6501,-22.4795 -30.0129,-31.1547 -41.0769,-4.4474 -9.8318,-12.368 -19.395,-29.8866 -31.2254,-3.9334 -13.5873,-14.182 -28.0653,-19.8309 -46.3942,11.4096 -7.2876,-18.8971 -18.2659,-32.508 -56.1818,-7.54 -6.4333,-40.5341 -38.6612,-34.0262 -79.2874,-12.2024 1.6125,-23.8104 -1.3222,-39.4578 -43.947,16.147 9.0569,-24.3123 19.3399,-49.94 -6.1421,-37.1984 16.598,-46.5166 -42.8129,-5.3246 -77.6195,7.476 40.0418,-39.0106 98.4755,-86.403 52.0815,-86.0215 32.3061,-27.001 35.8716,-40.5096 9.2627,-39.8521 2.3093,-8.3529 34.8869,-23.6559 -1.4878,-23.1263 19.3847,-11.3569 47.6634,-8.0504 40.9713,-62.3997 z"
       id="path4656"
       inkscape:connector-curvature="0"
       sodipodi:nodetypes="ccccccccccccccccccccccccccccccccc" />
    <path
       style="fill:#ffffff;fill-rule:evenodd;stroke:none;stroke-width:1px;stroke-linecap:butt;stroke-linejoin:miter;stroke-opacity:1"
       d="m 1395.9187,3167.1846 119.1853,69.1782 -1.1569,-33.8487 82.9076,45.0833 5.0953,-29.1891 -103.505,-45.5434 0.025,38.633 z"
       id="path4667"
       inkscape:connector-curvature="0"
       inkscape:transform-center-x="75.322047"
       inkscape:transform-center-y="-6.237049" />
    <text
       xml:space="preserve"
       style="font-style:normal;font-variant:normal;font-weight:normal;font-stretch:normal;font-size:12px;line-height:125%;font-family:Lavi;-inkscape-font-specification:Lavi;text-align:center;letter-spacing:0px;word-spacing:0px;text-anchor:middle;fill:#000000;fill-opacity:1;stroke:none"
       x="1817.1235"
       y="3238.427"
       id="text4246-9-6-2-4-7-3-4-8-5-9"
       sodipodi:linespacing="125%"><tspan
         sodipodi:role="line"
         style="font-size:45px"
         x="1817.1235"
         y="3238.427"
         id="tspan4445">Zijn jullie klaar voor</tspan></text>
    <text
       xml:space="preserve"
       style="font-style:normal;font-variant:normal;font-weight:normal;font-stretch:normal;font-size:10.62674809px;line-height:125%;font-family:Lavi;-inkscape-font-specification:Lavi;text-align:center;letter-spacing:0px;word-spacing:0px;text-anchor:middle;fill:#000000;fill-opacity:1;stroke:#000000;stroke-width:1.59401214;stroke-miterlimit:4;stroke-dasharray:none;stroke-opacity:1"
       x="2586.3701"
       y="2951.2043"
       id="text4246-6-6-6-3-9"
       sodipodi:linespacing="125%"
       transform="matrix(0.89466356,0,-0.16927076,1.1177386,0,0)"><tspan
         sodipodi:role="line"
         style="font-size:53.13374329px;stroke:#000000;stroke-width:1.59401214;stroke-miterlimit:4;stroke-dasharray:none;stroke-opacity:1"
         x="2595.71"
         y="2951.2043"
         id="tspan4182-3-7">een goede les?</tspan></text>
    <text
       xml:space="preserve"
       style="font-style:normal;font-variant:normal;font-weight:normal;font-stretch:normal;font-size:10.28139114px;line-height:125%;font-family:Lavi;-inkscape-font-specification:Lavi;text-align:center;letter-spacing:0px;word-spacing:0px;text-anchor:middle;fill:#000000;fill-opacity:1;stroke:#000000;stroke-width:1.54220855;stroke-miterlimit:4;stroke-dasharray:none;stroke-opacity:1"
       x="708.45795"
       y="491.92728"
       id="text4246-6-6-6-3-9-0"
       sodipodi:linespacing="125%"
       transform="matrix(0.92481111,0,-0.17497469,1.0813019,0,0)"><tspan
         sodipodi:role="line"
         style="font-size:51.40695572px;stroke:#000000;stroke-width:1.54220855;stroke-miterlimit:4;stroke-dasharray:none;stroke-opacity:1"
         x="708.45795"
         y="491.92728"
         id="tspan4182-3-7-6">de wijze op de berg!</tspan></text>
    <text
       xml:space="preserve"
       style="font-style:normal;font-variant:normal;font-weight:normal;font-stretch:normal;font-size:12px;line-height:125%;font-family:Lavi;-inkscape-font-specification:Lavi;text-align:center;letter-spacing:0px;word-spacing:0px;text-anchor:middle;fill:#000000;fill-opacity:1;stroke:none"
       x="698.46021"
       y="636.0462"
       id="text4246-9-9"
       sodipodi:linespacing="125%"><tspan
         sodipodi:role="line"
         style="font-size:45px"
         x="698.46021"
         y="636.0462"
         id="tspan4199-4">Zijn onderricht</tspan><tspan
         sodipodi:role="line"
         style="font-size:45px"
         x="698.46021"
         y="692.2962"
         id="tspan4506">is onontbeerlijk.</tspan></text>
  </g>
</svg>
