<?xml version="1.0" encoding="UTF-8" standalone="no"?>
<!-- Created with Inkscape (http://www.inkscape.org/) -->

<svg
   xmlns:dc="http://purl.org/dc/elements/1.1/"
   xmlns:cc="http://creativecommons.org/ns#"
   xmlns:rdf="http://www.w3.org/1999/02/22-rdf-syntax-ns#"
   xmlns:svg="http://www.w3.org/2000/svg"
   xmlns="http://www.w3.org/2000/svg"
   xmlns:xlink="http://www.w3.org/1999/xlink"
   xmlns:sodipodi="http://sodipodi.sourceforge.net/DTD/sodipodi-0.dtd"
   xmlns:inkscape="http://www.inkscape.org/namespaces/inkscape"
   id="svg2"
   version="1.1"
   inkscape:version="0.91 r13725"
   width="2481"
   height="3503"
   sodipodi:docname="Pepper-and-Carrot_by-David-Revoy_E16P02.svg">
  <metadata
     id="metadata8">
    <rdf:RDF>
      <cc:Work
         rdf:about="">
        <dc:format>image/svg+xml</dc:format>
        <dc:type
           rdf:resource="http://purl.org/dc/dcmitype/StillImage" />
        <dc:title />
      </cc:Work>
    </rdf:RDF>
  </metadata>
  <defs
     id="defs6" />
  <sodipodi:namedview
     pagecolor="#ffffff"
     bordercolor="#666666"
     borderopacity="1"
     objecttolerance="10"
     gridtolerance="10"
     guidetolerance="10"
     inkscape:pageopacity="0"
     inkscape:pageshadow="2"
     inkscape:window-width="1600"
     inkscape:window-height="831"
     id="namedview4"
     showgrid="false"
     inkscape:zoom="0.32526912"
     inkscape:cx="935.55202"
     inkscape:cy="2654.4869"
     inkscape:window-x="1280"
     inkscape:window-y="0"
     inkscape:window-maximized="1"
     inkscape:current-layer="layer1" />
  <g
     inkscape:groupmode="layer"
     id="layer2"
     inkscape:label="artwork"
     sodipodi:insensitive="true">
    <image
       sodipodi:absref="/home/willem/Git/peppercarrot_ep16_translation/nl/../gfx_Pepper-and-Carrot_by-David-Revoy_E16P02.png"
       xlink:href="../gfx_Pepper-and-Carrot_by-David-Revoy_E16P02.png"
       width="2481"
       height="3503"
       id="image10"
       x="0"
       y="0" />
  </g>
  <g
     inkscape:groupmode="layer"
     id="layer3"
     inkscape:label="speechbubbles">
    <path
       style="fill:#ffffff;fill-rule:evenodd;stroke:none;stroke-width:1px;stroke-linecap:butt;stroke-linejoin:miter;stroke-opacity:1"
       d="m 128.347,1208.1112 c 9.30984,-31.9176 34.38032,-56.1343 61.66565,-72.3005 12.98494,-7.8049 27.82694,-13.5244 43.01474,-12.02 15.08818,0.899 29.82562,6.2659 45.08071,4.4018 18.54975,-0.6157 37.42518,-3.302 55.76196,0.5364 16.30072,4.1884 33.09512,6.3576 49.91634,6.4834 11.86685,-2.6586 22.72579,4.4272 33.32359,8.6653 9.51413,4.5779 19.232,9.3809 27.22331,16.4622 7.3624,9.9406 16.1779,18.5887 23.62628,28.4408 4.87367,5.3861 4.40539,12.8257 4.18087,19.711 -0.63298,14.0995 -1.70489,28.4215 -5.68345,42.0051 -2.38087,8.6238 -11.18098,11.4778 -17.94283,15.4406 -15.99956,8.3654 -32.98901,14.7091 -48.25861,24.5535 -15.12776,5.0407 -31.2044,2.683 -46.71864,1.9212 -12.9999,-1.5005 -26.07708,-3.5929 -39.18868,-1.8479 -16.68797,1.2769 -33.32524,4.5832 -50.07291,4.1597 -20.98021,-2.9061 -41.07356,-10.0617 -61.40518,-15.8017 -18.24112,-5.0593 -34.86641,-14.5729 -50.8188,-24.75 -8.52117,-5.7792 -17.54184,-12.4966 -20.5491,-23.147 -2.4652,-7.3337 -3.04607,-15.1863 -3.15525,-22.9139 z"
       id="path4365"
       inkscape:connector-curvature="0" />
    <path
       style="fill:#ffffff;stroke:none"
       d="m 526.05317,1332.6787 c -30.94804,-5.9742 -33.65755,-15.3739 -35.85896,-26.3529 -2.20164,-10.979 -2.97755,-21.2157 -9.14413,-25.0411 -6.16635,-3.8252 -15.85979,-4.8779 -23.17719,-4.6934 -7.31743,0.1844 -5.29357,-9.0401 -8.28411,-16.1281 -2.99067,-7.0881 -31.76642,-37.2963 -31.76642,-37.2963 0,0 -1.64154,31.4089 0.94371,41.0513 2.58502,9.6423 3.48097,13.1815 5.57556,16.7304 2.09482,3.5489 8.54676,11.5174 16.06913,13.2832 7.52237,1.7658 15.47204,-0.2404 21.46624,-0.192 5.99426,0.048 8.9236,8.3554 12.37845,16.2997 3.45476,7.9444 7.26292,13.1493 20.83234,18.6149 11.63149,4.6851 30.96538,3.7243 30.96538,3.7243 z"
       id="path3023-2"
       inkscape:connector-curvature="0"
       sodipodi:nodetypes="csssscssssssc" />
    <path
       style="color:#000000;display:inline;overflow:visible;visibility:visible;fill:#ffffff;fill-opacity:1;fill-rule:nonzero;stroke:none;stroke-width:1px;marker:none;enable-background:accumulate"
       d="m 1376.0536,1388.9122 c -57.0687,-49.232 -50.9543,-145.2342 -34.6488,-167.3885 16.3053,-22.1544 38.725,-55.3859 116.1755,-55.3859 77.4503,0 615.5265,-23.3851 695.015,28.3084 79.4884,51.6935 77.4504,141.5416 8.1527,201.8506 -69.2977,60.3091 -440.2442,48.0012 -440.2442,48.0012 0,0 -256.809,7.3848 -344.4502,-55.3858 z"
       id="path3992"
       inkscape:connector-curvature="0" />
    <path
       style="fill:#ffffff;stroke:none"
       d="m 1730.4354,1511.1983 c -2.4933,-38.2437 42.2088,-133.9831 260.2629,-126.7818 218.0543,7.2012 286.3018,49.2679 292.6918,117.2462 10.1085,107.5396 -104.6097,136.2779 -269.3345,144.2432 -169.8135,8.2116 -286.2557,-65.6073 -283.6202,-134.7076 z"
       id="path3280-8"
       inkscape:connector-curvature="0"
       sodipodi:nodetypes="csssc" />
    <path
       style="color:#000000;display:inline;overflow:visible;visibility:visible;fill:#ffffff;fill-opacity:1;fill-rule:nonzero;stroke:none;stroke-width:1px;marker:none;enable-background:accumulate"
       d="m 1219.1793,1379.025 c 11.1145,-52.0341 49.4885,-48.0105 61.0024,-50.7043 11.5139,-2.6938 53.2465,-12.1003 59.6337,-55.0276 6.3873,-42.9274 50.5704,-62.6224 50.5704,-62.6224 l -8.1471,64.4127 c 0,0 -26.1867,43.4877 -51.8954,55.4317 -25.7088,11.9439 -66.72,11.6091 -78.3208,20.0382 -11.601,8.429 -26.2997,13.0823 -32.8432,28.4717 z"
       id="path4018"
       inkscape:connector-curvature="0" />
    <path
       style="color:#000000;display:inline;overflow:visible;visibility:visible;fill:#ffffff;fill-opacity:1;fill-rule:nonzero;stroke:none;stroke-width:1px;marker:none;enable-background:accumulate"
       d="M 275.71781,197.48784 C 279.63565,122.88885 317.23248,78.680011 499.1861,81.754231 649.59007,84.295391 723.13135,103.73769 716.16999,199.64957 706.50681,332.78635 579.29023,310.59438 490.17156,318.43093 431.63285,316.65876 277.60502,333.49284 275.71781,197.48784 Z"
       id="path4546"
       inkscape:connector-curvature="0"
       sodipodi:nodetypes="csscc" />
    <path
       style="color:#000000;display:inline;overflow:visible;visibility:visible;fill:#ffffff;fill-opacity:1;fill-rule:nonzero;stroke:none;stroke-width:1px;marker:none;enable-background:accumulate"
       d="m 1062.1009,420.05184 c 5.7672,102.60868 -20.2403,169.18978 -287.36241,173.51778 -212.99453,3.45101 -281.24233,-36.5248 -288.00533,-176.42124 -7.95478,-164.54898 200.7586,-139.95333 304.75293,-139.88419 76.10468,0.27426 285.64831,-33.0605 270.61481,142.78765 z"
       id="path4546-3"
       inkscape:connector-curvature="0"
       sodipodi:nodetypes="csscc" />
    <path
       style="color:#000000;display:inline;overflow:visible;visibility:visible;fill:#ffffff;fill-opacity:1;fill-rule:nonzero;stroke:none;stroke-width:1px;marker:none;enable-background:accumulate"
       d="m 1212.2695,581.74978 c -84.525,20.68446 -191.3704,0.78987 -241.48541,-42.94991 -50.11477,-43.73978 17.99256,-40.84093 17.99256,-40.84093 0,0 97.20265,101.9849 223.49285,83.79084 z"
       id="path5002"
       inkscape:connector-curvature="0"
       sodipodi:nodetypes="cscc" />
    <path
       style="fill:#ffffff;fill-rule:evenodd;stroke:none;stroke-width:1px;stroke-linecap:butt;stroke-linejoin:miter;stroke-opacity:1"
       d="m 79.89997,2133.0507 20.91909,15.1695 5.13202,-19.6622 12.40529,5.9403 -7.44318,-68.719 27.29165,63.2923 2.48106,-16.458 11.16476,22.3138 32.36164,-11.3562 6.09477,-55.0656 13.64581,46.5774 9.92425,-19.6808 7.01168,25.2698 c 0,0 1.67202,5.3577 14.0773,3.1537 12.4053,-2.2039 125.9714,7.4271 148.86351,25.1332 l 20.4174,9.9171 20.04899,-14.3763 -5.73156,23.8071 42.07533,-40.8856 -24.23685,53.0164 15.92637,-9.6826 -7.74636,20.6568 c 0,0 3.75421,11.5127 7.4758,16.6883 35.97535,45.0536 53.43655,147.5062 59.81631,169.2472 l 27.29165,-3.7046 -18.60794,13.2441 c 8.1204,6.3015 105.15512,4.0913 166.74818,-22.4672 0,0 -124.84104,55.26 -164.33523,51.098 -8.4988,4.911 34.95535,14.7667 34.95535,14.7667 l -47.33456,6.4306 -5.19101,46.0102 34.73482,16.633 -39.69694,-8.15 33.49429,39.7933 -41.58224,-9.6021 -4.28931,25.1167 -6.82642,9.2053 c -14.32222,11.0413 -34.94699,35.4076 -54.12385,40.792 0,4.0721 20.77562,44.9767 20.77562,44.9767 l -46.20973,-27.0049 21.39913,32.7703 -49.99227,-27.7087 -12.76876,-0.3727 -7.44318,3.2228 c -38.45641,24.3426 -127.43069,10.3914 -142.31704,7.3352 -1.24053,0.086 -16.12688,39.1075 -16.12688,39.1075 l -6.83342,-34.3427 -10.53399,13.8098 -6.18163,-9.3036 -45.37654,63.4131 15.84269,-75.0915 -31.97966,31.1359 4.77001,-42.5441 -24.841078,30.6816 4.387375,-39.1808 -14.311611,4.5657 z"
       id="path4603"
       inkscape:connector-curvature="0"
       sodipodi:nodetypes="cccccccccccccsscccccccccccccccccccccccccccccccccccccccccc" />
    <path
       style="color:#000000;display:inline;overflow:visible;visibility:visible;fill:#ffffff;fill-opacity:1;fill-rule:nonzero;stroke:none;stroke-width:1px;marker:none;enable-background:accumulate"
       d="m 1185.0303,2909.3836 c 15.3228,-32.6792 48.1256,-60.7783 91.4908,-73.1039 43.3653,-12.3254 123.9181,-11.9003 138.1136,-8.6816 14.1954,3.2185 92.1723,13.9702 109.2937,31.7357 17.1213,17.7654 40.2885,39.7344 45.514,62.9927 5.2257,23.2582 1.6666,79.7244 -13.9343,92.6513 -15.6008,12.9267 -87.0274,42.2257 -128.8946,44.99 -41.8672,2.7644 -139.4074,-5.916 -167.2646,-13.1014 -27.8571,-7.1854 -57.3771,-16.515 -66.4415,-41.8497 -9.0644,-25.3346 -25.858,-58.4799 -7.8771,-95.6331 z"
       id="path3533"
       inkscape:connector-curvature="0" />
    <path
       style="fill:#ffffff;stroke:none"
       d="m 1665.3162,3027.9651 c -45.7195,6.3375 -53.9298,-5.1776 -62.1848,-19.0773 -8.2551,-13.8997 -14.1828,-27.4561 -24.5416,-29.7762 -10.3587,-2.3201 -24.2907,0.778 -34.3436,4.4479 -10.0531,3.6701 -16.0502,-4.3086 -23.5544,-12.549 -7.5042,-8.2404 -57.2715,-41.3793 -57.2715,-41.3793 0,0 12.6136,43.4743 20.7667,55.3773 8.1531,11.903 11.0722,16.2967 15.6572,20.1434 4.5852,3.8466 17.3035,11.6669 28.565,10.553 11.2614,-1.1138 21.3268,-7.5562 29.6567,-10.2912 8.3298,-2.7351 21.007,2.5425 29.5605,11.7303 8.5534,9.1878 31.1188,27.0998 49.1012,23.41 17.9825,-3.6897 28.5886,-12.5889 28.5886,-12.5889 z"
       id="path3023"
       inkscape:connector-curvature="0"
       sodipodi:nodetypes="csssscssssssc" />
  </g>
  <g
     inkscape:groupmode="layer"
     id="layer1"
     inkscape:label="txt"
     style="display:inline">
    <text
       xml:space="preserve"
       style="font-style:normal;font-variant:normal;font-weight:normal;font-stretch:normal;font-size:12px;line-height:125%;font-family:Lavi;-inkscape-font-specification:Lavi;text-align:center;letter-spacing:0px;word-spacing:0px;text-anchor:middle;fill:#000000;fill-opacity:1;stroke:none"
       x="774.30481"
       y="307.21066"
       id="text4246-4"
       sodipodi:linespacing="125%"><tspan
         sodipodi:role="line"
         style="font-size:45px"
         x="774.30481"
         y="307.21066"
         id="tspan4253" /><tspan
         sodipodi:role="line"
         style="font-size:45px"
         x="774.30481"
         y="363.46066"
         id="tspan4257">Ik speel geen tussen-</tspan><tspan
         sodipodi:role="line"
         style="font-size:45px"
         x="774.30481"
         y="419.71066"
         id="tspan4259">persoon, ook niet voor</tspan><tspan
         sodipodi:role="line"
         style="font-size:45px"
         x="774.30481"
         y="475.96066"
         id="tspan4261">vrienden. Zulke zaken</tspan><tspan
         sodipodi:role="line"
         style="font-size:45px"
         x="774.30481"
         y="532.21063"
         id="tspan4326">lopen altijd slecht af.</tspan></text>
    <text
       xml:space="preserve"
       style="font-style:normal;font-variant:normal;font-weight:normal;font-stretch:normal;font-size:12px;line-height:125%;font-family:Lavi;-inkscape-font-specification:Lavi;text-align:center;letter-spacing:0px;word-spacing:0px;text-anchor:middle;fill:#000000;fill-opacity:1;stroke:none"
       x="495.39053"
       y="162.87141"
       id="text4246-42"
       sodipodi:linespacing="125%"><tspan
         sodipodi:role="line"
         style="font-size:45px"
         x="495.39053"
         y="162.87141"
         id="tspan4241">Je zal het in je</tspan><tspan
         sodipodi:role="line"
         style="font-size:45px"
         x="495.39053"
         y="219.12141"
         id="tspan4245">eentje moeten</tspan><tspan
         sodipodi:role="line"
         style="font-size:45px"
         x="495.39053"
         y="275.3714"
         id="tspan4251">oplossen, hoor.</tspan></text>
    <text
       xml:space="preserve"
       style="font-style:normal;font-variant:normal;font-weight:normal;font-stretch:normal;font-size:12px;line-height:125%;font-family:Lavi;-inkscape-font-specification:Lavi;text-align:center;letter-spacing:0px;word-spacing:0px;text-anchor:middle;fill:#000000;fill-opacity:1;stroke:none"
       x="312.96695"
       y="1139.8259"
       id="text4246-4-3"
       sodipodi:linespacing="125%"><tspan
         sodipodi:role="line"
         style="font-size:45px"
         x="312.96695"
         y="1139.8259"
         id="tspan4253-3" /><tspan
         sodipodi:role="line"
         style="font-size:45px"
         x="312.96695"
         y="1196.0759"
         id="tspan4261-5">Alsjeblieft,</tspan><tspan
         sodipodi:role="line"
         style="font-size:45px"
         x="312.96695"
         y="1252.3259"
         id="tspan4324">Saffraan ...</tspan></text>
    <text
       xml:space="preserve"
       style="font-style:normal;font-variant:normal;font-weight:normal;font-stretch:normal;font-size:12px;line-height:125%;font-family:Lavi;-inkscape-font-specification:Lavi;text-align:center;letter-spacing:0px;word-spacing:0px;text-anchor:middle;fill:#000000;fill-opacity:1;stroke:none"
       x="1771.7826"
       y="1232.5399"
       id="text4246-4-3-5"
       sodipodi:linespacing="125%"><tspan
         sodipodi:role="line"
         style="font-size:45px"
         x="1771.7826"
         y="1232.5399"
         id="tspan4261-5-3">Ik leer niets van mijn peettantes.</tspan><tspan
         sodipodi:role="line"
         style="font-size:45px"
         x="1771.7826"
         y="1288.7899"
         id="tspan4318">Ze zitten de godganse dag in hun stoel,</tspan><tspan
         sodipodi:role="line"
         style="font-size:45px"
         x="1771.7826"
         y="1345.0399"
         id="tspan4320">klagen over hun oude gewrichten en</tspan><tspan
         sodipodi:role="line"
         style="font-size:45px"
         x="1771.7826"
         y="1401.2899"
         id="tspan4322">roepen wat ik moet doen ...</tspan></text>
    <text
       xml:space="preserve"
       style="font-style:normal;font-variant:normal;font-weight:normal;font-stretch:normal;font-size:12px;line-height:125%;font-family:Lavi;-inkscape-font-specification:Lavi;text-align:center;letter-spacing:0px;word-spacing:0px;text-anchor:middle;fill:#000000;fill-opacity:1;stroke:none"
       x="277.82541"
       y="2153.6025"
       id="text4246-4-3-4"
       sodipodi:linespacing="125%"><tspan
         sodipodi:role="line"
         style="font-size:45px"
         x="277.82541"
         y="2153.6025"
         id="tspan4253-3-4" /><tspan
         sodipodi:role="line"
         style="font-size:45px"
         x="277.82541"
         y="2209.8525"
         id="tspan4324-9">Luister, je</tspan><tspan
         sodipodi:role="line"
         style="font-size:45px"
         x="277.82541"
         y="2266.1025"
         id="tspan4354">bent een heks,</tspan><tspan
         sodipodi:role="line"
         style="font-size:45px"
         x="277.82541"
         y="2322.3525"
         id="tspan3384">gedraag je er</tspan><tspan
         sodipodi:role="line"
         style="font-size:45px"
         x="277.82541"
         y="2378.6025"
         id="tspan4356">dan ook naar!</tspan></text>
    <text
       xml:space="preserve"
       style="font-style:normal;font-variant:normal;font-weight:normal;font-stretch:normal;font-size:12px;line-height:125%;font-family:Lavi;-inkscape-font-specification:Lavi;text-align:center;letter-spacing:0px;word-spacing:0px;text-anchor:middle;fill:#000000;fill-opacity:1;stroke:none"
       x="283.91641"
       y="2414.6245"
       id="text4246-4-3-4-7-0"
       sodipodi:linespacing="125%"><tspan
         sodipodi:role="line"
         style="font-size:45px"
         x="283.91641"
         y="2414.6245"
         id="tspan4253-3-4-4-0" /><tspan
         sodipodi:role="line"
         style="font-size:45px"
         x="283.91641"
         y="2470.8745"
         id="tspan4396-2">Verman je eens</tspan><tspan
         sodipodi:role="line"
         style="font-size:45px"
         x="283.91641"
         y="2527.1245"
         id="tspan3383">en praat zelf</tspan><tspan
         sodipodi:role="line"
         style="font-size:45px"
         x="283.91641"
         y="2583.3745"
         id="tspan4434">met hen!</tspan></text>
    <text
       xml:space="preserve"
       style="font-style:normal;font-variant:normal;font-weight:normal;font-stretch:normal;font-size:12px;line-height:125%;font-family:Lavi;-inkscape-font-specification:Lavi;text-align:center;letter-spacing:0px;word-spacing:0px;text-anchor:middle;fill:#000000;fill-opacity:1;stroke:none"
       x="2007.3579"
       y="1485.0845"
       id="text4246-4-3-5-1"
       sodipodi:linespacing="125%"><tspan
         sodipodi:role="line"
         style="font-size:45px"
         x="2007.3579"
         y="1485.0845"
         id="tspan4322-6">Kan je me echt niet</tspan><tspan
         sodipodi:role="line"
         style="font-size:45px"
         x="2007.3579"
         y="1541.3345"
         id="tspan4482">helpen? Even met hen</tspan><tspan
         sodipodi:role="line"
         style="font-size:45px"
         x="2007.3579"
         y="1597.5845"
         id="tspan6291">praten?</tspan></text>
    <text
       xml:space="preserve"
       style="font-style:normal;font-variant:normal;font-weight:normal;font-stretch:normal;font-size:12px;line-height:125%;font-family:Lavi;-inkscape-font-specification:Lavi;text-align:center;letter-spacing:0px;word-spacing:0px;text-anchor:middle;fill:#000000;fill-opacity:1;stroke:none"
       x="1377.4187"
       y="2903.2483"
       id="text4246-4-3-5-1-7"
       sodipodi:linespacing="125%"><tspan
         sodipodi:role="line"
         style="font-size:45px"
         x="1377.4187"
         y="2903.2483"
         id="tspan4482-9">Oké, oké!</tspan><tspan
         sodipodi:role="line"
         style="font-size:45px"
         x="1377.4187"
         y="2959.4983"
         id="tspan4513">Ik kan wel even</tspan><tspan
         sodipodi:role="line"
         style="font-size:45px"
         x="1377.4187"
         y="3015.7483"
         id="tspan4515">meekomen.</tspan></text>
  </g>
</svg>
