<?xml version="1.0" encoding="UTF-8" standalone="no"?>
<!-- Created with Inkscape (http://www.inkscape.org/) -->

<svg
   xmlns:dc="http://purl.org/dc/elements/1.1/"
   xmlns:cc="http://creativecommons.org/ns#"
   xmlns:rdf="http://www.w3.org/1999/02/22-rdf-syntax-ns#"
   xmlns:svg="http://www.w3.org/2000/svg"
   xmlns="http://www.w3.org/2000/svg"
   xmlns:xlink="http://www.w3.org/1999/xlink"
   xmlns:sodipodi="http://sodipodi.sourceforge.net/DTD/sodipodi-0.dtd"
   xmlns:inkscape="http://www.inkscape.org/namespaces/inkscape"
   id="svg2"
   version="1.1"
   inkscape:version="0.91 r13725"
   width="2481"
   height="3503"
   sodipodi:docname="Pepper-and-Carrot_by-David-Revoy_E16P02.svg">
  <metadata
     id="metadata8">
    <rdf:RDF>
      <cc:Work
         rdf:about="">
        <dc:format>image/svg+xml</dc:format>
        <dc:type
           rdf:resource="http://purl.org/dc/dcmitype/StillImage" />
        <dc:title />
      </cc:Work>
    </rdf:RDF>
  </metadata>
  <defs
     id="defs6" />
  <sodipodi:namedview
     pagecolor="#ffffff"
     bordercolor="#666666"
     borderopacity="1"
     objecttolerance="10"
     gridtolerance="10"
     guidetolerance="10"
     inkscape:pageopacity="0"
     inkscape:pageshadow="2"
     inkscape:window-width="1680"
     inkscape:window-height="1033"
     id="namedview4"
     showgrid="false"
     inkscape:zoom="0.46"
     inkscape:cx="1209.2684"
     inkscape:cy="2535.7287"
     inkscape:window-x="1920"
     inkscape:window-y="0"
     inkscape:window-maximized="1"
     inkscape:current-layer="layer1" />
  <g
     inkscape:groupmode="layer"
     id="layer2"
     inkscape:label="artwork"
     sodipodi:insensitive="true">
    <image
       sodipodi:absref="/home/deevad/peppercarrot/webcomics/New/lang/fr/../gfx_Pepper-and-Carrot_by-David-Revoy_E16P02.png"
       xlink:href="../gfx_Pepper-and-Carrot_by-David-Revoy_E16P02.png"
       y="0"
       x="0"
       id="image10"
       height="3503"
       width="2481" />
  </g>
  <g
     inkscape:groupmode="layer"
     id="layer3"
     inkscape:label="speechbubbles">
    <path
       style="fill:#ffffff;fill-rule:evenodd;stroke:none;stroke-width:1px;stroke-linecap:butt;stroke-linejoin:miter;stroke-opacity:1"
       d="m 159.47183,1204.4941 c 8.4673,-30.5523 31.2689,-53.7332 56.0849,-69.2079 11.8098,-7.471 25.3086,-12.9459 39.1219,-11.5058 13.7227,0.8605 27.1264,5.9979 41.0009,4.2135 16.871,-0.5894 34.0382,-3.1608 50.7155,0.5135 14.8255,4.0092 30.1,6.0856 45.3989,6.206 10.7929,-2.5448 20.6691,4.2379 30.3078,8.2947 8.6531,4.3821 17.4915,8.9796 24.7596,15.758 6.6961,9.5154 14.7138,17.7936 21.4881,27.2243 4.4326,5.1557 4.0067,12.2771 3.8025,18.8678 -0.5757,13.4964 -1.5506,27.2058 -5.1691,40.2084 -2.1654,8.2549 -10.1691,10.9868 -16.319,14.7801 -14.5516,8.0076 -30.0035,14.08 -43.8912,23.5033 -13.7587,4.8251 -28.3804,2.5682 -42.4906,1.839 -11.8234,-1.4363 -23.7171,-3.4392 -35.6421,-1.7689 -15.1777,1.2223 -30.3093,4.3872 -45.5413,3.9818 -19.0815,-2.7818 -37.3564,-9.6313 -55.848,-15.1258 -16.5903,-4.8429 -31.711,-13.9495 -46.2197,-23.6913 -7.75,-5.532 -15.9543,-11.9621 -18.6894,-22.1569 -2.2421,-7.02 -2.7704,-14.5367 -2.8697,-21.9338 z"
       id="path4365"
       inkscape:connector-curvature="0" />
    <path
       style="fill:#ffffff;stroke:none"
       d="m 526.05317,1332.6787 c -30.94804,-5.9742 -33.65755,-15.3739 -35.85896,-26.3529 -2.20164,-10.979 -2.97755,-21.2157 -9.14413,-25.0411 -6.16635,-3.8252 -15.85979,-4.8779 -23.17719,-4.6934 -7.31743,0.1844 -5.29357,-9.0401 -8.28411,-16.1281 -2.99067,-7.0881 -31.76642,-37.2963 -31.76642,-37.2963 0,0 -1.64154,31.4089 0.94371,41.0513 2.58502,9.6423 3.48097,13.1815 5.57556,16.7304 2.09482,3.5489 8.54676,11.5174 16.06913,13.2832 7.52237,1.7658 15.47204,-0.2404 21.46624,-0.192 5.99426,0.048 8.9236,8.3554 12.37845,16.2997 3.45476,7.9444 7.26292,13.1493 20.83234,18.6149 11.63149,4.6851 30.96538,3.7243 30.96538,3.7243 z"
       id="path3023-2"
       inkscape:connector-curvature="0"
       sodipodi:nodetypes="csssscssssssc" />
    <path
       style="color:#000000;display:inline;overflow:visible;visibility:visible;fill:#ffffff;fill-opacity:1;fill-rule:nonzero;stroke:none;stroke-width:1px;marker:none;enable-background:accumulate"
       d="m 1376.0536,1390.7278 c -57.0687,-47.6477 -50.9543,-140.5605 -34.6488,-162.0019 16.3053,-21.4414 38.725,-53.6035 116.1755,-53.6035 77.4503,0 615.5265,-22.6326 695.015,27.3974 79.4884,50.03 77.4504,136.9867 8.1527,195.355 -69.2977,58.3683 -440.2442,46.4565 -440.2442,46.4565 0,0 -256.809,7.1471 -344.4502,-53.6035 z"
       id="path3992"
       inkscape:connector-curvature="0" />
    <path
       style="fill:#ffffff;stroke:none"
       d="m 1730.4354,1511.1983 c -2.4933,-38.2437 42.2088,-133.9831 260.2629,-126.7818 218.0543,7.2012 286.3018,49.2679 292.6918,117.2462 10.1085,107.5396 -104.6097,136.2779 -269.3345,144.2432 -169.8135,8.2116 -286.2557,-65.6073 -283.6202,-134.7076 z"
       id="path3280-8"
       inkscape:connector-curvature="0"
       sodipodi:nodetypes="csssc" />
    <path
       style="color:#000000;display:inline;overflow:visible;visibility:visible;fill:#ffffff;fill-opacity:1;fill-rule:nonzero;stroke:none;stroke-width:1px;marker:none;enable-background:accumulate"
       d="m 1219.1793,1379.025 c 11.1145,-52.0341 49.4885,-48.0105 61.0024,-50.7043 11.5139,-2.6938 53.2465,-12.1003 59.6337,-55.0276 6.3873,-42.9274 50.5704,-62.6224 50.5704,-62.6224 l -8.1471,64.4127 c 0,0 -26.1867,43.4877 -51.8954,55.4317 -25.7088,11.9439 -66.72,11.6091 -78.3208,20.0382 -11.601,8.429 -26.2997,13.0823 -32.8432,28.4717 z"
       id="path4018"
       inkscape:connector-curvature="0" />
    <path
       style="color:#000000;display:inline;overflow:visible;visibility:visible;fill:#ffffff;fill-opacity:1;fill-rule:nonzero;stroke:none;stroke-width:1px;marker:none;enable-background:accumulate"
       d="M 177.96119,197.48784 C 182.94267,122.88885 230.74676,78.680011 462.09939,81.754231 653.33686,84.295391 746.84402,103.73769 737.9927,199.64957 725.70604,332.78635 563.95115,310.59438 450.63745,318.43093 376.20594,316.65876 180.36075,333.49284 177.96119,197.48784 Z"
       id="path4546"
       inkscape:connector-curvature="0"
       sodipodi:nodetypes="csscc" />
    <path
       style="color:#000000;display:inline;overflow:visible;visibility:visible;fill:#ffffff;fill-opacity:1;fill-rule:nonzero;stroke:none;stroke-width:1px;marker:none;enable-background:accumulate"
       d="m 1143.8843,418.22097 c -4.0501,99.82061 -64.1908,178.66345 -330.03707,173.51778 -219.75005,-4.25341 -329.97728,-47.52294 -330.7754,-176.42124 -0.9958,-160.8241 231.19778,-139.84438 350.01009,-139.88419 85.54647,2.70361 309.96808,-9.4207 310.80238,142.78765 z"
       id="path4546-3"
       inkscape:connector-curvature="0"
       sodipodi:nodetypes="csscc" />
    <path
       style="color:#000000;display:inline;overflow:visible;visibility:visible;fill:#ffffff;fill-opacity:1;fill-rule:nonzero;stroke:none;stroke-width:1px;marker:none;enable-background:accumulate"
       d="m 1212.2695,581.74978 c -67.2618,20.68446 -152.2854,0.78987 -192.165,-42.94991 -39.87945,-43.73978 14.3178,-40.84093 14.3178,-40.84093 0,0 77.3502,101.9849 177.8472,83.79084 z"
       id="path5002"
       inkscape:connector-curvature="0"
       sodipodi:nodetypes="cscc" />
    <path
       style="fill:#ffffff;fill-rule:evenodd;stroke:none;stroke-width:1px;stroke-linecap:butt;stroke-linejoin:miter;stroke-opacity:1"
       d="m 79.966435,2099.1511 23.546955,16.5657 5.77671,-21.4719 13.96365,6.4871 -8.37819,-75.0437 30.72004,69.1176 2.79273,-17.9728 12.56729,24.3675 36.42692,-12.4014 6.8604,-60.1338 15.36001,50.8644 11.17093,-21.4922 7.8925,27.5955 c 0,0 1.88205,5.8508 15.8457,3.444 13.96366,-2.4068 141.79599,8.1107 167.56383,27.4464 l 22.98224,10.8299 22.56755,-15.6995 -6.45156,25.9982 47.36086,-44.6486 -27.28149,57.896 17.92704,-10.5738 -8.71946,22.558 c 0,0 4.22581,12.5723 8.41491,18.2243 40.49459,49.2001 60.14929,161.0823 67.33048,184.8243 l 30.72004,-4.0456 -20.94548,14.463 c 9.14048,6.8815 41.99548,17.939 111.3259,-11.0639 0,0 -64.15436,46.875 -108.60984,42.3299 -9.56642,5.363 39.34647,16.1258 39.34647,16.1258 l -53.28076,7.0224 -5.84311,50.2449 39.09823,18.1639 -44.68369,-8.9001 37.70186,43.4558 -46.80583,-10.4859 -4.82814,27.4284 -7.68395,10.0525 c -16.12139,12.0575 -39.33705,38.6664 -60.92293,44.5464 0,4.4469 23.38547,49.1163 23.38547,49.1163 l -52.01461,-29.4904 24.0873,35.7863 -56.27233,-30.2588 -14.37279,-0.407 -8.37819,3.5193 c -43.28733,26.5831 -143.43861,11.3479 -160.19499,8.0103 -1.39637,0.093 -18.15274,42.707 -18.15274,42.707 l -7.69184,-37.5036 -11.85728,15.0808 -6.95817,-10.1598 -51.07677,69.2495 17.83286,-82.0028 -35.99696,34.0016 5.36921,-46.4598 -27.96162,33.5054 4.93852,-42.7868 -16.109444,4.9859 z"
       id="path4603"
       inkscape:connector-curvature="0"
       sodipodi:nodetypes="cccccccccccccsscccccccccccccccccccccccccccccccccccccccccc" />
    <path
       style="color:#000000;display:inline;overflow:visible;visibility:visible;fill:#ffffff;fill-opacity:1;fill-rule:nonzero;stroke:none;stroke-width:1px;marker:none;enable-background:accumulate"
       d="m 911.57297,2905.1862 c 26.15941,-35.2543 82.16095,-65.5675 156.19513,-78.8643 74.0341,-13.2967 211.5557,-12.838 235.7905,-9.3658 24.2346,3.4721 157.3586,15.071 186.5886,34.2365 29.2299,19.1652 68.7814,42.8654 77.7025,67.9563 8.9214,25.0909 2.8452,86.0066 -23.7889,99.9521 -26.6342,13.9453 -148.5752,45.553 -220.0518,48.5351 -71.4766,2.9823 -237.9994,-6.3821 -285.5577,-14.1337 -47.55828,-7.7516 -97.95553,-17.8163 -113.43039,-45.1473 -15.47501,-27.331 -44.14549,-63.0881 -13.44794,-103.1689 z"
       id="path3533"
       inkscape:connector-curvature="0" />
    <path
       style="fill:#ffffff;stroke:none"
       d="m 1665.3162,3027.9651 c -45.7195,6.3375 -53.9298,-5.1776 -62.1848,-19.0773 -8.2551,-13.8997 -14.1828,-27.4561 -24.5416,-29.7762 -10.3587,-2.3201 -24.2907,0.778 -34.3436,4.4479 -10.0531,3.6701 -16.0502,-4.3086 -23.5544,-12.549 -7.5042,-8.2404 -57.2715,-41.3793 -57.2715,-41.3793 0,0 12.6136,43.4743 20.7667,55.3773 8.1531,11.903 11.0722,16.2967 15.6572,20.1434 4.5852,3.8466 17.3035,11.6669 28.565,10.553 11.2614,-1.1138 21.3268,-7.5562 29.6567,-10.2912 8.3298,-2.7351 21.007,2.5425 29.5605,11.7303 8.5534,9.1878 31.1188,27.0998 49.1012,23.41 17.9825,-3.6897 28.5886,-12.5889 28.5886,-12.5889 z"
       id="path3023"
       inkscape:connector-curvature="0"
       sodipodi:nodetypes="csssscssssssc" />
  </g>
  <g
     inkscape:groupmode="layer"
     id="layer1"
     inkscape:label="txt"
     style="display:inline">
    <text
       xml:space="preserve"
       style="font-style:normal;font-variant:normal;font-weight:normal;font-stretch:normal;font-size:12px;line-height:125%;font-family:Lavi;-inkscape-font-specification:Lavi;text-align:center;letter-spacing:0px;word-spacing:0px;text-anchor:middle;fill:#000000;fill-opacity:1;stroke:none"
       x="812.651"
       y="295.03253"
       id="text4246-4"
       sodipodi:linespacing="125%"><tspan
         sodipodi:role="line"
         style="font-size:45px"
         x="812.651"
         y="295.03253"
         id="tspan4253" /><tspan
         sodipodi:role="line"
         style="font-size:45px"
         x="812.651"
         y="351.28253"
         id="tspan4257">Ik speel geen tussen-</tspan><tspan
         sodipodi:role="line"
         style="font-size:45px"
         x="812.651"
         y="407.53253"
         id="tspan4259">persoon, zelfs niet voor een</tspan><tspan
         sodipodi:role="line"
         style="font-size:45px"
         x="812.651"
         y="463.78253"
         id="tspan4261">vriendin. Zulke zaken lopen</tspan><tspan
         sodipodi:role="line"
         style="font-size:45px"
         x="812.651"
         y="520.03253"
         id="tspan4326">altijd slecht af.</tspan></text>
    <text
       xml:space="preserve"
       style="font-style:normal;font-variant:normal;font-weight:normal;font-stretch:normal;font-size:12px;line-height:125%;font-family:Lavi;-inkscape-font-specification:Lavi;text-align:center;letter-spacing:0px;word-spacing:0px;text-anchor:middle;fill:#000000;fill-opacity:1;stroke:none"
       x="459.47992"
       y="166.86148"
       id="text4246-42"
       sodipodi:linespacing="125%"><tspan
         sodipodi:role="line"
         style="font-size:45px"
         x="467.39008"
         y="166.86148"
         id="tspan4241">Je zal het in je</tspan><tspan
         sodipodi:role="line"
         style="font-size:45px"
         x="459.47992"
         y="223.11148"
         id="tspan4245">eentje moeten</tspan><tspan
         sodipodi:role="line"
         style="font-size:45px"
         x="467.39008"
         y="279.36148"
         id="tspan4251">oplossen, hoor.</tspan></text>
    <text
       xml:space="preserve"
       style="font-style:normal;font-variant:normal;font-weight:normal;font-stretch:normal;font-size:12px;line-height:125%;font-family:Lavi;-inkscape-font-specification:Lavi;text-align:center;letter-spacing:0px;word-spacing:0px;text-anchor:middle;fill:#000000;fill-opacity:1;stroke:none"
       x="322.12131"
       y="1139.8259"
       id="text4246-4-3"
       sodipodi:linespacing="125%"><tspan
         sodipodi:role="line"
         style="font-size:45px"
         x="322.12131"
         y="1139.8259"
         id="tspan4253-3" /><tspan
         sodipodi:role="line"
         style="font-size:45px"
         x="322.12131"
         y="1196.0759"
         id="tspan4261-5">Alsjeblieft,</tspan><tspan
         sodipodi:role="line"
         style="font-size:45px"
         x="322.12131"
         y="1252.3259"
         id="tspan4324">Saffraan ...</tspan></text>
    <text
       xml:space="preserve"
       style="font-style:normal;font-variant:normal;font-weight:normal;font-stretch:normal;font-size:12px;line-height:125%;font-family:Lavi;-inkscape-font-specification:Lavi;text-align:center;letter-spacing:0px;word-spacing:0px;text-anchor:middle;fill:#000000;fill-opacity:1;stroke:none"
       x="1775.4443"
       y="1239.8634"
       id="text4246-4-3-5"
       sodipodi:linespacing="125%"><tspan
         sodipodi:role="line"
         style="font-size:45px"
         x="1775.4443"
         y="1239.8634"
         id="tspan4261-5-3">Ik leer niets van mijn peettantes.</tspan><tspan
         sodipodi:role="line"
         style="font-size:45px"
         x="1775.4443"
         y="1296.1134"
         id="tspan4318">Ze zitten de godganse dag in hun stoel,</tspan><tspan
         sodipodi:role="line"
         style="font-size:45px"
         x="1775.4443"
         y="1352.3634"
         id="tspan4320">klagen over hun oude gewrichten en</tspan><tspan
         sodipodi:role="line"
         style="font-size:45px"
         x="1775.4443"
         y="1408.6134"
         id="tspan4322">roepen wat ik moet doen ...</tspan></text>
    <text
       xml:space="preserve"
       style="font-style:normal;font-variant:normal;font-weight:normal;font-stretch:normal;font-size:12px;line-height:125%;font-family:Lavi;-inkscape-font-specification:Lavi;text-align:center;letter-spacing:0px;word-spacing:0px;text-anchor:middle;fill:#000000;fill-opacity:1;stroke:none"
       x="300.95486"
       y="2148.9766"
       id="text4246-4-3-4"
       sodipodi:linespacing="125%"><tspan
         sodipodi:role="line"
         style="font-size:45px"
         x="300.95486"
         y="2148.9766"
         id="tspan4253-3-4" /><tspan
         sodipodi:role="line"
         style="font-size:45px"
         x="300.95486"
         y="2205.2266"
         id="tspan4324-9">Luister, je bent</tspan><tspan
         sodipodi:role="line"
         style="font-size:45px"
         x="300.95486"
         y="2261.4766"
         id="tspan4354">een heks, gedraag</tspan><tspan
         sodipodi:role="line"
         style="font-size:45px"
         x="300.95486"
         y="2317.7266"
         id="tspan4356">je er dan ook naar!</tspan></text>
    <text
       xml:space="preserve"
       style="font-style:normal;font-variant:normal;font-weight:normal;font-stretch:normal;font-size:12px;line-height:125%;font-family:Lavi;-inkscape-font-specification:Lavi;text-align:center;letter-spacing:0px;word-spacing:0px;text-anchor:middle;fill:#000000;fill-opacity:1;stroke:none"
       x="313.21371"
       y="2330.6238"
       id="text4246-4-3-4-7-0"
       sodipodi:linespacing="125%"><tspan
         sodipodi:role="line"
         style="font-size:45px"
         x="313.21371"
         y="2330.6238"
         id="tspan4253-3-4-4-0" /><tspan
         sodipodi:role="line"
         style="font-size:45px"
         x="313.21371"
         y="2386.8738"
         id="tspan4396-2">Verman je en praat zelf</tspan><tspan
         sodipodi:role="line"
         style="font-size:45px"
         x="321.12387"
         y="2443.1238"
         id="tspan4434">met hen!</tspan></text>
    <text
       xml:space="preserve"
       style="font-style:normal;font-variant:normal;font-weight:normal;font-stretch:normal;font-size:12px;line-height:125%;font-family:Lavi;-inkscape-font-specification:Lavi;text-align:center;letter-spacing:0px;word-spacing:0px;text-anchor:middle;fill:#000000;fill-opacity:1;stroke:none"
       x="2014.6814"
       y="1485.0845"
       id="text4246-4-3-5-1"
       sodipodi:linespacing="125%"><tspan
         sodipodi:role="line"
         style="font-size:45px"
         x="2014.6814"
         y="1485.0845"
         id="tspan4322-6">Kan je me echt niet</tspan><tspan
         sodipodi:role="line"
         style="font-size:45px"
         x="2022.5916"
         y="1541.3345"
         id="tspan4476">helpen? Even praten</tspan><tspan
         sodipodi:role="line"
         style="font-size:45px"
         x="2014.6814"
         y="1597.5845"
         id="tspan4482">met hen?...</tspan></text>
    <text
       xml:space="preserve"
       style="font-style:normal;font-variant:normal;font-weight:normal;font-stretch:normal;font-size:12px;line-height:125%;font-family:Lavi;-inkscape-font-specification:Lavi;text-align:center;letter-spacing:0px;word-spacing:0px;text-anchor:middle;fill:#000000;fill-opacity:1;stroke:none"
       x="1241.7258"
       y="2895.5386"
       id="text4246-4-3-5-1-7"
       sodipodi:linespacing="125%"><tspan
         sodipodi:role="line"
         style="font-size:45px"
         x="1241.7258"
         y="2895.5386"
         id="tspan4482-9">Oké, oké! Ik</tspan><tspan
         sodipodi:role="line"
         style="font-size:45px"
         x="1241.7258"
         y="2951.7886"
         id="tspan4513">kan wel even</tspan><tspan
         sodipodi:role="line"
         style="font-size:45px"
         x="1241.7258"
         y="3008.0386"
         id="tspan4515">meekomen.</tspan></text>
  </g>
</svg>
