<?xml version="1.0" encoding="UTF-8" standalone="no"?>
<!-- Created with Inkscape (http://www.inkscape.org/) -->

<svg
   xmlns:dc="http://purl.org/dc/elements/1.1/"
   xmlns:cc="http://creativecommons.org/ns#"
   xmlns:rdf="http://www.w3.org/1999/02/22-rdf-syntax-ns#"
   xmlns:svg="http://www.w3.org/2000/svg"
   xmlns="http://www.w3.org/2000/svg"
   xmlns:xlink="http://www.w3.org/1999/xlink"
   xmlns:sodipodi="http://sodipodi.sourceforge.net/DTD/sodipodi-0.dtd"
   xmlns:inkscape="http://www.inkscape.org/namespaces/inkscape"
   id="svg2"
   version="1.1"
   inkscape:version="0.91 r"
   width="2481"
   height="3503"
   sodipodi:docname="Pepper-and-Carrot_by-David-Revoy_E16P02.svg">
  <metadata
     id="metadata8">
    <rdf:RDF>
      <cc:Work
         rdf:about="">
        <dc:format>image/svg+xml</dc:format>
        <dc:type
           rdf:resource="http://purl.org/dc/dcmitype/StillImage" />
        <dc:title />
      </cc:Work>
    </rdf:RDF>
  </metadata>
  <defs
     id="defs6" />
  <sodipodi:namedview
     pagecolor="#ffffff"
     bordercolor="#666666"
     borderopacity="1"
     objecttolerance="10"
     gridtolerance="10"
     guidetolerance="10"
     inkscape:pageopacity="0"
     inkscape:pageshadow="2"
     inkscape:window-width="1366"
     inkscape:window-height="716"
     id="namedview4"
     showgrid="false"
     inkscape:zoom="0.46"
     inkscape:cx="1081.7303"
     inkscape:cy="709.64172"
     inkscape:window-x="0"
     inkscape:window-y="0"
     inkscape:window-maximized="1"
     inkscape:current-layer="layer1" />
  <g
     inkscape:groupmode="layer"
     id="layer2"
     inkscape:label="artwork"
     sodipodi:insensitive="true">
    <image
       sodipodi:absref="/media/bonaditya/DATA/PEPPERCARROT/peppercarrot_ep16_translation-master/id/../gfx_Pepper-and-Carrot_by-David-Revoy_E16P02.png"
       xlink:href="../gfx_Pepper-and-Carrot_by-David-Revoy_E16P02.png"
       width="2481"
       height="3503"
       id="image10"
       x="0"
       y="0" />
  </g>
  <g
     inkscape:groupmode="layer"
     id="layer3"
     inkscape:label="speechbubbles">
    <path
       style="fill:#ffffff;fill-rule:evenodd;stroke:none;stroke-width:1px;stroke-linecap:butt;stroke-linejoin:miter;stroke-opacity:1"
       d="m 161.64574,1209.8626 c 8.40846,-32.5786 31.05159,-57.297 55.69512,-73.798 11.72772,-7.9665 25.1327,-13.8045 38.85,-12.2689 13.62733,0.9176 26.93787,6.3957 40.71595,4.493 16.75374,-0.6285 33.80163,-3.3705 50.36303,0.5475 14.72246,4.2751 29.8908,6.4892 45.08338,6.6176 10.71789,-2.7136 20.52545,4.519 30.09716,8.8449 8.59296,4.6727 17.36993,9.5751 24.58752,16.8031 6.64956,10.1465 14.61154,18.9737 21.33876,29.0299 4.40179,5.4976 3.97885,13.0913 3.77607,20.1191 -0.5717,14.3916 -1.53982,29.0102 -5.13317,42.8752 -2.15035,8.8024 -10.09843,11.7155 -16.20559,15.7604 -14.45046,8.5386 -29.79497,15.0138 -43.58616,25.0621 -13.66307,5.1451 -28.18315,2.7385 -42.19529,1.9609 -11.74123,-1.5315 -23.55227,-3.6673 -35.39439,-1.8862 -15.07221,1.3034 -30.09865,4.6782 -45.22479,4.2459 -18.94888,-2.9663 -37.09677,-10.2701 -55.45986,-16.129 -16.47499,-5.1641 -31.49061,-14.8747 -45.89847,-25.2626 -7.69614,-5.8989 -15.84342,-12.7554 -18.55951,-23.6264 -2.22652,-7.4856 -2.75115,-15.5008 -2.84976,-23.3885 z"
       id="path4365"
       inkscape:connector-curvature="0" />
    <path
       style="fill:#ffffff;stroke:none"
       d="m 526.05317,1332.6787 c -30.94804,-5.9742 -33.65755,-15.3739 -35.85896,-26.3529 -2.20164,-10.979 -2.97755,-21.2157 -9.14413,-25.0411 -6.16635,-3.8252 -15.85979,-4.8779 -23.17719,-4.6934 -7.31743,0.1844 -5.29357,-9.0401 -8.28411,-16.1281 -2.99067,-7.0881 -31.76642,-37.2963 -31.76642,-37.2963 0,0 -1.64154,31.4089 0.94371,41.0513 2.58502,9.6423 3.48097,13.1815 5.57556,16.7304 2.09482,3.5489 8.54676,11.5174 16.06913,13.2832 7.52237,1.7658 15.47204,-0.2404 21.46624,-0.192 5.99426,0.048 8.9236,8.3554 12.37845,16.2997 3.45476,7.9444 7.26292,13.1493 20.83234,18.6149 11.63149,4.6851 30.96538,3.7243 30.96538,3.7243 z"
       id="path3023-2"
       inkscape:connector-curvature="0"
       sodipodi:nodetypes="csssscssssssc" />
    <path
       style="color:#000000;fill:#ffffff;fill-opacity:1;fill-rule:nonzero;stroke:none;stroke-width:1px;marker:none;visibility:visible;display:inline;overflow:visible;enable-background:accumulate"
       d="m 1376.0536,1390.7278 c -57.0687,-47.6477 -102.9543,-164.5605 -86.6488,-186.0019 16.3053,-21.4414 46.725,-29.6035 124.1755,-29.6035 77.4503,0 779.5265,-26.6326 859.015,23.3974 79.4884,50.03 47.4504,140.9867 -21.8473,199.355 -69.2977,58.3683 -530.2442,46.4565 -530.2442,46.4565 0,0 -256.809,7.1471 -344.4502,-53.6035 z"
       id="path3992"
       inkscape:connector-curvature="0"
       sodipodi:nodetypes="csssscc" />
    <path
       style="fill:#ffffff;stroke:none"
       d="m 1730.4354,1511.1983 c -2.4933,-38.2437 42.2088,-133.9831 260.2629,-126.7818 218.0543,7.2012 286.3018,49.2679 292.6918,117.2462 10.1085,107.5396 -104.6097,136.2779 -269.3345,144.2432 -169.8135,8.2116 -286.2557,-65.6073 -283.6202,-134.7076 z"
       id="path3280-8"
       inkscape:connector-curvature="0"
       sodipodi:nodetypes="csssc" />
    <path
       style="color:#000000;display:inline;overflow:visible;visibility:visible;fill:#ffffff;fill-opacity:1;fill-rule:nonzero;stroke:none;stroke-width:1px;marker:none;enable-background:accumulate"
       d="m 1219.1793,1379.025 c 11.1145,-52.0341 49.4885,-48.0105 61.0024,-50.7043 11.5139,-2.6938 53.2465,-12.1003 59.6337,-55.0276 6.3873,-42.9274 50.5704,-62.6224 50.5704,-62.6224 l -8.1471,64.4127 c 0,0 -26.1867,43.4877 -51.8954,55.4317 -25.7088,11.9439 -66.72,11.6091 -78.3208,20.0382 -11.601,8.429 -26.2997,13.0823 -32.8432,28.4717 z"
       id="path4018"
       inkscape:connector-curvature="0" />
    <path
       style="color:#000000;display:inline;overflow:visible;visibility:visible;fill:#ffffff;fill-opacity:1;fill-rule:nonzero;stroke:none;stroke-width:1px;marker:none;enable-background:accumulate"
       d="M 177.96119,197.48784 C 182.94267,122.88885 230.74676,78.680011 462.09939,81.754231 653.33686,84.295391 746.84402,103.73769 737.9927,199.64957 725.70604,332.78635 563.95115,310.59438 450.63745,318.43093 376.20594,316.65876 180.36075,333.49284 177.96119,197.48784 Z"
       id="path4546"
       inkscape:connector-curvature="0"
       sodipodi:nodetypes="csscc" />
    <path
       style="color:#000000;display:inline;overflow:visible;visibility:visible;fill:#ffffff;fill-opacity:1;fill-rule:nonzero;stroke:none;stroke-width:1px;marker:none;enable-background:accumulate"
       d="m 1135.1886,400.82967 c -4.0501,99.82061 -64.1908,178.66345 -330.03702,173.51778 -219.75005,-4.25341 -329.97728,-47.52294 -330.7754,-176.42124 -0.9958,-160.8241 231.19778,-139.84438 350.01009,-139.88419 85.54647,2.70361 309.96803,-9.4207 310.80233,142.78765 z"
       id="path4546-3"
       inkscape:connector-curvature="0"
       sodipodi:nodetypes="csscc" />
    <path
       style="color:#000000;display:inline;overflow:visible;visibility:visible;fill:#ffffff;fill-opacity:1;fill-rule:nonzero;stroke:none;stroke-width:1px;marker:none;enable-background:accumulate"
       d="m 1212.2695,581.74978 c -67.2618,20.68446 -152.2854,0.78987 -192.165,-42.94991 -39.87945,-43.73978 14.3178,-40.84093 14.3178,-40.84093 0,0 77.3502,101.9849 177.8472,83.79084 z"
       id="path5002"
       inkscape:connector-curvature="0"
       sodipodi:nodetypes="cscc" />
    <path
       style="fill:#ffffff;fill-rule:evenodd;stroke:none;stroke-width:1px;stroke-linecap:butt;stroke-linejoin:miter;stroke-opacity:1"
       d="m 79.966435,2099.1511 23.546955,16.5657 5.77671,-21.4719 13.96365,6.4871 -8.37819,-75.0437 30.72004,69.1176 2.79273,-17.9728 12.56729,24.3675 36.42692,-12.4014 6.8604,-60.1338 15.36001,50.8644 11.17093,-21.4922 7.8925,27.5955 c 0,0 1.88205,5.8508 15.8457,3.444 13.96366,-2.4068 141.79599,8.1107 167.56383,27.4464 l 22.98224,10.8299 22.56755,-15.6995 -6.45156,25.9982 47.36086,-44.6486 -27.28149,57.896 17.92704,-10.5738 -8.71946,22.558 c 0,0 4.22581,12.5723 8.41491,18.2243 40.49459,49.2001 60.14929,161.0823 67.33048,184.8243 l 30.72004,-4.0456 -20.94548,14.463 c 9.14048,6.8815 41.99548,17.939 111.3259,-11.0639 0,0 -64.15436,46.875 -108.60984,42.3299 -9.56642,5.363 39.34647,16.1258 39.34647,16.1258 l -53.28076,7.0224 -5.84311,50.2449 39.09823,18.1639 -44.68369,-8.9001 37.70186,43.4558 -46.80583,-10.4859 -4.82814,27.4284 -7.68395,10.0525 c -16.12139,12.0575 -39.33705,38.6664 -60.92293,44.5464 0,4.4469 23.38547,49.1163 23.38547,49.1163 l -52.01461,-29.4904 24.0873,35.7863 -56.27233,-30.2588 -14.37279,-0.407 -8.37819,3.5193 c -43.28733,26.5831 -143.43861,11.3479 -160.19499,8.0103 -1.39637,0.093 -18.15274,42.707 -18.15274,42.707 l -7.69184,-37.5036 -11.85728,15.0808 -6.95817,-10.1598 -51.07677,69.2495 17.83286,-82.0028 -35.99696,34.0016 5.36921,-46.4598 -27.96162,33.5054 4.93852,-42.7868 -16.109444,4.9859 z"
       id="path4603"
       inkscape:connector-curvature="0"
       sodipodi:nodetypes="cccccccccccccsscccccccccccccccccccccccccccccccccccccccccc" />
    <path
       style="color:#000000;display:inline;overflow:visible;visibility:visible;fill:#ffffff;fill-opacity:1;fill-rule:nonzero;stroke:none;stroke-width:1px;marker:none;enable-background:accumulate"
       d="m 911.57297,2905.1862 c 26.15941,-35.2543 82.16095,-65.5675 156.19513,-78.8643 74.0341,-13.2967 211.5557,-12.838 235.7905,-9.3658 24.2346,3.4721 157.3586,15.071 186.5886,34.2365 29.2299,19.1652 68.7814,42.8654 77.7025,67.9563 8.9214,25.0909 2.8452,86.0066 -23.7889,99.9521 -26.6342,13.9453 -148.5752,45.553 -220.0518,48.5351 -71.4766,2.9823 -237.9994,-6.3821 -285.5577,-14.1337 -47.55828,-7.7516 -97.95553,-17.8163 -113.43039,-45.1473 -15.47501,-27.331 -44.14549,-63.0881 -13.44794,-103.1689 z"
       id="path3533"
       inkscape:connector-curvature="0" />
    <path
       style="fill:#ffffff;stroke:none"
       d="m 1665.3162,3027.9651 c -45.7195,6.3375 -53.9298,-5.1776 -62.1848,-19.0773 -8.2551,-13.8997 -14.1828,-27.4561 -24.5416,-29.7762 -10.3587,-2.3201 -24.2907,0.778 -34.3436,4.4479 -10.0531,3.6701 -16.0502,-4.3086 -23.5544,-12.549 -7.5042,-8.2404 -57.2715,-41.3793 -57.2715,-41.3793 0,0 12.6136,43.4743 20.7667,55.3773 8.1531,11.903 11.0722,16.2967 15.6572,20.1434 4.5852,3.8466 17.3035,11.6669 28.565,10.553 11.2614,-1.1138 21.3268,-7.5562 29.6567,-10.2912 8.3298,-2.7351 21.007,2.5425 29.5605,11.7303 8.5534,9.1878 31.1188,27.0998 49.1012,23.41 17.9825,-3.6897 28.5886,-12.5889 28.5886,-12.5889 z"
       id="path3023"
       inkscape:connector-curvature="0"
       sodipodi:nodetypes="csssscssssssc" />
  </g>
  <g
     inkscape:groupmode="layer"
     id="layer1"
     inkscape:label="txt"
     style="display:inline">
    <text
       xml:space="preserve"
       style="font-style:normal;font-variant:normal;font-weight:normal;font-stretch:normal;font-size:12px;line-height:125%;font-family:Lavi;-inkscape-font-specification:Lavi;text-align:center;letter-spacing:0px;word-spacing:0px;text-anchor:middle;fill:#000000;fill-opacity:1;stroke:none"
       x="812.651"
       y="281.03253"
       id="text4246-4"
       sodipodi:linespacing="125%"><tspan
         sodipodi:role="line"
         style="font-size:45px"
         x="812.651"
         y="281.03253"
         id="tspan4253" /><tspan
         sodipodi:role="line"
         style="font-size:45px"
         x="812.651"
         y="337.28253"
         id="tspan3455">Jujur saja, aku</tspan><tspan
         sodipodi:role="line"
         style="font-size:45px"
         x="812.651"
         y="393.53253"
         id="tspan3461">tidak bisa melakukan mediasi.</tspan><tspan
         sodipodi:role="line"
         style="font-size:45px"
         x="812.651"
         y="449.78253"
         id="tspan3465">Dulu pernah, tetapi</tspan><tspan
         sodipodi:role="line"
         style="font-size:45px"
         x="812.651"
         y="506.03253"
         id="tspan3398">hasilnya berantakan.</tspan></text>
    <text
       xml:space="preserve"
       style="font-style:normal;font-variant:normal;font-weight:normal;font-stretch:normal;font-size:12px;line-height:125%;font-family:Lavi;-inkscape-font-specification:Lavi;text-align:center;letter-spacing:0px;word-spacing:0px;text-anchor:middle;fill:#000000;fill-opacity:1;stroke:none"
       x="459.47992"
       y="166.86148"
       id="text4246-42"
       sodipodi:linespacing="125%"><tspan
         sodipodi:role="line"
         style="font-size:45px"
         x="459.47992"
         y="166.86148"
         id="tspan3442">Ini adalah hal</tspan><tspan
         sodipodi:role="line"
         style="font-size:45px"
         x="459.47992"
         y="223.11148"
         id="tspan3390">yang harus kamu</tspan><tspan
         sodipodi:role="line"
         style="font-size:45px"
         x="467.39008"
         y="279.36148"
         id="tspan3392">hadapi sendiri. </tspan></text>
    <text
       xml:space="preserve"
       style="font-style:normal;font-variant:normal;font-weight:normal;font-stretch:normal;font-size:12px;line-height:125%;font-family:Lavi;-inkscape-font-specification:Lavi;text-align:center;letter-spacing:0px;word-spacing:0px;text-anchor:middle;fill:#000000;fill-opacity:1;stroke:none"
       x="326.46915"
       y="1137.652"
       id="text4246-4-3"
       sodipodi:linespacing="125%"><tspan
         sodipodi:role="line"
         style="font-size:45px"
         x="326.46915"
         y="1137.652"
         id="tspan4253-3" /><tspan
         sodipodi:role="line"
         style="font-size:45px"
         x="326.46915"
         y="1193.902"
         id="tspan4324">Saffron,</tspan><tspan
         sodipodi:role="line"
         style="font-size:45px"
         x="326.46915"
         y="1250.152"
         id="tspan3402">aku mohon...</tspan></text>
    <text
       xml:space="preserve"
       style="font-style:normal;font-variant:normal;font-weight:normal;font-stretch:normal;font-size:12px;line-height:125%;font-family:Lavi;-inkscape-font-specification:Lavi;text-align:center;letter-spacing:0px;word-spacing:0px;text-anchor:middle;fill:#000000;fill-opacity:1;stroke:none"
       x="1789.4443"
       y="1233.8634"
       id="text4246-4-3-5"
       sodipodi:linespacing="125%"><tspan
         sodipodi:role="line"
         style="font-size:45px"
         x="1789.4443"
         y="1233.8634"
         id="tspan3484">Aku tidak belajar apapun mengenai sihir</tspan><tspan
         sodipodi:role="line"
         style="font-size:45px"
         x="1789.4443"
         y="1290.1134"
         id="tspan3406">dari mereka.</tspan><tspan
         sodipodi:role="line"
         style="font-size:45px"
         x="1789.4443"
         y="1346.3634"
         id="tspan3486">Bahkan, aku selalu membuat mereka</tspan><tspan
         sodipodi:role="line"
         style="font-size:45px"
         x="1789.4443"
         y="1402.6134"
         id="tspan3410">kecewa pada akhirnya...</tspan></text>
    <text
       xml:space="preserve"
       style="font-style:normal;font-variant:normal;font-weight:normal;font-stretch:normal;font-size:12px;line-height:125%;font-family:Lavi;-inkscape-font-specification:Lavi;text-align:center;letter-spacing:0px;word-spacing:0px;text-anchor:middle;fill:#000000;fill-opacity:1;stroke:none"
       x="312.95486"
       y="2130.9766"
       id="text4246-4-3-4"
       sodipodi:linespacing="125%"><tspan
         sodipodi:role="line"
         style="font-size:45px"
         x="312.95486"
         y="2130.9766"
         id="tspan4253-3-4" /><tspan
         sodipodi:role="line"
         style="font-size:45px"
         x="312.95486"
         y="2187.2266"
         id="tspan3514">Dengar!</tspan><tspan
         sodipodi:role="line"
         style="font-size:45px"
         x="312.95486"
         y="2243.4766"
         id="tspan3427">Kamu itu penyihir,</tspan><tspan
         sodipodi:role="line"
         style="font-size:45px"
         x="312.95486"
         y="2299.7266"
         id="tspan3429">jadilah seperti itu!</tspan></text>
    <text
       xml:space="preserve"
       style="font-style:normal;font-variant:normal;font-weight:normal;font-stretch:normal;font-size:12px;line-height:125%;font-family:Lavi;-inkscape-font-specification:Lavi;text-align:center;letter-spacing:0px;word-spacing:0px;text-anchor:middle;fill:#000000;fill-opacity:1;stroke:none"
       x="312.56717"
       y="2518.7666"
       id="text4246-4-3-4-7"
       sodipodi:linespacing="125%"><tspan
         sodipodi:role="line"
         style="font-size:45px"
         x="312.56717"
         y="2518.7666"
         id="tspan4438">Jangan jadi</tspan><tspan
         sodipodi:role="line"
         style="font-size:45px"
         x="312.56717"
         y="2575.0166"
         id="tspan3431">pengecut!</tspan></text>
    <text
       xml:space="preserve"
       style="font-style:normal;font-variant:normal;font-weight:normal;font-stretch:normal;font-size:12px;line-height:125%;font-family:Lavi;-inkscape-font-specification:Lavi;text-align:center;letter-spacing:0px;word-spacing:0px;text-anchor:middle;fill:#000000;fill-opacity:1;stroke:none"
       x="321.21371"
       y="2420.6238"
       id="text4246-4-3-4-7-0"
       sodipodi:linespacing="125%"><tspan
         sodipodi:role="line"
         style="font-size:45px"
         x="321.21371"
         y="2420.6238"
         id="tspan4434">Bicara terus terang!</tspan></text>
    <text
       xml:space="preserve"
       style="font-style:normal;font-variant:normal;font-weight:normal;font-stretch:normal;font-size:12px;line-height:125%;font-family:Lavi;-inkscape-font-specification:Lavi;text-align:center;letter-spacing:0px;word-spacing:0px;text-anchor:middle;fill:#000000;fill-opacity:1;stroke:none"
       x="2014.6814"
       y="1485.0845"
       id="text4246-4-3-5-1"
       sodipodi:linespacing="125%"><tspan
         sodipodi:role="line"
         style="font-size:45px"
         x="2014.6814"
         y="1485.0845"
         id="tspan3499">Kamu benar-benar</tspan><tspan
         sodipodi:role="line"
         style="font-size:45px"
         x="2014.6814"
         y="1541.3345"
         id="tspan3417">tidak mau</tspan><tspan
         sodipodi:role="line"
         style="font-size:45px"
         x="2014.6814"
         y="1597.5845"
         id="tspan3419">menolongku... ?</tspan></text>
    <text
       xml:space="preserve"
       style="font-style:normal;font-variant:normal;font-weight:normal;font-stretch:normal;font-size:12px;line-height:125%;font-family:Lavi;-inkscape-font-specification:Lavi;text-align:center;letter-spacing:0px;word-spacing:0px;text-anchor:middle;fill:#000000;fill-opacity:1;stroke:none"
       x="1241.7258"
       y="2895.5386"
       id="text4246-4-3-5-1-7"
       sodipodi:linespacing="125%"><tspan
         sodipodi:role="line"
         style="font-size:45px"
         x="1241.7258"
         y="2895.5386"
         id="tspan4482-9">Oke, oke!</tspan><tspan
         sodipodi:role="line"
         style="font-size:45px"
         x="1241.7258"
         y="2951.7886"
         id="tspan3533">Aku akan membantumu,</tspan><tspan
         sodipodi:role="line"
         style="font-size:45px"
         x="1241.7258"
         y="3008.0386"
         id="tspan3435">tetapi semampuku saja.</tspan></text>
  </g>
</svg>
