<?xml version="1.0" encoding="UTF-8" standalone="no"?>
<!-- Created with Inkscape (http://www.inkscape.org/) -->

<svg
   xmlns:dc="http://purl.org/dc/elements/1.1/"
   xmlns:cc="http://creativecommons.org/ns#"
   xmlns:rdf="http://www.w3.org/1999/02/22-rdf-syntax-ns#"
   xmlns:svg="http://www.w3.org/2000/svg"
   xmlns="http://www.w3.org/2000/svg"
   xmlns:xlink="http://www.w3.org/1999/xlink"
   xmlns:sodipodi="http://sodipodi.sourceforge.net/DTD/sodipodi-0.dtd"
   xmlns:inkscape="http://www.inkscape.org/namespaces/inkscape"
   id="svg2"
   version="1.1"
   inkscape:version="0.91 r13725"
   width="1100"
   height="765"
   sodipodi:docname="Pepper-and-Carrot_by-David-Revoy_E16.svg">
  <metadata
     id="metadata8">
    <rdf:RDF>
      <cc:Work
         rdf:about="">
        <dc:format>image/svg+xml</dc:format>
        <dc:type
           rdf:resource="http://purl.org/dc/dcmitype/StillImage" />
        <dc:title />
      </cc:Work>
    </rdf:RDF>
  </metadata>
  <defs
     id="defs6">
    <filter
       id="filter3797"
       style="color-interpolation-filters:sRGB;"
       inkscape:label="Drop Shadow">
      <feFlood
         id="feFlood3799"
         flood-opacity="0.8"
         flood-color="rgb(0,0,0)"
         result="flood" />
      <feComposite
         id="feComposite3801"
         in2="SourceGraphic"
         in="flood"
         operator="in"
         result="composite1" />
      <feGaussianBlur
         id="feGaussianBlur3803"
         in="composite"
         stdDeviation="10"
         result="blur" />
      <feOffset
         id="feOffset3805"
         dx="8"
         dy="10"
         result="offset" />
      <feComposite
         id="feComposite3807"
         in2="offset"
         in="SourceGraphic"
         operator="over"
         result="composite2" />
    </filter>
    <filter
       id="filter3836"
       style="color-interpolation-filters:sRGB;"
       inkscape:label="Drop Shadow">
      <feFlood
         id="feFlood3838"
         flood-opacity="0.94664031620553357"
         flood-color="rgb(0,0,0)"
         result="flood" />
      <feComposite
         id="feComposite3840"
         in2="SourceGraphic"
         in="flood"
         operator="in"
         result="composite1" />
      <feGaussianBlur
         id="feGaussianBlur3842"
         in="composite"
         stdDeviation="5"
         result="blur" />
      <feOffset
         id="feOffset3844"
         dx="2.0242914979757103"
         dy="4.4534412955465683"
         result="offset" />
      <feComposite
         id="feComposite3846"
         in2="offset"
         in="SourceGraphic"
         operator="over"
         result="composite2" />
    </filter>
    <filter
       color-interpolation-filters="sRGB"
       id="filter3836-1"
       inkscape:label="Drop Shadow">
      <feFlood
         id="feFlood3838-1"
         flood-opacity="0.94664031620553357"
         flood-color="rgb(0,0,0)"
         result="flood" />
      <feComposite
         id="feComposite3840-2"
         in2="SourceGraphic"
         in="flood"
         operator="in"
         result="composite1" />
      <feGaussianBlur
         id="feGaussianBlur3842-6"
         stdDeviation="5"
         result="blur" />
      <feOffset
         id="feOffset3844-4"
         dx="2.0242914979757103"
         dy="4.4534412955465683"
         result="offset" />
      <feComposite
         id="feComposite3846-2"
         in2="offset"
         in="SourceGraphic"
         operator="over"
         result="composite2" />
    </filter>
    <filter
       style="color-interpolation-filters:sRGB"
       id="filter3836-1-7"
       inkscape:label="Drop Shadow">
      <feFlood
         id="feFlood3838-1-8"
         flood-opacity="0.94664031620553357"
         flood-color="rgb(0,0,0)"
         result="flood" />
      <feComposite
         id="feComposite3840-2-5"
         in2="SourceGraphic"
         in="flood"
         operator="in"
         result="composite1" />
      <feGaussianBlur
         id="feGaussianBlur3842-6-1"
         stdDeviation="5"
         result="blur" />
      <feOffset
         id="feOffset3844-4-8"
         dx="2.0242914979757103"
         dy="4.4534412955465683"
         result="offset" />
      <feComposite
         id="feComposite3846-2-7"
         in2="offset"
         in="SourceGraphic"
         operator="over"
         result="composite2" />
    </filter>
  </defs>
  <sodipodi:namedview
     pagecolor="#ffffff"
     bordercolor="#666666"
     borderopacity="1"
     objecttolerance="10"
     gridtolerance="10"
     guidetolerance="10"
     inkscape:pageopacity="0"
     inkscape:pageshadow="2"
     inkscape:window-width="1920"
     inkscape:window-height="1137"
     id="namedview4"
     showgrid="false"
     inkscape:zoom="0.68340433"
     inkscape:cx="155.14403"
     inkscape:cy="393.39251"
     inkscape:window-x="-8"
     inkscape:window-y="-8"
     inkscape:window-maximized="1"
     inkscape:current-layer="layer2" />
  <g
     inkscape:groupmode="layer"
     id="layer1"
     inkscape:label="artwork"
     sodipodi:insensitive="true" />
  <image
     sodipodi:absref="C:\Users\Alexandre\GitHub\peppercarrot_ep16_translation\pt\..\gfx_Pepper-and-Carrot_by-David-Revoy_E16.png"
     xlink:href="../gfx_Pepper-and-Carrot_by-David-Revoy_E16.png"
     y="0"
     x="0"
     id="image10"
     height="765"
     width="1100" />
  <g
     inkscape:groupmode="layer"
     id="layer2"
     inkscape:label="txt">
    <g
       style="font-style:normal;font-variant:normal;font-weight:normal;font-stretch:normal;font-size:8.36682606px;line-height:125%;font-family:Arial;-inkscape-font-specification:Arial;letter-spacing:0px;word-spacing:0px;display:inline;fill:#ffffff;fill-opacity:1;stroke:none;filter:url(#filter3836-1-7)"
       id="text4183"
       transform="translate(-0.69143552,0)">
      <path
         d="m 185.30078,733.43195 q 0.89063,-1.6875 1.42969,-3.46875 0.5625,-1.78125 0.9375,-3.60938 0.375,-1.82812 0.65625,-3.67969 0.28125,-1.875 0.63281,-3.75 0.25781,-1.92187 0.49219,-3.96093 0.25781,-2.0625 0.42187,-4.125 0.1875,-2.08594 0.28125,-4.14844 0.11719,-2.0625 0.11719,-4.00781 0.23438,-0.84375 0.79688,-1.14844 0.5625,-0.30469 1.33593,-0.30469 1.82813,0 3.63282,0.0703 1.80468,0.0703 3.63281,0.0703 2.0625,0 4.10156,-0.11719 2.0625,-0.11719 4.125,-0.11719 0.77344,0 1.35938,0.39844 0.58593,0.375 0.58593,1.19531 0,0.96094 -0.63281,1.52344 -0.63281,0.5625 -1.64062,0.86719 -0.98438,0.28125 -2.20313,0.35156 -1.19531,0.0469 -2.36719,0.0234 -1.14843,-0.0469 -2.13281,-0.11719 -0.96094,-0.0937 -1.47656,-0.0937 -1.26563,0 -2.57813,-0.0703 -1.28906,-0.0703 -2.57812,-0.0703 l -0.1875,0 -0.77344,10.92188 0,0.39844 q 1.00781,0 1.99219,-0.0703 0.98437,-0.0937 1.96875,-0.1875 1.00781,-0.11718 1.99219,-0.1875 0.98437,-0.0937 1.99218,-0.0937 0.46875,0 0.89063,0.0937 0.42187,0.0937 0.75,0.32813 0.32812,0.21094 0.51562,0.58594 0.21094,0.35156 0.21094,0.89062 0,0.89063 -0.63281,1.38281 -0.63281,0.46875 -1.45313,0.51563 l -8.36718,0.65625 -0.51563,0.11719 q -0.28125,1.45312 -0.49219,2.92968 -0.1875,1.47657 -0.44531,2.95313 -0.25781,1.47656 -0.60937,2.92969 -0.35157,1.45312 -0.91407,2.8125 l 0,0.11718 0.63282,0.14063 q 0.0937,0 0.46875,0.0234 0.39843,0 0.86718,0.0234 0.46875,0 0.91407,0.0234 0.44531,0 0.70312,0 1.64063,0 3.14063,-0.0937 1.52343,-0.0937 3,-0.1875 1.5,-0.11719 3.02343,-0.21094 1.52344,-0.0937 3.16407,-0.0937 0.89062,0 1.35937,0.5625 0.46875,0.5625 0.46875,1.38282 0,0.75 -0.46875,1.26562 -0.44531,0.51563 -1.24219,0.5625 l -6.91406,0.51563 -11.34375,0 q -0.51562,0 -1.00781,-0.14063 -0.46875,-0.14062 -0.84375,-0.42187 -0.35156,-0.28125 -0.5625,-0.67969 -0.21094,-0.42188 -0.21094,-0.96094 l 0,-0.51562 z"
         style="font-style:normal;font-variant:normal;font-weight:normal;font-stretch:normal;font-size:48px;font-family:Lavi;-inkscape-font-specification:Lavi;text-align:center;text-anchor:middle"
         id="path3362"
         inkscape:connector-curvature="0" />
      <path
         d="m 215.55859,714.07257 q 0.1875,-0.96094 0.89063,-1.40625 0.72656,-0.44531 1.61719,-0.30469 0.86718,0.16407 1.26562,0.46875 0.39844,0.30469 0.5625,0.75 0.1875,0.44532 0.23438,0.98438 0.0469,0.53906 0.1875,1.17187 3.14062,-0.98437 6.375,-1.03125 3.25781,-0.0703 6.60937,0.51563 1.85156,0.32812 3.28125,1.33594 1.42969,0.98437 2.32031,2.4375 0.89063,1.42968 1.21875,3.21093 0.32813,1.75782 0,3.60938 -0.42187,2.4375 -1.85156,4.33594 -1.42969,1.89843 -3.44531,3.14062 -1.99219,1.21875 -4.35938,1.71094 -2.36718,0.46875 -4.71093,0.0469 l -6.70313,-0.91406 q -0.21094,1.14844 -0.32812,1.73438 -0.0937,0.58593 -0.14063,0.89062 -0.0469,0.30469 -0.0703,0.46875 -0.0234,0.1875 -0.0703,0.49219 -0.0469,0.30469 -0.16407,0.89062 -0.0937,0.58594 -0.30468,1.73438 -0.0469,0.25781 -0.16407,0.89062 -0.0937,0.65625 -0.23437,1.35938 -0.11719,0.72656 -0.23438,1.35937 -0.0937,0.65625 -0.14062,0.89063 -0.35156,0.65625 -0.98438,0.96094 -0.60937,0.30468 -1.26562,0.1875 -0.84375,-0.16407 -1.3125,-0.75 -0.46875,-0.58594 -0.53906,-1.40625 0.11718,-0.60938 0.25781,-1.3125 0.16406,-0.67969 0.30469,-1.40625 0.16406,-0.70313 0.30468,-1.40625 0.14063,-0.70313 0.21094,-1.33594 0.0937,-0.9375 0.23438,-2.36719 0.14062,-1.45312 0.28125,-3.09375 0.16406,-1.66406 0.30468,-3.35156 0.16407,-1.71094 0.28125,-3.14063 0.11719,-1.42968 0.1875,-2.41406 0.0703,-1.00781 0.0937,-1.24219 l -0.0469,-8.39062 q 0,-0.0469 0.0234,-0.11719 0,-0.0469 0,-0.0937 0.0234,-0.0469 0.0234,-0.0937 z m 4.71094,7.07813 q -0.0234,0.11718 -0.0703,0.30468 -0.0234,0.16407 -0.0234,0.21094 -0.0234,0.16406 -0.0703,0.77344 -0.0469,0.58594 -0.14063,1.40625 -0.0703,0.79687 -0.1875,1.73437 -0.0937,0.91407 -0.16406,1.73438 -0.0703,0.79687 -0.14062,1.40625 -0.0703,0.58594 -0.0703,0.75 0.72657,0.23437 1.26563,0.35156 0.53906,0.11719 1.00781,0.1875 0.49219,0.0469 0.98438,0.11719 0.51562,0.0469 1.19531,0.16406 1.10156,0.1875 2.34375,0.28125 1.24219,0.0703 2.46094,-0.0469 1.21875,-0.11719 2.36718,-0.44532 1.17188,-0.35156 2.10938,-0.98437 0.9375,-0.65625 1.59375,-1.64063 0.67969,-0.98437 0.91406,-2.36718 0.1875,-1.03125 0.0703,-1.96875 -0.11718,-0.9375 -0.51562,-1.6875 -0.39844,-0.77344 -1.10156,-1.26563 -0.70313,-0.51562 -1.71094,-0.70312 -0.5625,-0.0937 -1.64063,-0.16407 -1.07812,-0.0937 -2.41406,-0.0937 -1.3125,0 -2.69531,0.0937 -1.38281,0.0937 -2.55469,0.30469 -1.14844,0.21094 -1.94531,0.60938 -0.77344,0.375 -0.86719,0.9375 z"
         style="font-style:normal;font-variant:normal;font-weight:normal;font-stretch:normal;font-size:48px;font-family:Lavi;-inkscape-font-specification:Lavi;text-align:center;text-anchor:middle"
         id="path3364"
         inkscape:connector-curvature="0" />
      <path
         d="m 242.55859,734.04132 q 0.375,-1.33594 0.67969,-2.88281 0.30469,-1.57031 0.53906,-3.23438 0.23438,-1.6875 0.39844,-3.42187 0.16406,-1.73438 0.28125,-3.44531 0.11719,-1.71094 0.16406,-3.32813 0.0703,-1.64062 0.0937,-3.07031 0.21094,-0.79688 0.60938,-1.17188 0.42187,-0.375 1.24219,-0.375 0.67968,0 1.24218,0.21094 0.58594,0.21094 0.82032,0.96094 l 0,5.85937 q 0,0.39844 -0.0234,1.28907 0,0.89062 -0.0469,2.08593 -0.0469,1.19532 -0.16406,2.57813 -0.0937,1.38281 -0.28125,2.76562 -0.1875,1.38282 -0.49219,2.67188 -0.28125,1.28906 -0.70312,2.27344 -0.39844,0.98437 -0.9375,1.59375 -0.53906,0.58593 -1.26563,0.58593 -0.39843,0 -0.84375,-0.14062 -0.42187,-0.14063 -0.77343,-0.39844 -0.32813,-0.28125 -0.49219,-0.63281 -0.16406,-0.35156 -0.0469,-0.77344 z m 1.03125,-27 q 0,-0.58594 0.28125,-1.24219 0.28125,-0.67968 0.72657,-1.21875 0.46875,-0.5625 1.05468,-0.91406 0.60938,-0.375 1.26563,-0.375 0.5625,0 1.14844,0.35156 0.58593,0.32813 1.05468,0.86719 0.49219,0.51563 0.79688,1.125 0.30469,0.60938 0.30469,1.17188 0,0.5625 -0.28125,1.14843 -0.28125,0.58594 -0.72657,1.07813 -0.44531,0.46875 -1.00781,0.77344 -0.53906,0.30468 -1.05469,0.30468 -0.5625,0 -1.19531,-0.25781 -0.63281,-0.28125 -1.17187,-0.70312 -0.51563,-0.44532 -0.86719,-0.98438 -0.32813,-0.5625 -0.32813,-1.125 z"
         style="font-style:normal;font-variant:normal;font-weight:normal;font-stretch:normal;font-size:48px;font-family:Lavi;-inkscape-font-specification:Lavi;text-align:center;text-anchor:middle"
         id="path3366"
         inkscape:connector-curvature="0" />
      <path
         d="m 251.23047,732.04913 q -0.0703,-0.30468 -0.16406,-0.49218 -0.0703,-0.21094 -0.0703,-0.51563 0,-0.42187 0.16407,-0.77344 0.1875,-0.375 0.46875,-0.63281 0.30468,-0.28125 0.67968,-0.42187 0.375,-0.16407 0.79688,-0.16407 l 0.0937,0 q 0.0234,0 0.14062,0.0469 0.11719,0.0234 0.25782,0.0703 0.14062,0.0234 0.25781,0.0703 0.11719,0.0234 0.16406,0.0234 0.70313,0.5625 1.61719,1.125 0.9375,0.5625 1.94531,1.03125 1.03125,0.44531 2.0625,0.72656 1.05469,0.28125 1.99219,0.28125 0.63281,0 1.3125,-0.14062 0.67969,-0.16406 1.24219,-0.46875 0.5625,-0.32813 0.91406,-0.82031 0.35156,-0.51563 0.35156,-1.21875 0,-1.28907 -0.5625,-2.03907 -0.53906,-0.75 -1.45312,-1.17187 -0.91407,-0.44531 -2.08594,-0.67969 -1.14844,-0.23437 -2.36719,-0.46875 -1.21875,-0.25781 -2.39062,-0.63281 -1.14844,-0.375 -2.0625,-1.10156 -0.91407,-0.72657 -1.47657,-1.89844 -0.53906,-1.19531 -0.53906,-3.04688 0,-1.75781 0.58594,-3.02343 0.58594,-1.26563 1.59375,-2.08594 1.03125,-0.82031 2.41406,-1.21875 1.40625,-0.39844 3.04688,-0.39844 0.58593,0 1.47656,0.0234 0.89062,0.0234 1.89844,0.14062 1.00781,0.0937 2.01562,0.32813 1.00781,0.21094 1.80469,0.58594 0.82031,0.35156 1.33594,0.91406 0.51562,0.5625 0.51562,1.35937 0,0.89063 -0.49219,1.45313 -0.49218,0.53906 -1.38281,0.53906 -0.91406,0 -1.80469,-0.1875 -0.86718,-0.1875 -1.75781,-0.39844 -0.86719,-0.23437 -1.75781,-0.42187 -0.86719,-0.1875 -1.75781,-0.1875 -0.75,0 -1.40625,0.0937 -0.63282,0.0703 -1.125,0.32812 -0.46875,0.25782 -0.75,0.75 -0.28125,0.49219 -0.28125,1.3125 0,0.98438 0.53906,1.61719 0.5625,0.60938 1.47656,1.03125 0.91406,0.39844 2.0625,0.67969 1.17188,0.25781 2.36719,0.5625 1.21875,0.28125 2.36719,0.67969 1.17187,0.375 2.08593,1.03125 0.91407,0.63281 1.45313,1.59375 0.5625,0.96093 0.5625,2.41406 l 0,2.97656 q 0,0.86719 -0.39844,1.61719 -0.39844,0.72656 -1.07812,1.33594 -0.65625,0.58593 -1.5,1.05468 -0.84375,0.44532 -1.73438,0.75 -0.89062,0.30469 -1.73437,0.44532 -0.84375,0.16406 -1.52344,0.16406 -1.33594,0 -2.83594,-0.32813 -1.47656,-0.32812 -2.88281,-0.91406 -1.40625,-0.60937 -2.64844,-1.42969 -1.21875,-0.84375 -2.03906,-1.875 z"
         style="font-style:normal;font-variant:normal;font-weight:normal;font-stretch:normal;font-size:48px;font-family:Lavi;-inkscape-font-specification:Lavi;text-align:center;text-anchor:middle"
         id="path3368"
         inkscape:connector-curvature="0" />
      <path
         d="m 272.04297,725.69757 q 0,-2.55469 0.96094,-4.94531 0.98437,-2.39063 2.67187,-4.24219 1.6875,-1.85156 3.98438,-2.95312 2.29687,-1.125 4.96875,-1.125 2.74218,0 4.73437,0.9375 2.01563,0.9375 3.30469,2.53125 1.3125,1.59375 1.94531,3.70312 0.63281,2.10938 0.63281,4.47656 0,1.14844 -0.28125,2.55469 -0.28125,1.38281 -0.82031,2.8125 -0.53906,1.42969 -1.33594,2.78906 -0.79687,1.35938 -1.82812,2.41407 -1.00781,1.03125 -2.27344,1.66406 -1.24219,0.63281 -2.67187,0.63281 l -4.42969,0 q -2.55469,0 -4.38281,-0.98437 -1.80469,-1.00782 -2.95313,-2.60157 -1.14844,-1.61718 -1.6875,-3.63281 -0.53906,-2.01562 -0.53906,-4.03125 z m 4.78125,0.35156 q 0,1.66407 0.35156,2.85938 0.35156,1.19531 1.14844,1.96875 0.79687,0.75 2.08594,1.125 1.28906,0.35156 3.14062,0.35156 1.66406,0 2.97656,-0.75 1.3125,-0.77344 2.22657,-1.96875 0.91406,-1.21875 1.40625,-2.71875 0.49218,-1.52344 0.49218,-3.02344 0,-1.40625 -0.35156,-2.625 -0.32812,-1.21875 -1.07812,-2.10937 -0.72657,-0.91406 -1.92188,-1.42969 -1.17187,-0.51562 -2.85937,-0.51562 -1.5,0 -2.78907,0.58593 -1.26562,0.58594 -2.25,1.57032 -0.98437,0.98437 -1.66406,2.27343 -0.65625,1.26563 -0.91406,2.625 l 0,1.78125 z m 14.60156,-28.82812 -2.8125,-1.82813 -7.07812,10.59375 3.42187,1.64063 6.46875,-10.40625 z"
         style="font-style:normal;font-variant:normal;font-weight:normal;font-stretch:normal;font-size:48px;font-family:Lavi;-inkscape-font-specification:Lavi;text-align:center;text-anchor:middle"
         id="path3370"
         inkscape:connector-curvature="0" />
      <path
         d="m 314.23047,735.04913 q -0.65625,0 -1.33594,0.14063 -0.65625,0.14062 -1.33594,0.30469 -0.65625,0.14062 -1.33593,0.28125 -0.67969,0.14062 -1.35938,0.14062 -2.55469,0 -4.61719,-0.86719 -2.0625,-0.86718 -3.51562,-2.41406 -1.42969,-1.54687 -2.20313,-3.65625 -0.77343,-2.10937 -0.77343,-4.59375 0,-2.41406 0.84375,-4.3125 0.84375,-1.89844 2.32031,-3.21094 1.5,-1.3125 3.53906,-1.99218 2.03906,-0.70313 4.40625,-0.70313 1.00781,0 1.99219,0.23438 1.00781,0.21093 1.99219,0.49218 1.00781,0.28125 1.96875,0.51563 0.98437,0.21094 1.94531,0.21094 l 0.14062,0 0.58594,-15.09375 q 0,-0.35157 0.21094,-0.60938 0.21094,-0.28125 0.51562,-0.46875 0.30469,-0.1875 0.65625,-0.28125 0.35157,-0.0937 0.65625,-0.0937 0.28125,0 0.63282,0.11719 0.35156,0.11719 0.65625,0.32812 0.32812,0.21094 0.53906,0.51563 0.21094,0.28125 0.21094,0.63281 l 0,5.8125 -0.89063,15.375 q -0.0234,0.16406 -0.0937,0.79688 -0.0703,0.60937 -0.1875,1.47656 -0.11719,0.86719 -0.25781,1.92187 -0.14063,1.03125 -0.28125,2.03907 -0.14063,1.00781 -0.25781,1.89843 -0.11719,0.86719 -0.21094,1.42969 -0.0234,0.21094 -0.14063,0.79688 -0.11718,0.58593 -0.25781,1.24218 -0.14062,0.65625 -0.28125,1.24219 -0.14062,0.5625 -0.1875,0.77344 -0.23437,0.77344 -0.82031,1.10156 -0.58594,0.35156 -1.28906,0.35156 -0.44532,0 -0.79688,-0.30468 -0.32812,-0.28125 -0.60937,-0.63282 -0.25782,-0.35156 -0.44532,-0.63281 -0.1875,-0.30469 -0.32812,-0.30469 z m -12.28125,-10.59375 q 0,1.61719 0.46875,2.92969 0.49219,1.28906 1.38281,2.22656 0.89063,0.9375 2.15625,1.45313 1.28906,0.49219 2.90625,0.49219 0.42188,0 1.05469,-0.0469 0.63281,-0.0469 1.33594,-0.14062 0.70312,-0.11719 1.40625,-0.30469 0.72656,-0.1875 1.3125,-0.46875 0.60937,-0.28125 1.00781,-0.67969 0.39844,-0.42187 0.46875,-0.96094 l 1.03125,-7.96875 0,-0.14062 q 0,-0.51563 -0.46875,-0.86719 -0.44531,-0.375 -1.17188,-0.63281 -0.70312,-0.25781 -1.59375,-0.42188 -0.86718,-0.16406 -1.71093,-0.23437 -0.82032,-0.0937 -1.5,-0.11719 -0.67969,-0.0469 -1.03125,-0.0469 -1.47657,0 -2.76563,0.32812 -1.26562,0.30469 -2.22656,1.00781 -0.96094,0.70313 -1.52344,1.85157 -0.53906,1.125 -0.53906,2.74218 z"
         style="font-style:normal;font-variant:normal;font-weight:normal;font-stretch:normal;font-size:48px;font-family:Lavi;-inkscape-font-specification:Lavi;text-align:center;text-anchor:middle"
         id="path3372"
         inkscape:connector-curvature="0" />
      <path
         d="m 323.93359,734.04132 q 0.375,-1.33594 0.67969,-2.88281 0.30469,-1.57031 0.53906,-3.23438 0.23438,-1.6875 0.39844,-3.42187 0.16406,-1.73438 0.28125,-3.44531 0.11719,-1.71094 0.16406,-3.32813 0.0703,-1.64062 0.0937,-3.07031 0.21094,-0.79688 0.60938,-1.17188 0.42187,-0.375 1.24219,-0.375 0.67968,0 1.24218,0.21094 0.58594,0.21094 0.82032,0.96094 l 0,5.85937 q 0,0.39844 -0.0234,1.28907 0,0.89062 -0.0469,2.08593 -0.0469,1.19532 -0.16406,2.57813 -0.0937,1.38281 -0.28125,2.76562 -0.1875,1.38282 -0.49219,2.67188 -0.28125,1.28906 -0.70312,2.27344 -0.39844,0.98437 -0.9375,1.59375 -0.53906,0.58593 -1.26563,0.58593 -0.39843,0 -0.84375,-0.14062 -0.42187,-0.14063 -0.77343,-0.39844 -0.32813,-0.28125 -0.49219,-0.63281 -0.16406,-0.35156 -0.0469,-0.77344 z m 1.03125,-27 q 0,-0.58594 0.28125,-1.24219 0.28125,-0.67968 0.72657,-1.21875 0.46875,-0.5625 1.05468,-0.91406 0.60938,-0.375 1.26563,-0.375 0.5625,0 1.14844,0.35156 0.58593,0.32813 1.05468,0.86719 0.49219,0.51563 0.79688,1.125 0.30469,0.60938 0.30469,1.17188 0,0.5625 -0.28125,1.14843 -0.28125,0.58594 -0.72657,1.07813 -0.44531,0.46875 -1.00781,0.77344 -0.53906,0.30468 -1.05469,0.30468 -0.5625,0 -1.19531,-0.25781 -0.63281,-0.28125 -1.17187,-0.70312 -0.51563,-0.44532 -0.86719,-0.98438 -0.32813,-0.5625 -0.32813,-1.125 z"
         style="font-style:normal;font-variant:normal;font-weight:normal;font-stretch:normal;font-size:48px;font-family:Lavi;-inkscape-font-specification:Lavi;text-align:center;text-anchor:middle"
         id="path3374"
         inkscape:connector-curvature="0" />
      <path
         d="m 333.00391,725.69757 q 0,-2.55469 0.96093,-4.94531 0.98438,-2.39063 2.67188,-4.24219 1.6875,-1.85156 3.98437,-2.95312 2.29688,-1.125 4.96875,-1.125 2.74219,0 4.73438,0.9375 2.01562,0.9375 3.30469,2.53125 1.3125,1.59375 1.94531,3.70312 0.63281,2.10938 0.63281,4.47656 0,1.14844 -0.28125,2.55469 -0.28125,1.38281 -0.82031,2.8125 -0.53906,1.42969 -1.33594,2.78906 -0.79687,1.35938 -1.82812,2.41407 -1.00782,1.03125 -2.27344,1.66406 -1.24219,0.63281 -2.67188,0.63281 l -4.42968,0 q -2.55469,0 -4.38282,-0.98437 -1.80468,-1.00782 -2.95312,-2.60157 -1.14844,-1.61718 -1.6875,-3.63281 -0.53906,-2.01562 -0.53906,-4.03125 z m 4.78125,0.35156 q 0,1.66407 0.35156,2.85938 0.35156,1.19531 1.14844,1.96875 0.79687,0.75 2.08593,1.125 1.28907,0.35156 3.14063,0.35156 1.66406,0 2.97656,-0.75 1.3125,-0.77344 2.22656,-1.96875 0.91407,-1.21875 1.40625,-2.71875 0.49219,-1.52344 0.49219,-3.02344 0,-1.40625 -0.35156,-2.625 -0.32813,-1.21875 -1.07813,-2.10937 -0.72656,-0.91406 -1.92187,-1.42969 -1.17188,-0.51562 -2.85938,-0.51562 -1.5,0 -2.78906,0.58593 -1.26562,0.58594 -2.25,1.57032 -0.98437,0.98437 -1.66406,2.27343 -0.65625,1.26563 -0.91406,2.625 l 0,1.78125 z"
         style="font-style:normal;font-variant:normal;font-weight:normal;font-stretch:normal;font-size:48px;font-family:Lavi;-inkscape-font-specification:Lavi;text-align:center;text-anchor:middle"
         id="path3376"
         inkscape:connector-curvature="0" />
      <path
         d="m 391.10547,731.53351 2.8125,0.53906 q 0.51562,0.0937 0.70312,0.21094 0.32813,0.23437 0.5625,0.5625 0.23438,0.32812 0.35157,0.72656 0.14062,0.375 0.14062,0.70313 0,0.28125 -0.11719,0.63281 -0.0937,0.32812 -0.28125,0.63281 -0.1875,0.28125 -0.46875,0.49219 -0.25781,0.21094 -0.58593,0.21094 l -15.09375,0 q -0.5625,0 -1.125,-0.0703 -0.53907,-0.0703 -0.98438,-0.28125 -0.42187,-0.23437 -0.70312,-0.63281 -0.25782,-0.42187 -0.25782,-1.07812 0,-0.35157 0.0703,-0.75 0.0937,-0.39844 0.28125,-0.72657 0.21093,-0.32812 0.51562,-0.53906 0.30469,-0.23437 0.75,-0.23437 l 8.78906,0 0,-22.89844 0,-0.44531 q -0.79687,0.60937 -1.6875,1.19531 -0.89062,0.5625 -1.85156,1.03125 -0.9375,0.44531 -1.94531,0.72656 -1.00781,0.25781 -2.0625,0.25781 l -0.79688,0 q -0.72656,-0.25781 -1.03125,-0.75 -0.30468,-0.51562 -0.30468,-1.28906 0,-0.63281 0.35156,-1.10156 0.35156,-0.46875 0.91406,-0.82031 0.5625,-0.35157 1.24219,-0.60938 0.70312,-0.28125 1.40625,-0.51562 0.70312,-0.25782 1.33594,-0.49219 0.63281,-0.25781 1.05468,-0.5625 1.33594,-0.98438 2.53125,-2.17969 1.19532,-1.19531 2.29688,-2.34375 0.23437,-0.1875 0.51562,-0.25781 0.28125,-0.0469 0.58594,-0.0469 0.9375,0 1.52344,0.65625 0.58594,0.65625 0.58594,1.61719 l 0,0.21094 -0.0234,28.21875 z"
         style="font-style:normal;font-variant:normal;font-weight:normal;font-stretch:normal;font-size:48px;font-family:Lavi;-inkscape-font-specification:Lavi;text-align:center;text-anchor:middle"
         id="path3378"
         inkscape:connector-curvature="0" />
      <path
         d="m 399.98828,715.68976 q 0.42188,-3.04688 1.6875,-5.76563 1.28906,-2.74218 3.30469,-4.80468 2.01562,-2.08594 4.71094,-3.30469 2.69531,-1.21875 5.95312,-1.21875 0.46875,0 1.14844,-0.0469 0.67969,-0.0703 1.40625,-0.0937 0.75,-0.0234 1.5,0.0469 0.75,0.0469 1.33594,0.25781 0.58593,0.21094 0.9375,0.65625 0.375,0.42188 0.375,1.125 0,0.89063 -0.63282,1.42969 -0.63281,0.53906 -1.47656,0.53906 -1.14844,0 -2.27344,0.14063 -1.125,0.14062 -2.32031,0.14062 -2.15625,0 -4.21875,0.86719 -2.0625,0.84375 -3.67969,2.34375 -1.59375,1.47656 -2.57812,3.49219 -0.98438,1.99218 -0.98438,4.26562 l 0,0.35156 q 0.9375,-0.70312 1.96875,-1.33593 1.03125,-0.65625 2.13282,-1.125 1.10156,-0.46875 2.27343,-0.75 1.17188,-0.28125 2.41407,-0.28125 2.60156,0 4.66406,1.00781 2.0625,1.00781 3.51562,2.69531 1.45313,1.6875 2.22657,3.91406 0.77343,2.22657 0.77343,4.66407 0,1.47656 -0.53906,2.92968 -0.53906,1.45313 -1.47656,2.76563 -0.9375,1.28906 -2.20313,2.41406 -1.24218,1.10156 -2.69531,1.92188 -1.42969,0.79687 -3,1.26562 -1.54687,0.44531 -3.07031,0.44531 -2.50781,0 -4.3125,-0.72656 -1.80469,-0.75 -3.04688,-2.01562 -1.24218,-1.28907 -1.99218,-3.02344 -0.75,-1.73438 -1.17188,-3.72656 -0.39844,-2.01563 -0.53906,-4.17188 -0.11719,-2.17969 -0.11719,-4.35937 l 0,-2.92969 z m 4.19531,6.49219 q 0,1.96875 0.28125,3.82031 0.28125,1.85156 1.03125,3.28125 0.77344,1.42969 2.08594,2.29687 1.3125,0.86719 3.375,0.86719 l 1.33594,0 q 0.79687,-0.1875 1.6875,-0.58594 0.89062,-0.39843 1.75781,-0.9375 0.86719,-0.53906 1.66406,-1.21875 0.79688,-0.67968 1.38282,-1.42968 0.60937,-0.77344 0.96093,-1.59375 0.35157,-0.84375 0.35157,-1.71094 0,-1.64063 -0.46875,-3.11719 -0.44532,-1.5 -1.33594,-2.60156 -0.89063,-1.125 -2.22656,-1.78125 -1.33594,-0.65625 -3.09375,-0.65625 -0.60938,0 -1.5,0.21094 -0.89063,0.1875 -1.875,0.5625 -0.96094,0.35156 -1.94532,0.86718 -0.96093,0.49219 -1.73437,1.10157 -0.77344,0.58593 -1.26563,1.26562 -0.46875,0.65625 -0.46875,1.35938 z"
         style="font-style:normal;font-variant:normal;font-weight:normal;font-stretch:normal;font-size:48px;font-family:Lavi;-inkscape-font-specification:Lavi;text-align:center;text-anchor:middle"
         id="path3380"
         inkscape:connector-curvature="0" />
      <path
         d="m 428.37109,732.7757 q 0,-0.70313 0.25782,-1.33594 0.28125,-0.63281 0.72656,-1.10156 0.46875,-0.46875 1.10156,-0.72657 0.63281,-0.28125 1.33594,-0.28125 0.70312,0 1.33594,0.28125 0.63281,0.25782 1.10156,0.72657 0.46875,0.46875 0.72656,1.10156 0.28125,0.63281 0.28125,1.33594 0,0.70312 -0.28125,1.33593 -0.25781,0.63282 -0.72656,1.10157 -0.46875,0.44531 -1.10156,0.72656 -0.63282,0.25781 -1.33594,0.25781 -0.70313,0 -1.33594,-0.25781 -0.63281,-0.28125 -1.10156,-0.72656 -0.44531,-0.46875 -0.72656,-1.10157 -0.25782,-0.63281 -0.25782,-1.33593 z m -0.1875,-19.40625 q 0,-0.70313 0.25782,-1.33594 0.28125,-0.63281 0.72656,-1.10156 0.46875,-0.46875 1.10156,-0.72657 0.63281,-0.28125 1.33594,-0.28125 0.70312,0 1.33594,0.28125 0.63281,0.25782 1.10156,0.72657 0.46875,0.46875 0.72656,1.10156 0.28125,0.63281 0.28125,1.33594 0,0.70312 -0.28125,1.33593 -0.25781,0.63282 -0.72656,1.10157 -0.46875,0.44531 -1.10156,0.72656 -0.63282,0.25781 -1.33594,0.25781 -0.70313,0 -1.33594,-0.25781 -0.63281,-0.28125 -1.10156,-0.72656 -0.44531,-0.46875 -0.72656,-1.10157 -0.25782,-0.63281 -0.25782,-1.33593 z"
         style="font-style:normal;font-variant:normal;font-weight:normal;font-stretch:normal;font-size:48px;font-family:Lavi;-inkscape-font-specification:Lavi;text-align:center;text-anchor:middle"
         id="path3382"
         inkscape:connector-curvature="0" />
      <path
         d="m 456.80078,718.3382 q 0,-2.15625 0.58594,-4.3125 0.58594,-2.17969 1.64062,-4.14844 1.07813,-1.99219 2.57813,-3.70313 1.5,-1.73437 3.32812,-2.97656 1.85157,-1.26562 3.96094,-1.99219 2.13281,-0.72656 4.42969,-0.72656 2.27344,0 4.14844,0.89063 1.89843,0.86718 3.42187,2.34375 1.52344,1.47656 2.64844,3.42187 1.14844,1.94531 1.89844,4.07813 0.77343,2.10937 1.14843,4.28906 0.39844,2.15625 0.39844,4.10156 0,1.78125 -0.42187,3.65625 -0.42188,1.875 -1.21875,3.67969 -0.77344,1.78125 -1.92188,3.42187 -1.125,1.64063 -2.57812,2.95313 -1.45313,1.3125 -3.1875,2.22656 -1.73438,0.89063 -3.70313,1.21875 l -2.0625,0 q -3.98437,0 -6.84375,-1.42969 -2.83594,-1.45312 -4.6875,-3.9375 -1.82812,-2.50781 -2.69531,-5.85937 -0.86719,-3.375 -0.86719,-7.19531 z m 4.00781,0.14062 q 0,2.92969 0.58594,5.53125 0.58594,2.60156 1.89844,4.54688 1.33594,1.94531 3.44531,3.07031 2.10938,1.125 5.15625,1.125 1.64063,0 3.09375,-0.5625 1.47656,-0.58594 2.69531,-1.57031 1.24219,-0.98438 2.20313,-2.27344 0.98437,-1.3125 1.66406,-2.76563 0.70313,-1.45312 1.05469,-2.95312 0.375,-1.52344 0.375,-2.95313 0,-1.35937 -0.25781,-3 -0.25782,-1.64062 -0.77344,-3.30468 -0.51563,-1.66407 -1.3125,-3.23438 -0.79688,-1.59375 -1.875,-2.8125 -1.07813,-1.21875 -2.46094,-1.94531 -1.35937,-0.75 -3.04687,-0.75 -1.73438,0 -3.35157,0.58594 -1.59375,0.5625 -2.97656,1.57031 -1.38281,1.00781 -2.50781,2.36719 -1.125,1.33593 -1.94531,2.88281 -0.79688,1.54687 -1.24219,3.21094 -0.42188,1.64062 -0.42188,3.23437 z"
         style="font-style:normal;font-variant:normal;font-weight:normal;font-stretch:normal;font-size:48px;font-family:Lavi;-inkscape-font-specification:Lavi;text-align:center;text-anchor:middle"
         id="path3384"
         inkscape:connector-curvature="0" />
      <path
         d="m 507.47266,729.79913 q 0,-0.82031 0.51562,-1.40625 0.51563,-0.58593 1.40625,-0.58593 0.49219,0 1.03125,0.32812 0.53906,0.32813 1.17188,0.82031 0.63281,0.46875 1.35937,1.05469 0.75,0.5625 1.64063,1.05469 0.91406,0.46875 1.99218,0.79687 1.10157,0.32813 2.41407,0.32813 0.96093,0 2.20312,-0.16406 1.26563,-0.16407 2.57813,-0.51563 1.3125,-0.35156 2.55468,-0.89062 1.26563,-0.53907 2.25,-1.3125 1.00782,-0.79688 1.61719,-1.80469 0.60938,-1.03125 0.60938,-2.32031 0,-0.89063 -0.44532,-1.61719 -0.42187,-0.75 -1.10156,-1.3125 -0.67969,-0.58594 -1.5,-0.98438 -0.82031,-0.39843 -1.61719,-0.60937 l -10.3125,-2.74219 q -1.125,-0.30469 -2.27343,-0.79687 -1.125,-0.49219 -2.08594,-1.21875 -0.96094,-0.72657 -1.66406,-1.6875 -0.70313,-0.96094 -0.96094,-2.20313 l 0,-1.42969 q 0,-2.01562 0.63281,-3.67968 0.63281,-1.6875 1.78125,-2.92969 1.14844,-1.26563 2.76563,-2.03906 1.61718,-0.79688 3.60937,-1.03125 0.11719,0 0.44531,0 0.35157,-0.0234 0.72657,-0.0234 0.39843,-0.0234 0.72656,-0.0234 0.35156,-0.0234 0.49219,-0.0234 0.58593,0 1.71093,0.0234 1.14844,0 2.50782,0.11719 1.38281,0.0937 2.78906,0.30469 1.42969,0.21093 2.60156,0.60937 1.17188,0.39844 1.92188,1.00781 0.75,0.60938 0.75,1.5 0,0.82032 -0.51563,1.40625 -0.51562,0.58594 -1.40625,0.58594 l -0.28125,0 q -2.53125,-0.5625 -5.01562,-1.03125 -2.48438,-0.46875 -5.0625,-0.46875 -1.47657,0 -2.78907,0.28125 -1.28906,0.25781 -2.27343,0.9375 -0.98438,0.65625 -1.57032,1.75781 -0.5625,1.10157 -0.5625,2.78907 0,0.67968 0.32813,1.19531 0.32812,0.51562 0.82031,0.91406 0.49219,0.375 1.10156,0.63281 0.60938,0.25782 1.17188,0.39844 l 9.89062,2.625 q 1.61719,0.42188 3.16407,1.17188 1.57031,0.72656 2.76562,1.80468 1.21875,1.07813 1.96875,2.53125 0.75,1.42969 0.75,3.25782 0,1.92187 -0.75,3.49218 -0.72656,1.57032 -1.96875,2.8125 -1.21875,1.24219 -2.83594,2.15625 -1.61718,0.89063 -3.39843,1.5 -1.75782,0.58594 -3.5625,0.89063 -1.78125,0.28125 -3.35157,0.28125 -0.84375,0 -2.01562,-0.14063 -1.17188,-0.16406 -2.46094,-0.49218 -1.26562,-0.32813 -2.53125,-0.84375 -1.24219,-0.51563 -2.22656,-1.24219 -0.98438,-0.72656 -1.61719,-1.66406 -0.60937,-0.9375 -0.60937,-2.13282 z"
         style="font-style:normal;font-variant:normal;font-weight:normal;font-stretch:normal;font-size:48px;font-family:Lavi;-inkscape-font-specification:Lavi;text-align:center;text-anchor:middle"
         id="path3386"
         inkscape:connector-curvature="0" />
      <path
         d="m 537.07422,725.04132 q 0,-3.44531 1.125,-5.88281 1.125,-2.46094 3.14062,-4.00781 2.01563,-1.54688 4.78125,-2.27344 2.78907,-0.72656 6.11719,-0.72656 0.25781,0 0.91406,-0.0234 0.65625,-0.0234 1.47657,0.0234 0.84375,0.0234 1.73437,0.11718 0.89063,0.0937 1.64063,0.35157 0.75,0.23437 1.24218,0.65625 0.49219,0.39843 0.51563,1.03125 l 0.49219,11.95312 q 0.0234,1.03125 0.28125,2.08594 0.28125,1.03125 0.58593,2.0625 0.30469,1.03125 0.53907,2.0625 0.25781,1.00781 0.25781,1.96875 0,1.00781 -0.60938,1.71094 -0.58593,0.70312 -1.64062,0.70312 -0.98438,0 -1.52344,-0.46875 -0.53906,-0.46875 -0.86719,-1.14844 -0.30468,-0.67968 -0.53906,-1.45312 -0.23437,-0.77344 -0.63281,-1.40625 -1.05469,0.89062 -2.13281,1.71094 -1.05469,0.82031 -2.22657,1.42968 -1.14843,0.60938 -2.4375,0.96094 -1.26562,0.375 -2.71875,0.375 -2.67187,0 -4.5,-0.98437 -1.80468,-0.98438 -2.92968,-2.625 -1.10157,-1.64063 -1.59375,-3.77344 -0.49219,-2.13281 -0.49219,-4.42969 z m 4.80469,0.0937 q 0,1.14844 0.16406,2.36719 0.16406,1.21875 0.65625,2.22656 0.49219,1.00781 1.40625,1.66406 0.91406,0.65625 2.41406,0.65625 1.26563,0 2.55469,-0.5625 1.3125,-0.5625 2.39062,-1.47656 1.07813,-0.9375 1.85157,-2.13281 0.77343,-1.19531 0.98437,-2.46094 0.0469,-0.86719 0.11719,-1.5 0.0703,-0.63281 0.11719,-1.125 0.0469,-0.51562 0.0937,-0.9375 0.0469,-0.44531 0.0703,-0.9375 0.0469,-0.49219 0.0703,-1.07812 0.0234,-0.58594 0.0234,-1.38282 l 0,-1.33593 q -0.5625,-0.1875 -1.14844,-0.16407 -0.5625,0 -1.17187,0 -2.32032,0 -4.26563,0.35157 -1.94531,0.32812 -3.35156,1.24218 -1.40625,0.91407 -2.20313,2.50782 -0.77343,1.59375 -0.77343,4.07812 z m 14.55468,-27.91406 -2.8125,-1.82813 -7.07812,10.59375 3.42187,1.64063 6.46875,-10.40625 z"
         style="font-style:normal;font-variant:normal;font-weight:normal;font-stretch:normal;font-size:48px;font-family:Lavi;-inkscape-font-specification:Lavi;text-align:center;text-anchor:middle"
         id="path3388"
         inkscape:connector-curvature="0" />
      <path
         d="m 563.60547,734.29913 1.5,-8.25 q 0.0234,-0.25781 0.11719,-1.24218 0.11718,-0.98438 0.23437,-2.41407 0.14063,-1.42968 0.28125,-3.11718 0.16406,-1.71094 0.30469,-3.35157 0.14062,-1.66406 0.23437,-3.11718 0.11719,-1.45313 0.1875,-2.39063 0.0234,-0.42187 0.0469,-1.28906 0.0234,-0.86719 0.0469,-1.96875 0.0469,-1.10156 0.0703,-2.29688 0.0469,-1.21875 0.0703,-2.32031 0.0234,-1.10156 0.0469,-1.94531 0.0234,-0.86719 0.0234,-1.28906 0.21094,-0.79688 0.77344,-1.28907 0.5625,-0.51562 1.40625,-0.51562 0.67969,0 1.21875,0.42187 0.5625,0.39844 0.79687,1.07813 l 0,4.57031 q 0,1.75781 -0.0703,3.1875 -0.0703,1.40625 -0.16406,2.76563 -0.0703,1.33593 -0.14063,2.76562 -0.0703,1.40625 -0.0703,3.16406 l 6.91406,-0.53906 q 1.57032,0 3.09375,0.53906 1.52344,0.53907 2.88282,1.5 1.35937,0.96094 2.48437,2.25 1.14844,1.28907 1.96875,2.78907 0.82031,1.5 1.28906,3.16406 0.46875,1.64062 0.46875,3.28125 0,1.89844 -0.60937,3.39844 -0.58594,1.5 -1.6875,2.55468 -1.07813,1.03125 -2.625,1.59375 -1.52344,0.5625 -3.42188,0.5625 -3.42187,0 -6.60937,-0.60937 -3.16406,-0.63281 -6.09375,-2.15625 -0.25781,0.58594 -0.39844,1.125 -0.14062,0.51562 -0.39844,0.9375 -0.23437,0.39844 -0.67968,0.63281 -0.44532,0.23438 -1.3125,0.23438 -0.89063,0 -1.54688,-0.5625 -0.63281,-0.5625 -0.63281,-1.54688 l 0,-0.30469 z m 5.85937,-5.85937 q 0,0.58594 0.70313,1.10156 0.70312,0.49219 1.80469,0.91406 1.125,0.42188 2.46093,0.75 1.35938,0.32813 2.64844,0.5625 1.3125,0.21094 2.39063,0.32813 1.07812,0.11719 1.64062,0.11719 2.03906,0 3,-0.86719 0.98438,-0.89063 0.98438,-2.97656 0,-2.10938 -0.98438,-3.79688 -0.98437,-1.6875 -2.50781,-2.85937 -1.52344,-1.17188 -3.35156,-1.80469 -1.82813,-0.63281 -3.51563,-0.63281 -0.67969,0 -1.21875,0.0937 -0.51562,0.0937 -1.03125,0.21093 -0.51562,0.11719 -1.10156,0.28125 -0.5625,0.14063 -1.3125,0.23438 -0.0234,0.16406 -0.0703,0.77344 -0.0469,0.58593 -0.11719,1.40625 -0.0469,0.82031 -0.11719,1.73437 -0.0703,0.91406 -0.14062,1.73438 -0.0469,0.82031 -0.0937,1.42968 -0.0469,0.58594 -0.0703,0.75 l 0,0.51563 z"
         style="font-style:normal;font-variant:normal;font-weight:normal;font-stretch:normal;font-size:48px;font-family:Lavi;-inkscape-font-specification:Lavi;text-align:center;text-anchor:middle"
         id="path3390"
         inkscape:connector-curvature="0" />
      <path
         d="m 591.40234,734.04132 q 0.375,-1.33594 0.67969,-2.88281 0.30469,-1.57031 0.53906,-3.23438 0.23438,-1.6875 0.39844,-3.42187 0.16406,-1.73438 0.28125,-3.44531 0.11719,-1.71094 0.16406,-3.32813 0.0703,-1.64062 0.0937,-3.07031 0.21094,-0.79688 0.60938,-1.17188 0.42187,-0.375 1.24219,-0.375 0.67968,0 1.24218,0.21094 0.58594,0.21094 0.82032,0.96094 l 0,5.85937 q 0,0.39844 -0.0234,1.28907 0,0.89062 -0.0469,2.08593 -0.0469,1.19532 -0.16406,2.57813 -0.0937,1.38281 -0.28125,2.76562 -0.1875,1.38282 -0.49219,2.67188 -0.28125,1.28906 -0.70312,2.27344 -0.39844,0.98437 -0.9375,1.59375 -0.53906,0.58593 -1.26563,0.58593 -0.39843,0 -0.84375,-0.14062 -0.42187,-0.14063 -0.77343,-0.39844 -0.32813,-0.28125 -0.49219,-0.63281 -0.16406,-0.35156 -0.0469,-0.77344 z m 1.03125,-27 q 0,-0.58594 0.28125,-1.24219 0.28125,-0.67968 0.72657,-1.21875 0.46875,-0.5625 1.05468,-0.91406 0.60938,-0.375 1.26563,-0.375 0.5625,0 1.14844,0.35156 0.58593,0.32813 1.05468,0.86719 0.49219,0.51563 0.79688,1.125 0.30469,0.60938 0.30469,1.17188 0,0.5625 -0.28125,1.14843 -0.28125,0.58594 -0.72657,1.07813 -0.44531,0.46875 -1.00781,0.77344 -0.53906,0.30468 -1.05469,0.30468 -0.5625,0 -1.19531,-0.25781 -0.63281,-0.28125 -1.17187,-0.70312 -0.51563,-0.44532 -0.86719,-0.98438 -0.32813,-0.5625 -0.32813,-1.125 z"
         style="font-style:normal;font-variant:normal;font-weight:normal;font-stretch:normal;font-size:48px;font-family:Lavi;-inkscape-font-specification:Lavi;text-align:center;text-anchor:middle"
         id="path3392"
         inkscape:connector-curvature="0" />
      <path
         d="m 600.47266,725.69757 q 0,-2.55469 0.96093,-4.94531 0.98438,-2.39063 2.67188,-4.24219 1.6875,-1.85156 3.98437,-2.95312 2.29688,-1.125 4.96875,-1.125 2.74219,0 4.73438,0.9375 2.01562,0.9375 3.30469,2.53125 1.3125,1.59375 1.94531,3.70312 0.63281,2.10938 0.63281,4.47656 0,1.14844 -0.28125,2.55469 -0.28125,1.38281 -0.82031,2.8125 -0.53906,1.42969 -1.33594,2.78906 -0.79687,1.35938 -1.82812,2.41407 -1.00782,1.03125 -2.27344,1.66406 -1.24219,0.63281 -2.67188,0.63281 l -4.42968,0 q -2.55469,0 -4.38282,-0.98437 -1.80468,-1.00782 -2.95312,-2.60157 -1.14844,-1.61718 -1.6875,-3.63281 -0.53906,-2.01562 -0.53906,-4.03125 z m 4.78125,0.35156 q 0,1.66407 0.35156,2.85938 0.35156,1.19531 1.14844,1.96875 0.79687,0.75 2.08593,1.125 1.28907,0.35156 3.14063,0.35156 1.66406,0 2.97656,-0.75 1.3125,-0.77344 2.22656,-1.96875 0.91407,-1.21875 1.40625,-2.71875 0.49219,-1.52344 0.49219,-3.02344 0,-1.40625 -0.35156,-2.625 -0.32813,-1.21875 -1.07813,-2.10937 -0.72656,-0.91406 -1.92187,-1.42969 -1.17188,-0.51562 -2.85938,-0.51562 -1.5,0 -2.78906,0.58593 -1.26562,0.58594 -2.25,1.57032 -0.98437,0.98437 -1.66406,2.27343 -0.65625,1.26563 -0.91406,2.625 l 0,1.78125 z"
         style="font-style:normal;font-variant:normal;font-weight:normal;font-stretch:normal;font-size:48px;font-family:Lavi;-inkscape-font-specification:Lavi;text-align:center;text-anchor:middle"
         id="path3394"
         inkscape:connector-curvature="0" />
      <path
         d="m 658.94922,735.04913 q -0.65625,0 -1.33594,0.14063 -0.65625,0.14062 -1.33594,0.30469 -0.65625,0.14062 -1.33593,0.28125 -0.67969,0.14062 -1.35938,0.14062 -2.55469,0 -4.61719,-0.86719 -2.0625,-0.86718 -3.51562,-2.41406 -1.42969,-1.54687 -2.20313,-3.65625 -0.77343,-2.10937 -0.77343,-4.59375 0,-2.41406 0.84375,-4.3125 0.84375,-1.89844 2.32031,-3.21094 1.5,-1.3125 3.53906,-1.99218 2.03906,-0.70313 4.40625,-0.70313 1.00781,0 1.99219,0.23438 1.00781,0.21093 1.99219,0.49218 1.00781,0.28125 1.96875,0.51563 0.98437,0.21094 1.94531,0.21094 l 0.14062,0 0.58594,-15.09375 q 0,-0.35157 0.21094,-0.60938 0.21094,-0.28125 0.51562,-0.46875 0.30469,-0.1875 0.65625,-0.28125 0.35157,-0.0937 0.65625,-0.0937 0.28125,0 0.63282,0.11719 0.35156,0.11719 0.65625,0.32812 0.32812,0.21094 0.53906,0.51563 0.21094,0.28125 0.21094,0.63281 l 0,5.8125 -0.89063,15.375 q -0.0234,0.16406 -0.0937,0.79688 -0.0703,0.60937 -0.1875,1.47656 -0.11719,0.86719 -0.25781,1.92187 -0.14063,1.03125 -0.28125,2.03907 -0.14063,1.00781 -0.25781,1.89843 -0.11719,0.86719 -0.21094,1.42969 -0.0234,0.21094 -0.14063,0.79688 -0.11718,0.58593 -0.25781,1.24218 -0.14062,0.65625 -0.28125,1.24219 -0.14062,0.5625 -0.1875,0.77344 -0.23437,0.77344 -0.82031,1.10156 -0.58594,0.35156 -1.28906,0.35156 -0.44532,0 -0.79688,-0.30468 -0.32812,-0.28125 -0.60937,-0.63282 -0.25782,-0.35156 -0.44532,-0.63281 -0.1875,-0.30469 -0.32812,-0.30469 z m -12.28125,-10.59375 q 0,1.61719 0.46875,2.92969 0.49219,1.28906 1.38281,2.22656 0.89063,0.9375 2.15625,1.45313 1.28906,0.49219 2.90625,0.49219 0.42188,0 1.05469,-0.0469 0.63281,-0.0469 1.33594,-0.14062 0.70312,-0.11719 1.40625,-0.30469 0.72656,-0.1875 1.3125,-0.46875 0.60937,-0.28125 1.00781,-0.67969 0.39844,-0.42187 0.46875,-0.96094 l 1.03125,-7.96875 0,-0.14062 q 0,-0.51563 -0.46875,-0.86719 -0.44531,-0.375 -1.17188,-0.63281 -0.70312,-0.25781 -1.59375,-0.42188 -0.86718,-0.16406 -1.71093,-0.23437 -0.82032,-0.0937 -1.5,-0.11719 -0.67969,-0.0469 -1.03125,-0.0469 -1.47657,0 -2.76563,0.32812 -1.26562,0.30469 -2.22656,1.00781 -0.96094,0.70313 -1.52344,1.85157 -0.53906,1.125 -0.53906,2.74218 z"
         style="font-style:normal;font-variant:normal;font-weight:normal;font-stretch:normal;font-size:48px;font-family:Lavi;-inkscape-font-specification:Lavi;text-align:center;text-anchor:middle"
         id="path3396"
         inkscape:connector-curvature="0" />
      <path
         d="m 667.26953,725.04132 q 0,-3.44531 1.125,-5.88281 1.125,-2.46094 3.14063,-4.00781 2.01562,-1.54688 4.78125,-2.27344 2.78906,-0.72656 6.11718,-0.72656 0.25782,0 0.91407,-0.0234 0.65625,-0.0234 1.47656,0.0234 0.84375,0.0234 1.73437,0.11718 0.89063,0.0937 1.64063,0.35157 0.75,0.23437 1.24219,0.65625 0.49218,0.39843 0.51562,1.03125 l 0.49219,11.95312 q 0.0234,1.03125 0.28125,2.08594 0.28125,1.03125 0.58594,2.0625 0.30468,1.03125 0.53906,2.0625 0.25781,1.00781 0.25781,1.96875 0,1.00781 -0.60937,1.71094 -0.58594,0.70312 -1.64063,0.70312 -0.98437,0 -1.52344,-0.46875 -0.53906,-0.46875 -0.86718,-1.14844 -0.30469,-0.67968 -0.53907,-1.45312 -0.23437,-0.77344 -0.63281,-1.40625 -1.05469,0.89062 -2.13281,1.71094 -1.05469,0.82031 -2.22656,1.42968 -1.14844,0.60938 -2.4375,0.96094 -1.26563,0.375 -2.71875,0.375 -2.67188,0 -4.5,-0.98437 -1.80469,-0.98438 -2.92969,-2.625 -1.10156,-1.64063 -1.59375,-3.77344 -0.49219,-2.13281 -0.49219,-4.42969 z m 4.80469,0.0937 q 0,1.14844 0.16406,2.36719 0.16406,1.21875 0.65625,2.22656 0.49219,1.00781 1.40625,1.66406 0.91406,0.65625 2.41406,0.65625 1.26563,0 2.55469,-0.5625 1.3125,-0.5625 2.39063,-1.47656 1.07812,-0.9375 1.85156,-2.13281 0.77344,-1.19531 0.98437,-2.46094 0.0469,-0.86719 0.11719,-1.5 0.0703,-0.63281 0.11719,-1.125 0.0469,-0.51562 0.0937,-0.9375 0.0469,-0.44531 0.0703,-0.9375 0.0469,-0.49219 0.0703,-1.07812 0.0234,-0.58594 0.0234,-1.38282 l 0,-1.33593 q -0.5625,-0.1875 -1.14844,-0.16407 -0.5625,0 -1.17187,0 -2.32031,0 -4.26563,0.35157 -1.94531,0.32812 -3.35156,1.24218 -1.40625,0.91407 -2.20312,2.50782 -0.77344,1.59375 -0.77344,4.07812 z"
         style="font-style:normal;font-variant:normal;font-weight:normal;font-stretch:normal;font-size:48px;font-family:Lavi;-inkscape-font-specification:Lavi;text-align:center;text-anchor:middle"
         id="path3398"
         inkscape:connector-curvature="0" />
      <path
         d="m 738.94141,726.44757 q 0.0234,-0.14062 0.0469,-0.9375 0.0469,-0.79687 0.0937,-1.99219 0.0703,-1.19531 0.11719,-2.64843 0.0703,-1.45313 0.11719,-2.88282 0.0703,-1.45312 0.0937,-2.74218 0.0469,-1.28907 0.0703,-2.15625 l 0,-2.78907 0,-2.8125 -8.71875,10.24219 q -0.51563,0.60938 -0.98438,0.98438 -0.44531,0.375 -1.26562,0.375 -0.375,0 -0.82031,-0.16407 -0.42188,-0.16406 -0.60938,-0.51562 -0.14062,-0.23438 -0.44531,-0.72656 -0.28125,-0.49219 -0.65625,-1.10157 -0.35156,-0.60937 -0.75,-1.26562 -0.39844,-0.67969 -0.77344,-1.26563 -0.35156,-0.60937 -0.63281,-1.07812 -0.28125,-0.46875 -0.42188,-0.70313 -0.21093,-0.32812 -0.60937,-0.91406 -0.39844,-0.58594 -0.82031,-1.17187 -0.42188,-0.58594 -0.77344,-1.05469 -0.32813,-0.46875 -0.39844,-0.53906 l -0.32812,-0.35157 -1.3125,13.85157 q -0.0234,0.0937 -0.0937,0.51562 -0.0703,0.39844 -0.1875,0.98438 -0.0937,0.58593 -0.23438,1.28906 -0.11719,0.70312 -0.25781,1.38281 -0.11719,0.65625 -0.23438,1.26563 -0.11718,0.58593 -0.21093,0.96093 -0.0937,0.42188 -0.21094,1.125 -0.11719,0.67969 -0.30469,1.47657 -0.16406,0.79687 -0.44531,1.61718 -0.25781,0.82032 -0.63281,1.5 -0.375,0.65625 -0.89063,1.07813 -0.51562,0.42187 -1.19531,0.42187 -0.91406,0 -1.40625,-0.49218 -0.49219,-0.49219 -0.49219,-1.40625 l 0,-0.53907 q 0.39844,-1.07812 0.75,-2.27343 0.375,-1.19532 0.67969,-2.41407 0.30469,-1.24218 0.53906,-2.4375 0.25781,-1.21875 0.46875,-2.29687 0.9375,-5.4375 1.38281,-10.875 0.44532,-5.46094 0.39844,-11.01563 0.1875,-0.72656 0.72656,-1.17187 0.53907,-0.46875 1.3125,-0.46875 0.51563,0 0.91407,0.28125 0.39843,0.28125 0.72656,0.67969 l 6.9375,9.49218 1.78125,2.78907 10.89844,-12.70313 q 0.42187,-0.46875 0.75,-0.63281 0.32812,-0.16406 0.89062,-0.16406 0.32813,0 0.67969,0.0937 0.375,0.0937 0.65625,0.28125 0.30469,0.16406 0.49219,0.46875 0.21093,0.28125 0.21093,0.65625 l 0,6.89062 -0.79687,20.57813 q -0.0234,0.32812 -0.0469,1.00781 0,0.65625 -0.0703,1.45312 -0.0469,0.79688 -0.21094,1.66407 -0.14062,0.84375 -0.44531,1.54687 -0.30469,0.67969 -0.79687,1.125 -0.46875,0.44531 -1.17188,0.44531 -0.23437,0 -0.5625,-0.0937 -0.32812,-0.0937 -0.63281,-0.23437 -0.28125,-0.16406 -0.49219,-0.39844 -0.21094,-0.23437 -0.21094,-0.51562 l 0,-1.5 0.82032,-7.07813 z"
         style="font-style:normal;font-variant:normal;font-weight:normal;font-stretch:normal;font-size:48px;font-family:Lavi;-inkscape-font-specification:Lavi;text-align:center;text-anchor:middle"
         id="path3400"
         inkscape:connector-curvature="0" />
      <path
         d="m 750.37891,725.69757 q 0,-2.55469 0.96093,-4.94531 0.98438,-2.39063 2.67188,-4.24219 1.6875,-1.85156 3.98437,-2.95312 2.29688,-1.125 4.96875,-1.125 2.74219,0 4.73438,0.9375 2.01562,0.9375 3.30469,2.53125 1.3125,1.59375 1.94531,3.70312 0.63281,2.10938 0.63281,4.47656 0,1.14844 -0.28125,2.55469 -0.28125,1.38281 -0.82031,2.8125 -0.53906,1.42969 -1.33594,2.78906 -0.79687,1.35938 -1.82812,2.41407 -1.00782,1.03125 -2.27344,1.66406 -1.24219,0.63281 -2.67188,0.63281 l -4.42968,0 q -2.55469,0 -4.38282,-0.98437 -1.80468,-1.00782 -2.95312,-2.60157 -1.14844,-1.61718 -1.6875,-3.63281 -0.53906,-2.01562 -0.53906,-4.03125 z m 4.78125,0.35156 q 0,1.66407 0.35156,2.85938 0.35156,1.19531 1.14844,1.96875 0.79687,0.75 2.08593,1.125 1.28907,0.35156 3.14063,0.35156 1.66406,0 2.97656,-0.75 1.3125,-0.77344 2.22656,-1.96875 0.91407,-1.21875 1.40625,-2.71875 0.49219,-1.52344 0.49219,-3.02344 0,-1.40625 -0.35156,-2.625 -0.32813,-1.21875 -1.07813,-2.10937 -0.72656,-0.91406 -1.92187,-1.42969 -1.17188,-0.51562 -2.85938,-0.51562 -1.5,0 -2.78906,0.58593 -1.26562,0.58594 -2.25,1.57032 -0.98437,0.98437 -1.66406,2.27343 -0.65625,1.26563 -0.91406,2.625 l 0,1.78125 z"
         style="font-style:normal;font-variant:normal;font-weight:normal;font-stretch:normal;font-size:48px;font-family:Lavi;-inkscape-font-specification:Lavi;text-align:center;text-anchor:middle"
         id="path3402"
         inkscape:connector-curvature="0" />
      <path
         d="m 793.36328,734.0882 q 0,-1.89844 0.21094,-3.75 0.21094,-1.875 0.21094,-3.77344 0,-0.53906 0,-1.52344 0.0234,-1.00781 -0.0469,-2.15625 -0.0469,-1.17187 -0.23437,-2.36719 -0.16407,-1.19531 -0.5625,-2.15625 -0.375,-0.98437 -1.00782,-1.59375 -0.60937,-0.63281 -1.57031,-0.63281 -0.75,0 -1.47656,0.51563 -0.72656,0.51562 -1.38281,1.33593 -0.65625,0.82032 -1.24219,1.82813 -0.5625,0.98437 -1.03125,1.94531 -0.44531,0.96094 -0.79688,1.78125 -0.32812,0.79688 -0.49218,1.21875 -0.16407,0.35156 -0.44532,1.07813 -0.25781,0.72656 -0.60937,1.64062 -0.32813,0.89063 -0.70313,1.89844 -0.375,1.00781 -0.70312,1.92187 -0.32813,0.89063 -0.58594,1.61719 -0.25781,0.72656 -0.375,1.07813 -0.30469,0.75 -0.79687,1.07812 -0.49219,0.32813 -1.3125,0.32813 -0.98438,0 -1.54688,-0.51563 -0.5625,-0.51562 -0.5625,-1.5 l 0,-0.58594 q 0.0703,-0.30468 0.21094,-0.9375 0.16406,-0.65625 0.35156,-1.47656 0.1875,-0.82031 0.375,-1.71094 0.21094,-0.89062 0.375,-1.71093 0.1875,-0.82032 0.30469,-1.45313 0.14062,-0.65625 0.1875,-0.96094 0.0469,-0.23437 0.0937,-0.89062 0.0469,-0.65625 0.11719,-1.54688 0.0703,-0.91406 0.1875,-1.99218 0.11718,-1.07813 0.28125,-2.15625 0.16406,-1.07813 0.375,-2.08594 0.21093,-1.03125 0.51562,-1.80469 0.30469,-0.79687 0.67969,-1.26562 0.375,-0.49219 0.86719,-0.49219 0.23437,0 0.5625,0.0703 0.35156,0.0703 0.65625,0.23438 0.32812,0.14062 0.5625,0.375 0.23437,0.21093 0.23437,0.51562 l 0,3.21094 q 0.72656,-0.25781 1.26563,-0.70313 0.53906,-0.44531 1.00781,-0.98437 0.46875,-0.53906 0.91406,-1.07813 0.44531,-0.5625 0.98438,-1.00781 0.5625,-0.46875 1.26562,-0.75 0.70313,-0.28125 1.6875,-0.28125 1.78125,0 3.02344,0.72656 1.26562,0.70313 2.10937,1.89844 0.86719,1.17188 1.35938,2.69531 0.49219,1.52344 0.75,3.14063 0.25781,1.61719 0.32812,3.21094 0.0703,1.57031 0.0703,2.88281 0,0.53906 0.0703,1.45312 0.0703,0.91407 0.0937,2.01563 0.0234,1.07812 -0.0469,2.20312 -0.0703,1.10157 -0.375,2.01563 -0.28125,0.89062 -0.84375,1.47656 -0.5625,0.5625 -1.52343,0.5625 -0.82032,0 -1.42969,-0.58594 -0.58594,-0.60937 -0.58594,-1.52343 z"
         style="font-style:normal;font-variant:normal;font-weight:normal;font-stretch:normal;font-size:48px;font-family:Lavi;-inkscape-font-specification:Lavi;text-align:center;text-anchor:middle"
         id="path3404"
         inkscape:connector-curvature="0" />
      <path
         d="m 804.07422,702.75226 q 0,-0.96094 0.63281,-1.5 0.63281,-0.5625 1.52344,-0.58594 0.72656,-0.0234 1.17187,0.46875 0.44532,0.46875 0.67969,1.28906 0.25781,0.79688 0.32813,1.875 0.0703,1.07813 0.0469,2.25 -0.0234,1.17188 -0.14062,2.36719 -0.0937,1.19531 -0.21094,2.27344 -0.0937,1.07812 -0.1875,1.94531 -0.0703,0.86719 -0.0469,1.38281 l 4.94532,0 q 0.42187,0 0.72656,0.23438 0.32812,0.23437 0.51562,0.58594 0.21094,0.32812 0.30469,0.72656 0.11719,0.375 0.11719,0.67969 0,0.25781 -0.11719,0.63281 -0.0937,0.35156 -0.28125,0.67969 -0.16406,0.32812 -0.42187,0.5625 -0.23438,0.23437 -0.51563,0.23437 l -5.48437,0 0,0.67969 q 0,0.42187 -0.11719,1.26562 -0.11719,0.84375 -0.30469,1.89844 -0.16406,1.05469 -0.375,2.22656 -0.1875,1.17188 -0.375,2.25 -0.16406,1.05469 -0.28125,1.89844 -0.11719,0.84375 -0.11719,1.24219 0.0469,1.14844 0.70313,1.64062 0.67969,0.46875 1.78125,0.46875 0.77344,0 1.35937,-0.30468 0.60938,-0.30469 1.10157,-0.75 0.49218,-0.44532 0.91406,-0.96094 0.42187,-0.53906 0.86719,-0.98438 0.44531,-0.44531 0.96093,-0.75 0.51563,-0.30468 1.19532,-0.30468 0.96093,0 1.5,0.53906 0.53906,0.51562 0.53906,1.47656 0,0.98438 -0.39844,1.85156 -0.39844,0.84375 -1.07812,1.57032 -0.65625,0.72656 -1.54688,1.3125 -0.86719,0.5625 -1.82812,0.96093 -0.96094,0.39844 -1.94532,0.60938 -0.96093,0.21094 -1.80468,0.21094 -1.19532,0 -2.39063,-0.42188 -1.17187,-0.42187 -2.13281,-1.19531 -0.9375,-0.77344 -1.54688,-1.85156 -0.58593,-1.07813 -0.60937,-2.36719 l 1.96875,-12.11719 q -0.98438,-0.0703 -1.64063,-0.60937 -0.63281,-0.53907 -0.63281,-1.59375 0,-0.5625 0.375,-0.86719 0.39844,-0.30469 0.86719,-0.49219 0.49219,-0.21094 0.86719,-0.375 0.39843,-0.1875 0.39843,-0.49219 0,-1.26562 0,-2.27343 0,-1.00782 0,-1.875 0,-0.86719 0,-1.66407 0.0234,-0.82031 0.0234,-1.66406 0.0234,-0.84375 0.0469,-1.80469 0.0234,-0.98437 0.0703,-2.17968 l 0,-0.30469 z"
         style="font-style:normal;font-variant:normal;font-weight:normal;font-stretch:normal;font-size:48px;font-family:Lavi;-inkscape-font-specification:Lavi;text-align:center;text-anchor:middle"
         id="path3406"
         inkscape:connector-curvature="0" />
      <path
         d="m 818.76953,725.04132 q 0,-3.44531 1.125,-5.88281 1.125,-2.46094 3.14063,-4.00781 2.01562,-1.54688 4.78125,-2.27344 2.78906,-0.72656 6.11718,-0.72656 0.25782,0 0.91407,-0.0234 0.65625,-0.0234 1.47656,0.0234 0.84375,0.0234 1.73437,0.11718 0.89063,0.0937 1.64063,0.35157 0.75,0.23437 1.24219,0.65625 0.49218,0.39843 0.51562,1.03125 l 0.49219,11.95312 q 0.0234,1.03125 0.28125,2.08594 0.28125,1.03125 0.58594,2.0625 0.30468,1.03125 0.53906,2.0625 0.25781,1.00781 0.25781,1.96875 0,1.00781 -0.60937,1.71094 -0.58594,0.70312 -1.64063,0.70312 -0.98437,0 -1.52344,-0.46875 -0.53906,-0.46875 -0.86718,-1.14844 -0.30469,-0.67968 -0.53907,-1.45312 -0.23437,-0.77344 -0.63281,-1.40625 -1.05469,0.89062 -2.13281,1.71094 -1.05469,0.82031 -2.22656,1.42968 -1.14844,0.60938 -2.4375,0.96094 -1.26563,0.375 -2.71875,0.375 -2.67188,0 -4.5,-0.98437 -1.80469,-0.98438 -2.92969,-2.625 -1.10156,-1.64063 -1.59375,-3.77344 -0.49219,-2.13281 -0.49219,-4.42969 z m 4.80469,0.0937 q 0,1.14844 0.16406,2.36719 0.16406,1.21875 0.65625,2.22656 0.49219,1.00781 1.40625,1.66406 0.91406,0.65625 2.41406,0.65625 1.26563,0 2.55469,-0.5625 1.3125,-0.5625 2.39063,-1.47656 1.07812,-0.9375 1.85156,-2.13281 0.77344,-1.19531 0.98437,-2.46094 0.0469,-0.86719 0.11719,-1.5 0.0703,-0.63281 0.11719,-1.125 0.0469,-0.51562 0.0937,-0.9375 0.0469,-0.44531 0.0703,-0.9375 0.0469,-0.49219 0.0703,-1.07812 0.0234,-0.58594 0.0234,-1.38282 l 0,-1.33593 q -0.5625,-0.1875 -1.14844,-0.16407 -0.5625,0 -1.17187,0 -2.32031,0 -4.26563,0.35157 -1.94531,0.32812 -3.35156,1.24218 -1.40625,0.91407 -2.20312,2.50782 -0.77344,1.59375 -0.77344,4.07812 z"
         style="font-style:normal;font-variant:normal;font-weight:normal;font-stretch:normal;font-size:48px;font-family:Lavi;-inkscape-font-specification:Lavi;text-align:center;text-anchor:middle"
         id="path3408"
         inkscape:connector-curvature="0" />
      <path
         d="m 862.55078,734.0882 q 0,-1.89844 0.21094,-3.75 0.21094,-1.875 0.21094,-3.77344 0,-0.53906 0,-1.52344 0.0234,-1.00781 -0.0469,-2.15625 -0.0469,-1.17187 -0.23437,-2.36719 -0.16407,-1.19531 -0.5625,-2.15625 -0.375,-0.98437 -1.00782,-1.59375 -0.60937,-0.63281 -1.57031,-0.63281 -0.75,0 -1.47656,0.51563 -0.72656,0.51562 -1.38281,1.33593 -0.65625,0.82032 -1.24219,1.82813 -0.5625,0.98437 -1.03125,1.94531 -0.44531,0.96094 -0.79688,1.78125 -0.32812,0.79688 -0.49218,1.21875 -0.16407,0.35156 -0.44532,1.07813 -0.25781,0.72656 -0.60937,1.64062 -0.32813,0.89063 -0.70313,1.89844 -0.375,1.00781 -0.70312,1.92187 -0.32813,0.89063 -0.58594,1.61719 -0.25781,0.72656 -0.375,1.07813 -0.30469,0.75 -0.79687,1.07812 -0.49219,0.32813 -1.3125,0.32813 -0.98438,0 -1.54688,-0.51563 -0.5625,-0.51562 -0.5625,-1.5 l 0,-0.58594 q 0.0703,-0.30468 0.21094,-0.9375 0.16406,-0.65625 0.35156,-1.47656 0.1875,-0.82031 0.375,-1.71094 0.21094,-0.89062 0.375,-1.71093 0.1875,-0.82032 0.30469,-1.45313 0.14062,-0.65625 0.1875,-0.96094 0.0469,-0.23437 0.0937,-0.89062 0.0469,-0.65625 0.11719,-1.54688 0.0703,-0.91406 0.1875,-1.99218 0.11718,-1.07813 0.28125,-2.15625 0.16406,-1.07813 0.375,-2.08594 0.21093,-1.03125 0.51562,-1.80469 0.30469,-0.79687 0.67969,-1.26562 0.375,-0.49219 0.86719,-0.49219 0.23437,0 0.5625,0.0703 0.35156,0.0703 0.65625,0.23438 0.32812,0.14062 0.5625,0.375 0.23437,0.21093 0.23437,0.51562 l 0,3.21094 q 0.72656,-0.25781 1.26563,-0.70313 0.53906,-0.44531 1.00781,-0.98437 0.46875,-0.53906 0.91406,-1.07813 0.44531,-0.5625 0.98438,-1.00781 0.5625,-0.46875 1.26562,-0.75 0.70313,-0.28125 1.6875,-0.28125 1.78125,0 3.02344,0.72656 1.26562,0.70313 2.10937,1.89844 0.86719,1.17188 1.35938,2.69531 0.49219,1.52344 0.75,3.14063 0.25781,1.61719 0.32812,3.21094 0.0703,1.57031 0.0703,2.88281 0,0.53906 0.0703,1.45312 0.0703,0.91407 0.0937,2.01563 0.0234,1.07812 -0.0469,2.20312 -0.0703,1.10157 -0.375,2.01563 -0.28125,0.89062 -0.84375,1.47656 -0.5625,0.5625 -1.52343,0.5625 -0.82032,0 -1.42969,-0.58594 -0.58594,-0.60937 -0.58594,-1.52343 z"
         style="font-style:normal;font-variant:normal;font-weight:normal;font-stretch:normal;font-size:48px;font-family:Lavi;-inkscape-font-specification:Lavi;text-align:center;text-anchor:middle"
         id="path3410"
         inkscape:connector-curvature="0" />
      <path
         d="m 870.14453,733.66632 1.64063,-10.38281 1.26562,-23.01563 q 0.0703,-0.86718 0.65625,-1.26562 0.60938,-0.39844 1.3125,-0.39844 0.70313,0 1.3125,0.23438 0.63281,0.23437 0.84375,1.00781 l 0,4.24219 q 0,1.66406 -0.0703,3.14062 -0.0469,1.47656 -0.11719,2.90625 -0.0703,1.40625 -0.14062,2.88281 -0.0469,1.47657 -0.0469,3.14063 l 0,0.60937 q 0.58594,-0.53906 1.26563,-1.21875 0.67968,-0.67968 1.45312,-1.26562 0.77344,-0.60938 1.61719,-1.00781 0.86719,-0.39844 1.75781,-0.39844 1.61719,0 2.74219,0.79687 1.125,0.79688 1.875,2.08594 0.75,1.26563 1.17187,2.88281 0.44532,1.61719 0.65625,3.28125 0.21094,1.64063 0.25782,3.1875 0.0703,1.52344 0.0703,2.625 0,0.46875 0.0703,1.33594 0.0703,0.84375 0.0937,1.85156 0.0234,1.00782 -0.0469,2.03907 -0.0703,1.03125 -0.32813,1.89843 -0.25781,0.84375 -0.79687,1.38282 -0.51563,0.53906 -1.38282,0.53906 -1.03125,0 -1.61718,-0.67969 -0.58594,-0.67969 -0.58594,-1.71094 0,-1.54687 0.0937,-3.09375 0.11719,-1.54687 0.11719,-3.14062 0,-0.63281 0.0234,-1.52344 0.0234,-0.91406 0,-1.92187 -0.0234,-1.00782 -0.11718,-2.03907 -0.0937,-1.05468 -0.32813,-1.99218 -0.23437,-0.9375 -0.63281,-1.71094 -0.39844,-0.77344 -1.00781,-1.24219 -1.45313,0.39844 -2.625,1.5 -1.14844,1.10156 -2.0625,2.64844 -0.91407,1.52344 -1.61719,3.35156 -0.70313,1.80469 -1.21875,3.60938 -0.49219,1.80468 -0.84375,3.44531 -0.35156,1.64062 -0.58594,2.83594 -0.21094,0.70312 -0.79687,1.19531 -0.58594,0.46875 -1.35938,0.46875 -1.03125,0 -1.5,-0.60938 -0.46875,-0.63281 -0.46875,-1.57031 l 0,-0.9375 z"
         style="font-style:normal;font-variant:normal;font-weight:normal;font-stretch:normal;font-size:48px;font-family:Lavi;-inkscape-font-specification:Lavi;text-align:center;text-anchor:middle"
         id="path3412"
         inkscape:connector-curvature="0" />
      <path
         d="m 891.23828,725.04132 q 0,-3.44531 1.125,-5.88281 1.125,-2.46094 3.14063,-4.00781 2.01562,-1.54688 4.78125,-2.27344 2.78906,-0.72656 6.11718,-0.72656 0.25782,0 0.91407,-0.0234 0.65625,-0.0234 1.47656,0.0234 0.84375,0.0234 1.73437,0.11718 0.89063,0.0937 1.64063,0.35157 0.75,0.23437 1.24219,0.65625 0.49218,0.39843 0.51562,1.03125 l 0.49219,11.95312 q 0.0234,1.03125 0.28125,2.08594 0.28125,1.03125 0.58594,2.0625 0.30468,1.03125 0.53906,2.0625 0.25781,1.00781 0.25781,1.96875 0,1.00781 -0.60937,1.71094 -0.58594,0.70312 -1.64063,0.70312 -0.98437,0 -1.52344,-0.46875 -0.53906,-0.46875 -0.86718,-1.14844 -0.30469,-0.67968 -0.53907,-1.45312 -0.23437,-0.77344 -0.63281,-1.40625 -1.05469,0.89062 -2.13281,1.71094 -1.05469,0.82031 -2.22656,1.42968 -1.14844,0.60938 -2.4375,0.96094 -1.26563,0.375 -2.71875,0.375 -2.67188,0 -4.5,-0.98437 -1.80469,-0.98438 -2.92969,-2.625 -1.10156,-1.64063 -1.59375,-3.77344 -0.49219,-2.13281 -0.49219,-4.42969 z m 4.80469,0.0937 q 0,1.14844 0.16406,2.36719 0.16406,1.21875 0.65625,2.22656 0.49219,1.00781 1.40625,1.66406 0.91406,0.65625 2.41406,0.65625 1.26563,0 2.55469,-0.5625 1.3125,-0.5625 2.39063,-1.47656 1.07812,-0.9375 1.85156,-2.13281 0.77344,-1.19531 0.98437,-2.46094 0.0469,-0.86719 0.11719,-1.5 0.0703,-0.63281 0.11719,-1.125 0.0469,-0.51562 0.0937,-0.9375 0.0469,-0.44531 0.0703,-0.9375 0.0469,-0.49219 0.0703,-1.07812 0.0234,-0.58594 0.0234,-1.38282 l 0,-1.33593 q -0.5625,-0.1875 -1.14844,-0.16407 -0.5625,0 -1.17187,0 -2.32031,0 -4.26563,0.35157 -1.94531,0.32812 -3.35156,1.24218 -1.40625,0.91407 -2.20312,2.50782 -0.77344,1.59375 -0.77344,4.07812 z"
         style="font-style:normal;font-variant:normal;font-weight:normal;font-stretch:normal;font-size:48px;font-family:Lavi;-inkscape-font-specification:Lavi;text-align:center;text-anchor:middle"
         id="path3414"
         inkscape:connector-curvature="0" />
    </g>
  </g>
</svg>
