<?xml version="1.0" encoding="UTF-8" standalone="no"?>
<!-- Created with Inkscape (http://www.inkscape.org/) -->

<svg
   xmlns:dc="http://purl.org/dc/elements/1.1/"
   xmlns:cc="http://creativecommons.org/ns#"
   xmlns:rdf="http://www.w3.org/1999/02/22-rdf-syntax-ns#"
   xmlns:svg="http://www.w3.org/2000/svg"
   xmlns="http://www.w3.org/2000/svg"
   xmlns:xlink="http://www.w3.org/1999/xlink"
   xmlns:sodipodi="http://sodipodi.sourceforge.net/DTD/sodipodi-0.dtd"
   xmlns:inkscape="http://www.inkscape.org/namespaces/inkscape"
   id="svg2"
   version="1.1"
   inkscape:version="0.48.4 r9939"
   width="2481"
   height="3503"
   sodipodi:docname="Pepper-and-Carrot_by-David-Revoy_E16P02.svg">
  <metadata
     id="metadata8">
    <rdf:RDF>
      <cc:Work
         rdf:about="">
        <dc:format>image/svg+xml</dc:format>
        <dc:type
           rdf:resource="http://purl.org/dc/dcmitype/StillImage" />
        <dc:title />
      </cc:Work>
    </rdf:RDF>
  </metadata>
  <defs
     id="defs6" />
  <sodipodi:namedview
     pagecolor="#ffffff"
     bordercolor="#666666"
     borderopacity="1"
     objecttolerance="10"
     gridtolerance="10"
     guidetolerance="10"
     inkscape:pageopacity="0"
     inkscape:pageshadow="2"
     inkscape:window-width="1366"
     inkscape:window-height="740"
     id="namedview4"
     showgrid="false"
     inkscape:zoom="0.46"
     inkscape:cx="1200.5763"
     inkscape:cy="448.77218"
     inkscape:window-x="0"
     inkscape:window-y="0"
     inkscape:window-maximized="1"
     inkscape:current-layer="layer3" />
  <g
     inkscape:groupmode="layer"
     id="layer2"
     inkscape:label="artwork"
     sodipodi:insensitive="true">
    <image
       sodipodi:absref="/home/yann/Bureau/Esperanto/PepperKarot/peppercarrot_ep16_translation-master/eo/../gfx_Pepper-and-Carrot_by-David-Revoy_E16P02.png"
       xlink:href="../gfx_Pepper-and-Carrot_by-David-Revoy_E16P02.png"
       y="0"
       x="0"
       id="image10"
       height="3503"
       width="2481" />
  </g>
  <g
     inkscape:groupmode="layer"
     id="layer3"
     inkscape:label="speechbubbles">
    <path
       style="fill:#ffffff;fill-rule:evenodd;stroke:none"
       d="m 183.38488,1204.4941 c 7.81997,-30.5523 28.8784,-53.7332 51.79723,-69.2079 10.90695,-7.471 23.37377,-12.9459 36.13105,-11.5058 12.67361,0.8605 25.05261,5.9979 37.86641,4.2135 15.58122,-0.5894 31.43599,-3.1608 46.83833,0.5135 13.6921,4.0092 27.79886,6.0856 41.92817,6.206 9.96779,-2.5448 19.08896,4.2379 27.99079,8.2947 7.99158,4.3821 16.15428,8.9796 22.86674,15.758 6.18419,9.5154 13.58894,17.7936 19.84534,27.2243 4.09373,5.1557 3.70039,12.2771 3.51181,18.8678 -0.53169,13.4964 -1.43206,27.2058 -4.77393,40.2084 -1.99985,8.2549 -9.39167,10.9868 -15.07142,14.7801 -13.43914,8.0076 -27.70975,14.08 -40.53574,23.5033 -12.70686,4.8251 -26.21074,2.5682 -39.24222,1.839 -10.9195,-1.4363 -21.90394,-3.4392 -32.91727,-1.7689 -14.01738,1.2223 -27.99217,4.3872 -42.0597,3.9818 -17.62273,-2.7818 -34.50052,-9.6313 -51.57845,-15.1258 -15.32198,-4.8429 -29.28671,-13.9495 -42.68623,-23.6913 -7.15752,-5.532 -14.7346,-11.9621 -17.26061,-22.1569 -2.07068,-7.02 -2.5586,-14.5367 -2.6503,-21.9338 z"
       id="path4365"
       inkscape:connector-curvature="0" />
    <path
       style="fill:#ffffff;stroke:none"
       d="m 526.05317,1332.6787 c -30.94804,-5.9742 -33.65755,-15.3739 -35.85896,-26.3529 -2.20164,-10.979 -2.97755,-21.2157 -9.14413,-25.0411 -6.16635,-3.8252 -15.85979,-4.8779 -23.17719,-4.6934 -7.31743,0.1844 -5.29357,-9.0401 -8.28411,-16.1281 -2.99067,-7.0881 -31.76642,-37.2963 -31.76642,-37.2963 0,0 -1.64154,31.4089 0.94371,41.0513 2.58502,9.6423 3.48097,13.1815 5.57556,16.7304 2.09482,3.5489 8.54676,11.5174 16.06913,13.2832 7.52237,1.7658 15.47204,-0.2404 21.46624,-0.192 5.99426,0.048 8.9236,8.3554 12.37845,16.2997 3.45476,7.9444 7.26292,13.1493 20.83234,18.6149 11.63149,4.6851 30.96538,3.7243 30.96538,3.7243 z"
       id="path3023-2"
       inkscape:connector-curvature="0"
       sodipodi:nodetypes="csssscssssssc" />
    <path
       style="color:#000000;fill:#ffffff;fill-opacity:1;fill-rule:nonzero;stroke:none;stroke-width:1px;marker:none;visibility:visible;display:inline;overflow:visible;enable-background:accumulate"
       d="m 1381.7173,1390.7278 c -50.601,-47.6477 -45.1796,-140.5605 -30.722,-162.0019 14.4573,-21.4414 34.3363,-53.6035 103.0092,-53.6035 68.6728,0 545.7683,-22.6326 616.2484,27.3974 70.4798,50.03 68.6727,136.9867 7.2287,195.355 -61.4442,58.3683 -390.351,46.4565 -390.351,46.4565 0,0 -227.7045,7.1471 -305.4133,-53.6035 z"
       id="path3992"
       inkscape:connector-curvature="0" />
    <path
       style="fill:#ffffff;stroke:none"
       d="m 1769.5518,1511.1983 c -2.1311,-38.2437 36.0769,-133.9831 222.453,-126.7818 186.3764,7.2012 244.7092,49.2679 250.1708,117.2462 8.64,107.5396 -89.4124,136.2779 -230.2067,144.2432 -145.1437,8.2116 -244.6697,-65.6073 -242.4171,-134.7076 z"
       id="path3280-8"
       inkscape:connector-curvature="0"
       sodipodi:nodetypes="csssc" />
    <path
       style="color:#000000;fill:#ffffff;fill-opacity:1;fill-rule:nonzero;stroke:none;stroke-width:1px;marker:none;visibility:visible;display:inline;overflow:visible;enable-background:accumulate"
       d="m 1219.1793,1379.025 c 13.0903,-52.0341 58.2859,-48.0105 71.8466,-50.7043 13.5607,-2.6938 62.7119,-12.1003 70.2346,-55.0276 7.5227,-42.9274 59.5601,-62.6224 59.5601,-62.6224 l -9.5954,64.4127 c 0,0 -30.8418,43.4877 -61.1207,55.4317 -30.2789,11.9439 -78.5805,11.6091 -92.2436,20.0382 -13.6632,8.429 -30.9749,13.0823 -38.6816,28.4717 z"
       id="path4018"
       inkscape:connector-curvature="0" />
    <path
       style="color:#000000;fill:#ffffff;fill-opacity:1;fill-rule:nonzero;stroke:none;stroke-width:1px;marker:none;visibility:visible;display:inline;overflow:visible;enable-background:accumulate"
       d="M 241.00467,197.48784 C 245.15551,122.88885 284.98851,78.680011 477.76423,81.754231 637.1138,84.295391 715.0291,103.73769 707.6537,199.64957 697.41578,332.78635 562.63272,310.59438 468.21352,318.43093 406.19308,316.65876 243.00411,333.49284 241.00467,197.48784 z"
       id="path4546"
       inkscape:connector-curvature="0"
       sodipodi:nodetypes="csscc" />
    <path
       style="color:#000000;fill:#ffffff;fill-opacity:1;fill-rule:nonzero;stroke:none;stroke-width:1px;marker:none;visibility:visible;display:inline;overflow:visible;enable-background:accumulate"
       d="m 1143.8843,404.28651 c -3.9968,84.09696 -63.3461,150.52055 -325.69412,146.18543 C 601.33181,546.88853 492.55506,510.43476 491.76744,401.8404 490.78474,266.34914 719.9229,284.02416 837.17176,283.99062 c 84.42077,2.27774 305.88924,-7.93675 306.71254,120.29589 z"
       id="path4546-3"
       inkscape:connector-curvature="0"
       sodipodi:nodetypes="csscc" />
    <path
       style="color:#000000;display:inline;overflow:visible;visibility:visible;fill:#ffffff;fill-opacity:1;fill-rule:nonzero;stroke:none;stroke-width:1px;marker:none;enable-background:accumulate"
       d="m 1212.2695,581.74978 c -67.2618,20.68446 -152.2854,0.78987 -192.165,-42.94991 -39.87945,-43.73978 14.3178,-40.84093 14.3178,-40.84093 0,0 77.3502,101.9849 177.8472,83.79084 z"
       id="path5002"
       inkscape:connector-curvature="0"
       sodipodi:nodetypes="cscc" />
    <path
       style="fill:#ffffff;fill-rule:evenodd;stroke:none;stroke-width:1px;stroke-linecap:butt;stroke-linejoin:miter;stroke-opacity:1"
       d="m 79.966435,2099.1511 23.546955,16.5657 5.77671,-21.4719 13.96365,6.4871 -8.37819,-75.0437 30.72004,69.1176 2.79273,-17.9728 12.56729,24.3675 36.42692,-12.4014 6.8604,-60.1338 15.36001,50.8644 11.17093,-21.4922 7.8925,27.5955 c 0,0 1.88205,5.8508 15.8457,3.444 13.96366,-2.4068 141.79599,8.1107 167.56383,27.4464 l 22.98224,10.8299 22.56755,-15.6995 -6.45156,25.9982 47.36086,-44.6486 -27.28149,57.896 17.92704,-10.5738 -8.71946,22.558 c 0,0 4.22581,12.5723 8.41491,18.2243 40.49459,49.2001 60.14929,161.0823 67.33048,184.8243 l 30.72004,-4.0456 -20.94548,14.463 c 9.14048,6.8815 41.99548,17.939 111.3259,-11.0639 0,0 -64.15436,46.875 -108.60984,42.3299 -9.56642,5.363 39.34647,16.1258 39.34647,16.1258 l -53.28076,7.0224 -5.84311,50.2449 39.09823,18.1639 -44.68369,-8.9001 37.70186,43.4558 -46.80583,-10.4859 -4.82814,27.4284 -7.68395,10.0525 c -16.12139,12.0575 -39.33705,38.6664 -60.92293,44.5464 0,4.4469 23.38547,49.1163 23.38547,49.1163 l -52.01461,-29.4904 24.0873,35.7863 -56.27233,-30.2588 -14.37279,-0.407 -8.37819,3.5193 c -43.28733,26.5831 -143.43861,11.3479 -160.19499,8.0103 -1.39637,0.093 -18.15274,42.707 -18.15274,42.707 l -7.69184,-37.5036 -11.85728,15.0808 -6.95817,-10.1598 -51.07677,69.2495 17.83286,-82.0028 -35.99696,34.0016 5.36921,-46.4598 -27.96162,33.5054 4.93852,-42.7868 -16.109444,4.9859 z"
       id="path4603"
       inkscape:connector-curvature="0"
       sodipodi:nodetypes="cccccccccccccsscccccccccccccccccccccccccccccccccccccccccc" />
    <path
       style="color:#000000;fill:#ffffff;fill-opacity:1;fill-rule:nonzero;stroke:none;stroke-width:1px;marker:none;visibility:visible;display:inline;overflow:visible;enable-background:accumulate"
       d="m 960.56293,2891.9918 c 24.21802,-34.3469 76.06347,-63.8795 144.60337,-76.8341 68.5397,-12.9544 195.8554,-12.5073 218.2916,-9.1246 22.4361,3.3827 145.6804,14.6829 172.7412,33.3551 27.0607,18.6717 63.6769,41.7619 71.9359,66.2067 8.2594,24.4449 2.6341,83.7924 -22.0234,97.379 -24.6576,13.5863 -137.5489,44.3802 -203.721,47.2854 -66.172,2.9057 -220.3366,-6.2177 -264.3655,-13.7697 -44.0287,-7.552 -90.68583,-17.3576 -105.01225,-43.985 -14.32656,-26.6273 -40.8693,-61.4639 -12.44992,-100.5128 z"
       id="path3533"
       inkscape:connector-curvature="0" />
    <path
       style="fill:#ffffff;stroke:none"
       d="m 1674.0119,3018.1165 c -45.7195,5.8429 -53.9298,-4.7735 -62.1848,-17.5883 -8.2551,-12.8149 -14.1828,-25.3133 -24.5416,-27.4523 -10.3587,-2.139 -24.2907,0.7173 -34.3436,4.1007 -10.0531,3.3837 -16.0502,-3.9723 -23.5544,-11.5696 -7.5042,-7.5972 -57.2715,-38.1497 -57.2715,-38.1497 0,0 12.6136,40.0812 20.7667,51.0552 8.1531,10.9741 11.0722,15.0248 15.6572,18.5713 4.5852,3.5464 17.3035,10.7564 28.565,9.7294 11.2614,-1.0269 21.3268,-6.9665 29.6567,-9.488 8.3298,-2.5216 21.007,2.3441 29.5605,10.8148 8.5534,8.4707 31.1188,24.9847 49.1012,21.5829 17.9825,-3.4017 28.5886,-11.6064 28.5886,-11.6064 z"
       id="path3023"
       inkscape:connector-curvature="0"
       sodipodi:nodetypes="csssscssssssc" />
  </g>
  <g
     inkscape:groupmode="layer"
     id="layer1"
     inkscape:label="txt"
     style="display:inline">
    <text
       xml:space="preserve"
       style="font-size:12px;font-style:normal;font-variant:normal;font-weight:normal;font-stretch:normal;text-align:center;line-height:125%;letter-spacing:0px;word-spacing:0px;text-anchor:middle;fill:#000000;fill-opacity:1;stroke:none;font-family:Lavi;-inkscape-font-specification:Lavi"
       x="821.34668"
       y="318.94559"
       id="text4246-4"
       sodipodi:linespacing="125%"><tspan
         sodipodi:role="line"
         style="font-size:45px"
         x="821.34668"
         y="318.94559"
         id="tspan4253" /><tspan
         sodipodi:role="line"
         style="font-size:45px"
         x="829.25684"
         y="375.19559"
         id="tspan3076">Mi ne rolos kiel paciganto, </tspan><tspan
         sodipodi:role="line"
         style="font-size:45px"
         x="821.34668"
         y="431.44559"
         id="tspan3064">eĉ por amikino. Tiaj aferoj</tspan><tspan
         sodipodi:role="line"
         style="font-size:45px"
         x="821.34668"
         y="487.69559"
         id="tspan3066">ĉiam finiĝas malbone!</tspan></text>
    <text
       xml:space="preserve"
       style="font-size:12px;font-style:normal;font-variant:normal;font-weight:normal;font-stretch:normal;text-align:center;line-height:125%;letter-spacing:0px;word-spacing:0px;text-anchor:middle;fill:#000000;fill-opacity:1;stroke:none;font-family:Lavi;-inkscape-font-specification:Lavi"
       x="470.34949"
       y="151.64409"
       id="text4246-42"
       sodipodi:linespacing="125%"><tspan
         sodipodi:role="line"
         style="font-size:45px"
         x="470.34949"
         y="151.64409"
         id="tspan4251">Tio estas</tspan><tspan
         sodipodi:role="line"
         style="font-size:45px"
         x="478.25964"
         y="207.89409"
         id="tspan3041"> io kion vi devos </tspan><tspan
         sodipodi:role="line"
         style="font-size:45px"
         x="470.34949"
         y="264.14407"
         id="tspan3043">prizorgi sole.</tspan></text>
    <text
       xml:space="preserve"
       style="font-size:12px;font-style:normal;font-variant:normal;font-weight:normal;font-stretch:normal;text-align:center;line-height:125%;letter-spacing:0px;word-spacing:0px;text-anchor:middle;fill:#000000;fill-opacity:1;stroke:none;font-family:Lavi;-inkscape-font-specification:Lavi"
       x="337.33871"
       y="1133.3042"
       id="text4246-4-3"
       sodipodi:linespacing="125%"><tspan
         sodipodi:role="line"
         style="font-size:45px"
         x="337.33871"
         y="1133.3042"
         id="tspan4253-3" /><tspan
         sodipodi:role="line"
         style="font-size:45px"
         x="345.24887"
         y="1189.5542"
         id="tspan4261-5">Bonvolu  </tspan><tspan
         sodipodi:role="line"
         style="font-size:45px"
         x="345.24887"
         y="1245.8042"
         id="tspan3090">Safrano… </tspan><tspan
         sodipodi:role="line"
         style="font-size:45px"
         x="337.33871"
         y="1302.0542"
         id="tspan4324" /></text>
    <text
       xml:space="preserve"
       style="font-size:12px;font-style:normal;font-variant:normal;font-weight:normal;font-stretch:normal;text-align:center;line-height:125%;letter-spacing:0px;word-spacing:0px;text-anchor:middle;fill:#000000;fill-opacity:1;stroke:none;font-family:Lavi;-inkscape-font-specification:Lavi"
       x="1731.9661"
       y="1233.3417"
       id="text4246-4-3-5"
       sodipodi:linespacing="125%"><tspan
         sodipodi:role="line"
         style="font-size:45px"
         x="1739.8762"
         y="1233.3417"
         id="tspan3101">Mi nenion lernas per miaj </tspan><tspan
         sodipodi:role="line"
         style="font-size:45px"
         x="1739.8762"
         y="1289.5917"
         id="tspan3105">instrupatrinoj, ili nur singastigas </tspan><tspan
         sodipodi:role="line"
         style="font-size:45px"
         x="1739.8762"
         y="1345.8417"
         id="tspan3109">ĉe mi, ĝemas pri sia oldeco kaj </tspan><tspan
         sodipodi:role="line"
         style="font-size:45px"
         x="1731.9661"
         y="1402.0917"
         id="tspan3111">krias al mi pro io ajn…</tspan></text>
    <text
       xml:space="preserve"
       style="font-size:12px;font-style:normal;font-variant:normal;font-weight:normal;font-stretch:normal;text-align:center;line-height:125%;letter-spacing:0px;word-spacing:0px;text-anchor:middle;fill:#000000;fill-opacity:1;stroke:none;font-family:Lavi;-inkscape-font-specification:Lavi"
       x="300.95486"
       y="2148.9766"
       id="text4246-4-3-4"
       sodipodi:linespacing="125%"><tspan
         sodipodi:role="line"
         style="font-size:45px"
         x="300.95486"
         y="2148.9766"
         id="tspan4253-3-4" /><tspan
         sodipodi:role="line"
         style="font-size:45px"
         x="308.86502"
         y="2205.2266"
         id="tspan4356">Aŭskultu! </tspan><tspan
         sodipodi:role="line"
         style="font-size:45px"
         x="308.86502"
         y="2261.4766"
         id="tspan3129">Vi estas sorĉistino, </tspan><tspan
         sodipodi:role="line"
         style="font-size:45px"
         x="300.95486"
         y="2317.7266"
         id="tspan3131">agu sorĉistine!</tspan></text>
    <text
       xml:space="preserve"
       style="font-size:12px;font-style:normal;font-variant:normal;font-weight:normal;font-stretch:normal;text-align:center;line-height:125%;letter-spacing:0px;word-spacing:0px;text-anchor:middle;fill:#000000;fill-opacity:1;stroke:none;font-family:Lavi;-inkscape-font-specification:Lavi"
       x="323.6976"
       y="2465.5493"
       id="text4246-4-3-4-7"
       sodipodi:linespacing="125%"><tspan
         sodipodi:role="line"
         style="font-size:45px"
         x="323.6976"
         y="2465.5493"
         id="tspan4253-3-4-4" /><tspan
         sodipodi:role="line"
         style="font-size:45px"
         x="331.60776"
         y="2521.7993"
         id="tspan4438">Kiel </tspan><tspan
         sodipodi:role="line"
         style="font-size:45px"
         x="323.6976"
         y="2578.0493"
         id="tspan3139">plenkreskulo!</tspan></text>
    <text
       xml:space="preserve"
       style="font-size:12px;font-style:normal;font-variant:normal;font-weight:normal;font-stretch:normal;text-align:center;line-height:125%;letter-spacing:0px;word-spacing:0px;text-anchor:middle;fill:#000000;fill-opacity:1;stroke:none;font-family:Lavi;-inkscape-font-specification:Lavi"
       x="313.21371"
       y="2330.6238"
       id="text4246-4-3-4-7-0"
       sodipodi:linespacing="125%"><tspan
         sodipodi:role="line"
         style="font-size:45px"
         x="313.21371"
         y="2330.6238"
         id="tspan4253-3-4-4-0" /><tspan
         sodipodi:role="line"
         style="font-size:45px"
         x="321.12387"
         y="2386.8738"
         id="tspan4434">Al ili parolu </tspan><tspan
         sodipodi:role="line"
         style="font-size:45px"
         x="313.21371"
         y="2443.1238"
         id="tspan3135">rekte!</tspan></text>
    <text
       xml:space="preserve"
       style="font-size:12px;font-style:normal;font-variant:normal;font-weight:normal;font-stretch:normal;text-align:center;line-height:125%;letter-spacing:0px;word-spacing:0px;text-anchor:middle;fill:#000000;fill-opacity:1;stroke:none;font-family:Lavi;-inkscape-font-specification:Lavi"
       x="2012.5074"
       y="1478.5627"
       id="text4246-4-3-5-1"
       sodipodi:linespacing="125%"><tspan
         sodipodi:role="line"
         style="font-size:45px"
         x="2020.4176"
         y="1478.5627"
         id="tspan4482">Ĉu vi vere ne </tspan><tspan
         sodipodi:role="line"
         style="font-size:45px"
         x="2020.4176"
         y="1534.8127"
         id="tspan3120">povus veni kaj helpi </tspan><tspan
         sodipodi:role="line"
         style="font-size:45px"
         x="2012.5074"
         y="1591.0627"
         id="tspan3122">min paroli al ili?</tspan></text>
    <text
       xml:space="preserve"
       style="font-size:12px;font-style:normal;font-variant:normal;font-weight:normal;font-stretch:normal;text-align:center;line-height:125%;letter-spacing:0px;word-spacing:0px;text-anchor:middle;fill:#000000;fill-opacity:1;stroke:none;font-family:Lavi;-inkscape-font-specification:Lavi"
       x="1265.6389"
       y="2882.4951"
       id="text4246-4-3-5-1-7"
       sodipodi:linespacing="125%"><tspan
         sodipodi:role="line"
         style="font-size:45px"
         x="1273.5491"
         y="2882.4951"
         id="tspan4515">Oh ve, mi cedas! </tspan><tspan
         sodipodi:role="line"
         style="font-size:45px"
         x="1273.5491"
         y="2938.7451"
         id="tspan3146">Eble mi povus veni kun </tspan><tspan
         sodipodi:role="line"
         style="font-size:45px"
         x="1265.6389"
         y="2994.9951"
         id="tspan3148">vi por paroli al ili...</tspan></text>
  </g>
</svg>
