<?xml version="1.0" encoding="UTF-8" standalone="no"?>
<!-- Created with Inkscape (http://www.inkscape.org/) -->

<svg
   xmlns:dc="http://purl.org/dc/elements/1.1/"
   xmlns:cc="http://creativecommons.org/ns#"
   xmlns:rdf="http://www.w3.org/1999/02/22-rdf-syntax-ns#"
   xmlns:svg="http://www.w3.org/2000/svg"
   xmlns="http://www.w3.org/2000/svg"
   xmlns:xlink="http://www.w3.org/1999/xlink"
   xmlns:sodipodi="http://sodipodi.sourceforge.net/DTD/sodipodi-0.dtd"
   xmlns:inkscape="http://www.inkscape.org/namespaces/inkscape"
   id="svg2"
   version="1.1"
   inkscape:version="0.48.4 r9939"
   width="2481"
   height="3503"
   sodipodi:docname="Pepper-and-Carrot_by-David-Revoy_E16P04.svg">
  <metadata
     id="metadata8">
    <rdf:RDF>
      <cc:Work
         rdf:about="">
        <dc:format>image/svg+xml</dc:format>
        <dc:type
           rdf:resource="http://purl.org/dc/dcmitype/StillImage" />
        <dc:title />
      </cc:Work>
    </rdf:RDF>
  </metadata>
  <defs
     id="defs6" />
  <sodipodi:namedview
     pagecolor="#ffffff"
     bordercolor="#666666"
     borderopacity="1"
     objecttolerance="10"
     gridtolerance="10"
     guidetolerance="10"
     inkscape:pageopacity="0"
     inkscape:pageshadow="2"
     inkscape:window-width="1366"
     inkscape:window-height="716"
     id="namedview4"
     showgrid="false"
     inkscape:zoom="0.56889775"
     inkscape:cx="1123.7984"
     inkscape:cy="213.71174"
     inkscape:window-x="0"
     inkscape:window-y="0"
     inkscape:window-maximized="1"
     inkscape:current-layer="layer1" />
  <g
     inkscape:groupmode="layer"
     id="layer2"
     inkscape:label="artwork"
     sodipodi:insensitive="true">
    <image
       sodipodi:absref="/home/yann/Bureau/Esperanto/PepperKarot/peppercarrot_ep16_translation-master/eo/../gfx_Pepper-and-Carrot_by-David-Revoy_E16P04.png"
       xlink:href="../gfx_Pepper-and-Carrot_by-David-Revoy_E16P04.png"
       width="2481"
       height="3503"
       id="image10"
       x="0"
       y="0" />
  </g>
  <g
     inkscape:groupmode="layer"
     id="layer3"
     inkscape:label="speechbubbles">
    <path
       style="fill:#ffffff;stroke:none"
       d="m 202.43853,265.82928 c 8.45721,-58.82058 37.6728,-115.12036 213.73524,-122.68297 88.03126,-3.7813 257.71945,-5.38247 342.19885,22.09133 84.47942,27.47381 83.75005,84.02261 84.13447,106.29038 0.38441,22.26778 7.44504,77.46676 -79.32614,99.10547 -86.77118,21.63871 -267.37419,9.71717 -338.49112,10.55747 -142.2339,1.6806 -217.63829,-0.2414 -222.2513,-115.36168 z"
       id="path3270"
       inkscape:connector-curvature="0"
       sodipodi:nodetypes="csssssc" />
    <path
       style="color:#000000;fill:#ffffff;fill-opacity:1;fill-rule:nonzero;stroke:none;stroke-width:1px;marker:none;visibility:visible;display:inline;overflow:visible;enable-background:accumulate"
       d="m 323.10094,373.35194 c 42.2321,-35.69292 407.85531,-57.27084 504.69919,1.38816 80.83423,48.96186 49.2954,170.89433 -22.59382,198.97918 -71.889,28.08494 -311.03758,24.82512 -415.851,12.09217 -99.79678,-12.12357 -116.55434,-48.71706 -121.46323,-122.39782 -2.00352,-30.07198 12.97661,-54.36863 55.20886,-90.06169 z"
       id="path4040-4"
       inkscape:connector-curvature="0"
       sodipodi:nodetypes="zssssz" />
    <path
       style="color:#000000;display:inline;overflow:visible;visibility:visible;fill:#ffffff;fill-opacity:1;fill-rule:nonzero;stroke:none;stroke-width:1px;marker:none;enable-background:accumulate"
       d="M 548.56247,346.28345 C 818.67335,851.31918 962.4842,769.73858 1139.7545,716.83443 950.46167,803.3409 775.67489,874.14978 501.74228,369.42576 c -14.05374,-25.89419 46.82019,-23.14231 46.82019,-23.14231 z"
       id="path4008"
       inkscape:connector-curvature="0"
       sodipodi:nodetypes="ccsc" />
    <path
       style="color:#000000;display:inline;overflow:visible;visibility:visible;fill:#ffffff;fill-opacity:1;fill-rule:nonzero;stroke:none;stroke-width:1px;marker:none;enable-background:accumulate"
       d="m 748.16188,1059.3648 c -4.9419,-27.0877 8.23649,-99.03943 109.54588,-93.11397 101.30924,5.92537 117.78244,39.78497 120.25334,49.94287 2.4709,10.1579 23.8859,67.7194 -55.18475,82.9563 -79.07073,15.2368 -149.90485,-0.8466 -174.61447,-39.7852 z"
       id="path3525"
       inkscape:connector-curvature="0" />
    <path
       style="color:#000000;fill:#ffffff;fill-opacity:1;fill-rule:nonzero;stroke:none;stroke-width:1px;marker:none;visibility:visible;display:inline;overflow:visible;enable-background:accumulate"
       d="m 922.15463,1127.7684 c -6.01709,-28.4665 10.02845,-104.0808 133.37947,-97.8537 123.3506,6.2271 143.4078,41.8102 146.4162,52.4852 3.0086,10.6749 29.0828,71.1664 -67.191,87.1789 -96.2737,16.0123 -182.51908,-0.8897 -212.60467,-41.8104 z"
       id="path3525-0"
       inkscape:connector-curvature="0" />
    <path
       style="color:#000000;fill:#ffffff;fill-opacity:1;fill-rule:nonzero;stroke:none;stroke-width:1px;marker:none;visibility:visible;display:inline;overflow:visible;enable-background:accumulate"
       d="m 954.54303,1256.5034 c 0.52793,-33.7716 19.08872,-70.9259 86.39527,-89.8277 67.3069,-18.9018 202.4282,-7.0981 226.6564,-2.1882 30.602,6.2015 110.1722,27.4352 132.1796,53.3017 22.0076,25.8663 29.0563,58.2886 19.7509,81.3011 -9.3052,23.0124 -43.1255,45.1817 -71.8979,52.1036 -28.7722,6.9219 -205.978,10.6813 -238.6039,3.6272 -32.6259,-7.054 -85.9176,-10.9428 -113.1484,-28.7785 -27.60679,-18.0818 -41.86006,-35.7676 -41.33197,-69.5392 z"
       id="path3373"
       inkscape:connector-curvature="0"
       sodipodi:nodetypes="zsssssssz" />
    <path
       style="color:#000000;display:inline;overflow:visible;visibility:visible;fill:#ffffff;fill-opacity:1;fill-rule:nonzero;stroke:none;stroke-width:1px;marker:none;enable-background:accumulate"
       d="m 1353.1045,1486.1109 c -17.6743,6.4442 -35.9622,13.4942 -56.6916,8.7928 -5.9074,-1.4988 -12.0586,-3.5824 -17.8157,-7.536 -5.6534,-5.6714 -8.1342,-14.8796 -7.7374,-22.3553 -0.038,-11.0732 3.5645,-21.3765 -0.132,-33.3984 -2.8396,-8.7238 -9.889,-13.0983 -15.6943,-17.3851 -14.8818,-10.591 -30.3953,-18.9029 -44.5591,-32.1972 -16.4134,-13.8335 -33.2388,-29.725 -44.6315,-51.3879 -4.4162,-8.6329 -8.2604,-18.1551 -8.7808,-27.4678 -2.1762,-24.1255 6.2222,-46.2462 22.341,-52.6796 10.8776,-2.6518 26.1352,8.6451 30.8391,24.9803 2.5746,8.6101 0.6371,16.5032 -2.7594,21.9348 -4.4219,12.1322 -2.2192,29.1384 4.6177,43.565 5.515,11.975 19.9292,13.9114 28.768,21.8543 10.6917,14.3128 22.5926,18.8565 35.242,26.2872 5.7643,3.498 17.2268,13.0885 21.8547,19.5004 5.3367,10.6553 3.6397,23.8849 1.2988,32.7032 -2.2102,9.2491 -6.7566,13.924 -2.6636,25.5015 2.0954,8.2407 10.4347,11.3429 15.4067,14.2225 16.3541,6.7626 22.9447,11.3822 37.3062,7.063 1.3135,-0.5605 2.5522,-1.2752 3.7912,-1.9972 z"
       id="path4496"
       inkscape:connector-curvature="0"
       sodipodi:nodetypes="cccccccccccccccccccccc" />
    <path
       style="color:#000000;display:inline;overflow:visible;visibility:visible;fill:#ffffff;fill-opacity:1;fill-rule:nonzero;stroke:none;stroke-width:1px;marker:none;enable-background:accumulate"
       d="m 391.02755,1750.4783 c -7.87244,16.8439 -52.27414,18.2563 -68.61963,14.8325 32.94874,18.8431 31.80005,30.5506 -12.93504,32.3684 75.02151,33.9602 13.71494,28.8212 1.62265,37.4326 58.90577,11.7033 32.55073,26.2686 22.06346,40.7678 67.70636,0.4981 45.54916,23.7401 48.40285,42.2509 5.73985,-8.6861 33.00837,-35.1304 34.64912,-5.6864 44.78382,-28.0911 98.72475,-46.2366 103.00783,2.9231 18.04415,-24.731 36.03415,-35.1833 34.64909,-5.6866 44.70777,-38.364 84.8839,-24.5547 125.29811,-13.7116 10.61459,-11.5793 11.8514,-29.3682 46.19207,-25.1995 -4.81497,-11.4771 6.77989,-19.3663 32.9649,-24.0513 -34.79574,-6.933 -41.20847,-14.0841 23.39941,-21.7799 -49.16281,-0.7444 -95.00748,-2.2695 -37.3288,-28.5144 -18.0954,-0.6352 -61.02864,21.2643 -41.01147,-42.8249 -31.11606,20.5173 -64.31411,31.8413 -105.94744,-11.137 -19.70301,21.4711 -53.87743,32.0959 -68.745,5.2768 -5.3437,11.4334 -27.5015,15.7334 -46.31187,16.2548 -7.274,-4.5416 -14.77629,-10.7102 -22.60525,-18.7922 -12.79584,16.9699 -31.93697,28.4306 -68.74499,5.2769 z"
       id="path3549-3-7"
       inkscape:connector-curvature="0"
       sodipodi:nodetypes="cccccccccccccccccccc" />
    <path
       style="color:#000000;fill:#ffffff;fill-opacity:1;fill-rule:nonzero;stroke:none;stroke-width:1px;marker:none;visibility:visible;display:inline;overflow:visible;enable-background:accumulate"
       d="m 446.78095,1892.888 c 17.87888,-19.988 168.79685,-41.6839 221.83907,-0.4927 53.04223,41.1912 20.86909,90.6206 -9.56503,106.3481 -30.43404,15.7275 -119.99715,32.9529 -160.8657,19.4722 -40.86863,-13.4808 -72.70269,-33.6319 -74.78085,-74.893 -0.8482,-16.8404 5.4936,-30.4465 23.37251,-50.4346 z"
       id="path4040"
       inkscape:connector-curvature="0"
       sodipodi:nodetypes="zssssz" />
    <path
       style="fill:#ffffff;fill-rule:evenodd;stroke:none;stroke-width:1px;stroke-linecap:butt;stroke-linejoin:miter;stroke-opacity:1"
       d="m 1714.2654,2080.7017 c 84.2926,8.4181 101.7865,32.4194 119.9299,8.2333 13.6724,-32.3165 73.9597,-7.8033 80.1837,-16.9339 13.3752,-19.6213 -23.6159,-28.5877 -14.9153,-48.4748 8.7006,-19.887 29.8306,-43.5029 29.8306,-43.5029 l 16.1582,9.9435 c 0,0 -26.2419,26.5691 -24.999,37.7556 1.2429,11.1864 26.242,48.0074 3.869,56.708 -22.3729,8.7006 -76.8117,-7.6784 -88.6225,17.2796 -11.8107,24.9579 -83.1478,-13.4558 -121.4346,-21.0084 z"
       id="path4407"
       inkscape:connector-curvature="0"
       sodipodi:nodetypes="ccssccsszc" />
    <path
       style="color:#000000;display:inline;overflow:visible;visibility:visible;fill:#ffffff;fill-opacity:1;fill-rule:nonzero;stroke:none;stroke-width:1px;marker:none;enable-background:accumulate"
       d="m 666.6939,1912.014 c 38.36403,14.2827 84.86956,27.5154 96.07851,29.8219 -4.37169,-11.6312 -5.81209,-22.2337 -7.1164,-30.5082 20.64043,5.7806 115.57926,37.1569 135.10867,51.9928 -46.72733,-38.0638 -117.47092,-65.994 -151.73555,-73.3007 -0.59494,10.8648 0.83117,17.7165 0.34378,23.4081 -17.19324,-2.942 -71.86892,-22.6256 -71.86892,-22.6256 z"
       id="path5066"
       inkscape:connector-curvature="0"
       inkscape:transform-center-x="-112.42356"
       inkscape:transform-center-y="21.85935" />
    <path
       style="fill:#ffffff;stroke:none"
       d="m 353.13771,2354.4598 c 1.57792,-48.8101 61.48385,-55.979 101.8983,-53.8514 33.60284,1.7691 162.82634,-10.5466 199.65312,34.0076 15.72555,19.0253 13.17788,68.6769 -8.67995,89.3454 -18.63956,17.6253 -52.52022,18.1676 -93.81019,23.685 -51.26978,6.851 -124.76666,-5.2129 -165.03504,-14.0199 -18.95548,-4.1457 -35.60424,-30.3567 -34.02624,-79.1667 z"
       id="path3100"
       inkscape:connector-curvature="0"
       sodipodi:nodetypes="zsssssz" />
    <path
       style="color:#000000;fill:#ffffff;fill-opacity:1;fill-rule:nonzero;stroke:none;stroke-width:1px;marker:none;visibility:visible;display:inline;overflow:visible;enable-background:accumulate"
       d="m 451.84854,2518.3411 c -3.20792,-91.1778 129.58828,-81.4052 224.12157,-88.5166 51.59191,-3.8811 238.8247,6.2785 256.62097,87.1698 10.25102,46.5956 -53.31124,86.381 -78.49352,93.3776 -25.18212,6.9963 -146.86428,16.07 -186.02995,13.938 -39.1655,-2.1319 -220.01194,16.5436 -216.21907,-105.9688 z"
       id="path4974"
       inkscape:connector-curvature="0"
       sodipodi:nodetypes="cssssc" />
    <path
       style="fill:#ffffff;fill-rule:evenodd;stroke:none"
       d="m 1237.025,3033.6211 c -16.1122,-74.9353 -84.5004,-262.1385 -157.3595,-244.8772 -44.3232,10.5007 -83.08356,24.8303 -97.16387,-60.7422 -3.44185,-9.3115 -49.4378,-55.5178 -42.58455,-45.6614 45.74153,108.3097 35.68884,155.8485 137.95182,126.0514 82.6056,-23.6523 159.1561,225.2294 159.1561,225.2294 z"
       id="path4652"
       inkscape:connector-curvature="0"
       sodipodi:nodetypes="cscccc" />
    <path
       style="fill:#ffffff;stroke:none"
       d="m 713.39296,2658.7375 c 1.91496,-56.8946 74.62014,-65.2509 123.6694,-62.7709 40.78226,2.0622 197.61514,-12.2934 242.31014,39.6403 19.0853,22.1765 15.9934,80.0519 -10.5345,104.1437 -22.622,20.5446 -63.7414,21.1767 -113.85326,27.608 -62.22384,7.9857 -151.42382,-6.0763 -200.29568,-16.3421 -23.00551,-4.8323 -43.21134,-35.3846 -41.2961,-92.279 z"
       id="path3100-7"
       inkscape:connector-curvature="0"
       sodipodi:nodetypes="zsssssz" />
    <path
       style="color:#000000;fill:#ffffff;fill-opacity:1;fill-rule:nonzero;stroke:none;stroke-width:1px;marker:none;visibility:visible;display:inline;overflow:visible;enable-background:accumulate"
       d="m 528.69684,579.84113 c 28.42749,-24.99351 274.53777,-40.10316 339.72583,0.97204 54.41158,34.2849 33.182,119.66652 -15.20846,139.33257 -48.39031,19.66611 -209.36731,17.38347 -279.91989,8.46738 -67.17574,-8.48937 -78.45569,-34.11348 -81.76,-85.70747 -1.3486,-21.05751 8.7349,-38.07093 37.16252,-63.06452 z"
       id="path4040-4-3"
       inkscape:connector-curvature="0"
       sodipodi:nodetypes="zssssz" />
  </g>
  <g
     inkscape:groupmode="layer"
     id="layer1"
     inkscape:label="txt">
    <text
       xml:space="preserve"
       style="font-size:12px;font-style:normal;font-variant:normal;font-weight:normal;font-stretch:normal;text-align:center;line-height:125%;letter-spacing:0px;word-spacing:0px;text-anchor:middle;fill:#000000;fill-opacity:1;stroke:none;font-family:Lavi;-inkscape-font-specification:Lavi"
       x="515.20721"
       y="218.80753"
       id="text4246"
       sodipodi:linespacing="125%"><tspan
         sodipodi:role="line"
         style="font-size:45px"
         x="523.11737"
         y="218.80753"
         id="tspan4337">Ni ne plu tute junas </tspan><tspan
         sodipodi:role="line"
         style="font-size:45px"
         x="523.11737"
         y="275.05753"
         id="tspan3055">kaj jen la bona momento </tspan><tspan
         sodipodi:role="line"
         style="font-size:45px"
         x="515.20721"
         y="331.30753"
         id="tspan3057">por leciono.</tspan></text>
    <text
       xml:space="preserve"
       style="font-size:12px;font-style:normal;font-variant:normal;font-weight:normal;font-stretch:normal;text-align:center;line-height:125%;letter-spacing:0px;word-spacing:0px;text-anchor:middle;fill:#000000;fill-opacity:1;stroke:none;font-family:Lavi;-inkscape-font-specification:Lavi"
       x="576.46271"
       y="410.25284"
       id="text4246-9"
       sodipodi:linespacing="125%"><tspan
         sodipodi:role="line"
         style="font-size:45px"
         x="584.37286"
         y="410.25284"
         id="tspan4199">Mi proponas </tspan><tspan
         sodipodi:role="line"
         style="font-size:45px"
         x="584.37286"
         y="466.50284"
         id="tspan3061">renkontiĝon kun </tspan></text>
    <text
       xml:space="preserve"
       style="font-size:12px;font-style:normal;font-variant:normal;font-weight:normal;font-stretch:normal;text-align:center;line-height:125%;letter-spacing:0px;word-spacing:0px;text-anchor:middle;fill:#000000;fill-opacity:1;stroke:none;font-family:Lavi;-inkscape-font-specification:Lavi"
       x="865.90961"
       y="1049.8156"
       id="text4246-9-6"
       sodipodi:linespacing="125%"><tspan
         sodipodi:role="line"
         style="font-size:45px"
         x="865.90961"
         y="1049.8156"
         id="tspan4183-4">He he!</tspan></text>
    <text
       xml:space="preserve"
       style="font-size:12px;font-style:normal;font-variant:normal;font-weight:normal;font-stretch:normal;text-align:center;line-height:125%;letter-spacing:0px;word-spacing:0px;text-anchor:middle;fill:#000000;fill-opacity:1;stroke:none;font-family:Lavi;-inkscape-font-specification:Lavi"
       x="1066.0908"
       y="1116.4899"
       id="text4246-9-6-2"
       sodipodi:linespacing="125%"><tspan
         sodipodi:role="line"
         style="font-size:45px"
         x="1066.0908"
         y="1116.4899"
         id="tspan4183-4-1">La Saĝulo?</tspan></text>
    <text
       xml:space="preserve"
       style="font-size:12px;font-style:normal;font-variant:normal;font-weight:normal;font-stretch:normal;text-align:center;line-height:125%;letter-spacing:0px;word-spacing:0px;text-anchor:middle;fill:#000000;fill-opacity:1;stroke:none;font-family:Lavi;-inkscape-font-specification:Lavi"
       x="1187.1451"
       y="1244.1125"
       id="text4246-9-6-2-4"
       sodipodi:linespacing="125%"><tspan
         sodipodi:role="line"
         style="font-size:45px"
         x="1195.0553"
         y="1244.1125"
         id="tspan3076">Ĉu ili ne tro junas </tspan><tspan
         sodipodi:role="line"
         style="font-size:45px"
         x="1187.1451"
         y="1300.3625"
         id="tspan3074">por kompreni tion?</tspan></text>
    <text
       xml:space="preserve"
       style="font-size:12px;font-style:normal;font-variant:normal;font-weight:normal;font-stretch:normal;text-align:center;line-height:125%;letter-spacing:0px;word-spacing:0px;text-anchor:middle;fill:#000000;fill-opacity:1;stroke:none;font-family:Lavi;-inkscape-font-specification:Lavi"
       x="535.57526"
       y="1824.1853"
       id="text4246-9-6-2-4-7"
       sodipodi:linespacing="125%"><tspan
         sodipodi:role="line"
         style="font-size:45px"
         x="543.48541"
         y="1824.1853"
         id="tspan3088">Tro juna por </tspan><tspan
         sodipodi:role="line"
         style="font-size:45px"
         x="535.57526"
         y="1880.4353"
         id="tspan3092">kio !?</tspan></text>
    <text
       xml:space="preserve"
       style="font-size:15.14146233px;font-style:normal;font-variant:normal;font-weight:normal;font-stretch:normal;text-align:center;line-height:125%;letter-spacing:0px;word-spacing:0px;text-anchor:middle;fill:#000000;fill-opacity:1;stroke:none;font-family:Lavi;-inkscape-font-specification:Lavi"
       x="582.27185"
       y="1888.0491"
       id="text4246-9-6-2-4-7-3"
       sodipodi:linespacing="125%"
       transform="scale(0.96046588,1.0411614)"><tspan
         sodipodi:role="line"
         style="font-size:56.78048325px"
         x="582.27185"
         y="1888.0491"
         id="tspan4359">Ni iru!</tspan></text>
    <path
       style="color:#000000;display:inline;overflow:visible;visibility:visible;fill:#ffffff;fill-opacity:1;fill-rule:nonzero;stroke:none;stroke-width:1px;marker:none;enable-background:accumulate"
       d="m 1859.9208,2026.0859 c -20.4432,-14.3102 -27.5983,-27.5982 -25.5539,-35.7755 2.0443,-8.1772 20.4431,-50.0857 42.9305,-55.1965 22.4875,-5.1108 80.7504,-11.2437 94.0385,-6.1329 13.2881,5.1107 51.1079,38.842 51.1079,56.2186 0,17.3767 -7.1551,51.1079 -27.5983,61.3294 -20.4431,10.2216 -110.393,16.3546 -134.9247,-20.4431 z"
       id="path3349"
       inkscape:connector-curvature="0" />
    <text
       xml:space="preserve"
       style="font-size:12px;font-style:normal;font-variant:normal;font-weight:normal;font-stretch:normal;text-align:center;line-height:125%;letter-spacing:0px;word-spacing:0px;text-anchor:middle;fill:#000000;fill-opacity:1;stroke:none;font-family:Lavi;-inkscape-font-specification:Lavi"
       x="1926.6875"
       y="2003.7067"
       id="text4246-9-6-2-4-7-38"
       sodipodi:linespacing="125%"><tspan
         sodipodi:role="line"
         style="font-size:45px"
         x="1926.6875"
         y="2003.7067"
         id="tspan4364-4">&quot;Ni&quot; ?</tspan></text>
    <text
       xml:space="preserve"
       style="font-size:12px;font-style:normal;font-variant:normal;font-weight:normal;font-stretch:normal;text-align:center;line-height:125%;letter-spacing:0px;word-spacing:0px;text-anchor:middle;fill:#000000;fill-opacity:1;stroke:none;font-family:Lavi;-inkscape-font-specification:Lavi"
       x="508.82184"
       y="2356.8972"
       id="text4246-9-6-2-4-7-3-4-8-5"
       sodipodi:linespacing="125%"><tspan
         sodipodi:role="line"
         style="font-size:45px"
         x="516.73199"
         y="2356.8972"
         id="tspan4297">Bone, </tspan><tspan
         sodipodi:role="line"
         style="font-size:45px"
         x="508.82184"
         y="2413.1472"
         id="tspan3096">ni alvenis.</tspan><tspan
         sodipodi:role="line"
         style="font-size:45px"
         x="508.82184"
         y="2469.3972"
         id="tspan4251" /></text>
    <text
       xml:space="preserve"
       style="font-size:12px;font-style:normal;font-variant:normal;font-weight:normal;font-stretch:normal;text-align:center;line-height:125%;letter-spacing:0px;word-spacing:0px;text-anchor:middle;fill:#000000;fill-opacity:1;stroke:none;font-family:Lavi;-inkscape-font-specification:Lavi"
       x="691.08716"
       y="2458.3796"
       id="text4246-9-6-2-4-7-3-4-8-5-3"
       sodipodi:linespacing="125%"><tspan
         sodipodi:role="line"
         style="font-size:45px"
         x="691.08716"
         y="2458.3796"
         id="tspan4580-41" /><tspan
         sodipodi:role="line"
         style="font-size:45px"
         x="698.99731"
         y="2514.6296"
         id="tspan3103">Mi lasas vin konatiĝi </tspan><tspan
         sodipodi:role="line"
         style="font-size:45px"
         x="691.08716"
         y="2570.8796"
         id="tspan3113">kun la Saĝulo.</tspan><tspan
         sodipodi:role="line"
         style="font-size:45px"
         x="691.08716"
         y="2627.1296"
         id="tspan4251-3" /></text>
    <text
       xml:space="preserve"
       style="font-size:12px;font-style:normal;font-variant:normal;font-weight:normal;font-stretch:normal;text-align:center;line-height:125%;letter-spacing:0px;word-spacing:0px;text-anchor:middle;fill:#000000;fill-opacity:1;stroke:none;font-family:Lavi;-inkscape-font-specification:Lavi"
       x="905.10229"
       y="2670.2092"
       id="text4246-9-6-2-4-7-3-4-8-5-3-2"
       sodipodi:linespacing="125%"><tspan
         sodipodi:role="line"
         style="font-size:45px"
         x="913.01245"
         y="2670.2092"
         id="tspan4427">Li staras super </tspan><tspan
         sodipodi:role="line"
         style="font-size:45px"
         x="905.10229"
         y="2726.4592"
         id="tspan3120">tiu deklivo.</tspan><tspan
         sodipodi:role="line"
         style="font-size:45px"
         x="905.10229"
         y="2782.7092"
         id="tspan4251-3-4" /></text>
    <path
       style="fill:#ffffff;fill-rule:evenodd;stroke:none"
       d="m 1589.2502,3119.4738 c 25.8165,65.5224 36.0341,60.4909 40.6253,30.0122 7.1521,11.0211 8.2489,43.3168 29.7199,4.027 12.5069,28.5744 22.9719,24.9438 31.764,-5.0742 21.662,54.1529 35.7837,22.9105 47.9921,10.8477 29.9435,30.3142 113.4167,35.0321 150.5394,-3.9544 7.5473,13.9277 18.2226,33.8757 25.6353,4.9428 10.6069,12.1791 25.1555,-4.7723 42.3583,-41.3384 -2.5419,23.7947 -14.4326,64.3406 9.3978,40.8797 2.4787,17.0096 0.01,39.5072 50.788,2.9427 -15.3063,48.4386 27.6884,-0.8275 69.3395,-47.842 -26.4108,41.0085 -62.415,91.4525 -18.0721,75.0138 -25.2866,34.3511 -26.123,57.2402 47.1793,45.3739 -48.078,21.855 -84.841,45.0556 -33.6051,78.7237 -32.2331,-0.9324 -40.2527,9.4602 -5.1129,40.039 -49.9701,-20.2556 -54.1266,-10.9393 -41.654,9.1108 -10.2862,0.3254 -28.166,-16.6353 -26.3907,11.1477 -27.9257,-17.5396 -66.0678,-55.3389 -62.5567,-10.5391 -28.8335,-34.414 -34.009,-22.0955 -37.6737,-6.7926 -51.3232,-52.0175 -45.0293,-20.9672 -55.1394,-13.5668 -14.7801,-19.2382 -14.6234,-3.4666 -12.1496,17.7351 -14.0875,-22.4795 -27.0162,-31.1547 -36.9755,-4.4474 -8.85,-12.368 -17.4584,-29.8866 -28.1076,-3.9334 -12.2306,-14.182 -25.263,-19.8309 -41.7618,11.4096 -6.5599,-18.8971 -16.4421,-32.508 -50.5722,-7.54 -5.791,-40.5341 -34.8009,-34.0262 -71.3707,-12.2024 1.4515,-23.8104 -1.1902,-39.4578 -39.559,16.147 8.1526,-24.3123 17.4089,-49.94 -5.5288,-37.1984 14.9407,-46.5166 -38.5381,-5.3246 -69.8694,7.476 36.0437,-39.0106 88.6429,-86.403 46.8813,-86.0215 29.0804,-27.001 32.2899,-40.5096 8.3379,-39.8521 2.0786,-8.3529 31.4035,-23.6559 -1.3393,-23.1263 17.4491,-11.3569 42.9043,-8.0504 36.8804,-62.3997 z"
       id="path4656"
       inkscape:connector-curvature="0"
       sodipodi:nodetypes="ccccccccccccccccccccccccccccccccc" />
    <path
       style="fill:#ffffff;fill-rule:evenodd;stroke:none;stroke-width:1px;stroke-linecap:butt;stroke-linejoin:miter;stroke-opacity:1"
       d="m 1395.9187,3167.1846 119.1853,69.1782 -1.1569,-33.8487 82.9076,45.0833 5.0953,-29.1891 -103.505,-45.5434 0.025,38.633 z"
       id="path4667"
       inkscape:connector-curvature="0"
       inkscape:transform-center-x="75.322047"
       inkscape:transform-center-y="-6.237049" />
    <text
       xml:space="preserve"
       style="font-size:12px;font-style:normal;font-variant:normal;font-weight:normal;font-stretch:normal;text-align:center;line-height:125%;letter-spacing:0px;word-spacing:0px;text-anchor:middle;fill:#000000;fill-opacity:1;stroke:none;font-family:Lavi;-inkscape-font-specification:Lavi"
       x="1817.1235"
       y="3238.427"
       id="text4246-9-6-2-4-7-3-4-8-5-9"
       sodipodi:linespacing="125%"><tspan
         sodipodi:role="line"
         style="font-size:45px"
         x="1825.0337"
         y="3238.427"
         id="tspan4445">Ĉu vi pretas ricevi </tspan></text>
    <text
       xml:space="preserve"
       style="font-size:10.62674809px;font-style:normal;font-variant:normal;font-weight:normal;font-stretch:normal;text-align:center;line-height:125%;letter-spacing:0px;word-spacing:0px;text-anchor:middle;fill:#000000;fill-opacity:1;stroke:#000000;stroke-width:1.59401214;stroke-miterlimit:4;stroke-opacity:1;stroke-dasharray:none;font-family:Lavi;-inkscape-font-specification:Lavi"
       x="2586.3701"
       y="2951.2043"
       id="text4246-6-6-6-3-9"
       sodipodi:linespacing="125%"
       transform="matrix(0.89466356,0,-0.16927076,1.1177386,0,0)"><tspan
         sodipodi:role="line"
         style="font-size:53.13374329px;stroke:#000000;stroke-width:1.59401214;stroke-miterlimit:4;stroke-opacity:1;stroke-dasharray:none"
         x="2586.3701"
         y="2951.2043"
         id="tspan4182-3-7">bonan lecionon?</tspan></text>
    <text
       xml:space="preserve"
       style="font-size:10.28139114px;font-style:normal;font-variant:normal;font-weight:normal;font-stretch:normal;text-align:center;line-height:125%;letter-spacing:0px;word-spacing:0px;text-anchor:middle;fill:#000000;fill-opacity:1;stroke:#000000;stroke-width:1.54220855;stroke-miterlimit:4;stroke-opacity:1;stroke-dasharray:none;font-family:Lavi;-inkscape-font-specification:Lavi"
       x="708.45795"
       y="491.92728"
       id="text4246-6-6-6-3-9-0"
       sodipodi:linespacing="125%"
       transform="matrix(0.92481111,0,-0.17497469,1.0813019,0,0)"><tspan
         sodipodi:role="line"
         style="font-size:51.40695572px;stroke:#000000;stroke-width:1.54220855;stroke-miterlimit:4;stroke-opacity:1;stroke-dasharray:none"
         x="708.45795"
         y="491.92728"
         id="tspan4182-3-7-6">la Saĝulo de la monto!</tspan></text>
    <text
       xml:space="preserve"
       style="font-size:12px;font-style:normal;font-variant:normal;font-weight:normal;font-stretch:normal;text-align:center;line-height:125%;letter-spacing:0px;word-spacing:0px;text-anchor:middle;fill:#000000;fill-opacity:1;stroke:none;font-family:Lavi;-inkscape-font-specification:Lavi"
       x="698.46021"
       y="636.0462"
       id="text4246-9-9"
       sodipodi:linespacing="125%"><tspan
         sodipodi:role="line"
         style="font-size:45px"
         x="706.37036"
         y="636.0462"
         id="tspan4506">Lia instruado </tspan><tspan
         sodipodi:role="line"
         style="font-size:45px"
         x="698.46021"
         y="692.2962"
         id="tspan3065">nepras.</tspan></text>
  </g>
</svg>
