<?xml version="1.0" encoding="UTF-8" standalone="no"?>
<!-- Created with Inkscape (http://www.inkscape.org/) -->

<svg
   xmlns:dc="http://purl.org/dc/elements/1.1/"
   xmlns:cc="http://creativecommons.org/ns#"
   xmlns:rdf="http://www.w3.org/1999/02/22-rdf-syntax-ns#"
   xmlns:svg="http://www.w3.org/2000/svg"
   xmlns="http://www.w3.org/2000/svg"
   xmlns:xlink="http://www.w3.org/1999/xlink"
   xmlns:sodipodi="http://sodipodi.sourceforge.net/DTD/sodipodi-0.dtd"
   xmlns:inkscape="http://www.inkscape.org/namespaces/inkscape"
   id="svg2"
   version="1.1"
   inkscape:version="0.91 r13725"
   width="2481"
   height="3503"
   sodipodi:docname="Pepper-and-Carrot_by-David-Revoy_E16P04.svg">
  <metadata
     id="metadata8">
    <rdf:RDF>
      <cc:Work
         rdf:about="">
        <dc:format>image/svg+xml</dc:format>
        <dc:type
           rdf:resource="http://purl.org/dc/dcmitype/StillImage" />
        <dc:title />
      </cc:Work>
    </rdf:RDF>
  </metadata>
  <defs
     id="defs6" />
  <sodipodi:namedview
     pagecolor="#ffffff"
     bordercolor="#666666"
     borderopacity="1"
     objecttolerance="10"
     gridtolerance="10"
     guidetolerance="10"
     inkscape:pageopacity="0"
     inkscape:pageshadow="2"
     inkscape:window-width="1920"
     inkscape:window-height="1046"
     id="namedview4"
     showgrid="false"
     inkscape:zoom="0.42773947"
     inkscape:cx="698.75764"
     inkscape:cy="995.33907"
     inkscape:window-x="0"
     inkscape:window-y="0"
     inkscape:window-maximized="1"
     inkscape:current-layer="layer3" />
  <g
     inkscape:groupmode="layer"
     id="layer2"
     inkscape:label="artwork"
     sodipodi:insensitive="true">
    <image
       sodipodi:absref="/home/rjq/Arts and Craft/Translation P&amp;C/GIT/peppercarrot_ep16_translation/mx/../gfx_Pepper-and-Carrot_by-David-Revoy_E16P04.png"
       xlink:href="../gfx_Pepper-and-Carrot_by-David-Revoy_E16P04.png"
       width="2481"
       height="3503"
       id="image10"
       x="0"
       y="0" />
  </g>
  <g
     inkscape:groupmode="layer"
     id="layer3"
     inkscape:label="speechbubbles">
    <path
       style="fill:#ffffff;stroke:none"
       d="m 166.39322,265.82928 c 9.081,-58.82058 40.4515,-115.12036 229.5001,-122.68297 94.52434,-3.7813 276.72853,-5.38247 367.43903,22.09133 90.71053,27.47381 89.92736,84.02261 90.34013,106.29038 0.41277,22.26778 7.99418,77.46676 -85.17714,99.10547 -93.17131,21.63871 -287.09539,9.71717 -363.45783,10.55747 -152.7249,1.6806 -233.69103,-0.2414 -238.64429,-115.36168 z"
       id="path3270"
       inkscape:connector-curvature="0"
       sodipodi:nodetypes="csssssc" />
    <path
       style="color:#000000;display:inline;overflow:visible;visibility:visible;fill:#ffffff;fill-opacity:1;fill-rule:nonzero;stroke:none;stroke-width:1px;marker:none;enable-background:accumulate"
       d="m 329.5117,391.52033 c 40.44115,-32.77055 390.55934,-52.58177 483.29635,1.2745 77.40629,44.95309 47.20494,156.90229 -21.63568,182.68768 C 722.33198,601.26799 493.325,598.27507 392.95642,586.58463 297.39173,575.45369 281.34481,541.8563 276.64409,474.20818 274.72554,446.59836 289.07039,424.291 329.5117,391.52033 Z"
       id="path4040-4"
       inkscape:connector-curvature="0"
       sodipodi:nodetypes="zssssz" />
    <path
       style="color:#000000;display:inline;overflow:visible;visibility:visible;fill:#ffffff;fill-opacity:1;fill-rule:nonzero;stroke:none;stroke-width:1px;marker:none;enable-background:accumulate"
       d="M 548.56247,346.28345 C 818.67335,851.31918 962.4842,769.73858 1139.7545,716.83443 950.46167,803.3409 775.67489,874.14978 501.74228,369.42576 c -14.05374,-25.89419 46.82019,-23.14231 46.82019,-23.14231 z"
       id="path4008"
       inkscape:connector-curvature="0"
       sodipodi:nodetypes="ccsc" />
    <path
       style="color:#000000;display:inline;overflow:visible;visibility:visible;fill:#ffffff;fill-opacity:1;fill-rule:nonzero;stroke:none;stroke-width:1px;marker:none;enable-background:accumulate"
       d="m 748.16188,1059.3648 c -4.9419,-27.0877 8.23649,-99.03943 109.54588,-93.11397 101.30924,5.92537 117.78244,39.78497 120.25334,49.94287 2.4709,10.1579 23.8859,67.7194 -55.18475,82.9563 -79.07073,15.2368 -149.90485,-0.8466 -174.61447,-39.7852 z"
       id="path3525"
       inkscape:connector-curvature="0" />
    <path
       style="color:#000000;display:inline;overflow:visible;visibility:visible;fill:#ffffff;fill-opacity:1;fill-rule:nonzero;stroke:none;stroke-width:1px;marker:none;enable-background:accumulate"
       d="m 922.12831,1127.7684 c -5.86932,-28.4665 9.78218,-104.0808 130.10399,-97.8537 120.3215,6.2271 139.8861,41.8102 142.8206,52.4852 2.9348,10.6749 28.3686,71.1664 -65.5409,87.1789 -93.9095,16.0123 -178.03692,-0.8897 -207.38369,-41.8104 z"
       id="path3525-0"
       inkscape:connector-curvature="0" />
    <path
       style="color:#000000;display:inline;overflow:visible;visibility:visible;fill:#ffffff;fill-opacity:1;fill-rule:nonzero;stroke:none;stroke-width:1px;marker:none;enable-background:accumulate"
       d="m 926.42022,1257.075 c 0.59322,-44.6301 21.44965,-93.7304 97.08088,-118.7096 75.6315,-24.9793 227.4649,-9.3804 254.6897,-2.8919 34.3869,8.1955 123.7985,36.2564 148.5278,70.4396 24.7295,34.183 32.65,77.03 22.1937,107.4417 -10.456,30.4114 -48.4593,59.7088 -80.7903,68.8562 -32.3309,9.1475 -231.4538,14.1158 -268.115,4.7936 -36.6611,-9.3221 -96.544,-14.4613 -127.14279,-38.0317 -31.02125,-23.8955 -47.03739,-47.2678 -46.44399,-91.8979 z"
       id="path3373"
       inkscape:connector-curvature="0"
       sodipodi:nodetypes="zsssssssz" />
    <path
       style="color:#000000;display:inline;overflow:visible;visibility:visible;fill:#ffffff;fill-opacity:1;fill-rule:nonzero;stroke:none;stroke-width:1px;marker:none;enable-background:accumulate"
       d="m 1353.1045,1486.1109 c -17.6743,6.4442 -35.9622,13.4942 -56.6916,8.7928 -5.9074,-1.4988 -12.0586,-3.5824 -17.8157,-7.536 -5.6534,-5.6714 -8.1342,-14.8796 -7.7374,-22.3553 -0.038,-11.0732 3.5645,-21.3765 -0.132,-33.3984 -2.8396,-8.7238 -9.889,-13.0983 -15.6943,-17.3851 -14.8818,-10.591 -30.3953,-18.9029 -44.5591,-32.1972 -16.4134,-13.8335 -33.2388,-29.725 -44.6315,-51.3879 -4.4162,-8.6329 -8.2604,-18.1551 -8.7808,-27.4678 -2.1762,-24.1255 6.2222,-46.2462 22.341,-52.6796 10.8776,-2.6518 26.1352,8.6451 30.8391,24.9803 2.5746,8.6101 0.6371,16.5032 -2.7594,21.9348 -4.4219,12.1322 -2.2192,29.1384 4.6177,43.565 5.515,11.975 19.9292,13.9114 28.768,21.8543 10.6917,14.3128 22.5926,18.8565 35.242,26.2872 5.7643,3.498 17.2268,13.0885 21.8547,19.5004 5.3367,10.6553 3.6397,23.8849 1.2988,32.7032 -2.2102,9.2491 -6.7566,13.924 -2.6636,25.5015 2.0954,8.2407 10.4347,11.3429 15.4067,14.2225 16.3541,6.7626 22.9447,11.3822 37.3062,7.063 1.3135,-0.5605 2.5522,-1.2752 3.7912,-1.9972 z"
       id="path4496"
       inkscape:connector-curvature="0"
       sodipodi:nodetypes="cccccccccccccccccccccc" />
    <path
       style="color:#000000;display:inline;overflow:visible;visibility:visible;fill:#ffffff;fill-opacity:1;fill-rule:nonzero;stroke:none;stroke-width:1px;marker:none;enable-background:accumulate"
       d="m 391.02755,1750.4783 c -7.87244,16.8439 -52.27414,18.2563 -68.61963,14.8325 32.94874,18.8431 31.80005,30.5506 -12.93504,32.3684 75.02151,33.9602 13.71494,28.8212 1.62265,37.4326 58.90577,11.7033 32.55073,26.2686 22.06346,40.7678 67.70636,0.4981 45.54916,23.7401 48.40285,42.2509 5.73985,-8.6861 33.00837,-35.1304 34.64912,-5.6864 44.78382,-28.0911 98.72475,-46.2366 103.00783,2.9231 18.04415,-24.731 36.03415,-35.1833 34.64909,-5.6866 44.70777,-38.364 84.8839,-24.5547 125.29811,-13.7116 10.61459,-11.5793 11.8514,-29.3682 46.19207,-25.1995 -4.81497,-11.4771 6.77989,-19.3663 32.9649,-24.0513 -34.79574,-6.933 -41.20847,-14.0841 23.39941,-21.7799 -49.16281,-0.7444 -95.00748,-2.2695 -37.3288,-28.5144 -18.0954,-0.6352 -61.02864,21.2643 -41.01147,-42.8249 -31.11606,20.5173 -64.31411,31.8413 -105.94744,-11.137 -19.70301,21.4711 -53.87743,32.0959 -68.745,5.2768 -5.3437,11.4334 -27.5015,15.7334 -46.31187,16.2548 -7.274,-4.5416 -14.77629,-10.7102 -22.60525,-18.7922 -12.79584,16.9699 -31.93697,28.4306 -68.74499,5.2769 z"
       id="path3549-3-7"
       inkscape:connector-curvature="0"
       sodipodi:nodetypes="cccccccccccccccccccc" />
    <path
       style="color:#000000;display:inline;overflow:visible;visibility:visible;fill:#ffffff;fill-opacity:1;fill-rule:nonzero;stroke:none;stroke-width:1px;marker:none;enable-background:accumulate"
       d="m 430.70936,1891.093 c 19.02745,-18.4868 179.64067,-38.5534 236.09041,-0.4556 56.44976,38.0977 22.20976,83.8149 -10.1795,98.3613 -32.38918,14.5463 -127.70599,30.4781 -171.20001,18.0098 -43.4941,-12.4684 -77.37324,-31.1061 -79.58491,-69.2685 -0.90269,-15.5757 5.84652,-28.16 24.87401,-46.647 z"
       id="path4040"
       inkscape:connector-curvature="0"
       sodipodi:nodetypes="zssssz" />
    <path
       style="fill:#ffffff;fill-rule:evenodd;stroke:none;stroke-width:1px;stroke-linecap:butt;stroke-linejoin:miter;stroke-opacity:1"
       d="m 1714.2654,2080.7017 c 84.2926,8.4181 101.7865,32.4194 119.9299,8.2333 13.6724,-32.3165 73.9597,-7.8033 80.1837,-16.9339 13.3752,-19.6213 -23.6159,-28.5877 -14.9153,-48.4748 8.7006,-19.887 29.8306,-43.5029 29.8306,-43.5029 l 16.1582,9.9435 c 0,0 -26.2419,26.5691 -24.999,37.7556 1.2429,11.1864 26.242,48.0074 3.869,56.708 -22.3729,8.7006 -76.8117,-7.6784 -88.6225,17.2796 -11.8107,24.9579 -83.1478,-13.4558 -121.4346,-21.0084 z"
       id="path4407"
       inkscape:connector-curvature="0"
       sodipodi:nodetypes="ccssccsszc" />
    <path
       style="color:#000000;display:inline;overflow:visible;visibility:visible;fill:#ffffff;fill-opacity:1;fill-rule:nonzero;stroke:none;stroke-width:1px;marker:none;enable-background:accumulate"
       d="m 666.6939,1912.014 c 38.36403,14.2827 84.86956,27.5154 96.07851,29.8219 -4.37169,-11.6312 -5.81209,-22.2337 -7.1164,-30.5082 20.64043,5.7806 115.57926,37.1569 135.10867,51.9928 -46.72733,-38.0638 -117.47092,-65.994 -151.73555,-73.3007 -0.59494,10.8648 0.83117,17.7165 0.34378,23.4081 -17.19324,-2.942 -71.86892,-22.6256 -71.86892,-22.6256 z"
       id="path5066"
       inkscape:connector-curvature="0"
       inkscape:transform-center-x="-112.42356"
       inkscape:transform-center-y="21.85935" />
    <path
       style="fill:#ffffff;stroke:none"
       d="m 361.85637,2342.1368 c 1.57552,-55.1279 61.39019,-63.2247 101.74306,-60.8217 33.55164,1.9981 162.57825,-11.9117 199.34893,38.4094 15.70159,21.4878 13.15781,77.5661 -8.66672,100.9098 -18.61117,19.9066 -52.44021,20.5191 -93.66728,26.7507 -51.19165,7.7377 -124.57656,-5.8877 -164.78359,-15.8346 -18.9266,-4.6823 -35.54999,-34.2859 -33.9744,-89.4136 z"
       id="path3100"
       inkscape:connector-curvature="0"
       sodipodi:nodetypes="zsssssz" />
    <path
       style="color:#000000;display:inline;overflow:visible;visibility:visible;fill:#ffffff;fill-opacity:1;fill-rule:nonzero;stroke:none;stroke-width:1px;marker:none;enable-background:accumulate"
       d="m 463.53219,2538.1609 c -2.89667,-104.8768 117.01495,-93.636 202.37612,-101.8159 46.58619,-4.4642 215.65267,7.2219 231.72226,100.2665 9.25641,53.5964 -48.1387,99.3594 -70.87767,107.407 -22.73882,8.0475 -132.61473,18.4846 -167.98034,16.0322 -35.36546,-2.4523 -198.66524,19.0292 -195.24037,-121.8898 z"
       id="path4974"
       inkscape:connector-curvature="0"
       sodipodi:nodetypes="cssssc" />
    <path
       style="fill:#ffffff;fill-rule:evenodd;stroke:none;stroke-width:1px;stroke-linecap:butt;stroke-linejoin:miter;stroke-opacity:1"
       d="m 1237.025,3033.6211 c -25.9077,-74.9353 -135.8732,-262.1385 -253.0276,-244.8772 -71.26981,10.5007 -133.59485,24.8303 -156.2354,-60.7422 -5.53435,-9.3115 -79.49392,-55.5178 -68.47418,-45.6614 73.55047,108.3097 57.38616,155.8485 221.82078,126.0514 132.8264,-23.6523 255.9164,225.2294 255.9164,225.2294 z"
       id="path4652"
       inkscape:connector-curvature="0"
       sodipodi:nodetypes="cscccc" />
    <path
       style="fill:#ffffff;stroke:none"
       d="m 741.48504,2691.2302 c 1.61184,-72.9761 62.80791,-83.6944 104.09276,-80.5134 34.3265,2.6451 166.3329,-15.7682 203.9528,50.8448 16.0642,28.4448 13.4617,102.679 -8.8668,133.5804 -19.0411,26.3517 -53.65129,27.1624 -95.83054,35.4116 -52.3739,10.2428 -127.45369,-7.7939 -168.58921,-20.9613 -19.36378,-6.1982 -36.37106,-45.3862 -34.75901,-118.3621 z"
       id="path3100-7"
       inkscape:connector-curvature="0"
       sodipodi:nodetypes="zsssssz" />
    <path
       style="color:#000000;display:inline;overflow:visible;visibility:visible;fill:#ffffff;fill-opacity:1;fill-rule:nonzero;stroke:none;stroke-width:1px;marker:none;enable-background:accumulate"
       d="m 516.05388,579.84113 c 29.0547,-24.99351 280.59506,-40.10316 347.22141,0.97204 55.61211,34.2849 33.91412,119.66652 -15.54401,139.33257 -49.45797,19.66611 -213.98671,17.38347 -286.09593,8.46738 -68.65789,-8.48937 -80.18672,-34.11348 -83.56393,-85.70747 -1.37835,-21.05751 8.92762,-38.07093 37.98246,-63.06452 z"
       id="path4040-4-3"
       inkscape:connector-curvature="0"
       sodipodi:nodetypes="zssssz" />
  </g>
  <g
     inkscape:groupmode="layer"
     id="layer1"
     inkscape:label="txt">
    <text
       xml:space="preserve"
       style="font-style:normal;font-variant:normal;font-weight:normal;font-stretch:normal;font-size:12px;line-height:125%;font-family:Lavi;-inkscape-font-specification:Lavi;text-align:center;letter-spacing:0px;word-spacing:0px;text-anchor:middle;fill:#000000;fill-opacity:1;stroke:none"
       x="515.20721"
       y="218.80753"
       id="text4246"
       sodipodi:linespacing="125%"><tspan
         sodipodi:role="line"
         style="font-size:45px"
         x="515.20721"
         y="218.80753"
         id="tspan4337">Ya son unas adultas,</tspan><tspan
         sodipodi:role="line"
         style="font-size:45px"
         x="515.20721"
         y="275.05753"
         id="tspan4206">y éste momento es el adecuado</tspan><tspan
         sodipodi:role="line"
         style="font-size:45px"
         x="515.20721"
         y="331.30753"
         id="tspan4208">para una buena lección.</tspan></text>
    <text
       xml:space="preserve"
       style="font-style:normal;font-variant:normal;font-weight:normal;font-stretch:normal;font-size:12px;line-height:125%;font-family:Lavi;-inkscape-font-specification:Lavi;text-align:center;letter-spacing:0px;word-spacing:0px;text-anchor:middle;fill:#000000;fill-opacity:1;stroke:none"
       x="560.0976"
       y="412.5907"
       id="text4246-9"
       sodipodi:linespacing="125%"><tspan
         sodipodi:role="line"
         style="font-size:45px"
         x="568.00775"
         y="412.5907"
         id="tspan4199">Propongo una </tspan><tspan
         sodipodi:role="line"
         style="font-size:45px"
         x="560.0976"
         y="468.8407"
         id="tspan4212">reunión con</tspan></text>
    <text
       xml:space="preserve"
       style="font-style:normal;font-variant:normal;font-weight:normal;font-stretch:normal;font-size:12px;line-height:125%;font-family:Lavi;-inkscape-font-specification:Lavi;text-align:center;letter-spacing:0px;word-spacing:0px;text-anchor:middle;fill:#000000;fill-opacity:1;stroke:none"
       x="865.90961"
       y="1049.8156"
       id="text4246-9-6"
       sodipodi:linespacing="125%"><tspan
         sodipodi:role="line"
         style="font-size:45px"
         x="865.90961"
         y="1049.8156"
         id="tspan4183-4">¡Je Je!</tspan></text>
    <text
       xml:space="preserve"
       style="font-style:normal;font-variant:normal;font-weight:normal;font-stretch:normal;font-size:12px;line-height:125%;font-family:Lavi;-inkscape-font-specification:Lavi;text-align:center;letter-spacing:0px;word-spacing:0px;text-anchor:middle;fill:#000000;fill-opacity:1;stroke:none"
       x="1064.9307"
       y="1114.152"
       id="text4246-9-6-2"
       sodipodi:linespacing="125%"><tspan
         sodipodi:role="line"
         style="font-size:45px"
         x="1064.9307"
         y="1114.152"
         id="tspan4183-4-1">¿ El Sabio ?</tspan></text>
    <text
       xml:space="preserve"
       style="font-style:normal;font-variant:normal;font-weight:normal;font-stretch:normal;font-size:12px;line-height:125%;font-family:Lavi;-inkscape-font-specification:Lavi;text-align:center;letter-spacing:0px;word-spacing:0px;text-anchor:middle;fill:#000000;fill-opacity:1;stroke:none"
       x="1183.0669"
       y="1191.4316"
       id="text4246-9-6-2-4"
       sodipodi:linespacing="125%"><tspan
         sodipodi:role="line"
         style="font-size:45px"
         x="1183.0669"
         y="1191.4316"
         id="tspan4279">¿ Pero no crees</tspan><tspan
         sodipodi:role="line"
         style="font-size:45px"
         x="1190.9771"
         y="1247.6816"
         id="tspan4223">que son muy jovencitas </tspan><tspan
         sodipodi:role="line"
         style="font-size:45px"
         x="1183.0669"
         y="1303.9316"
         id="tspan4225">para enteder su</tspan><tspan
         sodipodi:role="line"
         style="font-size:45px"
         x="1183.0669"
         y="1360.1816"
         id="tspan4227">sabiduria ?</tspan></text>
    <text
       xml:space="preserve"
       style="font-style:normal;font-variant:normal;font-weight:normal;font-stretch:normal;font-size:12px;line-height:125%;font-family:Lavi;-inkscape-font-specification:Lavi;text-align:center;letter-spacing:0px;word-spacing:0px;text-anchor:middle;fill:#000000;fill-opacity:1;stroke:none"
       x="523.88593"
       y="1812.2123"
       id="text4246-9-6-2-4-7"
       sodipodi:linespacing="125%"><tspan
         sodipodi:role="line"
         style="font-size:45px"
         x="523.88593"
         y="1812.2123"
         id="tspan4347">¡¿Jovencitas,</tspan><tspan
         sodipodi:role="line"
         style="font-size:45px"
         x="523.88593"
         y="1868.4623"
         id="tspan4231">desde cuando!?</tspan></text>
    <text
       xml:space="preserve"
       style="font-style:normal;font-variant:normal;font-weight:normal;font-stretch:normal;font-size:15.14146233px;line-height:125%;font-family:Lavi;-inkscape-font-specification:Lavi;text-align:center;letter-spacing:0px;word-spacing:0px;text-anchor:middle;fill:#000000;fill-opacity:1;stroke:none"
       x="571.94482"
       y="1884.8735"
       id="text4246-9-6-2-4-7-3"
       sodipodi:linespacing="125%"
       transform="scale(0.96046588,1.0411614)"><tspan
         sodipodi:role="line"
         style="font-size:56.78048325px"
         x="571.94482"
         y="1884.8735"
         id="tspan4359">¡Vámonos!</tspan></text>
    <path
       style="color:#000000;display:inline;overflow:visible;visibility:visible;fill:#ffffff;fill-opacity:1;fill-rule:nonzero;stroke:none;stroke-width:1px;marker:none;enable-background:accumulate"
       d="m 1872.7705,2022.7077 c -30.5898,-12.4706 -41.2963,-24.0506 -38.2371,-31.1767 3.0589,-7.126 30.5895,-43.6472 64.2382,-48.1011 33.6487,-4.4538 120.8293,-9.7983 140.7127,-5.3445 19.8834,4.4538 76.4744,33.8489 76.4744,48.9918 0,15.143 -10.7065,44.5382 -41.2963,53.4457 -30.5896,8.9076 -165.1844,14.2523 -201.8919,-17.8152 z"
       id="path3349"
       inkscape:connector-curvature="0" />
    <text
       xml:space="preserve"
       style="font-style:normal;font-variant:normal;font-weight:normal;font-stretch:normal;font-size:12px;line-height:125%;font-family:Lavi;-inkscape-font-specification:Lavi;text-align:center;letter-spacing:0px;word-spacing:0px;text-anchor:middle;fill:#000000;fill-opacity:1;stroke:none"
       x="1973.4449"
       y="2006.0446"
       id="text4246-9-6-2-4-7-38"
       sodipodi:linespacing="125%"><tspan
         sodipodi:role="line"
         style="font-size:45px"
         x="1973.4449"
         y="2006.0446"
         id="tspan4364-4">¿Vámo-nos?</tspan></text>
    <text
       xml:space="preserve"
       style="font-style:normal;font-variant:normal;font-weight:normal;font-stretch:normal;font-size:12px;line-height:125%;font-family:Lavi;-inkscape-font-specification:Lavi;text-align:center;letter-spacing:0px;word-spacing:0px;text-anchor:middle;fill:#000000;fill-opacity:1;stroke:none"
       x="508.82184"
       y="2348.1084"
       id="text4246-9-6-2-4-7-3-4-8-5"
       sodipodi:linespacing="125%"><tspan
         sodipodi:role="line"
         style="font-size:45px"
         x="508.82184"
         y="2348.1084"
         id="tspan4297">Bueno, aquí</tspan><tspan
         sodipodi:role="line"
         style="font-size:45px"
         x="508.82184"
         y="2404.3584"
         id="tspan4235">estamos,</tspan><tspan
         sodipodi:role="line"
         style="font-size:45px"
         x="508.82184"
         y="2460.6084"
         id="tspan4251" /></text>
    <text
       xml:space="preserve"
       style="font-style:normal;font-variant:normal;font-weight:normal;font-stretch:normal;font-size:12px;line-height:125%;font-family:Lavi;-inkscape-font-specification:Lavi;text-align:center;letter-spacing:0px;word-spacing:0px;text-anchor:middle;fill:#000000;fill-opacity:1;stroke:none"
       x="673.87122"
       y="2446.0745"
       id="text4246-9-6-2-4-7-3-4-8-5-3"
       sodipodi:linespacing="125%"><tspan
         sodipodi:role="line"
         style="font-size:45px"
         x="673.87122"
         y="2446.0745"
         id="tspan4580-41" /><tspan
         sodipodi:role="line"
         style="font-size:45px"
         x="673.87122"
         y="2502.3245"
         id="tspan4236">Ésta es su</tspan><tspan
         sodipodi:role="line"
         style="font-size:45px"
         x="673.87122"
         y="2558.5745"
         id="tspan4213">gran opurtinidad de</tspan><tspan
         sodipodi:role="line"
         style="font-size:45px"
         x="673.87122"
         y="2614.8245"
         id="tspan4215">conocer al Sabio.</tspan><tspan
         sodipodi:role="line"
         style="font-size:45px"
         x="673.87122"
         y="2671.0745"
         id="tspan4251-3" /></text>
    <text
       xml:space="preserve"
       style="font-style:normal;font-variant:normal;font-weight:normal;font-stretch:normal;font-size:12px;line-height:125%;font-family:Lavi;-inkscape-font-specification:Lavi;text-align:center;letter-spacing:0px;word-spacing:0px;text-anchor:middle;fill:#000000;fill-opacity:1;stroke:none"
       x="906.10101"
       y="2700.7542"
       id="text4246-9-6-2-4-7-3-4-8-5-3-2"
       sodipodi:linespacing="125%"><tspan
         sodipodi:role="line"
         style="font-size:45px"
         x="906.10101"
         y="2700.7542"
         id="tspan4251-3-4">Está justo</tspan><tspan
         sodipodi:role="line"
         style="font-size:45px"
         x="906.10101"
         y="2757.0042"
         id="tspan4255">al llegar a la</tspan><tspan
         sodipodi:role="line"
         style="font-size:45px"
         x="906.10101"
         y="2813.2542"
         id="tspan4257">cima.</tspan></text>
    <path
       style="fill:#ffffff;fill-rule:evenodd;stroke:none;stroke-width:1px;stroke-linecap:butt;stroke-linejoin:miter;stroke-opacity:1"
       d="m 1582.6875,3119.4738 c 29.9497,65.5224 41.8031,60.4909 47.1294,30.0122 8.2971,11.0211 9.5695,43.3168 34.4781,4.027 14.5091,28.5744 26.6497,24.9438 36.8493,-5.0742 25.1301,54.1529 41.5127,22.9105 55.6756,10.8477 34.7375,30.3142 131.5747,35.0321 174.6408,-3.9544 8.7556,13.9277 21.14,33.8757 29.7394,4.9428 12.305,12.1791 29.183,-4.7723 49.1399,-41.3384 -2.9488,23.7947 -16.7433,64.3406 10.9024,40.8797 2.8756,17.0096 0.011,39.5072 58.9192,2.9427 -17.7568,48.4386 32.1213,-0.8275 80.4407,-47.842 -30.6391,41.0085 -72.4077,91.4525 -20.9654,75.0138 -29.3351,34.3511 -30.3053,57.2402 54.7326,45.3739 -55.7753,21.855 -98.4239,45.0556 -38.9851,78.7237 -37.3938,-0.9324 -46.6973,9.4602 -5.9317,40.039 -57.9701,-20.2556 -62.7921,-10.9393 -48.3227,9.1108 -11.933,0.3254 -32.6754,-16.6353 -30.6158,11.1477 -32.3966,-17.5396 -76.6452,-55.3389 -72.5721,-10.5391 -33.4497,-34.414 -39.4538,-22.0955 -43.7051,-6.7926 -59.5401,-52.0175 -52.2386,-20.9672 -63.9673,-13.5668 -17.1464,-19.2382 -16.9645,-3.4666 -14.0948,17.7351 -16.3428,-22.4795 -31.3414,-31.1547 -42.8952,-4.4474 -10.267,-12.368 -20.2535,-29.8866 -32.6076,-3.9334 -14.1888,-14.182 -29.3077,-19.8309 -48.4479,11.4096 -7.6102,-18.8971 -19.0745,-32.508 -58.6688,-7.54 -6.718,-40.5341 -40.3726,-34.0262 -82.7971,-12.2024 1.6839,-23.8104 -1.3808,-39.4578 -45.8924,16.147 9.4578,-24.3123 20.196,-49.94 -6.414,-37.1984 17.3328,-46.5166 -44.708,-5.3246 -81.0554,7.476 41.8143,-39.0106 102.8346,-86.403 54.387,-86.0215 33.7361,-27.001 37.4595,-40.5096 9.6727,-39.8521 2.4115,-8.3529 36.4312,-23.6559 -1.5537,-23.1263 20.2428,-11.3569 49.7733,-8.0504 42.785,-62.3997 z"
       id="path4656"
       inkscape:connector-curvature="0"
       sodipodi:nodetypes="ccccccccccccccccccccccccccccccccc" />
    <path
       style="fill:#ffffff;fill-rule:evenodd;stroke:none;stroke-width:1px;stroke-linecap:butt;stroke-linejoin:miter;stroke-opacity:1"
       d="m 1395.9187,3167.1846 119.1853,69.1782 -1.1569,-33.8487 82.9076,45.0833 5.0953,-29.1891 -103.505,-45.5434 0.025,38.633 z"
       id="path4667"
       inkscape:connector-curvature="0"
       inkscape:transform-center-x="75.322047"
       inkscape:transform-center-y="-6.237049" />
    <text
       xml:space="preserve"
       style="font-style:normal;font-variant:normal;font-weight:normal;font-stretch:normal;font-size:12px;line-height:125%;font-family:Lavi;-inkscape-font-specification:Lavi;text-align:center;letter-spacing:0px;word-spacing:0px;text-anchor:middle;fill:#000000;fill-opacity:1;stroke:none"
       x="1835.1417"
       y="3240.0801"
       id="text4246-9-6-2-4-7-3-4-8-5-9"
       sodipodi:linespacing="125%"><tspan
         sodipodi:role="line"
         style="font-size:45px"
         x="1835.1417"
         y="3240.0801"
         id="tspan4445">¿Están listas para aprender</tspan></text>
    <text
       xml:space="preserve"
       style="font-style:normal;font-variant:normal;font-weight:normal;font-stretch:normal;font-size:10.62674809px;line-height:125%;font-family:Lavi;-inkscape-font-specification:Lavi;text-align:center;letter-spacing:0px;word-spacing:0px;text-anchor:middle;fill:#000000;fill-opacity:1;stroke:#000000;stroke-width:1.59401214;stroke-miterlimit:4;stroke-dasharray:none;stroke-opacity:1"
       x="2601.3948"
       y="2954.1624"
       id="text4246-6-6-6-3-9"
       sodipodi:linespacing="125%"
       transform="matrix(0.89466356,0,-0.16927076,1.1177386,0,0)"><tspan
         sodipodi:role="line"
         style="font-size:53.13374329px;stroke:#000000;stroke-width:1.59401214;stroke-miterlimit:4;stroke-dasharray:none;stroke-opacity:1"
         x="2610.7346"
         y="2954.1624"
         id="tspan4182-3-7">una buena lección? </tspan></text>
    <text
       xml:space="preserve"
       style="font-style:normal;font-variant:normal;font-weight:normal;font-stretch:normal;font-size:10.28139114px;line-height:125%;font-family:Lavi;-inkscape-font-specification:Lavi;text-align:center;letter-spacing:0px;word-spacing:0px;text-anchor:middle;fill:#000000;fill-opacity:1;stroke:#000000;stroke-width:1.54220855;stroke-miterlimit:4;stroke-dasharray:none;stroke-opacity:1"
       x="708.45795"
       y="491.92728"
       id="text4246-6-6-6-3-9-0"
       sodipodi:linespacing="125%"
       transform="matrix(0.92481111,0,-0.17497469,1.0813019,0,0)"><tspan
         sodipodi:role="line"
         style="font-size:51.40695572px;stroke:#000000;stroke-width:1.54220855;stroke-miterlimit:4;stroke-dasharray:none;stroke-opacity:1"
         x="708.45795"
         y="491.92728"
         id="tspan4182-3-7-6">El Sabio de la montaña.</tspan></text>
    <text
       xml:space="preserve"
       style="font-style:normal;font-variant:normal;font-weight:normal;font-stretch:normal;font-size:12px;line-height:125%;font-family:Lavi;-inkscape-font-specification:Lavi;text-align:center;letter-spacing:0px;word-spacing:0px;text-anchor:middle;fill:#000000;fill-opacity:1;stroke:none"
       x="698.46021"
       y="636.0462"
       id="text4246-9-9"
       sodipodi:linespacing="125%"><tspan
         sodipodi:role="line"
         style="font-size:45px"
         x="698.46021"
         y="636.0462"
         id="tspan4506">Sus enseñanzas</tspan><tspan
         sodipodi:role="line"
         style="font-size:45px"
         x="698.46021"
         y="692.2962"
         id="tspan4216">son esenciales.</tspan></text>
  </g>
</svg>
