<?xml version="1.0" encoding="UTF-8" standalone="no"?>
<!-- Created with Inkscape (http://www.inkscape.org/) -->

<svg
   xmlns:dc="http://purl.org/dc/elements/1.1/"
   xmlns:cc="http://creativecommons.org/ns#"
   xmlns:rdf="http://www.w3.org/1999/02/22-rdf-syntax-ns#"
   xmlns:svg="http://www.w3.org/2000/svg"
   xmlns="http://www.w3.org/2000/svg"
   xmlns:xlink="http://www.w3.org/1999/xlink"
   xmlns:sodipodi="http://sodipodi.sourceforge.net/DTD/sodipodi-0.dtd"
   xmlns:inkscape="http://www.inkscape.org/namespaces/inkscape"
   id="svg2"
   version="1.1"
   inkscape:version="0.91 r13725"
   width="2481"
   height="3503"
   sodipodi:docname="Pepper-and-Carrot_by-David-Revoy_E16P02.svg">
  <metadata
     id="metadata8">
    <rdf:RDF>
      <cc:Work
         rdf:about="">
        <dc:format>image/svg+xml</dc:format>
        <dc:type
           rdf:resource="http://purl.org/dc/dcmitype/StillImage" />
        <dc:title />
      </cc:Work>
    </rdf:RDF>
  </metadata>
  <defs
     id="defs6" />
  <sodipodi:namedview
     pagecolor="#ffffff"
     bordercolor="#666666"
     borderopacity="1"
     objecttolerance="10"
     gridtolerance="10"
     guidetolerance="10"
     inkscape:pageopacity="0"
     inkscape:pageshadow="2"
     inkscape:window-width="1920"
     inkscape:window-height="1046"
     id="namedview4"
     showgrid="false"
     inkscape:zoom="0.46"
     inkscape:cx="1332.0945"
     inkscape:cy="229.79074"
     inkscape:window-x="0"
     inkscape:window-y="0"
     inkscape:window-maximized="1"
     inkscape:current-layer="layer3" />
  <g
     inkscape:groupmode="layer"
     id="layer2"
     inkscape:label="artwork"
     sodipodi:insensitive="true">
    <image
       sodipodi:absref="/home/rjq/Arts and Craft/Translation P&amp;C/GIT/peppercarrot_ep16_translation/mx/../gfx_Pepper-and-Carrot_by-David-Revoy_E16P02.png"
       xlink:href="../gfx_Pepper-and-Carrot_by-David-Revoy_E16P02.png"
       y="0"
       x="0"
       id="image10"
       height="3503"
       width="2481" />
  </g>
  <g
     inkscape:groupmode="layer"
     id="layer3"
     inkscape:label="speechbubbles">
    <path
       style="fill:#ffffff;fill-rule:evenodd;stroke:none;stroke-width:1px;stroke-linecap:butt;stroke-linejoin:miter;stroke-opacity:1"
       d="m 159.47183,1204.4941 c 8.4673,-30.5523 31.2689,-53.7332 56.0849,-69.2079 11.8098,-7.471 25.3086,-12.9459 39.1219,-11.5058 13.7227,0.8605 27.1264,5.9979 41.0009,4.2135 16.871,-0.5894 34.0382,-3.1608 50.7155,0.5135 14.8255,4.0092 30.1,6.0856 45.3989,6.206 10.7929,-2.5448 20.6691,4.2379 30.3078,8.2947 8.6531,4.3821 17.4915,8.9796 24.7596,15.758 6.6961,9.5154 14.7138,17.7936 21.4881,27.2243 4.4326,5.1557 4.0067,12.2771 3.8025,18.8678 -0.5757,13.4964 -1.5506,27.2058 -5.1691,40.2084 -2.1654,8.2549 -10.1691,10.9868 -16.319,14.7801 -14.5516,8.0076 -30.0035,14.08 -43.8912,23.5033 -13.7587,4.8251 -28.3804,2.5682 -42.4906,1.839 -11.8234,-1.4363 -23.7171,-3.4392 -35.6421,-1.7689 -15.1777,1.2223 -30.3093,4.3872 -45.5413,3.9818 -19.0815,-2.7818 -37.3564,-9.6313 -55.848,-15.1258 -16.5903,-4.8429 -31.711,-13.9495 -46.2197,-23.6913 -7.75,-5.532 -15.9543,-11.9621 -18.6894,-22.1569 -2.2421,-7.02 -2.7704,-14.5367 -2.8697,-21.9338 z"
       id="path4365"
       inkscape:connector-curvature="0" />
    <path
       style="fill:#ffffff;stroke:none"
       d="m 526.05317,1332.6787 c -30.94804,-5.9742 -33.65755,-15.3739 -35.85896,-26.3529 -2.20164,-10.979 -2.97755,-21.2157 -9.14413,-25.0411 -6.16635,-3.8252 -15.85979,-4.8779 -23.17719,-4.6934 -7.31743,0.1844 -5.29357,-9.0401 -8.28411,-16.1281 -2.99067,-7.0881 -31.76642,-37.2963 -31.76642,-37.2963 0,0 -1.64154,31.4089 0.94371,41.0513 2.58502,9.6423 3.48097,13.1815 5.57556,16.7304 2.09482,3.5489 8.54676,11.5174 16.06913,13.2832 7.52237,1.7658 15.47204,-0.2404 21.46624,-0.192 5.99426,0.048 8.9236,8.3554 12.37845,16.2997 3.45476,7.9444 7.26292,13.1493 20.83234,18.6149 11.63149,4.6851 30.96538,3.7243 30.96538,3.7243 z"
       id="path3023-2"
       inkscape:connector-curvature="0"
       sodipodi:nodetypes="csssscssssssc" />
    <path
       style="color:#000000;display:inline;overflow:visible;visibility:visible;fill:#ffffff;fill-opacity:1;fill-rule:nonzero;stroke:none;stroke-width:1px;marker:none;enable-background:accumulate"
       d="m 1376.0536,1388.6264 c -57.0687,-55.1723 -50.9543,-162.7581 -34.6488,-187.5855 16.3053,-24.8275 38.725,-62.0686 116.1755,-62.0686 77.4503,0 615.5265,-26.2068 695.015,31.7241 79.4884,57.9308 77.4504,158.6197 8.1527,226.2057 -69.2977,67.5858 -440.2442,53.7929 -440.2442,53.7929 0,0 -256.809,8.2758 -344.4502,-62.0686 z"
       id="path3992"
       inkscape:connector-curvature="0" />
    <path
       style="fill:#ffffff;stroke:none"
       d="m 1752.165,1511.1983 c -2.2485,-38.2437 38.0657,-133.9831 234.7158,-126.7818 196.6502,7.2012 258.1986,49.2679 263.9614,117.2462 9.1162,107.5396 -94.3413,136.2779 -242.8968,144.2432 -153.1448,8.2116 -258.1572,-65.6073 -255.7804,-134.7076 z"
       id="path3280-8"
       inkscape:connector-curvature="0"
       sodipodi:nodetypes="csssc" />
    <path
       style="color:#000000;display:inline;overflow:visible;visibility:visible;fill:#ffffff;fill-opacity:1;fill-rule:nonzero;stroke:none;stroke-width:1px;marker:none;enable-background:accumulate"
       d="m 1219.1793,1379.025 c 11.1145,-52.0341 49.4885,-48.0105 61.0024,-50.7043 11.5139,-2.6938 53.2465,-12.1003 59.6337,-55.0276 6.3873,-42.9274 50.5704,-62.6224 50.5704,-62.6224 l -8.1471,64.4127 c 0,0 -26.1867,43.4877 -51.8954,55.4317 -25.7088,11.9439 -66.72,11.6091 -78.3208,20.0382 -11.601,8.429 -26.2997,13.0823 -32.8432,28.4717 z"
       id="path4018"
       inkscape:connector-curvature="0" />
    <path
       style="color:#000000;display:inline;overflow:visible;visibility:visible;fill:#ffffff;fill-opacity:1;fill-rule:nonzero;stroke:none;stroke-width:1px;marker:none;enable-background:accumulate"
       d="M 221.43945,197.48784 C 225.74483,122.88885 267.06082,78.680011 467.01365,81.754231 632.29584,84.295391 713.11196,103.73769 705.46197,199.64957 694.84288,332.78635 555.04181,310.59438 457.10735,318.43093 392.77788,316.65876 223.51334,333.49284 221.43945,197.48784 Z"
       id="path4546"
       inkscape:connector-curvature="0"
       sodipodi:nodetypes="csscc" />
    <path
       style="color:#000000;display:inline;overflow:visible;visibility:visible;fill:#ffffff;fill-opacity:1;fill-rule:nonzero;stroke:none;stroke-width:1px;marker:none;enable-background:accumulate"
       d="m 1104.7539,424.02144 c -3.7103,104.60606 -58.806,187.22868 -302.35081,181.83633 -201.31557,-4.45733 -302.29601,-49.80122 -303.02717,-184.87898 -0.91226,-168.5341 211.80295,-146.5486 320.64829,-146.59032 78.3701,2.83323 283.96549,-9.87233 284.72969,149.63297 z"
       id="path4546-3"
       inkscape:connector-curvature="0"
       sodipodi:nodetypes="csscc" />
    <path
       style="color:#000000;display:inline;overflow:visible;visibility:visible;fill:#ffffff;fill-opacity:1;fill-rule:nonzero;stroke:none;stroke-width:1px;marker:none;enable-background:accumulate"
       d="m 1212.2695,581.74978 c -67.2618,20.68446 -152.2854,0.78987 -192.165,-42.94991 -39.87945,-43.73978 14.3178,-40.84093 14.3178,-40.84093 0,0 77.3502,101.9849 177.8472,83.79084 z"
       id="path5002"
       inkscape:connector-curvature="0"
       sodipodi:nodetypes="cscc" />
    <path
       style="fill:#ffffff;fill-rule:evenodd;stroke:none;stroke-width:1px;stroke-linecap:butt;stroke-linejoin:miter;stroke-opacity:1"
       d="m 92.946023,2111.1525 21.020917,15.8405 5.157,-20.5319 12.46568,6.2031 -7.47941,-71.7585 27.42449,66.0918 2.49314,-17.186 11.21912,23.3009 32.51916,-11.8586 6.12443,-57.5014 13.71224,48.6378 9.97255,-20.5514 7.04582,26.3875 c 0,0 1.68015,5.5947 14.14581,3.2932 12.46569,-2.3014 126.58459,7.7557 149.58814,26.245 l 20.51678,10.3557 20.14659,-15.0121 -5.75946,24.86 42.28014,-42.694 -24.35483,55.3614 16.0039,-10.1108 -7.78407,21.5704 c 0,0 3.77248,12.0219 7.51218,17.4265 36.15047,47.0463 53.69667,154.0307 60.10748,176.7334 l 27.42449,-3.8685 -18.6985,13.8298 c 8.15991,6.5803 37.49033,17.1538 99.38321,-10.5795 0,0 -57.27208,44.823 -96.95853,40.4769 -8.54016,5.1282 35.12552,15.4198 35.12552,15.4198 l -47.56498,6.715 -5.21628,48.0453 34.9039,17.3689 -39.89017,-8.5105 33.65732,41.5534 -41.78465,-10.0269 -4.31018,26.2277 -6.85965,9.6124 c -14.39194,11.5297 -35.1171,36.9738 -54.38732,42.5964 0,4.2521 20.87676,46.9661 20.87676,46.9661 l -46.43466,-28.1994 21.50329,34.2197 -50.23562,-28.9342 -12.83091,-0.3892 -7.47941,3.3653 c -38.6436,25.4193 -128.05098,10.8511 -143.0098,7.6597 -1.24657,0.089 -16.20537,40.8374 -16.20537,40.8374 l -6.86668,-35.8618 -10.58527,14.4206 -6.21173,-9.7151 -45.59741,66.218 15.9198,-78.413 -32.13532,32.5132 4.79322,-44.426 -24.96199,32.0386 4.40873,-40.9138 -14.381276,4.7677 z"
       id="path4603"
       inkscape:connector-curvature="0"
       sodipodi:nodetypes="cccccccccccccsscccccccccccccccccccccccccccccccccccccccccc" />
    <path
       style="color:#000000;display:inline;overflow:visible;visibility:visible;fill:#ffffff;fill-opacity:1;fill-rule:nonzero;stroke:none;stroke-width:1px;marker:none;enable-background:accumulate"
       d="m 911.57297,2905.1862 c 26.15941,-35.2543 82.16095,-65.5675 156.19513,-78.8643 74.0341,-13.2967 211.5557,-12.838 235.7905,-9.3658 24.2346,3.4721 157.3586,15.071 186.5886,34.2365 29.2299,19.1652 68.7814,42.8654 77.7025,67.9563 8.9214,25.0909 2.8452,86.0066 -23.7889,99.9521 -26.6342,13.9453 -148.5752,45.553 -220.0518,48.5351 -71.4766,2.9823 -237.9994,-6.3821 -285.5577,-14.1337 -47.55828,-7.7516 -97.95553,-17.8163 -113.43039,-45.1473 -15.47501,-27.331 -44.14549,-63.0881 -13.44794,-103.1689 z"
       id="path3533"
       inkscape:connector-curvature="0" />
    <path
       style="fill:#ffffff;stroke:none"
       d="m 1665.3162,3027.9651 c -45.7195,6.3375 -53.9298,-5.1776 -62.1848,-19.0773 -8.2551,-13.8997 -14.1828,-27.4561 -24.5416,-29.7762 -10.3587,-2.3201 -24.2907,0.778 -34.3436,4.4479 -10.0531,3.6701 -16.0502,-4.3086 -23.5544,-12.549 -7.5042,-8.2404 -57.2715,-41.3793 -57.2715,-41.3793 0,0 12.6136,43.4743 20.7667,55.3773 8.1531,11.903 11.0722,16.2967 15.6572,20.1434 4.5852,3.8466 17.3035,11.6669 28.565,10.553 11.2614,-1.1138 21.3268,-7.5562 29.6567,-10.2912 8.3298,-2.7351 21.007,2.5425 29.5605,11.7303 8.5534,9.1878 31.1188,27.0998 49.1012,23.41 17.9825,-3.6897 28.5886,-12.5889 28.5886,-12.5889 z"
       id="path3023"
       inkscape:connector-curvature="0"
       sodipodi:nodetypes="csssscssssssc" />
  </g>
  <g
     inkscape:groupmode="layer"
     id="layer1"
     inkscape:label="txt"
     style="display:inline">
    <text
       xml:space="preserve"
       style="font-style:normal;font-variant:normal;font-weight:normal;font-stretch:normal;font-size:12px;line-height:125%;font-family:Lavi;-inkscape-font-specification:Lavi;text-align:center;letter-spacing:0px;word-spacing:0px;text-anchor:middle;fill:#000000;fill-opacity:1;stroke:none"
       x="797.43359"
       y="273.2934"
       id="text4246-4"
       sodipodi:linespacing="125%"><tspan
         sodipodi:role="line"
         style="font-size:45px"
         x="797.43359"
         y="273.2934"
         id="tspan4253" /><tspan
         sodipodi:role="line"
         style="font-size:45px"
         x="797.43359"
         y="329.5434"
         id="tspan4259">No me gusta jugar de</tspan><tspan
         sodipodi:role="line"
         style="font-size:45px"
         x="797.43359"
         y="385.7934"
         id="tspan4210">mediadora, aún si es por</tspan><tspan
         sodipodi:role="line"
         style="font-size:45px"
         x="805.34375"
         y="442.0434"
         id="tspan4326">una amiga. Al final de la </tspan><tspan
         sodipodi:role="line"
         style="font-size:45px"
         x="797.43359"
         y="498.2934"
         id="tspan4226">historia siempre soy yo la</tspan><tspan
         sodipodi:role="line"
         style="font-size:45px"
         x="797.43359"
         y="554.5434"
         id="tspan4228">que termina en mal.</tspan></text>
    <text
       xml:space="preserve"
       style="font-style:normal;font-variant:normal;font-weight:normal;font-stretch:normal;font-size:12px;line-height:125%;font-family:Lavi;-inkscape-font-specification:Lavi;text-align:center;letter-spacing:0px;word-spacing:0px;text-anchor:middle;fill:#000000;fill-opacity:1;stroke:none"
       x="459.47992"
       y="166.86148"
       id="text4246-42"
       sodipodi:linespacing="125%"><tspan
         sodipodi:role="line"
         style="font-size:45px"
         x="459.47992"
         y="166.86148"
         id="tspan4251">Ésto es algo que</tspan><tspan
         sodipodi:role="line"
         style="font-size:45px"
         x="459.47992"
         y="223.11148"
         id="tspan4192">solamente tu debes</tspan><tspan
         sodipodi:role="line"
         style="font-size:45px"
         x="467.39008"
         y="279.36148"
         id="tspan4194">hacer. </tspan></text>
    <text
       xml:space="preserve"
       style="font-style:normal;font-variant:normal;font-weight:normal;font-stretch:normal;font-size:12px;line-height:125%;font-family:Lavi;-inkscape-font-specification:Lavi;text-align:center;letter-spacing:0px;word-spacing:0px;text-anchor:middle;fill:#000000;fill-opacity:1;stroke:none"
       x="319.94739"
       y="1146.3477"
       id="text4246-4-3"
       sodipodi:linespacing="125%"><tspan
         sodipodi:role="line"
         style="font-size:45px"
         x="319.94739"
         y="1146.3477"
         id="tspan4253-3" /><tspan
         sodipodi:role="line"
         style="font-size:45px"
         x="319.94739"
         y="1202.5977"
         id="tspan4261-5">Por favorcito</tspan><tspan
         sodipodi:role="line"
         style="font-size:45px"
         x="319.94739"
         y="1258.8477"
         id="tspan4324">Azafrán...</tspan></text>
    <text
       xml:space="preserve"
       style="font-style:normal;font-variant:normal;font-weight:normal;font-stretch:normal;font-size:12px;line-height:125%;font-family:Lavi;-inkscape-font-specification:Lavi;text-align:center;letter-spacing:0px;word-spacing:0px;text-anchor:middle;fill:#000000;fill-opacity:1;stroke:none"
       x="1773.2704"
       y="1194.2112"
       id="text4246-4-3-5"
       sodipodi:linespacing="125%"><tspan
         sodipodi:role="line"
         style="font-size:45px"
         x="1773.2704"
         y="1194.2112"
         id="tspan4261-5-3">Mis madrinas  no me enseñan nada,</tspan><tspan
         sodipodi:role="line"
         style="font-size:45px"
         x="1781.1805"
         y="1250.4612"
         id="tspan4322">nomas se adueñaron de mi casa, y </tspan><tspan
         sodipodi:role="line"
         style="font-size:45px"
         x="1773.2704"
         y="1306.7112"
         id="tspan4234">se la pasan quejandose de sus</tspan><tspan
         sodipodi:role="line"
         style="font-size:45px"
         x="1773.2704"
         y="1362.9612"
         id="tspan4236">espaldas y hosamentas, gritandome</tspan><tspan
         sodipodi:role="line"
         style="font-size:45px"
         x="1773.2704"
         y="1419.2112"
         id="tspan4238">por todo lo que hago...</tspan></text>
    <text
       xml:space="preserve"
       style="font-style:normal;font-variant:normal;font-weight:normal;font-stretch:normal;font-size:12px;line-height:125%;font-family:Lavi;-inkscape-font-specification:Lavi;text-align:center;letter-spacing:0px;word-spacing:0px;text-anchor:middle;fill:#000000;fill-opacity:1;stroke:none"
       x="307.47659"
       y="2188.1069"
       id="text4246-4-3-4"
       sodipodi:linespacing="125%"><tspan
         sodipodi:role="line"
         style="font-size:45px"
         x="307.47659"
         y="2188.1069"
         id="tspan4356">¡Pero si</tspan><tspan
         sodipodi:role="line"
         style="font-size:45px"
         x="307.47659"
         y="2244.3569"
         id="tspan4260">eres una Bruja,</tspan><tspan
         sodipodi:role="line"
         style="font-size:45px"
         x="307.47659"
         y="2300.6069"
         id="tspan4262">actúa como tal!</tspan></text>
    <text
       xml:space="preserve"
       style="font-style:normal;font-variant:normal;font-weight:normal;font-stretch:normal;font-size:12px;line-height:125%;font-family:Lavi;-inkscape-font-specification:Lavi;text-align:center;letter-spacing:0px;word-spacing:0px;text-anchor:middle;fill:#000000;fill-opacity:1;stroke:none"
       x="306.3063"
       y="2450.332"
       id="text4246-4-3-4-7"
       sodipodi:linespacing="125%"><tspan
         sodipodi:role="line"
         style="font-size:45px"
         x="306.3063"
         y="2450.332"
         id="tspan4253-3-4-4" /><tspan
         sodipodi:role="line"
         style="font-size:45px"
         x="306.3063"
         y="2506.582"
         id="tspan4438">¡Como toda una</tspan><tspan
         sodipodi:role="line"
         style="font-size:45px"
         x="314.21646"
         y="2562.832"
         id="tspan4270">chica adulta! </tspan></text>
    <text
       xml:space="preserve"
       style="font-style:normal;font-variant:normal;font-weight:normal;font-stretch:normal;font-size:12px;line-height:125%;font-family:Lavi;-inkscape-font-specification:Lavi;text-align:center;letter-spacing:0px;word-spacing:0px;text-anchor:middle;fill:#000000;fill-opacity:1;stroke:none"
       x="306.69199"
       y="2317.5803"
       id="text4246-4-3-4-7-0"
       sodipodi:linespacing="125%"><tspan
         sodipodi:role="line"
         style="font-size:45px"
         x="306.69199"
         y="2317.5803"
         id="tspan4253-3-4-4-0" /><tspan
         sodipodi:role="line"
         style="font-size:45px"
         x="306.69199"
         y="2373.8303"
         id="tspan4434">¡Háblales</tspan><tspan
         sodipodi:role="line"
         style="font-size:45px"
         x="314.60214"
         y="2430.0803"
         id="tspan4266">Directamente! </tspan></text>
    <text
       xml:space="preserve"
       style="font-style:normal;font-variant:normal;font-weight:normal;font-stretch:normal;font-size:12px;line-height:125%;font-family:Lavi;-inkscape-font-specification:Lavi;text-align:center;letter-spacing:0px;word-spacing:0px;text-anchor:middle;fill:#000000;fill-opacity:1;stroke:none"
       x="2012.5074"
       y="1485.0845"
       id="text4246-4-3-5-1"
       sodipodi:linespacing="125%"><tspan
         sodipodi:role="line"
         style="font-size:45px"
         x="2012.5074"
         y="1485.0845"
         id="tspan4482">¿No podrías... solo</tspan><tspan
         sodipodi:role="line"
         style="font-size:45px"
         x="2020.4176"
         y="1541.3345"
         id="tspan4245">acompañarme para </tspan><tspan
         sodipodi:role="line"
         style="font-size:45px"
         x="2012.5074"
         y="1597.5845"
         id="tspan4247">hablar con ellas?...</tspan></text>
    <text
       xml:space="preserve"
       style="font-style:normal;font-variant:normal;font-weight:normal;font-stretch:normal;font-size:12px;line-height:125%;font-family:Lavi;-inkscape-font-specification:Lavi;text-align:center;letter-spacing:0px;word-spacing:0px;text-anchor:middle;fill:#000000;fill-opacity:1;stroke:none"
       x="1237.3781"
       y="2902.0603"
       id="text4246-4-3-5-1-7"
       sodipodi:linespacing="125%"><tspan
         sodipodi:role="line"
         style="font-size:45px"
         x="1237.3781"
         y="2902.0603"
         id="tspan4515">De acuerdo, bien,</tspan><tspan
         sodipodi:role="line"
         style="font-size:45px"
         x="1237.3781"
         y="2958.3103"
         id="tspan4277">te acompaño, de todos modos</tspan><tspan
         sodipodi:role="line"
         style="font-size:45px"
         x="1237.3781"
         y="3014.5603"
         id="tspan4279">no creo que pase nada.</tspan></text>
    <flowRoot
       xml:space="preserve"
       id="flowRoot4216"
       style="fill:black;stroke:none;stroke-opacity:1;stroke-width:1px;stroke-linejoin:miter;stroke-linecap:butt;fill-opacity:1;font-family:'Noto Sans';font-style:normal;font-weight:normal;font-size:12px;line-height:125%;letter-spacing:0px;word-spacing:0px;-inkscape-font-specification:'Noto Sans, Normal';font-stretch:normal;font-variant:normal;text-anchor:start;text-align:start;writing-mode:lr"><flowRegion
         id="flowRegion4218"><rect
           id="rect4220"
           width="45.652172"
           height="19.565218"
           x="773.91302"
           y="437.78262" /></flowRegion><flowPara
         id="flowPara4222" /></flowRoot>  </g>
</svg>
